<?xml version="1.0" encoding="UTF-8"?>
<svg width="341px" height="127px" viewBox="0 0 341 127" version="1.1" xmlns="http://www.w3.org/2000/svg" xmlns:xlink="http://www.w3.org/1999/xlink">
    <!-- Generator: Sketch 63.1 (92452) - https://sketch.com -->
    <title>quote-1</title>
    <desc>Created with Sketch.</desc>
    <defs>
        <path d="M21.982,40.578 C23.1726667,40.578 24.144,40.1863333 24.896,39.403 C25.648,38.6196667 26.024,37.57 26.024,36.254 C26.024,35.0633333 25.6323333,34.1233333 24.849,33.434 C24.0656667,32.7446667 23.11,32.4 21.982,32.4 C21.7626667,32.4 21.606,32.4156667 21.512,32.447 C21.512,31.037 21.888,29.8541667 22.64,28.8985 C23.392,27.9428333 24.52,27.136 26.024,26.478 L26.024,26.478 L24.332,23 C21.8253333,24.1906667 19.9766667,25.6868333 18.786,27.4885 C17.5953333,29.2901667 17,31.366 17,33.716 C17,35.878 17.4151667,37.5621667 18.2455,38.7685 C19.0758333,39.9748333 20.3213333,40.578 21.982,40.578 Z M34.202,40.578 C35.3926667,40.578 36.364,40.1863333 37.116,39.403 C37.868,38.6196667 38.244,37.57 38.244,36.254 C38.244,35.0633333 37.8523333,34.1233333 37.069,33.434 C36.2856667,32.7446667 35.33,32.4 34.202,32.4 C33.9826667,32.4 33.826,32.4156667 33.732,32.447 C33.732,31.037 34.108,29.8541667 34.86,28.8985 C35.612,27.9428333 36.74,27.136 38.244,26.478 L38.244,26.478 L36.552,23 C34.0453333,24.1906667 32.1966667,25.6868333 31.006,27.4885 C29.8153333,29.2901667 29.22,31.366 29.22,33.716 C29.22,35.878 29.6351667,37.5621667 30.4655,38.7685 C31.2958333,39.9748333 32.5413333,40.578 34.202,40.578 Z" id="path-1"></path>
    </defs>
    <g id="Central-Buy-Flow" stroke="none" stroke-width="1" fill="none" fill-rule="evenodd">
        <g id="Central-Buy-Flow---Mobile" transform="translate(-35.000000, -2308.000000)">
            <g id="Stacked-Group">
                <g id="Step-Copy" transform="translate(15.000000, 2284.000000)">
                    <g id="Stacked-Group" transform="translate(20.000000, 24.000000)">
                        <g id="quote-1">
                            <rect id="Rectangle" fill="#FFFFFF" x="0" y="0" width="341" height="127"></rect>
                            <path d="M87.56,43.136 C87.9653333,43.136 88.296,43.0026667 88.552,42.736 C88.808,42.4693333 88.936,42.112 88.936,41.664 C88.936,41.2586667 88.8026667,40.9386667 88.536,40.704 C88.2693333,40.4693333 87.944,40.352 87.56,40.352 C87.4853333,40.352 87.432,40.3573333 87.4,40.368 C87.4,39.888 87.528,39.4853333 87.784,39.16 C88.04,38.8346667 88.424,38.56 88.936,38.336 L88.936,38.336 L88.36,37.152 C87.5066667,37.5573333 86.8773333,38.0666667 86.472,38.68 C86.0666667,39.2933333 85.864,40 85.864,40.8 C85.864,41.536 86.0053333,42.1093333 86.288,42.52 C86.5706667,42.9306667 86.9946667,43.136 87.56,43.136 Z M91.72,43.136 C92.1253333,43.136 92.456,43.0026667 92.712,42.736 C92.968,42.4693333 93.096,42.112 93.096,41.664 C93.096,41.2586667 92.9626667,40.9386667 92.696,40.704 C92.4293333,40.4693333 92.104,40.352 91.72,40.352 C91.6453333,40.352 91.592,40.3573333 91.56,40.368 C91.56,39.888 91.688,39.4853333 91.944,39.16 C92.2,38.8346667 92.584,38.56 93.096,38.336 L93.096,38.336 L92.52,37.152 C91.6666667,37.5573333 91.0373333,38.0666667 90.632,38.68 C90.2266667,39.2933333 90.024,40 90.024,40.8 C90.024,41.536 90.1653333,42.1093333 90.448,42.52 C90.7306667,42.9306667 91.1546667,43.136 91.72,43.136 Z M98.184,48 L98.184,37.6 L95.432,37.6 L95.432,48 L98.184,48 Z M106.376,48.192 C106.728,48.192 107.082667,48.1066667 107.44,47.936 C107.797333,47.7653333 108.114667,47.5413333 108.392,47.264 L108.392,47.264 L108.456,47.264 L108.648,48 L110.888,48 L110.888,36.864 L108.136,36.864 L108.136,39.456 L108.232,40.608 C107.986667,40.3626667 107.725333,40.168 107.448,40.024 C107.170667,39.88 106.813333,39.808 106.376,39.808 C105.970667,39.808 105.570667,39.904 105.176,40.096 C104.781333,40.288 104.432,40.5626667 104.128,40.92 C103.824,41.2773333 103.578667,41.7173333 103.392,42.24 C103.205333,42.7626667 103.112,43.3493333 103.112,44 C103.112,44.6506667 103.189333,45.2346667 103.344,45.752 C103.498667,46.2693333 103.717333,46.7093333 104,47.072 C104.282667,47.4346667 104.624,47.712 105.024,47.904 C105.424,48.096 105.874667,48.192 106.376,48.192 Z M107.112,45.952 C106.738667,45.952 106.448,45.8026667 106.24,45.504 C106.032,45.2053333 105.928,44.6933333 105.928,43.968 C105.928,43.264 106.042667,42.768 106.272,42.48 C106.501333,42.192 106.76,42.048 107.048,42.048 C107.229333,42.048 107.416,42.0746667 107.608,42.128 C107.8,42.1813333 107.976,42.2826667 108.136,42.432 L108.136,42.432 L108.136,45.376 C107.986667,45.6 107.832,45.752 107.672,45.832 C107.512,45.912 107.325333,45.952 107.112,45.952 Z M114.12,39.008 C114.568,39.008 114.936,38.88 115.224,38.624 C115.512,38.368 115.656,38.0373333 115.656,37.632 C115.656,37.2266667 115.512,36.896 115.224,36.64 C114.936,36.384 114.568,36.256 114.12,36.256 C113.672,36.256 113.304,36.384 113.016,36.64 C112.728,36.896 112.584,37.2266667 112.584,37.632 C112.584,38.0373333 112.728,38.368 113.016,38.624 C113.304,38.88 113.672,39.008 114.12,39.008 Z M115.496,48 L115.496,40 L112.744,40 L112.744,48 L115.496,48 Z M120.264,48.192 C120.616,48.192 120.970667,48.1066667 121.328,47.936 C121.685333,47.7653333 122.002667,47.5413333 122.28,47.264 L122.28,47.264 L122.344,47.264 L122.536,48 L124.776,48 L124.776,36.864 L122.024,36.864 L122.024,39.456 L122.12,40.608 C121.874667,40.3626667 121.613333,40.168 121.336,40.024 C121.058667,39.88 120.701333,39.808 120.264,39.808 C119.858667,39.808 119.458667,39.904 119.064,40.096 C118.669333,40.288 118.32,40.5626667 118.016,40.92 C117.712,41.2773333 117.466667,41.7173333 117.28,42.24 C117.093333,42.7626667 117,43.3493333 117,44 C117,44.6506667 117.077333,45.2346667 117.232,45.752 C117.386667,46.2693333 117.605333,46.7093333 117.888,47.072 C118.170667,47.4346667 118.512,47.712 118.912,47.904 C119.312,48.096 119.762667,48.192 120.264,48.192 Z M121,45.952 C120.626667,45.952 120.336,45.8026667 120.128,45.504 C119.92,45.2053333 119.816,44.6933333 119.816,43.968 C119.816,43.264 119.930667,42.768 120.16,42.48 C120.389333,42.192 120.648,42.048 120.936,42.048 C121.117333,42.048 121.304,42.0746667 121.496,42.128 C121.688,42.1813333 121.864,42.2826667 122.024,42.432 L122.024,42.432 L122.024,45.376 C121.874667,45.6 121.72,45.752 121.56,45.832 C121.4,45.912 121.213333,45.952 121,45.952 Z M129.384,48 L129.384,42.752 C129.597333,42.56 129.789333,42.4106667 129.96,42.304 C130.130667,42.1973333 130.344,42.144 130.6,42.144 C130.877333,42.144 131.08,42.2293333 131.208,42.4 C131.336,42.5706667 131.4,42.912 131.4,43.424 L131.4,43.424 L131.4,48 L134.152,48 L134.152,43.072 C134.152,42.08 133.954667,41.288 133.56,40.696 C133.165333,40.104 132.530667,39.808 131.656,39.808 C131.112,39.808 130.634667,39.9226667 130.224,40.152 C129.813333,40.3813333 129.448,40.6506667 129.128,40.96 L129.128,40.96 L129.064,40.96 L128.872,40 L126.632,40 L126.632,48 L129.384,48 Z M136.456,42.848 C137.309333,42.4426667 137.938667,41.9333333 138.344,41.32 C138.749333,40.7066667 138.952,40 138.952,39.2 C138.952,38.464 138.810667,37.8906667 138.528,37.48 C138.245333,37.0693333 137.821333,36.864 137.256,36.864 C136.850667,36.864 136.52,36.9973333 136.264,37.264 C136.008,37.5306667 135.88,37.888 135.88,38.336 C135.88,38.7413333 136.013333,39.0613333 136.28,39.296 C136.546667,39.5306667 136.872,39.648 137.256,39.648 C137.330667,39.648 137.384,39.6426667 137.416,39.632 C137.416,40.112 137.288,40.5146667 137.032,40.84 C136.776,41.1653333 136.392,41.44 135.88,41.664 L135.88,41.664 L136.456,42.848 Z M144.04,48.192 C144.488,48.192 144.861333,48.16 145.16,48.096 C145.458667,48.032 145.714667,47.968 145.928,47.904 L145.928,47.904 L145.512,45.92 C145.416,45.952 145.306667,45.9813333 145.184,46.008 C145.061333,46.0346667 144.936,46.048 144.808,46.048 C144.552,46.048 144.328,45.9653333 144.136,45.8 C143.944,45.6346667 143.848,45.328 143.848,44.88 L143.848,44.88 L143.848,42.144 L145.672,42.144 L145.672,40 L143.848,40 L143.848,37.92 L141.576,37.92 L141.256,40 L140.04,40.096 L140.04,42.144 L141.096,42.144 L141.096,44.928 C141.096,45.4186667 141.152,45.864 141.264,46.264 C141.376,46.664 141.552,47.008 141.792,47.296 C142.032,47.584 142.336,47.8053333 142.704,47.96 C143.072,48.1146667 143.517333,48.192 144.04,48.192 Z M152.808,48.192 C153.362667,48.192 153.853333,48.1253333 154.28,47.992 C154.706667,47.8586667 155.064,47.672 155.352,47.432 C155.64,47.192 155.858667,46.9093333 156.008,46.584 C156.157333,46.2586667 156.232,45.9093333 156.232,45.536 C156.232,45.1733333 156.170667,44.8613333 156.048,44.6 C155.925333,44.3386667 155.765333,44.1146667 155.568,43.928 C155.370667,43.7413333 155.149333,43.584 154.904,43.456 C154.658667,43.328 154.418667,43.2213333 154.184,43.136 C153.981333,43.0613333 153.789333,42.9946667 153.608,42.936 C153.426667,42.8773333 153.266667,42.816 153.128,42.752 C152.989333,42.688 152.88,42.6186667 152.8,42.544 C152.72,42.4693333 152.68,42.3786667 152.68,42.272 C152.68,41.9733333 152.914667,41.824 153.384,41.824 C153.629333,41.824 153.890667,41.8826667 154.168,42 C154.445333,42.1173333 154.728,42.2826667 155.016,42.496 L155.016,42.496 L156.232,40.864 C155.88,40.5973333 155.466667,40.3546667 154.992,40.136 C154.517333,39.9173333 153.949333,39.808 153.288,39.808 C152.818667,39.808 152.389333,39.8693333 152,39.992 C151.610667,40.1146667 151.277333,40.288 151,40.512 C150.722667,40.736 150.506667,41.008 150.352,41.328 C150.197333,41.648 150.12,42.0053333 150.12,42.4 C150.12,42.7306667 150.181333,43.0213333 150.304,43.272 C150.426667,43.5226667 150.584,43.744 150.776,43.936 C150.968,44.128 151.184,44.2906667 151.424,44.424 C151.664,44.5573333 151.901333,44.672 152.136,44.768 C152.338667,44.8533333 152.530667,44.928 152.712,44.992 C152.893333,45.056 153.056,45.1226667 153.2,45.192 C153.344,45.2613333 153.458667,45.336 153.544,45.416 C153.629333,45.496 153.672,45.5893333 153.672,45.696 C153.672,45.856 153.610667,45.976 153.488,46.056 C153.365333,46.136 153.16,46.176 152.872,46.176 C152.296,46.176 151.645333,45.9093333 150.92,45.376 L150.92,45.376 L149.704,47.072 C150.12,47.4133333 150.613333,47.6853333 151.184,47.888 C151.754667,48.0906667 152.296,48.192 152.808,48.192 Z M161.288,48.192 C161.736,48.192 162.224,48.1146667 162.752,47.96 C163.28,47.8053333 163.762667,47.5733333 164.2,47.264 L164.2,47.264 L163.304,45.632 C163.016,45.792 162.741333,45.912 162.48,45.992 C162.218667,46.072 161.949333,46.112 161.672,46.112 C161.224,46.112 160.834667,46.0186667 160.504,45.832 C160.173333,45.6453333 159.944,45.312 159.816,44.832 L159.816,44.832 L164.376,44.832 C164.397333,44.736 164.421333,44.5813333 164.448,44.368 C164.474667,44.1546667 164.488,43.9253333 164.488,43.68 C164.488,43.1466667 164.416,42.6453333 164.272,42.176 C164.128,41.7066667 163.912,41.296 163.624,40.944 C163.336,40.592 162.973333,40.3146667 162.536,40.112 C162.098667,39.9093333 161.586667,39.808 161,39.808 C160.509333,39.808 160.034667,39.904 159.576,40.096 C159.117333,40.288 158.709333,40.5653333 158.352,40.928 C157.994667,41.2906667 157.706667,41.7306667 157.488,42.248 C157.269333,42.7653333 157.16,43.3493333 157.16,44 C157.16,44.6613333 157.266667,45.2533333 157.48,45.776 C157.693333,46.2986667 157.984,46.7386667 158.352,47.096 C158.72,47.4533333 159.154667,47.7253333 159.656,47.912 C160.157333,48.0986667 160.701333,48.192 161.288,48.192 Z M162.152,43.04 L159.784,43.04 C159.869333,42.6346667 160.026667,42.3413333 160.256,42.16 C160.485333,41.9786667 160.754667,41.888 161.064,41.888 C161.48,41.888 161.765333,42.0026667 161.92,42.232 C162.074667,42.4613333 162.152,42.7306667 162.152,43.04 L162.152,43.04 Z M169.704,48.192 C170.152,48.192 170.64,48.1146667 171.168,47.96 C171.696,47.8053333 172.178667,47.5733333 172.616,47.264 L172.616,47.264 L171.72,45.632 C171.432,45.792 171.157333,45.912 170.896,45.992 C170.634667,46.072 170.365333,46.112 170.088,46.112 C169.64,46.112 169.250667,46.0186667 168.92,45.832 C168.589333,45.6453333 168.36,45.312 168.232,44.832 L168.232,44.832 L172.792,44.832 C172.813333,44.736 172.837333,44.5813333 172.864,44.368 C172.890667,44.1546667 172.904,43.9253333 172.904,43.68 C172.904,43.1466667 172.832,42.6453333 172.688,42.176 C172.544,41.7066667 172.328,41.296 172.04,40.944 C171.752,40.592 171.389333,40.3146667 170.952,40.112 C170.514667,39.9093333 170.002667,39.808 169.416,39.808 C168.925333,39.808 168.450667,39.904 167.992,40.096 C167.533333,40.288 167.125333,40.5653333 166.768,40.928 C166.410667,41.2906667 166.122667,41.7306667 165.904,42.248 C165.685333,42.7653333 165.576,43.3493333 165.576,44 C165.576,44.6613333 165.682667,45.2533333 165.896,45.776 C166.109333,46.2986667 166.4,46.7386667 166.768,47.096 C167.136,47.4533333 167.570667,47.7253333 168.072,47.912 C168.573333,48.0986667 169.117333,48.192 169.704,48.192 Z M170.568,43.04 L168.2,43.04 C168.285333,42.6346667 168.442667,42.3413333 168.672,42.16 C168.901333,41.9786667 169.170667,41.888 169.48,41.888 C169.896,41.888 170.181333,42.0026667 170.336,42.232 C170.490667,42.4613333 170.568,42.7306667 170.568,43.04 L170.568,43.04 Z M182.056,48.192 C182.482667,48.192 182.896,48.096 183.296,47.904 C183.696,47.712 184.050667,47.432 184.36,47.064 C184.669333,46.696 184.917333,46.2426667 185.104,45.704 C185.290667,45.1653333 185.384,44.5493333 185.384,43.856 C185.384,43.248 185.309333,42.6933333 185.16,42.192 C185.010667,41.6906667 184.8,41.264 184.528,40.912 C184.256,40.56 183.928,40.288 183.544,40.096 C183.16,39.904 182.733333,39.808 182.264,39.808 C181.912,39.808 181.565333,39.8773333 181.224,40.016 C180.882667,40.1546667 180.573333,40.352 180.296,40.608 L180.296,40.608 L180.36,39.456 L180.36,36.864 L177.608,36.864 L177.608,48 L179.752,48 L179.976,47.136 L180.04,47.136 C180.349333,47.488 180.674667,47.752 181.016,47.928 C181.357333,48.104 181.704,48.192 182.056,48.192 Z M181.384,45.952 C181.202667,45.952 181.026667,45.9253333 180.856,45.872 C180.685333,45.8186667 180.52,45.7173333 180.36,45.568 L180.36,45.568 L180.36,42.624 C180.541333,42.4106667 180.714667,42.2613333 180.88,42.176 C181.045333,42.0906667 181.234667,42.048 181.448,42.048 C181.821333,42.048 182.101333,42.192 182.288,42.48 C182.474667,42.768 182.568,43.2426667 182.568,43.904 C182.568,44.672 182.450667,45.2053333 182.216,45.504 C181.981333,45.8026667 181.704,45.952 181.384,45.952 Z M188.264,39.008 C188.712,39.008 189.08,38.88 189.368,38.624 C189.656,38.368 189.8,38.0373333 189.8,37.632 C189.8,37.2266667 189.656,36.896 189.368,36.64 C189.08,36.384 188.712,36.256 188.264,36.256 C187.816,36.256 187.448,36.384 187.16,36.64 C186.872,36.896 186.728,37.2266667 186.728,37.632 C186.728,38.0373333 186.872,38.368 187.16,38.624 C187.448,38.88 187.816,39.008 188.264,39.008 Z M189.64,48 L189.64,40 L186.888,40 L186.888,48 L189.64,48 Z M193.96,48.192 C194.269333,48.192 194.533333,48.1706667 194.752,48.128 C194.970667,48.0853333 195.154667,48.032 195.304,47.968 L195.304,47.968 L194.984,45.952 C194.92,45.9733333 194.869333,45.984 194.832,45.984 L194.832,45.984 L194.696,45.984 C194.6,45.984 194.501333,45.936 194.4,45.84 C194.298667,45.744 194.248,45.5573333 194.248,45.28 L194.248,45.28 L194.248,36.864 L191.496,36.864 L191.496,45.184 C191.496,45.632 191.536,46.04 191.616,46.408 C191.696,46.776 191.832,47.0933333 192.024,47.36 C192.216,47.6266667 192.469333,47.832 192.784,47.976 C193.098667,48.12 193.490667,48.192 193.96,48.192 Z M198.728,48.192 C199.037333,48.192 199.301333,48.1706667 199.52,48.128 C199.738667,48.0853333 199.922667,48.032 200.072,47.968 L200.072,47.968 L199.752,45.952 C199.688,45.9733333 199.637333,45.984 199.6,45.984 L199.6,45.984 L199.464,45.984 C199.368,45.984 199.269333,45.936 199.168,45.84 C199.066667,45.744 199.016,45.5573333 199.016,45.28 L199.016,45.28 L199.016,36.864 L196.264,36.864 L196.264,45.184 C196.264,45.632 196.304,46.04 196.384,46.408 C196.464,46.776 196.6,47.0933333 196.792,47.36 C196.984,47.6266667 197.237333,47.832 197.552,47.976 C197.866667,48.12 198.258667,48.192 198.728,48.192 Z M204.744,48.192 C205.192,48.192 205.68,48.1146667 206.208,47.96 C206.736,47.8053333 207.218667,47.5733333 207.656,47.264 L207.656,47.264 L206.76,45.632 C206.472,45.792 206.197333,45.912 205.936,45.992 C205.674667,46.072 205.405333,46.112 205.128,46.112 C204.68,46.112 204.290667,46.0186667 203.96,45.832 C203.629333,45.6453333 203.4,45.312 203.272,44.832 L203.272,44.832 L207.832,44.832 C207.853333,44.736 207.877333,44.5813333 207.904,44.368 C207.930667,44.1546667 207.944,43.9253333 207.944,43.68 C207.944,43.1466667 207.872,42.6453333 207.728,42.176 C207.584,41.7066667 207.368,41.296 207.08,40.944 C206.792,40.592 206.429333,40.3146667 205.992,40.112 C205.554667,39.9093333 205.042667,39.808 204.456,39.808 C203.965333,39.808 203.490667,39.904 203.032,40.096 C202.573333,40.288 202.165333,40.5653333 201.808,40.928 C201.450667,41.2906667 201.162667,41.7306667 200.944,42.248 C200.725333,42.7653333 200.616,43.3493333 200.616,44 C200.616,44.6613333 200.722667,45.2533333 200.936,45.776 C201.149333,46.2986667 201.44,46.7386667 201.808,47.096 C202.176,47.4533333 202.610667,47.7253333 203.112,47.912 C203.613333,48.0986667 204.157333,48.192 204.744,48.192 Z M205.608,43.04 L203.24,43.04 C203.325333,42.6346667 203.482667,42.3413333 203.712,42.16 C203.941333,41.9786667 204.210667,41.888 204.52,41.888 C204.936,41.888 205.221333,42.0026667 205.376,42.232 C205.530667,42.4613333 205.608,42.7306667 205.608,43.04 L205.608,43.04 Z M212.36,48.192 C212.712,48.192 213.066667,48.1066667 213.424,47.936 C213.781333,47.7653333 214.098667,47.5413333 214.376,47.264 L214.376,47.264 L214.44,47.264 L214.632,48 L216.872,48 L216.872,36.864 L214.12,36.864 L214.12,39.456 L214.216,40.608 C213.970667,40.3626667 213.709333,40.168 213.432,40.024 C213.154667,39.88 212.797333,39.808 212.36,39.808 C211.954667,39.808 211.554667,39.904 211.16,40.096 C210.765333,40.288 210.416,40.5626667 210.112,40.92 C209.808,41.2773333 209.562667,41.7173333 209.376,42.24 C209.189333,42.7626667 209.096,43.3493333 209.096,44 C209.096,44.6506667 209.173333,45.2346667 209.328,45.752 C209.482667,46.2693333 209.701333,46.7093333 209.984,47.072 C210.266667,47.4346667 210.608,47.712 211.008,47.904 C211.408,48.096 211.858667,48.192 212.36,48.192 Z M213.096,45.952 C212.722667,45.952 212.432,45.8026667 212.224,45.504 C212.016,45.2053333 211.912,44.6933333 211.912,43.968 C211.912,43.264 212.026667,42.768 212.256,42.48 C212.485333,42.192 212.744,42.048 213.032,42.048 C213.213333,42.048 213.4,42.0746667 213.592,42.128 C213.784,42.1813333 213.96,42.2826667 214.12,42.432 L214.12,42.432 L214.12,45.376 C213.970667,45.6 213.816,45.752 213.656,45.832 C213.496,45.912 213.309333,45.952 213.096,45.952 Z M224.008,48.192 C224.445333,48.192 224.842667,48.104 225.2,47.928 C225.557333,47.752 225.896,47.52 226.216,47.232 L226.216,47.232 L226.28,47.232 L226.472,48 L228.712,48 L228.712,43.552 C228.712,42.24 228.416,41.288 227.824,40.696 C227.232,40.104 226.418667,39.808 225.384,39.808 C224.754667,39.808 224.152,39.8986667 223.576,40.08 C223,40.2613333 222.429333,40.5226667 221.864,40.864 L221.864,40.864 L222.824,42.656 C223.24,42.432 223.608,42.264 223.928,42.152 C224.248,42.04 224.552,41.984 224.84,41.984 C225.522667,41.984 225.896,42.2613333 225.96,42.816 C224.424,42.976 223.314667,43.2933333 222.632,43.768 C221.949333,44.2426667 221.608,44.896 221.608,45.728 C221.608,46.0586667 221.661333,46.3733333 221.768,46.672 C221.874667,46.9706667 222.032,47.232 222.24,47.456 C222.448,47.68 222.701333,47.8586667 223,47.992 C223.298667,48.1253333 223.634667,48.192 224.008,48.192 Z M224.968,46.08 C224.477333,46.08 224.232,45.888 224.232,45.504 C224.232,45.28 224.354667,45.072 224.6,44.88 C224.845333,44.688 225.298667,44.544 225.96,44.448 L225.96,44.448 L225.96,45.536 C225.810667,45.696 225.664,45.8266667 225.52,45.928 C225.376,46.0293333 225.192,46.08 224.968,46.08 Z M233.256,48 L233.256,42.752 C233.469333,42.56 233.661333,42.4106667 233.832,42.304 C234.002667,42.1973333 234.216,42.144 234.472,42.144 C234.749333,42.144 234.952,42.2293333 235.08,42.4 C235.208,42.5706667 235.272,42.912 235.272,43.424 L235.272,43.424 L235.272,48 L238.024,48 L238.024,43.072 C238.024,42.08 237.826667,41.288 237.432,40.696 C237.037333,40.104 236.402667,39.808 235.528,39.808 C234.984,39.808 234.506667,39.9226667 234.096,40.152 C233.685333,40.3813333 233.32,40.6506667 233,40.96 L233,40.96 L232.936,40.96 L232.744,40 L230.504,40 L230.504,48 L233.256,48 Z M242.568,48 L242.568,42.752 C242.781333,42.56 242.973333,42.4106667 243.144,42.304 C243.314667,42.1973333 243.528,42.144 243.784,42.144 C244.061333,42.144 244.264,42.2293333 244.392,42.4 C244.52,42.5706667 244.584,42.912 244.584,43.424 L244.584,43.424 L244.584,48 L247.336,48 L247.336,43.072 C247.336,42.08 247.138667,41.288 246.744,40.696 C246.349333,40.104 245.714667,39.808 244.84,39.808 C244.296,39.808 243.818667,39.9226667 243.408,40.152 C242.997333,40.3813333 242.632,40.6506667 242.312,40.96 L242.312,40.96 L242.248,40.96 L242.056,40 L239.816,40 L239.816,48 L242.568,48 Z M251.56,48.192 C252.104,48.192 252.570667,48.08 252.96,47.856 C253.349333,47.632 253.704,47.328 254.024,46.944 L254.024,46.944 L254.088,46.944 L254.28,48 L256.52,48 L256.52,40 L253.768,40 L253.768,45.152 C253.586667,45.408 253.413333,45.5893333 253.248,45.696 C253.082667,45.8026667 252.872,45.856 252.616,45.856 C252.338667,45.856 252.136,45.7706667 252.008,45.6 C251.88,45.4293333 251.816,45.088 251.816,44.576 L251.816,44.576 L251.816,40 L249.064,40 L249.064,44.928 C249.064,45.4293333 249.112,45.88 249.208,46.28 C249.304,46.68 249.453333,47.0213333 249.656,47.304 C249.858667,47.5866667 250.117333,47.8053333 250.432,47.96 C250.746667,48.1146667 251.122667,48.192 251.56,48.192 Z M260.456,48.192 C260.893333,48.192 261.290667,48.104 261.648,47.928 C262.005333,47.752 262.344,47.52 262.664,47.232 L262.664,47.232 L262.728,47.232 L262.92,48 L265.16,48 L265.16,43.552 C265.16,42.24 264.864,41.288 264.272,40.696 C263.68,40.104 262.866667,39.808 261.832,39.808 C261.202667,39.808 260.6,39.8986667 260.024,40.08 C259.448,40.2613333 258.877333,40.5226667 258.312,40.864 L258.312,40.864 L259.272,42.656 C259.688,42.432 260.056,42.264 260.376,42.152 C260.696,42.04 261,41.984 261.288,41.984 C261.970667,41.984 262.344,42.2613333 262.408,42.816 C260.872,42.976 259.762667,43.2933333 259.08,43.768 C258.397333,44.2426667 258.056,44.896 258.056,45.728 C258.056,46.0586667 258.109333,46.3733333 258.216,46.672 C258.322667,46.9706667 258.48,47.232 258.688,47.456 C258.896,47.68 259.149333,47.8586667 259.448,47.992 C259.746667,48.1253333 260.082667,48.192 260.456,48.192 Z M261.416,46.08 C260.925333,46.08 260.68,45.888 260.68,45.504 C260.68,45.28 260.802667,45.072 261.048,44.88 C261.293333,44.688 261.746667,44.544 262.408,44.448 L262.408,44.448 L262.408,45.536 C262.258667,45.696 262.112,45.8266667 261.968,45.928 C261.824,46.0293333 261.64,46.08 261.416,46.08 Z M269.416,48.192 C269.725333,48.192 269.989333,48.1706667 270.208,48.128 C270.426667,48.0853333 270.610667,48.032 270.76,47.968 L270.76,47.968 L270.44,45.952 C270.376,45.9733333 270.325333,45.984 270.288,45.984 L270.288,45.984 L270.152,45.984 C270.056,45.984 269.957333,45.936 269.856,45.84 C269.754667,45.744 269.704,45.5573333 269.704,45.28 L269.704,45.28 L269.704,36.864 L266.952,36.864 L266.952,45.184 C266.952,45.632 266.992,46.04 267.072,46.408 C267.152,46.776 267.288,47.0933333 267.48,47.36 C267.672,47.6266667 267.925333,47.832 268.24,47.976 C268.554667,48.12 268.946667,48.192 269.416,48.192 Z M274.184,48.192 C274.493333,48.192 274.757333,48.1706667 274.976,48.128 C275.194667,48.0853333 275.378667,48.032 275.528,47.968 L275.528,47.968 L275.208,45.952 C275.144,45.9733333 275.093333,45.984 275.056,45.984 L275.056,45.984 L274.92,45.984 C274.824,45.984 274.725333,45.936 274.624,45.84 C274.522667,45.744 274.472,45.5573333 274.472,45.28 L274.472,45.28 L274.472,36.864 L271.72,36.864 L271.72,45.184 C271.72,45.632 271.76,46.04 271.84,46.408 C271.92,46.776 272.056,47.0933333 272.248,47.36 C272.44,47.6266667 272.693333,47.832 273.008,47.976 C273.322667,48.12 273.714667,48.192 274.184,48.192 Z M277.672,51.008 C278.162667,51.008 278.592,50.9466667 278.96,50.824 C279.328,50.7013333 279.656,50.512 279.944,50.256 C280.232,50 280.485333,49.6746667 280.704,49.28 C280.922667,48.8853333 281.138667,48.416 281.352,47.872 L281.352,47.872 L284.04,40 L281.416,40 L280.616,43.072 C280.52,43.456 280.432,43.8346667 280.352,44.208 C280.272,44.5813333 280.189333,44.96 280.104,45.344 L280.104,45.344 L280.04,45.344 C279.944,44.9386667 279.853333,44.552 279.768,44.184 C279.682667,43.816 279.581333,43.4453333 279.464,43.072 L279.464,43.072 L278.504,40 L275.752,40 L278.792,47.712 L278.696,48.064 C278.610667,48.3093333 278.474667,48.504 278.288,48.648 C278.101333,48.792 277.821333,48.864 277.448,48.864 C277.362667,48.864 277.274667,48.8533333 277.184,48.832 C277.093333,48.8106667 277.010667,48.7893333 276.936,48.768 L276.936,48.768 L276.456,50.848 C276.637333,50.9013333 276.816,50.9413333 276.992,50.968 C277.168,50.9946667 277.394667,51.008 277.672,51.008 Z M291.912,48.192 C292.424,48.192 292.917333,48.0986667 293.392,47.912 C293.866667,47.7253333 294.288,47.4533333 294.656,47.096 C295.024,46.7386667 295.32,46.2986667 295.544,45.776 C295.768,45.2533333 295.88,44.6613333 295.88,44 C295.88,43.3386667 295.768,42.7466667 295.544,42.224 C295.32,41.7013333 295.024,41.2613333 294.656,40.904 C294.288,40.5466667 293.866667,40.2746667 293.392,40.088 C292.917333,39.9013333 292.424,39.808 291.912,39.808 C291.4,39.808 290.904,39.9013333 290.424,40.088 C289.944,40.2746667 289.52,40.5466667 289.152,40.904 C288.784,41.2613333 288.490667,41.7013333 288.272,42.224 C288.053333,42.7466667 287.944,43.3386667 287.944,44 C287.944,44.6613333 288.053333,45.2533333 288.272,45.776 C288.490667,46.2986667 288.784,46.7386667 289.152,47.096 C289.52,47.4533333 289.944,47.7253333 290.424,47.912 C290.904,48.0986667 291.4,48.192 291.912,48.192 Z M291.912,45.984 C291.496,45.984 291.2,45.8053333 291.024,45.448 C290.848,45.0906667 290.76,44.608 290.76,44 C290.76,43.392 290.848,42.9093333 291.024,42.552 C291.2,42.1946667 291.496,42.016 291.912,42.016 C292.328,42.016 292.624,42.1946667 292.8,42.552 C292.976,42.9093333 293.064,43.392 293.064,44 C293.064,44.608 292.976,45.0906667 292.8,45.448 C292.624,45.8053333 292.328,45.984 291.912,45.984 Z M300.072,48 L300.072,42.752 C300.285333,42.56 300.477333,42.4106667 300.648,42.304 C300.818667,42.1973333 301.032,42.144 301.288,42.144 C301.565333,42.144 301.768,42.2293333 301.896,42.4 C302.024,42.5706667 302.088,42.912 302.088,43.424 L302.088,43.424 L302.088,48 L304.84,48 L304.84,43.072 C304.84,42.08 304.642667,41.288 304.248,40.696 C303.853333,40.104 303.218667,39.808 302.344,39.808 C301.8,39.808 301.322667,39.9226667 300.912,40.152 C300.501333,40.3813333 300.136,40.6506667 299.816,40.96 L299.816,40.96 L299.752,40.96 L299.56,40 L297.32,40 L297.32,48 L300.072,48 Z M89.224,69.192 C89.672,69.192 90.0453333,69.16 90.344,69.096 C90.6426667,69.032 90.8986667,68.968 91.112,68.904 L91.112,68.904 L90.696,66.92 C90.6,66.952 90.4906667,66.9813333 90.368,67.008 C90.2453333,67.0346667 90.12,67.048 89.992,67.048 C89.736,67.048 89.512,66.9653333 89.32,66.8 C89.128,66.6346667 89.032,66.328 89.032,65.88 L89.032,65.88 L89.032,63.144 L90.856,63.144 L90.856,61 L89.032,61 L89.032,58.92 L86.76,58.92 L86.44,61 L85.224,61.096 L85.224,63.144 L86.28,63.144 L86.28,65.928 C86.28,66.4186667 86.336,66.864 86.448,67.264 C86.56,67.664 86.736,68.008 86.976,68.296 C87.216,68.584 87.52,68.8053333 87.888,68.96 C88.256,69.1146667 88.7013333,69.192 89.224,69.192 Z M95.08,69 L95.08,63.752 C95.2933333,63.56 95.4853333,63.4106667 95.656,63.304 C95.8266667,63.1973333 96.04,63.144 96.296,63.144 C96.5733333,63.144 96.776,63.2293333 96.904,63.4 C97.032,63.5706667 97.096,63.912 97.096,64.424 L97.096,64.424 L97.096,69 L99.848,69 L99.848,64.072 C99.848,63.08 99.6506667,62.288 99.256,61.696 C98.8613333,61.104 98.2266667,60.808 97.352,60.808 C96.808,60.808 96.3413333,60.9173333 95.952,61.136 C95.5626667,61.3546667 95.2293333,61.5866667 94.952,61.832 L94.952,61.832 L95.08,60.456 L95.08,57.864 L92.328,57.864 L92.328,69 L95.08,69 Z M105.352,69.192 C105.8,69.192 106.288,69.1146667 106.816,68.96 C107.344,68.8053333 107.826667,68.5733333 108.264,68.264 L108.264,68.264 L107.368,66.632 C107.08,66.792 106.805333,66.912 106.544,66.992 C106.282667,67.072 106.013333,67.112 105.736,67.112 C105.288,67.112 104.898667,67.0186667 104.568,66.832 C104.237333,66.6453333 104.008,66.312 103.88,65.832 L103.88,65.832 L108.44,65.832 C108.461333,65.736 108.485333,65.5813333 108.512,65.368 C108.538667,65.1546667 108.552,64.9253333 108.552,64.68 C108.552,64.1466667 108.48,63.6453333 108.336,63.176 C108.192,62.7066667 107.976,62.296 107.688,61.944 C107.4,61.592 107.037333,61.3146667 106.6,61.112 C106.162667,60.9093333 105.650667,60.808 105.064,60.808 C104.573333,60.808 104.098667,60.904 103.64,61.096 C103.181333,61.288 102.773333,61.5653333 102.416,61.928 C102.058667,62.2906667 101.770667,62.7306667 101.552,63.248 C101.333333,63.7653333 101.224,64.3493333 101.224,65 C101.224,65.6613333 101.330667,66.2533333 101.544,66.776 C101.757333,67.2986667 102.048,67.7386667 102.416,68.096 C102.784,68.4533333 103.218667,68.7253333 103.72,68.912 C104.221333,69.0986667 104.765333,69.192 105.352,69.192 Z M106.216,64.04 L103.848,64.04 C103.933333,63.6346667 104.090667,63.3413333 104.32,63.16 C104.549333,62.9786667 104.818667,62.888 105.128,62.888 C105.544,62.888 105.829333,63.0026667 105.984,63.232 C106.138667,63.4613333 106.216,63.7306667 106.216,64.04 L106.216,64.04 Z M116.808,69.192 C117.32,69.192 117.813333,69.0986667 118.288,68.912 C118.762667,68.7253333 119.184,68.4533333 119.552,68.096 C119.92,67.7386667 120.216,67.2986667 120.44,66.776 C120.664,66.2533333 120.776,65.6613333 120.776,65 C120.776,64.3386667 120.664,63.7466667 120.44,63.224 C120.216,62.7013333 119.92,62.2613333 119.552,61.904 C119.184,61.5466667 118.762667,61.2746667 118.288,61.088 C117.813333,60.9013333 117.32,60.808 116.808,60.808 C116.296,60.808 115.8,60.9013333 115.32,61.088 C114.84,61.2746667 114.416,61.5466667 114.048,61.904 C113.68,62.2613333 113.386667,62.7013333 113.168,63.224 C112.949333,63.7466667 112.84,64.3386667 112.84,65 C112.84,65.6613333 112.949333,66.2533333 113.168,66.776 C113.386667,67.2986667 113.68,67.7386667 114.048,68.096 C114.416,68.4533333 114.84,68.7253333 115.32,68.912 C115.8,69.0986667 116.296,69.192 116.808,69.192 Z M116.808,66.984 C116.392,66.984 116.096,66.8053333 115.92,66.448 C115.744,66.0906667 115.656,65.608 115.656,65 C115.656,64.392 115.744,63.9093333 115.92,63.552 C116.096,63.1946667 116.392,63.016 116.808,63.016 C117.224,63.016 117.52,63.1946667 117.696,63.552 C117.872,63.9093333 117.96,64.392 117.96,65 C117.96,65.608 117.872,66.0906667 117.696,66.448 C117.52,66.8053333 117.224,66.984 116.808,66.984 Z M125.032,69.192 C125.48,69.192 125.853333,69.16 126.152,69.096 C126.450667,69.032 126.706667,68.968 126.92,68.904 L126.92,68.904 L126.504,66.92 C126.408,66.952 126.298667,66.9813333 126.176,67.008 C126.053333,67.0346667 125.928,67.048 125.8,67.048 C125.544,67.048 125.32,66.9653333 125.128,66.8 C124.936,66.6346667 124.84,66.328 124.84,65.88 L124.84,65.88 L124.84,63.144 L126.664,63.144 L126.664,61 L124.84,61 L124.84,58.92 L122.568,58.92 L122.248,61 L121.032,61.096 L121.032,63.144 L122.088,63.144 L122.088,65.928 C122.088,66.4186667 122.144,66.864 122.256,67.264 C122.368,67.664 122.544,68.008 122.784,68.296 C123.024,68.584 123.328,68.8053333 123.696,68.96 C124.064,69.1146667 124.509333,69.192 125.032,69.192 Z M130.888,69 L130.888,63.752 C131.101333,63.56 131.293333,63.4106667 131.464,63.304 C131.634667,63.1973333 131.848,63.144 132.104,63.144 C132.381333,63.144 132.584,63.2293333 132.712,63.4 C132.84,63.5706667 132.904,63.912 132.904,64.424 L132.904,64.424 L132.904,69 L135.656,69 L135.656,64.072 C135.656,63.08 135.458667,62.288 135.064,61.696 C134.669333,61.104 134.034667,60.808 133.16,60.808 C132.616,60.808 132.149333,60.9173333 131.76,61.136 C131.370667,61.3546667 131.037333,61.5866667 130.76,61.832 L130.76,61.832 L130.888,60.456 L130.888,57.864 L128.136,57.864 L128.136,69 L130.888,69 Z M141.16,69.192 C141.608,69.192 142.096,69.1146667 142.624,68.96 C143.152,68.8053333 143.634667,68.5733333 144.072,68.264 L144.072,68.264 L143.176,66.632 C142.888,66.792 142.613333,66.912 142.352,66.992 C142.090667,67.072 141.821333,67.112 141.544,67.112 C141.096,67.112 140.706667,67.0186667 140.376,66.832 C140.045333,66.6453333 139.816,66.312 139.688,65.832 L139.688,65.832 L144.248,65.832 C144.269333,65.736 144.293333,65.5813333 144.32,65.368 C144.346667,65.1546667 144.36,64.9253333 144.36,64.68 C144.36,64.1466667 144.288,63.6453333 144.144,63.176 C144,62.7066667 143.784,62.296 143.496,61.944 C143.208,61.592 142.845333,61.3146667 142.408,61.112 C141.970667,60.9093333 141.458667,60.808 140.872,60.808 C140.381333,60.808 139.906667,60.904 139.448,61.096 C138.989333,61.288 138.581333,61.5653333 138.224,61.928 C137.866667,62.2906667 137.578667,62.7306667 137.36,63.248 C137.141333,63.7653333 137.032,64.3493333 137.032,65 C137.032,65.6613333 137.138667,66.2533333 137.352,66.776 C137.565333,67.2986667 137.856,67.7386667 138.224,68.096 C138.592,68.4533333 139.026667,68.7253333 139.528,68.912 C140.029333,69.0986667 140.573333,69.192 141.16,69.192 Z M142.024,64.04 L139.656,64.04 C139.741333,63.6346667 139.898667,63.3413333 140.128,63.16 C140.357333,62.9786667 140.626667,62.888 140.936,62.888 C141.352,62.888 141.637333,63.0026667 141.792,63.232 C141.946667,63.4613333 142.024,63.7306667 142.024,64.04 L142.024,64.04 Z M148.616,69 L148.616,64.552 C148.808,64.0506667 149.061333,63.7013333 149.376,63.504 C149.690667,63.3066667 149.992,63.208 150.28,63.208 C150.461333,63.208 150.618667,63.2213333 150.752,63.248 C150.885333,63.2746667 151.026667,63.304 151.176,63.336 L151.176,63.336 L151.624,60.968 C151.506667,60.9146667 151.373333,60.8746667 151.224,60.848 C151.074667,60.8213333 150.877333,60.808 150.632,60.808 C150.237333,60.808 149.834667,60.9333333 149.424,61.184 C149.013333,61.4346667 148.658667,61.832 148.36,62.376 L148.36,62.376 L148.296,62.376 L148.104,61 L145.864,61 L145.864,69 L148.616,69 Z M158.504,71.816 L158.504,69.608 L158.408,68.392 C158.941333,68.9253333 159.538667,69.192 160.2,69.192 C160.626667,69.192 161.04,69.096 161.44,68.904 C161.84,68.712 162.194667,68.432 162.504,68.064 C162.813333,67.696 163.061333,67.2453333 163.248,66.712 C163.434667,66.1786667 163.528,65.5653333 163.528,64.872 C163.528,64.2533333 163.456,63.6933333 163.312,63.192 C163.168,62.6906667 162.96,62.264 162.688,61.912 C162.416,61.56 162.088,61.288 161.704,61.096 C161.32,60.904 160.893333,60.808 160.424,60.808 C160.018667,60.808 159.629333,60.8933333 159.256,61.064 C158.882667,61.2346667 158.546667,61.4586667 158.248,61.736 L158.248,61.736 L158.184,61.736 L157.992,61 L155.752,61 L155.752,71.816 L158.504,71.816 Z M159.528,66.952 C159.346667,66.952 159.170667,66.9253333 159,66.872 C158.829333,66.8186667 158.664,66.7173333 158.504,66.568 L158.504,66.568 L158.504,63.624 C158.685333,63.4106667 158.858667,63.2613333 159.024,63.176 C159.189333,63.0906667 159.378667,63.048 159.592,63.048 C159.965333,63.048 160.245333,63.192 160.432,63.48 C160.618667,63.768 160.712,64.2426667 160.712,64.904 C160.712,65.672 160.594667,66.2053333 160.36,66.504 C160.125333,66.8026667 159.848,66.952 159.528,66.952 Z M166.952,69.192 C167.389333,69.192 167.786667,69.104 168.144,68.928 C168.501333,68.752 168.84,68.52 169.16,68.232 L169.16,68.232 L169.224,68.232 L169.416,69 L171.656,69 L171.656,64.552 C171.656,63.24 171.36,62.288 170.768,61.696 C170.176,61.104 169.362667,60.808 168.328,60.808 C167.698667,60.808 167.096,60.8986667 166.52,61.08 C165.944,61.2613333 165.373333,61.5226667 164.808,61.864 L164.808,61.864 L165.768,63.656 C166.184,63.432 166.552,63.264 166.872,63.152 C167.192,63.04 167.496,62.984 167.784,62.984 C168.466667,62.984 168.84,63.2613333 168.904,63.816 C167.368,63.976 166.258667,64.2933333 165.576,64.768 C164.893333,65.2426667 164.552,65.896 164.552,66.728 C164.552,67.0586667 164.605333,67.3733333 164.712,67.672 C164.818667,67.9706667 164.976,68.232 165.184,68.456 C165.392,68.68 165.645333,68.8586667 165.944,68.992 C166.242667,69.1253333 166.578667,69.192 166.952,69.192 Z M167.912,67.08 C167.421333,67.08 167.176,66.888 167.176,66.504 C167.176,66.28 167.298667,66.072 167.544,65.88 C167.789333,65.688 168.242667,65.544 168.904,65.448 L168.904,65.448 L168.904,66.536 C168.754667,66.696 168.608,66.8266667 168.464,66.928 C168.32,67.0293333 168.136,67.08 167.912,67.08 Z M176.36,72.296 C177.074667,72.296 177.717333,72.2266667 178.288,72.088 C178.858667,71.9493333 179.344,71.752 179.744,71.496 C180.144,71.24 180.453333,70.9333333 180.672,70.576 C180.890667,70.2186667 181,69.8213333 181,69.384 C181,68.648 180.725333,68.1173333 180.176,67.792 C179.626667,67.4666667 178.850667,67.304 177.848,67.304 L177.848,67.304 L176.648,67.304 C176.242667,67.304 175.954667,67.2693333 175.784,67.2 C175.613333,67.1306667 175.528,67.0053333 175.528,66.824 C175.528,66.7066667 175.538667,66.6186667 175.56,66.56 C175.581333,66.5013333 175.634667,66.4346667 175.72,66.36 C176.050667,66.4346667 176.349333,66.472 176.616,66.472 C177.064,66.472 177.485333,66.4213333 177.88,66.32 C178.274667,66.2186667 178.616,66.0613333 178.904,65.848 C179.192,65.6346667 179.421333,65.36 179.592,65.024 C179.762667,64.688 179.848,64.2853333 179.848,63.816 C179.848,63.656 179.834667,63.5013333 179.808,63.352 C179.781333,63.2026667 179.752,63.08 179.72,62.984 L179.72,62.984 L180.872,62.984 L180.872,61 L177.896,61 C177.512,60.872 177.085333,60.808 176.616,60.808 C176.178667,60.808 175.754667,60.8666667 175.344,60.984 C174.933333,61.1013333 174.568,61.28 174.248,61.52 C173.928,61.76 173.672,62.064 173.48,62.432 C173.288,62.8 173.192,63.2293333 173.192,63.72 C173.192,64.1893333 173.301333,64.6 173.52,64.952 C173.738667,65.304 173.992,65.576 174.28,65.768 L174.28,65.768 L174.28,65.832 C174.002667,66.024 173.784,66.2533333 173.624,66.52 C173.464,66.7866667 173.384,67.0586667 173.384,67.336 C173.384,67.6773333 173.453333,67.9546667 173.592,68.168 C173.730667,68.3813333 173.906667,68.5626667 174.12,68.712 L174.12,68.712 L174.12,68.776 C173.373333,69.1706667 173,69.6826667 173,70.312 C173,70.6746667 173.090667,70.9813333 173.272,71.232 C173.453333,71.4826667 173.696,71.688 174,71.848 C174.304,72.008 174.658667,72.1226667 175.064,72.192 C175.469333,72.2613333 175.901333,72.296 176.36,72.296 Z M176.616,64.84 C176.36,64.84 176.152,64.7493333 175.992,64.568 C175.832,64.3866667 175.752,64.104 175.752,63.72 C175.752,63.3466667 175.832,63.072 175.992,62.896 C176.152,62.72 176.36,62.632 176.616,62.632 C176.872,62.632 177.08,62.72 177.24,62.896 C177.4,63.072 177.48,63.3466667 177.48,63.72 C177.48,64.104 177.4,64.3866667 177.24,64.568 C177.08,64.7493333 176.872,64.84 176.616,64.84 Z M176.808,70.6 C176.338667,70.6 175.96,70.5413333 175.672,70.424 C175.384,70.3066667 175.24,70.12 175.24,69.864 C175.24,69.7466667 175.264,69.6453333 175.312,69.56 C175.36,69.4746667 175.432,69.384 175.528,69.288 C175.645333,69.32 175.786667,69.344 175.952,69.36 C176.117333,69.376 176.36,69.384 176.68,69.384 L177.304,69.384 C177.645333,69.384 177.909333,69.4106667 178.096,69.464 C178.282667,69.5173333 178.376,69.6506667 178.376,69.864 C178.376,70.088 178.226667,70.2666667 177.928,70.4 C177.629333,70.5333333 177.256,70.6 176.808,70.6 Z M185.576,69.192 C186.024,69.192 186.512,69.1146667 187.04,68.96 C187.568,68.8053333 188.050667,68.5733333 188.488,68.264 L188.488,68.264 L187.592,66.632 C187.304,66.792 187.029333,66.912 186.768,66.992 C186.506667,67.072 186.237333,67.112 185.96,67.112 C185.512,67.112 185.122667,67.0186667 184.792,66.832 C184.461333,66.6453333 184.232,66.312 184.104,65.832 L184.104,65.832 L188.664,65.832 C188.685333,65.736 188.709333,65.5813333 188.736,65.368 C188.762667,65.1546667 188.776,64.9253333 188.776,64.68 C188.776,64.1466667 188.704,63.6453333 188.56,63.176 C188.416,62.7066667 188.2,62.296 187.912,61.944 C187.624,61.592 187.261333,61.3146667 186.824,61.112 C186.386667,60.9093333 185.874667,60.808 185.288,60.808 C184.797333,60.808 184.322667,60.904 183.864,61.096 C183.405333,61.288 182.997333,61.5653333 182.64,61.928 C182.282667,62.2906667 181.994667,62.7306667 181.776,63.248 C181.557333,63.7653333 181.448,64.3493333 181.448,65 C181.448,65.6613333 181.554667,66.2533333 181.768,66.776 C181.981333,67.2986667 182.272,67.7386667 182.64,68.096 C183.008,68.4533333 183.442667,68.7253333 183.944,68.912 C184.445333,69.0986667 184.989333,69.192 185.576,69.192 Z M186.44,64.04 L184.072,64.04 C184.157333,63.6346667 184.314667,63.3413333 184.544,63.16 C184.773333,62.9786667 185.042667,62.888 185.352,62.888 C185.768,62.888 186.053333,63.0026667 186.208,63.232 C186.362667,63.4613333 186.44,63.7306667 186.44,64.04 L186.44,64.04 Z M190.632,72.264 C191.677333,71.976 192.466667,71.4906667 193,70.808 C193.533333,70.1253333 193.8,69.3093333 193.8,68.36 C193.8,67.5706667 193.645333,66.9573333 193.336,66.52 C193.026667,66.0826667 192.573333,65.864 191.976,65.864 C191.506667,65.864 191.112,66.0026667 190.792,66.28 C190.472,66.5573333 190.312,66.92 190.312,67.368 C190.312,67.848 190.474667,68.2186667 190.8,68.48 C191.125333,68.7413333 191.496,68.872 191.912,68.872 L191.912,68.872 L192.024,68.872 C192.034667,69.256 191.877333,69.624 191.552,69.976 C191.226667,70.328 190.738667,70.6106667 190.088,70.824 L190.088,70.824 L190.632,72.264 Z M201.896,69.192 C202.344,69.192 202.717333,69.16 203.016,69.096 C203.314667,69.032 203.570667,68.968 203.784,68.904 L203.784,68.904 L203.368,66.92 C203.272,66.952 203.162667,66.9813333 203.04,67.008 C202.917333,67.0346667 202.792,67.048 202.664,67.048 C202.408,67.048 202.184,66.9653333 201.992,66.8 C201.8,66.6346667 201.704,66.328 201.704,65.88 L201.704,65.88 L201.704,63.144 L203.528,63.144 L203.528,61 L201.704,61 L201.704,58.92 L199.432,58.92 L199.112,61 L197.896,61.096 L197.896,63.144 L198.952,63.144 L198.952,65.928 C198.952,66.4186667 199.008,66.864 199.12,67.264 C199.232,67.664 199.408,68.008 199.648,68.296 C199.888,68.584 200.192,68.8053333 200.56,68.96 C200.928,69.1146667 201.373333,69.192 201.896,69.192 Z M207.752,69 L207.752,63.752 C207.965333,63.56 208.157333,63.4106667 208.328,63.304 C208.498667,63.1973333 208.712,63.144 208.968,63.144 C209.245333,63.144 209.448,63.2293333 209.576,63.4 C209.704,63.5706667 209.768,63.912 209.768,64.424 L209.768,64.424 L209.768,69 L212.52,69 L212.52,64.072 C212.52,63.08 212.322667,62.288 211.928,61.696 C211.533333,61.104 210.898667,60.808 210.024,60.808 C209.48,60.808 209.013333,60.9173333 208.624,61.136 C208.234667,61.3546667 207.901333,61.5866667 207.624,61.832 L207.624,61.832 L207.752,60.456 L207.752,57.864 L205,57.864 L205,69 L207.752,69 Z M216.392,69.192 C216.829333,69.192 217.226667,69.104 217.584,68.928 C217.941333,68.752 218.28,68.52 218.6,68.232 L218.6,68.232 L218.664,68.232 L218.856,69 L221.096,69 L221.096,64.552 C221.096,63.24 220.8,62.288 220.208,61.696 C219.616,61.104 218.802667,60.808 217.768,60.808 C217.138667,60.808 216.536,60.8986667 215.96,61.08 C215.384,61.2613333 214.813333,61.5226667 214.248,61.864 L214.248,61.864 L215.208,63.656 C215.624,63.432 215.992,63.264 216.312,63.152 C216.632,63.04 216.936,62.984 217.224,62.984 C217.906667,62.984 218.28,63.2613333 218.344,63.816 C216.808,63.976 215.698667,64.2933333 215.016,64.768 C214.333333,65.2426667 213.992,65.896 213.992,66.728 C213.992,67.0586667 214.045333,67.3733333 214.152,67.672 C214.258667,67.9706667 214.416,68.232 214.624,68.456 C214.832,68.68 215.085333,68.8586667 215.384,68.992 C215.682667,69.1253333 216.018667,69.192 216.392,69.192 Z M217.352,67.08 C216.861333,67.08 216.616,66.888 216.616,66.504 C216.616,66.28 216.738667,66.072 216.984,65.88 C217.229333,65.688 217.682667,65.544 218.344,65.448 L218.344,65.448 L218.344,66.536 C218.194667,66.696 218.048,66.8266667 217.904,66.928 C217.76,67.0293333 217.576,67.08 217.352,67.08 Z M225.864,69.192 C226.312,69.192 226.685333,69.16 226.984,69.096 C227.282667,69.032 227.538667,68.968 227.752,68.904 L227.752,68.904 L227.336,66.92 C227.24,66.952 227.130667,66.9813333 227.008,67.008 C226.885333,67.0346667 226.76,67.048 226.632,67.048 C226.376,67.048 226.152,66.9653333 225.96,66.8 C225.768,66.6346667 225.672,66.328 225.672,65.88 L225.672,65.88 L225.672,63.144 L227.496,63.144 L227.496,61 L225.672,61 L225.672,58.92 L223.4,58.92 L223.08,61 L221.864,61.096 L221.864,63.144 L222.92,63.144 L222.92,65.928 C222.92,66.4186667 222.976,66.864 223.088,67.264 C223.2,67.664 223.376,68.008 223.616,68.296 C223.856,68.584 224.16,68.8053333 224.528,68.96 C224.896,69.1146667 225.341333,69.192 225.864,69.192 Z M229.8,63.848 C230.653333,63.4426667 231.282667,62.9333333 231.688,62.32 C232.093333,61.7066667 232.296,61 232.296,60.2 C232.296,59.464 232.154667,58.8906667 231.872,58.48 C231.589333,58.0693333 231.165333,57.864 230.6,57.864 C230.194667,57.864 229.864,57.9973333 229.608,58.264 C229.352,58.5306667 229.224,58.888 229.224,59.336 C229.224,59.7413333 229.357333,60.0613333 229.624,60.296 C229.890667,60.5306667 230.216,60.648 230.6,60.648 C230.674667,60.648 230.728,60.6426667 230.76,60.632 C230.76,61.112 230.632,61.5146667 230.376,61.84 C230.12,62.1653333 229.736,62.44 229.224,62.664 L229.224,62.664 L229.8,63.848 Z M236.072,69.192 C236.626667,69.192 237.117333,69.1253333 237.544,68.992 C237.970667,68.8586667 238.328,68.672 238.616,68.432 C238.904,68.192 239.122667,67.9093333 239.272,67.584 C239.421333,67.2586667 239.496,66.9093333 239.496,66.536 C239.496,66.1733333 239.434667,65.8613333 239.312,65.6 C239.189333,65.3386667 239.029333,65.1146667 238.832,64.928 C238.634667,64.7413333 238.413333,64.584 238.168,64.456 C237.922667,64.328 237.682667,64.2213333 237.448,64.136 C237.245333,64.0613333 237.053333,63.9946667 236.872,63.936 C236.690667,63.8773333 236.530667,63.816 236.392,63.752 C236.253333,63.688 236.144,63.6186667 236.064,63.544 C235.984,63.4693333 235.944,63.3786667 235.944,63.272 C235.944,62.9733333 236.178667,62.824 236.648,62.824 C236.893333,62.824 237.154667,62.8826667 237.432,63 C237.709333,63.1173333 237.992,63.2826667 238.28,63.496 L238.28,63.496 L239.496,61.864 C239.144,61.5973333 238.730667,61.3546667 238.256,61.136 C237.781333,60.9173333 237.213333,60.808 236.552,60.808 C236.082667,60.808 235.653333,60.8693333 235.264,60.992 C234.874667,61.1146667 234.541333,61.288 234.264,61.512 C233.986667,61.736 233.770667,62.008 233.616,62.328 C233.461333,62.648 233.384,63.0053333 233.384,63.4 C233.384,63.7306667 233.445333,64.0213333 233.568,64.272 C233.690667,64.5226667 233.848,64.744 234.04,64.936 C234.232,65.128 234.448,65.2906667 234.688,65.424 C234.928,65.5573333 235.165333,65.672 235.4,65.768 C235.602667,65.8533333 235.794667,65.928 235.976,65.992 C236.157333,66.056 236.32,66.1226667 236.464,66.192 C236.608,66.2613333 236.722667,66.336 236.808,66.416 C236.893333,66.496 236.936,66.5893333 236.936,66.696 C236.936,66.856 236.874667,66.976 236.752,67.056 C236.629333,67.136 236.424,67.176 236.136,67.176 C235.56,67.176 234.909333,66.9093333 234.184,66.376 L234.184,66.376 L232.968,68.072 C233.384,68.4133333 233.877333,68.6853333 234.448,68.888 C235.018667,69.0906667 235.56,69.192 236.072,69.192 Z M246.728,69 L246.728,67.08 L247.56,66.152 L249.16,69 L252.136,69 L249.128,64.328 L251.976,61 L249,61 L246.792,63.784 L246.728,63.784 L246.728,57.864 L244.04,57.864 L244.04,69 L246.728,69 Z M254.504,60.008 C254.952,60.008 255.32,59.88 255.608,59.624 C255.896,59.368 256.04,59.0373333 256.04,58.632 C256.04,58.2266667 255.896,57.896 255.608,57.64 C255.32,57.384 254.952,57.256 254.504,57.256 C254.056,57.256 253.688,57.384 253.4,57.64 C253.112,57.896 252.968,58.2266667 252.968,58.632 C252.968,59.0373333 253.112,59.368 253.4,59.624 C253.688,59.88 254.056,60.008 254.504,60.008 Z M255.88,69 L255.88,61 L253.128,61 L253.128,69 L255.88,69 Z M260.488,69 L260.488,63.752 C260.701333,63.56 260.893333,63.4106667 261.064,63.304 C261.234667,63.1973333 261.448,63.144 261.704,63.144 C261.981333,63.144 262.184,63.2293333 262.312,63.4 C262.44,63.5706667 262.504,63.912 262.504,64.424 L262.504,64.424 L262.504,69 L265.256,69 L265.256,64.072 C265.256,63.08 265.058667,62.288 264.664,61.696 C264.269333,61.104 263.634667,60.808 262.76,60.808 C262.216,60.808 261.738667,60.9226667 261.328,61.152 C260.917333,61.3813333 260.552,61.6506667 260.232,61.96 L260.232,61.96 L260.168,61.96 L259.976,61 L257.736,61 L257.736,69 L260.488,69 Z M269.96,69.192 C270.312,69.192 270.666667,69.1066667 271.024,68.936 C271.381333,68.7653333 271.698667,68.5413333 271.976,68.264 L271.976,68.264 L272.04,68.264 L272.232,69 L274.472,69 L274.472,57.864 L271.72,57.864 L271.72,60.456 L271.816,61.608 C271.570667,61.3626667 271.309333,61.168 271.032,61.024 C270.754667,60.88 270.397333,60.808 269.96,60.808 C269.554667,60.808 269.154667,60.904 268.76,61.096 C268.365333,61.288 268.016,61.5626667 267.712,61.92 C267.408,62.2773333 267.162667,62.7173333 266.976,63.24 C266.789333,63.7626667 266.696,64.3493333 266.696,65 C266.696,65.6506667 266.773333,66.2346667 266.928,66.752 C267.082667,67.2693333 267.301333,67.7093333 267.584,68.072 C267.866667,68.4346667 268.208,68.712 268.608,68.904 C269.008,69.096 269.458667,69.192 269.96,69.192 Z M270.696,66.952 C270.322667,66.952 270.032,66.8026667 269.824,66.504 C269.616,66.2053333 269.512,65.6933333 269.512,64.968 C269.512,64.264 269.626667,63.768 269.856,63.48 C270.085333,63.192 270.344,63.048 270.632,63.048 C270.813333,63.048 271,63.0746667 271.192,63.128 C271.384,63.1813333 271.56,63.2826667 271.72,63.432 L271.72,63.432 L271.72,66.376 C271.570667,66.6 271.416,66.752 271.256,66.832 C271.096,66.912 270.909333,66.952 270.696,66.952 Z M283.08,69.192 C283.592,69.192 284.085333,69.0986667 284.56,68.912 C285.034667,68.7253333 285.456,68.4533333 285.824,68.096 C286.192,67.7386667 286.488,67.2986667 286.712,66.776 C286.936,66.2533333 287.048,65.6613333 287.048,65 C287.048,64.3386667 286.936,63.7466667 286.712,63.224 C286.488,62.7013333 286.192,62.2613333 285.824,61.904 C285.456,61.5466667 285.034667,61.2746667 284.56,61.088 C284.085333,60.9013333 283.592,60.808 283.08,60.808 C282.568,60.808 282.072,60.9013333 281.592,61.088 C281.112,61.2746667 280.688,61.5466667 280.32,61.904 C279.952,62.2613333 279.658667,62.7013333 279.44,63.224 C279.221333,63.7466667 279.112,64.3386667 279.112,65 C279.112,65.6613333 279.221333,66.2533333 279.44,66.776 C279.658667,67.2986667 279.952,67.7386667 280.32,68.096 C280.688,68.4533333 281.112,68.7253333 281.592,68.912 C282.072,69.0986667 282.568,69.192 283.08,69.192 Z M283.08,66.984 C282.664,66.984 282.368,66.8053333 282.192,66.448 C282.016,66.0906667 281.928,65.608 281.928,65 C281.928,64.392 282.016,63.9093333 282.192,63.552 C282.368,63.1946667 282.664,63.016 283.08,63.016 C283.496,63.016 283.792,63.1946667 283.968,63.552 C284.144,63.9093333 284.232,64.392 284.232,65 C284.232,65.608 284.144,66.0906667 283.968,66.448 C283.792,66.8053333 283.496,66.984 283.08,66.984 Z M291.624,69 L291.624,63.144 L292.968,63.144 L292.968,61 L291.624,61 L291.624,60.808 C291.624,60.4346667 291.698667,60.176 291.848,60.032 C291.997333,59.888 292.2,59.816 292.456,59.816 C292.584,59.816 292.717333,59.8293333 292.856,59.856 C292.994667,59.8826667 293.128,59.9226667 293.256,59.976 L293.256,59.976 L293.736,57.96 C293.554667,57.896 293.32,57.832 293.032,57.768 C292.744,57.704 292.413333,57.672 292.04,57.672 C291.442667,57.672 290.944,57.76 290.544,57.936 C290.144,58.112 289.818667,58.3493333 289.568,58.648 C289.317333,58.9466667 289.138667,59.2906667 289.032,59.68 C288.925333,60.0693333 288.872,60.4773333 288.872,60.904 L288.872,60.904 L288.872,61.016 L287.816,61.096 L287.816,63.144 L288.872,63.144 L288.872,69 L291.624,69 Z M89.16,90 L89.16,84.144 L90.504,84.144 L90.504,82 L89.16,82 L89.16,81.808 C89.16,81.4346667 89.2346667,81.176 89.384,81.032 C89.5333333,80.888 89.736,80.816 89.992,80.816 C90.12,80.816 90.2533333,80.8293333 90.392,80.856 C90.5306667,80.8826667 90.664,80.9226667 90.792,80.976 L90.792,80.976 L91.272,78.96 C91.0906667,78.896 90.856,78.832 90.568,78.768 C90.28,78.704 89.9493333,78.672 89.576,78.672 C88.9786667,78.672 88.48,78.76 88.08,78.936 C87.68,79.112 87.3546667,79.3493333 87.104,79.648 C86.8533333,79.9466667 86.6746667,80.2906667 86.568,80.68 C86.4613333,81.0693333 86.408,81.4773333 86.408,81.904 L86.408,81.904 L86.408,82.016 L85.352,82.096 L85.352,84.144 L86.408,84.144 L86.408,90 L89.16,90 Z M94.44,90 L94.44,85.552 C94.632,85.0506667 94.8853333,84.7013333 95.2,84.504 C95.5146667,84.3066667 95.816,84.208 96.104,84.208 C96.2853333,84.208 96.4426667,84.2213333 96.576,84.248 C96.7093333,84.2746667 96.8506667,84.304 97,84.336 L97,84.336 L97.448,81.968 C97.3306667,81.9146667 97.1973333,81.8746667 97.048,81.848 C96.8986667,81.8213333 96.7013333,81.808 96.456,81.808 C96.0613333,81.808 95.6586667,81.9333333 95.248,82.184 C94.8373333,82.4346667 94.4826667,82.832 94.184,83.376 L94.184,83.376 L94.12,83.376 L93.928,82 L91.688,82 L91.688,90 L94.44,90 Z M100.808,90.192 C101.352,90.192 101.818667,90.08 102.208,89.856 C102.597333,89.632 102.952,89.328 103.272,88.944 L103.272,88.944 L103.336,88.944 L103.528,90 L105.768,90 L105.768,82 L103.016,82 L103.016,87.152 C102.834667,87.408 102.661333,87.5893333 102.496,87.696 C102.330667,87.8026667 102.12,87.856 101.864,87.856 C101.586667,87.856 101.384,87.7706667 101.256,87.6 C101.128,87.4293333 101.064,87.088 101.064,86.576 L101.064,86.576 L101.064,82 L98.312,82 L98.312,86.928 C98.312,87.4293333 98.36,87.88 98.456,88.28 C98.552,88.68 98.7013333,89.0213333 98.904,89.304 C99.1066667,89.5866667 99.3653333,89.8053333 99.68,89.96 C99.9946667,90.1146667 100.370667,90.192 100.808,90.192 Z M110.088,90.192 C110.642667,90.192 111.133333,90.1253333 111.56,89.992 C111.986667,89.8586667 112.344,89.672 112.632,89.432 C112.92,89.192 113.138667,88.9093333 113.288,88.584 C113.437333,88.2586667 113.512,87.9093333 113.512,87.536 C113.512,87.1733333 113.450667,86.8613333 113.328,86.6 C113.205333,86.3386667 113.045333,86.1146667 112.848,85.928 C112.650667,85.7413333 112.429333,85.584 112.184,85.456 C111.938667,85.328 111.698667,85.2213333 111.464,85.136 C111.261333,85.0613333 111.069333,84.9946667 110.888,84.936 C110.706667,84.8773333 110.546667,84.816 110.408,84.752 C110.269333,84.688 110.16,84.6186667 110.08,84.544 C110,84.4693333 109.96,84.3786667 109.96,84.272 C109.96,83.9733333 110.194667,83.824 110.664,83.824 C110.909333,83.824 111.170667,83.8826667 111.448,84 C111.725333,84.1173333 112.008,84.2826667 112.296,84.496 L112.296,84.496 L113.512,82.864 C113.16,82.5973333 112.746667,82.3546667 112.272,82.136 C111.797333,81.9173333 111.229333,81.808 110.568,81.808 C110.098667,81.808 109.669333,81.8693333 109.28,81.992 C108.890667,82.1146667 108.557333,82.288 108.28,82.512 C108.002667,82.736 107.786667,83.008 107.632,83.328 C107.477333,83.648 107.4,84.0053333 107.4,84.4 C107.4,84.7306667 107.461333,85.0213333 107.584,85.272 C107.706667,85.5226667 107.864,85.744 108.056,85.936 C108.248,86.128 108.464,86.2906667 108.704,86.424 C108.944,86.5573333 109.181333,86.672 109.416,86.768 C109.618667,86.8533333 109.810667,86.928 109.992,86.992 C110.173333,87.056 110.336,87.1226667 110.48,87.192 C110.624,87.2613333 110.738667,87.336 110.824,87.416 C110.909333,87.496 110.952,87.5893333 110.952,87.696 C110.952,87.856 110.890667,87.976 110.768,88.056 C110.645333,88.136 110.44,88.176 110.152,88.176 C109.576,88.176 108.925333,87.9093333 108.2,87.376 L108.2,87.376 L106.984,89.072 C107.4,89.4133333 107.893333,89.6853333 108.464,89.888 C109.034667,90.0906667 109.576,90.192 110.088,90.192 Z M117.832,90.192 C118.28,90.192 118.653333,90.16 118.952,90.096 C119.250667,90.032 119.506667,89.968 119.72,89.904 L119.72,89.904 L119.304,87.92 C119.208,87.952 119.098667,87.9813333 118.976,88.008 C118.853333,88.0346667 118.728,88.048 118.6,88.048 C118.344,88.048 118.12,87.9653333 117.928,87.8 C117.736,87.6346667 117.64,87.328 117.64,86.88 L117.64,86.88 L117.64,84.144 L119.464,84.144 L119.464,82 L117.64,82 L117.64,79.92 L115.368,79.92 L115.048,82 L113.832,82.096 L113.832,84.144 L114.888,84.144 L114.888,86.928 C114.888,87.4186667 114.944,87.864 115.056,88.264 C115.168,88.664 115.344,89.008 115.584,89.296 C115.824,89.584 116.128,89.8053333 116.496,89.96 C116.864,90.1146667 117.309333,90.192 117.832,90.192 Z M123.688,90 L123.688,85.552 C123.88,85.0506667 124.133333,84.7013333 124.448,84.504 C124.762667,84.3066667 125.064,84.208 125.352,84.208 C125.533333,84.208 125.690667,84.2213333 125.824,84.248 C125.957333,84.2746667 126.098667,84.304 126.248,84.336 L126.248,84.336 L126.696,81.968 C126.578667,81.9146667 126.445333,81.8746667 126.296,81.848 C126.146667,81.8213333 125.949333,81.808 125.704,81.808 C125.309333,81.808 124.906667,81.9333333 124.496,82.184 C124.085333,82.4346667 123.730667,82.832 123.432,83.376 L123.432,83.376 L123.368,83.376 L123.176,82 L120.936,82 L120.936,90 L123.688,90 Z M129.224,90.192 C129.661333,90.192 130.058667,90.104 130.416,89.928 C130.773333,89.752 131.112,89.52 131.432,89.232 L131.432,89.232 L131.496,89.232 L131.688,90 L133.928,90 L133.928,85.552 C133.928,84.24 133.632,83.288 133.04,82.696 C132.448,82.104 131.634667,81.808 130.6,81.808 C129.970667,81.808 129.368,81.8986667 128.792,82.08 C128.216,82.2613333 127.645333,82.5226667 127.08,82.864 L127.08,82.864 L128.04,84.656 C128.456,84.432 128.824,84.264 129.144,84.152 C129.464,84.04 129.768,83.984 130.056,83.984 C130.738667,83.984 131.112,84.2613333 131.176,84.816 C129.64,84.976 128.530667,85.2933333 127.848,85.768 C127.165333,86.2426667 126.824,86.896 126.824,87.728 C126.824,88.0586667 126.877333,88.3733333 126.984,88.672 C127.090667,88.9706667 127.248,89.232 127.456,89.456 C127.664,89.68 127.917333,89.8586667 128.216,89.992 C128.514667,90.1253333 128.850667,90.192 129.224,90.192 Z M130.184,88.08 C129.693333,88.08 129.448,87.888 129.448,87.504 C129.448,87.28 129.570667,87.072 129.816,86.88 C130.061333,86.688 130.514667,86.544 131.176,86.448 L131.176,86.448 L131.176,87.536 C131.026667,87.696 130.88,87.8266667 130.736,87.928 C130.592,88.0293333 130.408,88.08 130.184,88.08 Z M138.696,90.192 C139.144,90.192 139.517333,90.16 139.816,90.096 C140.114667,90.032 140.370667,89.968 140.584,89.904 L140.584,89.904 L140.168,87.92 C140.072,87.952 139.962667,87.9813333 139.84,88.008 C139.717333,88.0346667 139.592,88.048 139.464,88.048 C139.208,88.048 138.984,87.9653333 138.792,87.8 C138.6,87.6346667 138.504,87.328 138.504,86.88 L138.504,86.88 L138.504,84.144 L140.328,84.144 L140.328,82 L138.504,82 L138.504,79.92 L136.232,79.92 L135.912,82 L134.696,82.096 L134.696,84.144 L135.752,84.144 L135.752,86.928 C135.752,87.4186667 135.808,87.864 135.92,88.264 C136.032,88.664 136.208,89.008 136.448,89.296 C136.688,89.584 136.992,89.8053333 137.36,89.96 C137.728,90.1146667 138.173333,90.192 138.696,90.192 Z M143.176,81.008 C143.624,81.008 143.992,80.88 144.28,80.624 C144.568,80.368 144.712,80.0373333 144.712,79.632 C144.712,79.2266667 144.568,78.896 144.28,78.64 C143.992,78.384 143.624,78.256 143.176,78.256 C142.728,78.256 142.36,78.384 142.072,78.64 C141.784,78.896 141.64,79.2266667 141.64,79.632 C141.64,80.0373333 141.784,80.368 142.072,80.624 C142.36,80.88 142.728,81.008 143.176,81.008 Z M144.552,90 L144.552,82 L141.8,82 L141.8,90 L144.552,90 Z M149.16,90 L149.16,84.752 C149.373333,84.56 149.565333,84.4106667 149.736,84.304 C149.906667,84.1973333 150.12,84.144 150.376,84.144 C150.653333,84.144 150.856,84.2293333 150.984,84.4 C151.112,84.5706667 151.176,84.912 151.176,85.424 L151.176,85.424 L151.176,90 L153.928,90 L153.928,85.072 C153.928,84.08 153.730667,83.288 153.336,82.696 C152.941333,82.104 152.306667,81.808 151.432,81.808 C150.888,81.808 150.410667,81.9226667 150,82.152 C149.589333,82.3813333 149.224,82.6506667 148.904,82.96 L148.904,82.96 L148.84,82.96 L148.648,82 L146.408,82 L146.408,90 L149.16,90 Z M158.632,93.296 C159.346667,93.296 159.989333,93.2266667 160.56,93.088 C161.130667,92.9493333 161.616,92.752 162.016,92.496 C162.416,92.24 162.725333,91.9333333 162.944,91.576 C163.162667,91.2186667 163.272,90.8213333 163.272,90.384 C163.272,89.648 162.997333,89.1173333 162.448,88.792 C161.898667,88.4666667 161.122667,88.304 160.12,88.304 L160.12,88.304 L158.92,88.304 C158.514667,88.304 158.226667,88.2693333 158.056,88.2 C157.885333,88.1306667 157.8,88.0053333 157.8,87.824 C157.8,87.7066667 157.810667,87.6186667 157.832,87.56 C157.853333,87.5013333 157.906667,87.4346667 157.992,87.36 C158.322667,87.4346667 158.621333,87.472 158.888,87.472 C159.336,87.472 159.757333,87.4213333 160.152,87.32 C160.546667,87.2186667 160.888,87.0613333 161.176,86.848 C161.464,86.6346667 161.693333,86.36 161.864,86.024 C162.034667,85.688 162.12,85.2853333 162.12,84.816 C162.12,84.656 162.106667,84.5013333 162.08,84.352 C162.053333,84.2026667 162.024,84.08 161.992,83.984 L161.992,83.984 L163.144,83.984 L163.144,82 L160.168,82 C159.784,81.872 159.357333,81.808 158.888,81.808 C158.450667,81.808 158.026667,81.8666667 157.616,81.984 C157.205333,82.1013333 156.84,82.28 156.52,82.52 C156.2,82.76 155.944,83.064 155.752,83.432 C155.56,83.8 155.464,84.2293333 155.464,84.72 C155.464,85.1893333 155.573333,85.6 155.792,85.952 C156.010667,86.304 156.264,86.576 156.552,86.768 L156.552,86.768 L156.552,86.832 C156.274667,87.024 156.056,87.2533333 155.896,87.52 C155.736,87.7866667 155.656,88.0586667 155.656,88.336 C155.656,88.6773333 155.725333,88.9546667 155.864,89.168 C156.002667,89.3813333 156.178667,89.5626667 156.392,89.712 L156.392,89.712 L156.392,89.776 C155.645333,90.1706667 155.272,90.6826667 155.272,91.312 C155.272,91.6746667 155.362667,91.9813333 155.544,92.232 C155.725333,92.4826667 155.968,92.688 156.272,92.848 C156.576,93.008 156.930667,93.1226667 157.336,93.192 C157.741333,93.2613333 158.173333,93.296 158.632,93.296 Z M158.888,85.84 C158.632,85.84 158.424,85.7493333 158.264,85.568 C158.104,85.3866667 158.024,85.104 158.024,84.72 C158.024,84.3466667 158.104,84.072 158.264,83.896 C158.424,83.72 158.632,83.632 158.888,83.632 C159.144,83.632 159.352,83.72 159.512,83.896 C159.672,84.072 159.752,84.3466667 159.752,84.72 C159.752,85.104 159.672,85.3866667 159.512,85.568 C159.352,85.7493333 159.144,85.84 158.888,85.84 Z M159.08,91.6 C158.610667,91.6 158.232,91.5413333 157.944,91.424 C157.656,91.3066667 157.512,91.12 157.512,90.864 C157.512,90.7466667 157.536,90.6453333 157.584,90.56 C157.632,90.4746667 157.704,90.384 157.8,90.288 C157.917333,90.32 158.058667,90.344 158.224,90.36 C158.389333,90.376 158.632,90.384 158.952,90.384 L159.576,90.384 C159.917333,90.384 160.181333,90.4106667 160.368,90.464 C160.554667,90.5173333 160.648,90.6506667 160.648,90.864 C160.648,91.088 160.498667,91.2666667 160.2,91.4 C159.901333,91.5333333 159.528,91.6 159.08,91.6 Z M165.288,84.848 C166.141333,84.4426667 166.770667,83.9333333 167.176,83.32 C167.581333,82.7066667 167.784,82 167.784,81.2 C167.784,80.464 167.642667,79.8906667 167.36,79.48 C167.077333,79.0693333 166.653333,78.864 166.088,78.864 C165.682667,78.864 165.352,78.9973333 165.096,79.264 C164.84,79.5306667 164.712,79.888 164.712,80.336 C164.712,80.7413333 164.845333,81.0613333 165.112,81.296 C165.378667,81.5306667 165.704,81.648 166.088,81.648 C166.162667,81.648 166.216,81.6426667 166.248,81.632 C166.248,82.112 166.12,82.5146667 165.864,82.84 C165.608,83.1653333 165.224,83.44 164.712,83.664 L164.712,83.664 L165.288,84.848 Z M169.448,84.848 C170.301333,84.4426667 170.930667,83.9333333 171.336,83.32 C171.741333,82.7066667 171.944,82 171.944,81.2 C171.944,80.464 171.802667,79.8906667 171.52,79.48 C171.237333,79.0693333 170.813333,78.864 170.248,78.864 C169.842667,78.864 169.512,78.9973333 169.256,79.264 C169,79.5306667 168.872,79.888 168.872,80.336 C168.872,80.7413333 169.005333,81.0613333 169.272,81.296 C169.538667,81.5306667 169.864,81.648 170.248,81.648 C170.322667,81.648 170.376,81.6426667 170.408,81.632 C170.408,82.112 170.28,82.5146667 170.024,82.84 C169.768,83.1653333 169.384,83.44 168.872,83.664 L168.872,83.664 L169.448,84.848 Z" id="Ididntseebilledannuallyontheotherpage,thatskindoffrustrating" fill="#202F48" fill-rule="nonzero"></path>
                            <g id="Group-7" transform="translate(14.000000, 32.000000)">
                                <rect id="Rectangle" fill-opacity="0.2" fill="#D07878" x="0" y="0" width="55" height="63" rx="10"></rect>
                                <g id="" fill-rule="nonzero">
                                    <use fill="#202F48" xlink:href="#path-1"></use>
                                    <use fill="#D07878" xlink:href="#path-1"></use>
                                </g>
                            </g>
                        </g>
                    </g>
                </g>
            </g>
        </g>
    </g>
</svg>