<?xml version="1.0" encoding="UTF-8"?>
<svg width="341px" height="127px" viewBox="0 0 341 127" version="1.1" xmlns="http://www.w3.org/2000/svg" xmlns:xlink="http://www.w3.org/1999/xlink">
    <!-- Generator: Sketch 63.1 (92452) - https://sketch.com -->
    <title>Quote-2</title>
    <desc>Created with Sketch.</desc>
    <defs>
        <path d="M21.982,40.578 C23.1726667,40.578 24.144,40.1863333 24.896,39.403 C25.648,38.6196667 26.024,37.57 26.024,36.254 C26.024,35.0633333 25.6323333,34.1233333 24.849,33.434 C24.0656667,32.7446667 23.11,32.4 21.982,32.4 C21.7626667,32.4 21.606,32.4156667 21.512,32.447 C21.512,31.037 21.888,29.8541667 22.64,28.8985 C23.392,27.9428333 24.52,27.136 26.024,26.478 L26.024,26.478 L24.332,23 C21.8253333,24.1906667 19.9766667,25.6868333 18.786,27.4885 C17.5953333,29.2901667 17,31.366 17,33.716 C17,35.878 17.4151667,37.5621667 18.2455,38.7685 C19.0758333,39.9748333 20.3213333,40.578 21.982,40.578 Z M34.202,40.578 C35.3926667,40.578 36.364,40.1863333 37.116,39.403 C37.868,38.6196667 38.244,37.57 38.244,36.254 C38.244,35.0633333 37.8523333,34.1233333 37.069,33.434 C36.2856667,32.7446667 35.33,32.4 34.202,32.4 C33.9826667,32.4 33.826,32.4156667 33.732,32.447 C33.732,31.037 34.108,29.8541667 34.86,28.8985 C35.612,27.9428333 36.74,27.136 38.244,26.478 L38.244,26.478 L36.552,23 C34.0453333,24.1906667 32.1966667,25.6868333 31.006,27.4885 C29.8153333,29.2901667 29.22,31.366 29.22,33.716 C29.22,35.878 29.6351667,37.5621667 30.4655,38.7685 C31.2958333,39.9748333 32.5413333,40.578 34.202,40.578 Z" id="path-1"></path>
    </defs>
    <g id="Central-Buy-Flow" stroke="none" stroke-width="1" fill="none" fill-rule="evenodd">
        <g id="Central-Buy-Flow---Mobile" transform="translate(-35.000000, -2692.000000)">
            <g id="Stacked-Group">
                <g id="Step-Copy-5" transform="translate(15.000000, 2657.000000)">
                    <g id="Stacked-Group" transform="translate(20.000000, 35.000000)">
                        <g id="Quote-2">
                            <rect id="Rectangle" fill="#FFFFFF" x="0" y="0" width="341" height="127"></rect>
                            <path d="M88.56,43.136 C88.9653333,43.136 89.296,43.0026667 89.552,42.736 C89.808,42.4693333 89.936,42.112 89.936,41.664 C89.936,41.2586667 89.8026667,40.9386667 89.536,40.704 C89.2693333,40.4693333 88.944,40.352 88.56,40.352 C88.4853333,40.352 88.432,40.3573333 88.4,40.368 C88.4,39.888 88.528,39.4853333 88.784,39.16 C89.04,38.8346667 89.424,38.56 89.936,38.336 L89.936,38.336 L89.36,37.152 C88.5066667,37.5573333 87.8773333,38.0666667 87.472,38.68 C87.0666667,39.2933333 86.864,40 86.864,40.8 C86.864,41.536 87.0053333,42.1093333 87.288,42.52 C87.5706667,42.9306667 87.9946667,43.136 88.56,43.136 Z M92.72,43.136 C93.1253333,43.136 93.456,43.0026667 93.712,42.736 C93.968,42.4693333 94.096,42.112 94.096,41.664 C94.096,41.2586667 93.9626667,40.9386667 93.696,40.704 C93.4293333,40.4693333 93.104,40.352 92.72,40.352 C92.6453333,40.352 92.592,40.3573333 92.56,40.368 C92.56,39.888 92.688,39.4853333 92.944,39.16 C93.2,38.8346667 93.584,38.56 94.096,38.336 L94.096,38.336 L93.52,37.152 C92.6666667,37.5573333 92.0373333,38.0666667 91.632,38.68 C91.2266667,39.2933333 91.024,40 91.024,40.8 C91.024,41.536 91.1653333,42.1093333 91.448,42.52 C91.7306667,42.9306667 92.1546667,43.136 92.72,43.136 Z M99.184,48 L99.184,37.6 L96.432,37.6 L96.432,48 L99.184,48 Z M106.928,48.192 C107.237333,48.192 107.501333,48.1706667 107.72,48.128 C107.938667,48.0853333 108.122667,48.032 108.272,47.968 L108.272,47.968 L107.952,45.952 C107.888,45.9733333 107.837333,45.984 107.8,45.984 L107.8,45.984 L107.664,45.984 C107.568,45.984 107.469333,45.936 107.368,45.84 C107.266667,45.744 107.216,45.5573333 107.216,45.28 L107.216,45.28 L107.216,36.864 L104.464,36.864 L104.464,45.184 C104.464,45.632 104.504,46.04 104.584,46.408 C104.664,46.776 104.8,47.0933333 104.992,47.36 C105.184,47.6266667 105.437333,47.832 105.752,47.976 C106.066667,48.12 106.458667,48.192 106.928,48.192 Z M110.608,39.008 C111.056,39.008 111.424,38.88 111.712,38.624 C112,38.368 112.144,38.0373333 112.144,37.632 C112.144,37.2266667 112,36.896 111.712,36.64 C111.424,36.384 111.056,36.256 110.608,36.256 C110.16,36.256 109.792,36.384 109.504,36.64 C109.216,36.896 109.072,37.2266667 109.072,37.632 C109.072,38.0373333 109.216,38.368 109.504,38.624 C109.792,38.88 110.16,39.008 110.608,39.008 Z M111.984,48 L111.984,40 L109.232,40 L109.232,48 L111.984,48 Z M116.528,48 L116.528,46.08 L117.36,45.152 L118.96,48 L121.936,48 L118.928,43.328 L121.776,40 L118.8,40 L116.592,42.784 L116.528,42.784 L116.528,36.864 L113.84,36.864 L113.84,48 L116.528,48 Z M126.128,48.192 C126.576,48.192 127.064,48.1146667 127.592,47.96 C128.12,47.8053333 128.602667,47.5733333 129.04,47.264 L129.04,47.264 L128.144,45.632 C127.856,45.792 127.581333,45.912 127.32,45.992 C127.058667,46.072 126.789333,46.112 126.512,46.112 C126.064,46.112 125.674667,46.0186667 125.344,45.832 C125.013333,45.6453333 124.784,45.312 124.656,44.832 L124.656,44.832 L129.216,44.832 C129.237333,44.736 129.261333,44.5813333 129.288,44.368 C129.314667,44.1546667 129.328,43.9253333 129.328,43.68 C129.328,43.1466667 129.256,42.6453333 129.112,42.176 C128.968,41.7066667 128.752,41.296 128.464,40.944 C128.176,40.592 127.813333,40.3146667 127.376,40.112 C126.938667,39.9093333 126.426667,39.808 125.84,39.808 C125.349333,39.808 124.874667,39.904 124.416,40.096 C123.957333,40.288 123.549333,40.5653333 123.192,40.928 C122.834667,41.2906667 122.546667,41.7306667 122.328,42.248 C122.109333,42.7653333 122,43.3493333 122,44 C122,44.6613333 122.106667,45.2533333 122.32,45.776 C122.533333,46.2986667 122.824,46.7386667 123.192,47.096 C123.56,47.4533333 123.994667,47.7253333 124.496,47.912 C124.997333,48.0986667 125.541333,48.192 126.128,48.192 Z M126.992,43.04 L124.624,43.04 C124.709333,42.6346667 124.866667,42.3413333 125.096,42.16 C125.325333,41.9786667 125.594667,41.888 125.904,41.888 C126.32,41.888 126.605333,42.0026667 126.76,42.232 C126.914667,42.4613333 126.992,42.7306667 126.992,43.04 L126.992,43.04 Z M135.408,39.008 C135.856,39.008 136.224,38.88 136.512,38.624 C136.8,38.368 136.944,38.0373333 136.944,37.632 C136.944,37.2266667 136.8,36.896 136.512,36.64 C136.224,36.384 135.856,36.256 135.408,36.256 C134.96,36.256 134.592,36.384 134.304,36.64 C134.016,36.896 133.872,37.2266667 133.872,37.632 C133.872,38.0373333 134.016,38.368 134.304,38.624 C134.592,38.88 134.96,39.008 135.408,39.008 Z M136.784,48 L136.784,40 L134.032,40 L134.032,48 L136.784,48 Z M141.936,48.192 C142.384,48.192 142.757333,48.16 143.056,48.096 C143.354667,48.032 143.610667,47.968 143.824,47.904 L143.824,47.904 L143.408,45.92 C143.312,45.952 143.202667,45.9813333 143.08,46.008 C142.957333,46.0346667 142.832,46.048 142.704,46.048 C142.448,46.048 142.224,45.9653333 142.032,45.8 C141.84,45.6346667 141.744,45.328 141.744,44.88 L141.744,44.88 L141.744,42.144 L143.568,42.144 L143.568,40 L141.744,40 L141.744,37.92 L139.472,37.92 L139.152,40 L137.936,40.096 L137.936,42.144 L138.992,42.144 L138.992,44.928 C138.992,45.4186667 139.048,45.864 139.16,46.264 C139.272,46.664 139.448,47.008 139.688,47.296 C139.928,47.584 140.232,47.8053333 140.6,47.96 C140.968,48.1146667 141.413333,48.192 141.936,48.192 Z M146.352,48.192 C146.821333,48.192 147.205333,48.032 147.504,47.712 C147.802667,47.392 147.952,46.9973333 147.952,46.528 C147.952,46.0586667 147.802667,45.664 147.504,45.344 C147.205333,45.024 146.821333,44.864 146.352,44.864 C145.882667,44.864 145.498667,45.024 145.2,45.344 C144.901333,45.664 144.752,46.0586667 144.752,46.528 C144.752,46.9973333 144.901333,47.392 145.2,47.712 C145.498667,48.032 145.882667,48.192 146.352,48.192 Z M156.016,48 L156.016,37.6 L153.264,37.6 L153.264,48 L156.016,48 Z M163.76,48.192 C164.069333,48.192 164.333333,48.1706667 164.552,48.128 C164.770667,48.0853333 164.954667,48.032 165.104,47.968 L165.104,47.968 L164.784,45.952 C164.72,45.9733333 164.669333,45.984 164.632,45.984 L164.632,45.984 L164.496,45.984 C164.4,45.984 164.301333,45.936 164.2,45.84 C164.098667,45.744 164.048,45.5573333 164.048,45.28 L164.048,45.28 L164.048,36.864 L161.296,36.864 L161.296,45.184 C161.296,45.632 161.336,46.04 161.416,46.408 C161.496,46.776 161.632,47.0933333 161.824,47.36 C162.016,47.6266667 162.269333,47.832 162.584,47.976 C162.898667,48.12 163.290667,48.192 163.76,48.192 Z M167.44,39.008 C167.888,39.008 168.256,38.88 168.544,38.624 C168.832,38.368 168.976,38.0373333 168.976,37.632 C168.976,37.2266667 168.832,36.896 168.544,36.64 C168.256,36.384 167.888,36.256 167.44,36.256 C166.992,36.256 166.624,36.384 166.336,36.64 C166.048,36.896 165.904,37.2266667 165.904,37.632 C165.904,38.0373333 166.048,38.368 166.336,38.624 C166.624,38.88 166.992,39.008 167.44,39.008 Z M168.816,48 L168.816,40 L166.064,40 L166.064,48 L168.816,48 Z M173.36,48 L173.36,46.08 L174.192,45.152 L175.792,48 L178.768,48 L175.76,43.328 L178.608,40 L175.632,40 L173.424,42.784 L173.36,42.784 L173.36,36.864 L170.672,36.864 L170.672,48 L173.36,48 Z M182.96,48.192 C183.408,48.192 183.896,48.1146667 184.424,47.96 C184.952,47.8053333 185.434667,47.5733333 185.872,47.264 L185.872,47.264 L184.976,45.632 C184.688,45.792 184.413333,45.912 184.152,45.992 C183.890667,46.072 183.621333,46.112 183.344,46.112 C182.896,46.112 182.506667,46.0186667 182.176,45.832 C181.845333,45.6453333 181.616,45.312 181.488,44.832 L181.488,44.832 L186.048,44.832 C186.069333,44.736 186.093333,44.5813333 186.12,44.368 C186.146667,44.1546667 186.16,43.9253333 186.16,43.68 C186.16,43.1466667 186.088,42.6453333 185.944,42.176 C185.8,41.7066667 185.584,41.296 185.296,40.944 C185.008,40.592 184.645333,40.3146667 184.208,40.112 C183.770667,39.9093333 183.258667,39.808 182.672,39.808 C182.181333,39.808 181.706667,39.904 181.248,40.096 C180.789333,40.288 180.381333,40.5653333 180.024,40.928 C179.666667,41.2906667 179.378667,41.7306667 179.16,42.248 C178.941333,42.7653333 178.832,43.3493333 178.832,44 C178.832,44.6613333 178.938667,45.2533333 179.152,45.776 C179.365333,46.2986667 179.656,46.7386667 180.024,47.096 C180.392,47.4533333 180.826667,47.7253333 181.328,47.912 C181.829333,48.0986667 182.373333,48.192 182.96,48.192 Z M183.824,43.04 L181.456,43.04 C181.541333,42.6346667 181.698667,42.3413333 181.928,42.16 C182.157333,41.9786667 182.426667,41.888 182.736,41.888 C183.152,41.888 183.437333,42.0026667 183.592,42.232 C183.746667,42.4613333 183.824,42.7306667 183.824,43.04 L183.824,43.04 Z M194.576,48.192 C195.024,48.192 195.512,48.1146667 196.04,47.96 C196.568,47.8053333 197.050667,47.5733333 197.488,47.264 L197.488,47.264 L196.592,45.632 C196.304,45.792 196.029333,45.912 195.768,45.992 C195.506667,46.072 195.237333,46.112 194.96,46.112 C194.512,46.112 194.122667,46.0186667 193.792,45.832 C193.461333,45.6453333 193.232,45.312 193.104,44.832 L193.104,44.832 L197.664,44.832 C197.685333,44.736 197.709333,44.5813333 197.736,44.368 C197.762667,44.1546667 197.776,43.9253333 197.776,43.68 C197.776,43.1466667 197.704,42.6453333 197.56,42.176 C197.416,41.7066667 197.2,41.296 196.912,40.944 C196.624,40.592 196.261333,40.3146667 195.824,40.112 C195.386667,39.9093333 194.874667,39.808 194.288,39.808 C193.797333,39.808 193.322667,39.904 192.864,40.096 C192.405333,40.288 191.997333,40.5653333 191.64,40.928 C191.282667,41.2906667 190.994667,41.7306667 190.776,42.248 C190.557333,42.7653333 190.448,43.3493333 190.448,44 C190.448,44.6613333 190.554667,45.2533333 190.768,45.776 C190.981333,46.2986667 191.272,46.7386667 191.64,47.096 C192.008,47.4533333 192.442667,47.7253333 192.944,47.912 C193.445333,48.0986667 193.989333,48.192 194.576,48.192 Z M195.44,43.04 L193.072,43.04 C193.157333,42.6346667 193.314667,42.3413333 193.544,42.16 C193.773333,41.9786667 194.042667,41.888 194.352,41.888 C194.768,41.888 195.053333,42.0026667 195.208,42.232 C195.362667,42.4613333 195.44,42.7306667 195.44,43.04 L195.44,43.04 Z M204.176,48 L206.704,40 L204.08,40 L203.216,43.488 C203.024,44.288 202.832,45.12 202.64,45.984 L202.64,45.984 L202.576,45.984 C202.384,45.12 202.192,44.288 202,43.488 L202,43.488 L201.136,40 L198.384,40 L201.008,48 L204.176,48 Z M211.376,48.192 C211.824,48.192 212.312,48.1146667 212.84,47.96 C213.368,47.8053333 213.850667,47.5733333 214.288,47.264 L214.288,47.264 L213.392,45.632 C213.104,45.792 212.829333,45.912 212.568,45.992 C212.306667,46.072 212.037333,46.112 211.76,46.112 C211.312,46.112 210.922667,46.0186667 210.592,45.832 C210.261333,45.6453333 210.032,45.312 209.904,44.832 L209.904,44.832 L214.464,44.832 C214.485333,44.736 214.509333,44.5813333 214.536,44.368 C214.562667,44.1546667 214.576,43.9253333 214.576,43.68 C214.576,43.1466667 214.504,42.6453333 214.36,42.176 C214.216,41.7066667 214,41.296 213.712,40.944 C213.424,40.592 213.061333,40.3146667 212.624,40.112 C212.186667,39.9093333 211.674667,39.808 211.088,39.808 C210.597333,39.808 210.122667,39.904 209.664,40.096 C209.205333,40.288 208.797333,40.5653333 208.44,40.928 C208.082667,41.2906667 207.794667,41.7306667 207.576,42.248 C207.357333,42.7653333 207.248,43.3493333 207.248,44 C207.248,44.6613333 207.354667,45.2533333 207.568,45.776 C207.781333,46.2986667 208.072,46.7386667 208.44,47.096 C208.808,47.4533333 209.242667,47.7253333 209.744,47.912 C210.245333,48.0986667 210.789333,48.192 211.376,48.192 Z M212.24,43.04 L209.872,43.04 C209.957333,42.6346667 210.114667,42.3413333 210.344,42.16 C210.573333,41.9786667 210.842667,41.888 211.152,41.888 C211.568,41.888 211.853333,42.0026667 212.008,42.232 C212.162667,42.4613333 212.24,42.7306667 212.24,43.04 L212.24,43.04 Z M218.832,48 L218.832,43.552 C219.024,43.0506667 219.277333,42.7013333 219.592,42.504 C219.906667,42.3066667 220.208,42.208 220.496,42.208 C220.677333,42.208 220.834667,42.2213333 220.968,42.248 C221.101333,42.2746667 221.242667,42.304 221.392,42.336 L221.392,42.336 L221.84,39.968 C221.722667,39.9146667 221.589333,39.8746667 221.44,39.848 C221.290667,39.8213333 221.093333,39.808 220.848,39.808 C220.453333,39.808 220.050667,39.9333333 219.64,40.184 C219.229333,40.4346667 218.874667,40.832 218.576,41.376 L218.576,41.376 L218.512,41.376 L218.32,40 L216.08,40 L216.08,48 L218.832,48 Z M223.952,51.008 C224.442667,51.008 224.872,50.9466667 225.24,50.824 C225.608,50.7013333 225.936,50.512 226.224,50.256 C226.512,50 226.765333,49.6746667 226.984,49.28 C227.202667,48.8853333 227.418667,48.416 227.632,47.872 L227.632,47.872 L230.32,40 L227.696,40 L226.896,43.072 C226.8,43.456 226.712,43.8346667 226.632,44.208 C226.552,44.5813333 226.469333,44.96 226.384,45.344 L226.384,45.344 L226.32,45.344 C226.224,44.9386667 226.133333,44.552 226.048,44.184 C225.962667,43.816 225.861333,43.4453333 225.744,43.072 L225.744,43.072 L224.784,40 L222.032,40 L225.072,47.712 L224.976,48.064 C224.890667,48.3093333 224.754667,48.504 224.568,48.648 C224.381333,48.792 224.101333,48.864 223.728,48.864 C223.642667,48.864 223.554667,48.8533333 223.464,48.832 C223.373333,48.8106667 223.290667,48.7893333 223.216,48.768 L223.216,48.768 L222.736,50.848 C222.917333,50.9013333 223.096,50.9413333 223.272,50.968 C223.448,50.9946667 223.674667,51.008 223.952,51.008 Z M234.736,48.192 C235.184,48.192 235.557333,48.16 235.856,48.096 C236.154667,48.032 236.410667,47.968 236.624,47.904 L236.624,47.904 L236.208,45.92 C236.112,45.952 236.002667,45.9813333 235.88,46.008 C235.757333,46.0346667 235.632,46.048 235.504,46.048 C235.248,46.048 235.024,45.9653333 234.832,45.8 C234.64,45.6346667 234.544,45.328 234.544,44.88 L234.544,44.88 L234.544,42.144 L236.368,42.144 L236.368,40 L234.544,40 L234.544,37.92 L232.272,37.92 L231.952,40 L230.736,40.096 L230.736,42.144 L231.792,42.144 L231.792,44.928 C231.792,45.4186667 231.848,45.864 231.96,46.264 C232.072,46.664 232.248,47.008 232.488,47.296 C232.728,47.584 233.032,47.8053333 233.4,47.96 C233.768,48.1146667 234.213333,48.192 234.736,48.192 Z M240.592,48 L240.592,42.752 C240.805333,42.56 240.997333,42.4106667 241.168,42.304 C241.338667,42.1973333 241.552,42.144 241.808,42.144 C242.085333,42.144 242.288,42.2293333 242.416,42.4 C242.544,42.5706667 242.608,42.912 242.608,43.424 L242.608,43.424 L242.608,48 L245.36,48 L245.36,43.072 C245.36,42.08 245.162667,41.288 244.768,40.696 C244.373333,40.104 243.738667,39.808 242.864,39.808 C242.32,39.808 241.853333,39.9173333 241.464,40.136 C241.074667,40.3546667 240.741333,40.5866667 240.464,40.832 L240.464,40.832 L240.592,39.456 L240.592,36.864 L237.84,36.864 L237.84,48 L240.592,48 Z M248.528,39.008 C248.976,39.008 249.344,38.88 249.632,38.624 C249.92,38.368 250.064,38.0373333 250.064,37.632 C250.064,37.2266667 249.92,36.896 249.632,36.64 C249.344,36.384 248.976,36.256 248.528,36.256 C248.08,36.256 247.712,36.384 247.424,36.64 C247.136,36.896 246.992,37.2266667 246.992,37.632 C246.992,38.0373333 247.136,38.368 247.424,38.624 C247.712,38.88 248.08,39.008 248.528,39.008 Z M249.904,48 L249.904,40 L247.152,40 L247.152,48 L249.904,48 Z M254.512,48 L254.512,42.752 C254.725333,42.56 254.917333,42.4106667 255.088,42.304 C255.258667,42.1973333 255.472,42.144 255.728,42.144 C256.005333,42.144 256.208,42.2293333 256.336,42.4 C256.464,42.5706667 256.528,42.912 256.528,43.424 L256.528,43.424 L256.528,48 L259.28,48 L259.28,43.072 C259.28,42.08 259.082667,41.288 258.688,40.696 C258.293333,40.104 257.658667,39.808 256.784,39.808 C256.24,39.808 255.762667,39.9226667 255.352,40.152 C254.941333,40.3813333 254.576,40.6506667 254.256,40.96 L254.256,40.96 L254.192,40.96 L254,40 L251.76,40 L251.76,48 L254.512,48 Z M263.984,51.296 C264.698667,51.296 265.341333,51.2266667 265.912,51.088 C266.482667,50.9493333 266.968,50.752 267.368,50.496 C267.768,50.24 268.077333,49.9333333 268.296,49.576 C268.514667,49.2186667 268.624,48.8213333 268.624,48.384 C268.624,47.648 268.349333,47.1173333 267.8,46.792 C267.250667,46.4666667 266.474667,46.304 265.472,46.304 L265.472,46.304 L264.272,46.304 C263.866667,46.304 263.578667,46.2693333 263.408,46.2 C263.237333,46.1306667 263.152,46.0053333 263.152,45.824 C263.152,45.7066667 263.162667,45.6186667 263.184,45.56 C263.205333,45.5013333 263.258667,45.4346667 263.344,45.36 C263.674667,45.4346667 263.973333,45.472 264.24,45.472 C264.688,45.472 265.109333,45.4213333 265.504,45.32 C265.898667,45.2186667 266.24,45.0613333 266.528,44.848 C266.816,44.6346667 267.045333,44.36 267.216,44.024 C267.386667,43.688 267.472,43.2853333 267.472,42.816 C267.472,42.656 267.458667,42.5013333 267.432,42.352 C267.405333,42.2026667 267.376,42.08 267.344,41.984 L267.344,41.984 L268.496,41.984 L268.496,40 L265.52,40 C265.136,39.872 264.709333,39.808 264.24,39.808 C263.802667,39.808 263.378667,39.8666667 262.968,39.984 C262.557333,40.1013333 262.192,40.28 261.872,40.52 C261.552,40.76 261.296,41.064 261.104,41.432 C260.912,41.8 260.816,42.2293333 260.816,42.72 C260.816,43.1893333 260.925333,43.6 261.144,43.952 C261.362667,44.304 261.616,44.576 261.904,44.768 L261.904,44.768 L261.904,44.832 C261.626667,45.024 261.408,45.2533333 261.248,45.52 C261.088,45.7866667 261.008,46.0586667 261.008,46.336 C261.008,46.6773333 261.077333,46.9546667 261.216,47.168 C261.354667,47.3813333 261.530667,47.5626667 261.744,47.712 L261.744,47.712 L261.744,47.776 C260.997333,48.1706667 260.624,48.6826667 260.624,49.312 C260.624,49.6746667 260.714667,49.9813333 260.896,50.232 C261.077333,50.4826667 261.32,50.688 261.624,50.848 C261.928,51.008 262.282667,51.1226667 262.688,51.192 C263.093333,51.2613333 263.525333,51.296 263.984,51.296 Z M264.24,43.84 C263.984,43.84 263.776,43.7493333 263.616,43.568 C263.456,43.3866667 263.376,43.104 263.376,42.72 C263.376,42.3466667 263.456,42.072 263.616,41.896 C263.776,41.72 263.984,41.632 264.24,41.632 C264.496,41.632 264.704,41.72 264.864,41.896 C265.024,42.072 265.104,42.3466667 265.104,42.72 C265.104,43.104 265.024,43.3866667 264.864,43.568 C264.704,43.7493333 264.496,43.84 264.24,43.84 Z M264.432,49.6 C263.962667,49.6 263.584,49.5413333 263.296,49.424 C263.008,49.3066667 262.864,49.12 262.864,48.864 C262.864,48.7466667 262.888,48.6453333 262.936,48.56 C262.984,48.4746667 263.056,48.384 263.152,48.288 C263.269333,48.32 263.410667,48.344 263.576,48.36 C263.741333,48.376 263.984,48.384 264.304,48.384 L264.928,48.384 C265.269333,48.384 265.533333,48.4106667 265.72,48.464 C265.906667,48.5173333 266,48.6506667 266,48.864 C266,49.088 265.850667,49.2666667 265.552,49.4 C265.253333,49.5333333 264.88,49.6 264.432,49.6 Z M276.56,48.192 C277.072,48.192 277.565333,48.0986667 278.04,47.912 C278.514667,47.7253333 278.936,47.4533333 279.304,47.096 C279.672,46.7386667 279.968,46.2986667 280.192,45.776 C280.416,45.2533333 280.528,44.6613333 280.528,44 C280.528,43.3386667 280.416,42.7466667 280.192,42.224 C279.968,41.7013333 279.672,41.2613333 279.304,40.904 C278.936,40.5466667 278.514667,40.2746667 278.04,40.088 C277.565333,39.9013333 277.072,39.808 276.56,39.808 C276.048,39.808 275.552,39.9013333 275.072,40.088 C274.592,40.2746667 274.168,40.5466667 273.8,40.904 C273.432,41.2613333 273.138667,41.7013333 272.92,42.224 C272.701333,42.7466667 272.592,43.3386667 272.592,44 C272.592,44.6613333 272.701333,45.2533333 272.92,45.776 C273.138667,46.2986667 273.432,46.7386667 273.8,47.096 C274.168,47.4533333 274.592,47.7253333 275.072,47.912 C275.552,48.0986667 276.048,48.192 276.56,48.192 Z M276.56,45.984 C276.144,45.984 275.848,45.8053333 275.672,45.448 C275.496,45.0906667 275.408,44.608 275.408,44 C275.408,43.392 275.496,42.9093333 275.672,42.552 C275.848,42.1946667 276.144,42.016 276.56,42.016 C276.976,42.016 277.272,42.1946667 277.448,42.552 C277.624,42.9093333 277.712,43.392 277.712,44 C277.712,44.608 277.624,45.0906667 277.448,45.448 C277.272,45.8053333 276.976,45.984 276.56,45.984 Z M284.72,48 L284.72,42.752 C284.933333,42.56 285.125333,42.4106667 285.296,42.304 C285.466667,42.1973333 285.68,42.144 285.936,42.144 C286.213333,42.144 286.416,42.2293333 286.544,42.4 C286.672,42.5706667 286.736,42.912 286.736,43.424 L286.736,43.424 L286.736,48 L289.488,48 L289.488,43.072 C289.488,42.08 289.290667,41.288 288.896,40.696 C288.501333,40.104 287.866667,39.808 286.992,39.808 C286.448,39.808 285.970667,39.9226667 285.56,40.152 C285.149333,40.3813333 284.784,40.6506667 284.464,40.96 L284.464,40.96 L284.4,40.96 L284.208,40 L281.968,40 L281.968,48 L284.72,48 Z M298.032,48.192 C298.544,48.192 299.037333,48.0986667 299.512,47.912 C299.986667,47.7253333 300.408,47.4533333 300.776,47.096 C301.144,46.7386667 301.44,46.2986667 301.664,45.776 C301.888,45.2533333 302,44.6613333 302,44 C302,43.3386667 301.888,42.7466667 301.664,42.224 C301.44,41.7013333 301.144,41.2613333 300.776,40.904 C300.408,40.5466667 299.986667,40.2746667 299.512,40.088 C299.037333,39.9013333 298.544,39.808 298.032,39.808 C297.52,39.808 297.024,39.9013333 296.544,40.088 C296.064,40.2746667 295.64,40.5466667 295.272,40.904 C294.904,41.2613333 294.610667,41.7013333 294.392,42.224 C294.173333,42.7466667 294.064,43.3386667 294.064,44 C294.064,44.6613333 294.173333,45.2533333 294.392,45.776 C294.610667,46.2986667 294.904,46.7386667 295.272,47.096 C295.64,47.4533333 296.064,47.7253333 296.544,47.912 C297.024,48.0986667 297.52,48.192 298.032,48.192 Z M298.032,45.984 C297.616,45.984 297.32,45.8053333 297.144,45.448 C296.968,45.0906667 296.88,44.608 296.88,44 C296.88,43.392 296.968,42.9093333 297.144,42.552 C297.32,42.1946667 297.616,42.016 298.032,42.016 C298.448,42.016 298.744,42.1946667 298.92,42.552 C299.096,42.9093333 299.184,43.392 299.184,44 C299.184,44.608 299.096,45.0906667 298.92,45.448 C298.744,45.8053333 298.448,45.984 298.032,45.984 Z M306.192,48 L306.192,42.752 C306.405333,42.56 306.597333,42.4106667 306.768,42.304 C306.938667,42.1973333 307.152,42.144 307.408,42.144 C307.685333,42.144 307.888,42.2293333 308.016,42.4 C308.144,42.5706667 308.208,42.912 308.208,43.424 L308.208,43.424 L308.208,48 L310.96,48 L310.96,43.072 C310.96,42.08 310.762667,41.288 310.368,40.696 C309.973333,40.104 309.338667,39.808 308.464,39.808 C307.92,39.808 307.442667,39.9226667 307.032,40.152 C306.621333,40.3813333 306.256,40.6506667 305.936,40.96 L305.936,40.96 L305.872,40.96 L305.68,40 L303.44,40 L303.44,48 L306.192,48 Z M316.464,48.192 C316.912,48.192 317.4,48.1146667 317.928,47.96 C318.456,47.8053333 318.938667,47.5733333 319.376,47.264 L319.376,47.264 L318.48,45.632 C318.192,45.792 317.917333,45.912 317.656,45.992 C317.394667,46.072 317.125333,46.112 316.848,46.112 C316.4,46.112 316.010667,46.0186667 315.68,45.832 C315.349333,45.6453333 315.12,45.312 314.992,44.832 L314.992,44.832 L319.552,44.832 C319.573333,44.736 319.597333,44.5813333 319.624,44.368 C319.650667,44.1546667 319.664,43.9253333 319.664,43.68 C319.664,43.1466667 319.592,42.6453333 319.448,42.176 C319.304,41.7066667 319.088,41.296 318.8,40.944 C318.512,40.592 318.149333,40.3146667 317.712,40.112 C317.274667,39.9093333 316.762667,39.808 316.176,39.808 C315.685333,39.808 315.210667,39.904 314.752,40.096 C314.293333,40.288 313.885333,40.5653333 313.528,40.928 C313.170667,41.2906667 312.882667,41.7306667 312.664,42.248 C312.445333,42.7653333 312.336,43.3493333 312.336,44 C312.336,44.6613333 312.442667,45.2533333 312.656,45.776 C312.869333,46.2986667 313.16,46.7386667 313.528,47.096 C313.896,47.4533333 314.330667,47.7253333 314.832,47.912 C315.333333,48.0986667 315.877333,48.192 316.464,48.192 Z M317.328,43.04 L314.96,43.04 C315.045333,42.6346667 315.202667,42.3413333 315.432,42.16 C315.661333,41.9786667 315.930667,41.888 316.24,41.888 C316.656,41.888 316.941333,42.0026667 317.096,42.232 C317.250667,42.4613333 317.328,42.7306667 317.328,43.04 L317.328,43.04 Z M89.68,71.816 L89.68,69.608 L89.584,68.392 C90.1173333,68.9253333 90.7146667,69.192 91.376,69.192 C91.8026667,69.192 92.216,69.096 92.616,68.904 C93.016,68.712 93.3706667,68.432 93.68,68.064 C93.9893333,67.696 94.2373333,67.2453333 94.424,66.712 C94.6106667,66.1786667 94.704,65.5653333 94.704,64.872 C94.704,64.2533333 94.632,63.6933333 94.488,63.192 C94.344,62.6906667 94.136,62.264 93.864,61.912 C93.592,61.56 93.264,61.288 92.88,61.096 C92.496,60.904 92.0693333,60.808 91.6,60.808 C91.1946667,60.808 90.8053333,60.8933333 90.432,61.064 C90.0586667,61.2346667 89.7226667,61.4586667 89.424,61.736 L89.424,61.736 L89.36,61.736 L89.168,61 L86.928,61 L86.928,71.816 L89.68,71.816 Z M90.704,66.952 C90.5226667,66.952 90.3466667,66.9253333 90.176,66.872 C90.0053333,66.8186667 89.84,66.7173333 89.68,66.568 L89.68,66.568 L89.68,63.624 C89.8613333,63.4106667 90.0346667,63.2613333 90.2,63.176 C90.3653333,63.0906667 90.5546667,63.048 90.768,63.048 C91.1413333,63.048 91.4213333,63.192 91.608,63.48 C91.7946667,63.768 91.888,64.2426667 91.888,64.904 C91.888,65.672 91.7706667,66.2053333 91.536,66.504 C91.3013333,66.8026667 91.024,66.952 90.704,66.952 Z M98.128,69.192 C98.5653333,69.192 98.9626667,69.104 99.32,68.928 C99.6773333,68.752 100.016,68.52 100.336,68.232 L100.336,68.232 L100.4,68.232 L100.592,69 L102.832,69 L102.832,64.552 C102.832,63.24 102.536,62.288 101.944,61.696 C101.352,61.104 100.538667,60.808 99.504,60.808 C98.8746667,60.808 98.272,60.8986667 97.696,61.08 C97.12,61.2613333 96.5493333,61.5226667 95.984,61.864 L95.984,61.864 L96.944,63.656 C97.36,63.432 97.728,63.264 98.048,63.152 C98.368,63.04 98.672,62.984 98.96,62.984 C99.6426667,62.984 100.016,63.2613333 100.08,63.816 C98.544,63.976 97.4346667,64.2933333 96.752,64.768 C96.0693333,65.2426667 95.728,65.896 95.728,66.728 C95.728,67.0586667 95.7813333,67.3733333 95.888,67.672 C95.9946667,67.9706667 96.152,68.232 96.36,68.456 C96.568,68.68 96.8213333,68.8586667 97.12,68.992 C97.4186667,69.1253333 97.7546667,69.192 98.128,69.192 Z M99.088,67.08 C98.5973333,67.08 98.352,66.888 98.352,66.504 C98.352,66.28 98.4746667,66.072 98.72,65.88 C98.9653333,65.688 99.4186667,65.544 100.08,65.448 L100.08,65.448 L100.08,66.536 C99.9306667,66.696 99.784,66.8266667 99.64,66.928 C99.496,67.0293333 99.312,67.08 99.088,67.08 Z M107.536,72.296 C108.250667,72.296 108.893333,72.2266667 109.464,72.088 C110.034667,71.9493333 110.52,71.752 110.92,71.496 C111.32,71.24 111.629333,70.9333333 111.848,70.576 C112.066667,70.2186667 112.176,69.8213333 112.176,69.384 C112.176,68.648 111.901333,68.1173333 111.352,67.792 C110.802667,67.4666667 110.026667,67.304 109.024,67.304 L109.024,67.304 L107.824,67.304 C107.418667,67.304 107.130667,67.2693333 106.96,67.2 C106.789333,67.1306667 106.704,67.0053333 106.704,66.824 C106.704,66.7066667 106.714667,66.6186667 106.736,66.56 C106.757333,66.5013333 106.810667,66.4346667 106.896,66.36 C107.226667,66.4346667 107.525333,66.472 107.792,66.472 C108.24,66.472 108.661333,66.4213333 109.056,66.32 C109.450667,66.2186667 109.792,66.0613333 110.08,65.848 C110.368,65.6346667 110.597333,65.36 110.768,65.024 C110.938667,64.688 111.024,64.2853333 111.024,63.816 C111.024,63.656 111.010667,63.5013333 110.984,63.352 C110.957333,63.2026667 110.928,63.08 110.896,62.984 L110.896,62.984 L112.048,62.984 L112.048,61 L109.072,61 C108.688,60.872 108.261333,60.808 107.792,60.808 C107.354667,60.808 106.930667,60.8666667 106.52,60.984 C106.109333,61.1013333 105.744,61.28 105.424,61.52 C105.104,61.76 104.848,62.064 104.656,62.432 C104.464,62.8 104.368,63.2293333 104.368,63.72 C104.368,64.1893333 104.477333,64.6 104.696,64.952 C104.914667,65.304 105.168,65.576 105.456,65.768 L105.456,65.768 L105.456,65.832 C105.178667,66.024 104.96,66.2533333 104.8,66.52 C104.64,66.7866667 104.56,67.0586667 104.56,67.336 C104.56,67.6773333 104.629333,67.9546667 104.768,68.168 C104.906667,68.3813333 105.082667,68.5626667 105.296,68.712 L105.296,68.712 L105.296,68.776 C104.549333,69.1706667 104.176,69.6826667 104.176,70.312 C104.176,70.6746667 104.266667,70.9813333 104.448,71.232 C104.629333,71.4826667 104.872,71.688 105.176,71.848 C105.48,72.008 105.834667,72.1226667 106.24,72.192 C106.645333,72.2613333 107.077333,72.296 107.536,72.296 Z M107.792,64.84 C107.536,64.84 107.328,64.7493333 107.168,64.568 C107.008,64.3866667 106.928,64.104 106.928,63.72 C106.928,63.3466667 107.008,63.072 107.168,62.896 C107.328,62.72 107.536,62.632 107.792,62.632 C108.048,62.632 108.256,62.72 108.416,62.896 C108.576,63.072 108.656,63.3466667 108.656,63.72 C108.656,64.104 108.576,64.3866667 108.416,64.568 C108.256,64.7493333 108.048,64.84 107.792,64.84 Z M107.984,70.6 C107.514667,70.6 107.136,70.5413333 106.848,70.424 C106.56,70.3066667 106.416,70.12 106.416,69.864 C106.416,69.7466667 106.44,69.6453333 106.488,69.56 C106.536,69.4746667 106.608,69.384 106.704,69.288 C106.821333,69.32 106.962667,69.344 107.128,69.36 C107.293333,69.376 107.536,69.384 107.856,69.384 L108.48,69.384 C108.821333,69.384 109.085333,69.4106667 109.272,69.464 C109.458667,69.5173333 109.552,69.6506667 109.552,69.864 C109.552,70.088 109.402667,70.2666667 109.104,70.4 C108.805333,70.5333333 108.432,70.6 107.984,70.6 Z M116.752,69.192 C117.2,69.192 117.688,69.1146667 118.216,68.96 C118.744,68.8053333 119.226667,68.5733333 119.664,68.264 L119.664,68.264 L118.768,66.632 C118.48,66.792 118.205333,66.912 117.944,66.992 C117.682667,67.072 117.413333,67.112 117.136,67.112 C116.688,67.112 116.298667,67.0186667 115.968,66.832 C115.637333,66.6453333 115.408,66.312 115.28,65.832 L115.28,65.832 L119.84,65.832 C119.861333,65.736 119.885333,65.5813333 119.912,65.368 C119.938667,65.1546667 119.952,64.9253333 119.952,64.68 C119.952,64.1466667 119.88,63.6453333 119.736,63.176 C119.592,62.7066667 119.376,62.296 119.088,61.944 C118.8,61.592 118.437333,61.3146667 118,61.112 C117.562667,60.9093333 117.050667,60.808 116.464,60.808 C115.973333,60.808 115.498667,60.904 115.04,61.096 C114.581333,61.288 114.173333,61.5653333 113.816,61.928 C113.458667,62.2906667 113.170667,62.7306667 112.952,63.248 C112.733333,63.7653333 112.624,64.3493333 112.624,65 C112.624,65.6613333 112.730667,66.2533333 112.944,66.776 C113.157333,67.2986667 113.448,67.7386667 113.816,68.096 C114.184,68.4533333 114.618667,68.7253333 115.12,68.912 C115.621333,69.0986667 116.165333,69.192 116.752,69.192 Z M117.616,64.04 L115.248,64.04 C115.333333,63.6346667 115.490667,63.3413333 115.72,63.16 C115.949333,62.9786667 116.218667,62.888 116.528,62.888 C116.944,62.888 117.229333,63.0026667 117.384,63.232 C117.538667,63.4613333 117.616,63.7306667 117.616,64.04 L117.616,64.04 Z M123.088,69.192 C123.557333,69.192 123.941333,69.032 124.24,68.712 C124.538667,68.392 124.688,67.9973333 124.688,67.528 C124.688,67.0586667 124.538667,66.664 124.24,66.344 C123.941333,66.024 123.557333,65.864 123.088,65.864 C122.618667,65.864 122.234667,66.024 121.936,66.344 C121.637333,66.664 121.488,67.0586667 121.488,67.528 C121.488,67.9973333 121.637333,68.392 121.936,68.712 C122.234667,69.032 122.618667,69.192 123.088,69.192 Z M132.752,69 L132.752,58.6 L130,58.6 L130,69 L132.752,69 Z M138.128,69.192 C138.576,69.192 138.949333,69.16 139.248,69.096 C139.546667,69.032 139.802667,68.968 140.016,68.904 L140.016,68.904 L139.6,66.92 C139.504,66.952 139.394667,66.9813333 139.272,67.008 C139.149333,67.0346667 139.024,67.048 138.896,67.048 C138.64,67.048 138.416,66.9653333 138.224,66.8 C138.032,66.6346667 137.936,66.328 137.936,65.88 L137.936,65.88 L137.936,63.144 L139.76,63.144 L139.76,61 L137.936,61 L137.936,58.92 L135.664,58.92 L135.344,61 L134.128,61.096 L134.128,63.144 L135.184,63.144 L135.184,65.928 C135.184,66.4186667 135.24,66.864 135.352,67.264 C135.464,67.664 135.64,68.008 135.88,68.296 C136.12,68.584 136.424,68.8053333 136.792,68.96 C137.16,69.1146667 137.605333,69.192 138.128,69.192 Z M142.064,63.848 C142.917333,63.4426667 143.546667,62.9333333 143.952,62.32 C144.357333,61.7066667 144.56,61 144.56,60.2 C144.56,59.464 144.418667,58.8906667 144.136,58.48 C143.853333,58.0693333 143.429333,57.864 142.864,57.864 C142.458667,57.864 142.128,57.9973333 141.872,58.264 C141.616,58.5306667 141.488,58.888 141.488,59.336 C141.488,59.7413333 141.621333,60.0613333 141.888,60.296 C142.154667,60.5306667 142.48,60.648 142.864,60.648 C142.938667,60.648 142.992,60.6426667 143.024,60.632 C143.024,61.112 142.896,61.5146667 142.64,61.84 C142.384,62.1653333 142,62.44 141.488,62.664 L141.488,62.664 L142.064,63.848 Z M148.336,69.192 C148.890667,69.192 149.381333,69.1253333 149.808,68.992 C150.234667,68.8586667 150.592,68.672 150.88,68.432 C151.168,68.192 151.386667,67.9093333 151.536,67.584 C151.685333,67.2586667 151.76,66.9093333 151.76,66.536 C151.76,66.1733333 151.698667,65.8613333 151.576,65.6 C151.453333,65.3386667 151.293333,65.1146667 151.096,64.928 C150.898667,64.7413333 150.677333,64.584 150.432,64.456 C150.186667,64.328 149.946667,64.2213333 149.712,64.136 C149.509333,64.0613333 149.317333,63.9946667 149.136,63.936 C148.954667,63.8773333 148.794667,63.816 148.656,63.752 C148.517333,63.688 148.408,63.6186667 148.328,63.544 C148.248,63.4693333 148.208,63.3786667 148.208,63.272 C148.208,62.9733333 148.442667,62.824 148.912,62.824 C149.157333,62.824 149.418667,62.8826667 149.696,63 C149.973333,63.1173333 150.256,63.2826667 150.544,63.496 L150.544,63.496 L151.76,61.864 C151.408,61.5973333 150.994667,61.3546667 150.52,61.136 C150.045333,60.9173333 149.477333,60.808 148.816,60.808 C148.346667,60.808 147.917333,60.8693333 147.528,60.992 C147.138667,61.1146667 146.805333,61.288 146.528,61.512 C146.250667,61.736 146.034667,62.008 145.88,62.328 C145.725333,62.648 145.648,63.0053333 145.648,63.4 C145.648,63.7306667 145.709333,64.0213333 145.832,64.272 C145.954667,64.5226667 146.112,64.744 146.304,64.936 C146.496,65.128 146.712,65.2906667 146.952,65.424 C147.192,65.5573333 147.429333,65.672 147.664,65.768 C147.866667,65.8533333 148.058667,65.928 148.24,65.992 C148.421333,66.056 148.584,66.1226667 148.728,66.192 C148.872,66.2613333 148.986667,66.336 149.072,66.416 C149.157333,66.496 149.2,66.5893333 149.2,66.696 C149.2,66.856 149.138667,66.976 149.016,67.056 C148.893333,67.136 148.688,67.176 148.4,67.176 C147.824,67.176 147.173333,66.9093333 146.448,66.376 L146.448,66.376 L145.232,68.072 C145.648,68.4133333 146.141333,68.6853333 146.712,68.888 C147.282667,69.0906667 147.824,69.192 148.336,69.192 Z M159.056,69 L159.056,63.752 C159.269333,63.56 159.461333,63.4106667 159.632,63.304 C159.802667,63.1973333 160.016,63.144 160.272,63.144 C160.549333,63.144 160.752,63.2293333 160.88,63.4 C161.008,63.5706667 161.072,63.912 161.072,64.424 L161.072,64.424 L161.072,69 L163.824,69 L163.824,64.072 C163.824,63.08 163.626667,62.288 163.232,61.696 C162.837333,61.104 162.202667,60.808 161.328,60.808 C160.784,60.808 160.306667,60.9226667 159.896,61.152 C159.485333,61.3813333 159.12,61.6506667 158.8,61.96 L158.8,61.96 L158.736,61.96 L158.544,61 L156.304,61 L156.304,69 L159.056,69 Z M169.168,69.192 C169.68,69.192 170.173333,69.0986667 170.648,68.912 C171.122667,68.7253333 171.544,68.4533333 171.912,68.096 C172.28,67.7386667 172.576,67.2986667 172.8,66.776 C173.024,66.2533333 173.136,65.6613333 173.136,65 C173.136,64.3386667 173.024,63.7466667 172.8,63.224 C172.576,62.7013333 172.28,62.2613333 171.912,61.904 C171.544,61.5466667 171.122667,61.2746667 170.648,61.088 C170.173333,60.9013333 169.68,60.808 169.168,60.808 C168.656,60.808 168.16,60.9013333 167.68,61.088 C167.2,61.2746667 166.776,61.5466667 166.408,61.904 C166.04,62.2613333 165.746667,62.7013333 165.528,63.224 C165.309333,63.7466667 165.2,64.3386667 165.2,65 C165.2,65.6613333 165.309333,66.2533333 165.528,66.776 C165.746667,67.2986667 166.04,67.7386667 166.408,68.096 C166.776,68.4533333 167.2,68.7253333 167.68,68.912 C168.16,69.0986667 168.656,69.192 169.168,69.192 Z M169.168,66.984 C168.752,66.984 168.456,66.8053333 168.28,66.448 C168.104,66.0906667 168.016,65.608 168.016,65 C168.016,64.392 168.104,63.9093333 168.28,63.552 C168.456,63.1946667 168.752,63.016 169.168,63.016 C169.584,63.016 169.88,63.1946667 170.056,63.552 C170.232,63.9093333 170.32,64.392 170.32,65 C170.32,65.608 170.232,66.0906667 170.056,66.448 C169.88,66.8053333 169.584,66.984 169.168,66.984 Z M177.392,69.192 C177.84,69.192 178.213333,69.16 178.512,69.096 C178.810667,69.032 179.066667,68.968 179.28,68.904 L179.28,68.904 L178.864,66.92 C178.768,66.952 178.658667,66.9813333 178.536,67.008 C178.413333,67.0346667 178.288,67.048 178.16,67.048 C177.904,67.048 177.68,66.9653333 177.488,66.8 C177.296,66.6346667 177.2,66.328 177.2,65.88 L177.2,65.88 L177.2,63.144 L179.024,63.144 L179.024,61 L177.2,61 L177.2,58.92 L174.928,58.92 L174.608,61 L173.392,61.096 L173.392,63.144 L174.448,63.144 L174.448,65.928 C174.448,66.4186667 174.504,66.864 174.616,67.264 C174.728,67.664 174.904,68.008 175.144,68.296 C175.384,68.584 175.688,68.8053333 176.056,68.96 C176.424,69.1146667 176.869333,69.192 177.392,69.192 Z M186.448,69 L186.448,63.752 C186.661333,63.56 186.853333,63.4106667 187.024,63.304 C187.194667,63.1973333 187.408,63.144 187.664,63.144 C187.941333,63.144 188.144,63.2293333 188.272,63.4 C188.4,63.5706667 188.464,63.912 188.464,64.424 L188.464,64.424 L188.464,69 L191.216,69 L191.216,64.072 C191.216,63.08 191.018667,62.288 190.624,61.696 C190.229333,61.104 189.594667,60.808 188.72,60.808 C188.176,60.808 187.698667,60.9226667 187.288,61.152 C186.877333,61.3813333 186.512,61.6506667 186.192,61.96 L186.192,61.96 L186.128,61.96 L185.936,61 L183.696,61 L183.696,69 L186.448,69 Z M196.72,69.192 C197.168,69.192 197.656,69.1146667 198.184,68.96 C198.712,68.8053333 199.194667,68.5733333 199.632,68.264 L199.632,68.264 L198.736,66.632 C198.448,66.792 198.173333,66.912 197.912,66.992 C197.650667,67.072 197.381333,67.112 197.104,67.112 C196.656,67.112 196.266667,67.0186667 195.936,66.832 C195.605333,66.6453333 195.376,66.312 195.248,65.832 L195.248,65.832 L199.808,65.832 C199.829333,65.736 199.853333,65.5813333 199.88,65.368 C199.906667,65.1546667 199.92,64.9253333 199.92,64.68 C199.92,64.1466667 199.848,63.6453333 199.704,63.176 C199.56,62.7066667 199.344,62.296 199.056,61.944 C198.768,61.592 198.405333,61.3146667 197.968,61.112 C197.530667,60.9093333 197.018667,60.808 196.432,60.808 C195.941333,60.808 195.466667,60.904 195.008,61.096 C194.549333,61.288 194.141333,61.5653333 193.784,61.928 C193.426667,62.2906667 193.138667,62.7306667 192.92,63.248 C192.701333,63.7653333 192.592,64.3493333 192.592,65 C192.592,65.6613333 192.698667,66.2533333 192.912,66.776 C193.125333,67.2986667 193.416,67.7386667 193.784,68.096 C194.152,68.4533333 194.586667,68.7253333 195.088,68.912 C195.589333,69.0986667 196.133333,69.192 196.72,69.192 Z M197.584,64.04 L195.216,64.04 C195.301333,63.6346667 195.458667,63.3413333 195.688,63.16 C195.917333,62.9786667 196.186667,62.888 196.496,62.888 C196.912,62.888 197.197333,63.0026667 197.352,63.232 C197.506667,63.4613333 197.584,63.7306667 197.584,64.04 L197.584,64.04 Z M205.04,69.192 C205.456,69.192 205.901333,69.1253333 206.376,68.992 C206.850667,68.8586667 207.290667,68.616 207.696,68.264 L207.696,68.264 L206.64,66.472 C206.448,66.6213333 206.242667,66.744 206.024,66.84 C205.805333,66.936 205.584,66.984 205.36,66.984 C204.922667,66.984 204.557333,66.8053333 204.264,66.448 C203.970667,66.0906667 203.824,65.608 203.824,65 C203.824,64.392 203.968,63.9093333 204.256,63.552 C204.544,63.1946667 204.944,63.016 205.456,63.016 C205.605333,63.016 205.746667,63.0426667 205.88,63.096 C206.013333,63.1493333 206.170667,63.2506667 206.352,63.4 L206.352,63.4 L207.632,61.64 C207.322667,61.384 206.976,61.1813333 206.592,61.032 C206.208,60.8826667 205.776,60.808 205.296,60.808 C204.730667,60.808 204.189333,60.9013333 203.672,61.088 C203.154667,61.2746667 202.698667,61.5466667 202.304,61.904 C201.909333,62.2613333 201.594667,62.7013333 201.36,63.224 C201.125333,63.7466667 201.008,64.3386667 201.008,65 C201.008,65.6613333 201.112,66.2533333 201.32,66.776 C201.528,67.2986667 201.813333,67.7386667 202.176,68.096 C202.538667,68.4533333 202.965333,68.7253333 203.456,68.912 C203.946667,69.0986667 204.474667,69.192 205.04,69.192 Z M212.208,69.192 C212.656,69.192 213.144,69.1146667 213.672,68.96 C214.2,68.8053333 214.682667,68.5733333 215.12,68.264 L215.12,68.264 L214.224,66.632 C213.936,66.792 213.661333,66.912 213.4,66.992 C213.138667,67.072 212.869333,67.112 212.592,67.112 C212.144,67.112 211.754667,67.0186667 211.424,66.832 C211.093333,66.6453333 210.864,66.312 210.736,65.832 L210.736,65.832 L215.296,65.832 C215.317333,65.736 215.341333,65.5813333 215.368,65.368 C215.394667,65.1546667 215.408,64.9253333 215.408,64.68 C215.408,64.1466667 215.336,63.6453333 215.192,63.176 C215.048,62.7066667 214.832,62.296 214.544,61.944 C214.256,61.592 213.893333,61.3146667 213.456,61.112 C213.018667,60.9093333 212.506667,60.808 211.92,60.808 C211.429333,60.808 210.954667,60.904 210.496,61.096 C210.037333,61.288 209.629333,61.5653333 209.272,61.928 C208.914667,62.2906667 208.626667,62.7306667 208.408,63.248 C208.189333,63.7653333 208.08,64.3493333 208.08,65 C208.08,65.6613333 208.186667,66.2533333 208.4,66.776 C208.613333,67.2986667 208.904,67.7386667 209.272,68.096 C209.64,68.4533333 210.074667,68.7253333 210.576,68.912 C211.077333,69.0986667 211.621333,69.192 212.208,69.192 Z M213.072,64.04 L210.704,64.04 C210.789333,63.6346667 210.946667,63.3413333 211.176,63.16 C211.405333,62.9786667 211.674667,62.888 211.984,62.888 C212.4,62.888 212.685333,63.0026667 212.84,63.232 C212.994667,63.4613333 213.072,63.7306667 213.072,64.04 L213.072,64.04 Z M219.376,69.192 C219.930667,69.192 220.421333,69.1253333 220.848,68.992 C221.274667,68.8586667 221.632,68.672 221.92,68.432 C222.208,68.192 222.426667,67.9093333 222.576,67.584 C222.725333,67.2586667 222.8,66.9093333 222.8,66.536 C222.8,66.1733333 222.738667,65.8613333 222.616,65.6 C222.493333,65.3386667 222.333333,65.1146667 222.136,64.928 C221.938667,64.7413333 221.717333,64.584 221.472,64.456 C221.226667,64.328 220.986667,64.2213333 220.752,64.136 C220.549333,64.0613333 220.357333,63.9946667 220.176,63.936 C219.994667,63.8773333 219.834667,63.816 219.696,63.752 C219.557333,63.688 219.448,63.6186667 219.368,63.544 C219.288,63.4693333 219.248,63.3786667 219.248,63.272 C219.248,62.9733333 219.482667,62.824 219.952,62.824 C220.197333,62.824 220.458667,62.8826667 220.736,63 C221.013333,63.1173333 221.296,63.2826667 221.584,63.496 L221.584,63.496 L222.8,61.864 C222.448,61.5973333 222.034667,61.3546667 221.56,61.136 C221.085333,60.9173333 220.517333,60.808 219.856,60.808 C219.386667,60.808 218.957333,60.8693333 218.568,60.992 C218.178667,61.1146667 217.845333,61.288 217.568,61.512 C217.290667,61.736 217.074667,62.008 216.92,62.328 C216.765333,62.648 216.688,63.0053333 216.688,63.4 C216.688,63.7306667 216.749333,64.0213333 216.872,64.272 C216.994667,64.5226667 217.152,64.744 217.344,64.936 C217.536,65.128 217.752,65.2906667 217.992,65.424 C218.232,65.5573333 218.469333,65.672 218.704,65.768 C218.906667,65.8533333 219.098667,65.928 219.28,65.992 C219.461333,66.056 219.624,66.1226667 219.768,66.192 C219.912,66.2613333 220.026667,66.336 220.112,66.416 C220.197333,66.496 220.24,66.5893333 220.24,66.696 C220.24,66.856 220.178667,66.976 220.056,67.056 C219.933333,67.136 219.728,67.176 219.44,67.176 C218.864,67.176 218.213333,66.9093333 217.488,66.376 L217.488,66.376 L216.272,68.072 C216.688,68.4133333 217.181333,68.6853333 217.752,68.888 C218.322667,69.0906667 218.864,69.192 219.376,69.192 Z M226.608,69.192 C227.162667,69.192 227.653333,69.1253333 228.08,68.992 C228.506667,68.8586667 228.864,68.672 229.152,68.432 C229.44,68.192 229.658667,67.9093333 229.808,67.584 C229.957333,67.2586667 230.032,66.9093333 230.032,66.536 C230.032,66.1733333 229.970667,65.8613333 229.848,65.6 C229.725333,65.3386667 229.565333,65.1146667 229.368,64.928 C229.170667,64.7413333 228.949333,64.584 228.704,64.456 C228.458667,64.328 228.218667,64.2213333 227.984,64.136 C227.781333,64.0613333 227.589333,63.9946667 227.408,63.936 C227.226667,63.8773333 227.066667,63.816 226.928,63.752 C226.789333,63.688 226.68,63.6186667 226.6,63.544 C226.52,63.4693333 226.48,63.3786667 226.48,63.272 C226.48,62.9733333 226.714667,62.824 227.184,62.824 C227.429333,62.824 227.690667,62.8826667 227.968,63 C228.245333,63.1173333 228.528,63.2826667 228.816,63.496 L228.816,63.496 L230.032,61.864 C229.68,61.5973333 229.266667,61.3546667 228.792,61.136 C228.317333,60.9173333 227.749333,60.808 227.088,60.808 C226.618667,60.808 226.189333,60.8693333 225.8,60.992 C225.410667,61.1146667 225.077333,61.288 224.8,61.512 C224.522667,61.736 224.306667,62.008 224.152,62.328 C223.997333,62.648 223.92,63.0053333 223.92,63.4 C223.92,63.7306667 223.981333,64.0213333 224.104,64.272 C224.226667,64.5226667 224.384,64.744 224.576,64.936 C224.768,65.128 224.984,65.2906667 225.224,65.424 C225.464,65.5573333 225.701333,65.672 225.936,65.768 C226.138667,65.8533333 226.330667,65.928 226.512,65.992 C226.693333,66.056 226.856,66.1226667 227,66.192 C227.144,66.2613333 227.258667,66.336 227.344,66.416 C227.429333,66.496 227.472,66.5893333 227.472,66.696 C227.472,66.856 227.410667,66.976 227.288,67.056 C227.165333,67.136 226.96,67.176 226.672,67.176 C226.096,67.176 225.445333,66.9093333 224.72,66.376 L224.72,66.376 L223.504,68.072 C223.92,68.4133333 224.413333,68.6853333 224.984,68.888 C225.554667,69.0906667 226.096,69.192 226.608,69.192 Z M233.456,69.192 C233.893333,69.192 234.290667,69.104 234.648,68.928 C235.005333,68.752 235.344,68.52 235.664,68.232 L235.664,68.232 L235.728,68.232 L235.92,69 L238.16,69 L238.16,64.552 C238.16,63.24 237.864,62.288 237.272,61.696 C236.68,61.104 235.866667,60.808 234.832,60.808 C234.202667,60.808 233.6,60.8986667 233.024,61.08 C232.448,61.2613333 231.877333,61.5226667 231.312,61.864 L231.312,61.864 L232.272,63.656 C232.688,63.432 233.056,63.264 233.376,63.152 C233.696,63.04 234,62.984 234.288,62.984 C234.970667,62.984 235.344,63.2613333 235.408,63.816 C233.872,63.976 232.762667,64.2933333 232.08,64.768 C231.397333,65.2426667 231.056,65.896 231.056,66.728 C231.056,67.0586667 231.109333,67.3733333 231.216,67.672 C231.322667,67.9706667 231.48,68.232 231.688,68.456 C231.896,68.68 232.149333,68.8586667 232.448,68.992 C232.746667,69.1253333 233.082667,69.192 233.456,69.192 Z M234.416,67.08 C233.925333,67.08 233.68,66.888 233.68,66.504 C233.68,66.28 233.802667,66.072 234.048,65.88 C234.293333,65.688 234.746667,65.544 235.408,65.448 L235.408,65.448 L235.408,66.536 C235.258667,66.696 235.112,66.8266667 234.968,66.928 C234.824,67.0293333 234.64,67.08 234.416,67.08 Z M242.704,69 L242.704,64.552 C242.896,64.0506667 243.149333,63.7013333 243.464,63.504 C243.778667,63.3066667 244.08,63.208 244.368,63.208 C244.549333,63.208 244.706667,63.2213333 244.84,63.248 C244.973333,63.2746667 245.114667,63.304 245.264,63.336 L245.264,63.336 L245.712,60.968 C245.594667,60.9146667 245.461333,60.8746667 245.312,60.848 C245.162667,60.8213333 244.965333,60.808 244.72,60.808 C244.325333,60.808 243.922667,60.9333333 243.512,61.184 C243.101333,61.4346667 242.746667,61.832 242.448,62.376 L242.448,62.376 L242.384,62.376 L242.192,61 L239.952,61 L239.952,69 L242.704,69 Z M247.824,72.008 C248.314667,72.008 248.744,71.9466667 249.112,71.824 C249.48,71.7013333 249.808,71.512 250.096,71.256 C250.384,71 250.637333,70.6746667 250.856,70.28 C251.074667,69.8853333 251.290667,69.416 251.504,68.872 L251.504,68.872 L254.192,61 L251.568,61 L250.768,64.072 C250.672,64.456 250.584,64.8346667 250.504,65.208 C250.424,65.5813333 250.341333,65.96 250.256,66.344 L250.256,66.344 L250.192,66.344 C250.096,65.9386667 250.005333,65.552 249.92,65.184 C249.834667,64.816 249.733333,64.4453333 249.616,64.072 L249.616,64.072 L248.656,61 L245.904,61 L248.944,68.712 L248.848,69.064 C248.762667,69.3093333 248.626667,69.504 248.44,69.648 C248.253333,69.792 247.973333,69.864 247.6,69.864 C247.514667,69.864 247.426667,69.8533333 247.336,69.832 C247.245333,69.8106667 247.162667,69.7893333 247.088,69.768 L247.088,69.768 L246.608,71.848 C246.789333,71.9013333 246.968,71.9413333 247.144,71.968 C247.32,71.9946667 247.546667,72.008 247.824,72.008 Z M261.808,69.192 C262.256,69.192 262.629333,69.16 262.928,69.096 C263.226667,69.032 263.482667,68.968 263.696,68.904 L263.696,68.904 L263.28,66.92 C263.184,66.952 263.074667,66.9813333 262.952,67.008 C262.829333,67.0346667 262.704,67.048 262.576,67.048 C262.32,67.048 262.096,66.9653333 261.904,66.8 C261.712,66.6346667 261.616,66.328 261.616,65.88 L261.616,65.88 L261.616,63.144 L263.44,63.144 L263.44,61 L261.616,61 L261.616,58.92 L259.344,58.92 L259.024,61 L257.808,61.096 L257.808,63.144 L258.864,63.144 L258.864,65.928 C258.864,66.4186667 258.92,66.864 259.032,67.264 C259.144,67.664 259.32,68.008 259.56,68.296 C259.8,68.584 260.104,68.8053333 260.472,68.96 C260.84,69.1146667 261.285333,69.192 261.808,69.192 Z M268.144,69.192 C268.656,69.192 269.149333,69.0986667 269.624,68.912 C270.098667,68.7253333 270.52,68.4533333 270.888,68.096 C271.256,67.7386667 271.552,67.2986667 271.776,66.776 C272,66.2533333 272.112,65.6613333 272.112,65 C272.112,64.3386667 272,63.7466667 271.776,63.224 C271.552,62.7013333 271.256,62.2613333 270.888,61.904 C270.52,61.5466667 270.098667,61.2746667 269.624,61.088 C269.149333,60.9013333 268.656,60.808 268.144,60.808 C267.632,60.808 267.136,60.9013333 266.656,61.088 C266.176,61.2746667 265.752,61.5466667 265.384,61.904 C265.016,62.2613333 264.722667,62.7013333 264.504,63.224 C264.285333,63.7466667 264.176,64.3386667 264.176,65 C264.176,65.6613333 264.285333,66.2533333 264.504,66.776 C264.722667,67.2986667 265.016,67.7386667 265.384,68.096 C265.752,68.4533333 266.176,68.7253333 266.656,68.912 C267.136,69.0986667 267.632,69.192 268.144,69.192 Z M268.144,66.984 C267.728,66.984 267.432,66.8053333 267.256,66.448 C267.08,66.0906667 266.992,65.608 266.992,65 C266.992,64.392 267.08,63.9093333 267.256,63.552 C267.432,63.1946667 267.728,63.016 268.144,63.016 C268.56,63.016 268.856,63.1946667 269.032,63.552 C269.208,63.9093333 269.296,64.392 269.296,65 C269.296,65.608 269.208,66.0906667 269.032,66.448 C268.856,66.8053333 268.56,66.984 268.144,66.984 Z M279.504,69 L279.504,63.752 C279.717333,63.56 279.909333,63.4106667 280.08,63.304 C280.250667,63.1973333 280.464,63.144 280.72,63.144 C280.997333,63.144 281.2,63.2293333 281.328,63.4 C281.456,63.5706667 281.52,63.912 281.52,64.424 L281.52,64.424 L281.52,69 L284.272,69 L284.272,64.072 C284.272,63.08 284.074667,62.288 283.68,61.696 C283.285333,61.104 282.650667,60.808 281.776,60.808 C281.232,60.808 280.765333,60.9173333 280.376,61.136 C279.986667,61.3546667 279.653333,61.5866667 279.376,61.832 L279.376,61.832 L279.504,60.456 L279.504,57.864 L276.752,57.864 L276.752,69 L279.504,69 Z M288.144,69.192 C288.581333,69.192 288.978667,69.104 289.336,68.928 C289.693333,68.752 290.032,68.52 290.352,68.232 L290.352,68.232 L290.416,68.232 L290.608,69 L292.848,69 L292.848,64.552 C292.848,63.24 292.552,62.288 291.96,61.696 C291.368,61.104 290.554667,60.808 289.52,60.808 C288.890667,60.808 288.288,60.8986667 287.712,61.08 C287.136,61.2613333 286.565333,61.5226667 286,61.864 L286,61.864 L286.96,63.656 C287.376,63.432 287.744,63.264 288.064,63.152 C288.384,63.04 288.688,62.984 288.976,62.984 C289.658667,62.984 290.032,63.2613333 290.096,63.816 C288.56,63.976 287.450667,64.2933333 286.768,64.768 C286.085333,65.2426667 285.744,65.896 285.744,66.728 C285.744,67.0586667 285.797333,67.3733333 285.904,67.672 C286.010667,67.9706667 286.168,68.232 286.376,68.456 C286.584,68.68 286.837333,68.8586667 287.136,68.992 C287.434667,69.1253333 287.770667,69.192 288.144,69.192 Z M289.104,67.08 C288.613333,67.08 288.368,66.888 288.368,66.504 C288.368,66.28 288.490667,66.072 288.736,65.88 C288.981333,65.688 289.434667,65.544 290.096,65.448 L290.096,65.448 L290.096,66.536 C289.946667,66.696 289.8,66.8266667 289.656,66.928 C289.512,67.0293333 289.328,67.08 289.104,67.08 Z M299.696,69 L302.224,61 L299.6,61 L298.736,64.488 C298.544,65.288 298.352,66.12 298.16,66.984 L298.16,66.984 L298.096,66.984 C297.904,66.12 297.712,65.288 297.52,64.488 L297.52,64.488 L296.656,61 L293.904,61 L296.528,69 L299.696,69 Z M306.896,69.192 C307.344,69.192 307.832,69.1146667 308.36,68.96 C308.888,68.8053333 309.370667,68.5733333 309.808,68.264 L309.808,68.264 L308.912,66.632 C308.624,66.792 308.349333,66.912 308.088,66.992 C307.826667,67.072 307.557333,67.112 307.28,67.112 C306.832,67.112 306.442667,67.0186667 306.112,66.832 C305.781333,66.6453333 305.552,66.312 305.424,65.832 L305.424,65.832 L309.984,65.832 C310.005333,65.736 310.029333,65.5813333 310.056,65.368 C310.082667,65.1546667 310.096,64.9253333 310.096,64.68 C310.096,64.1466667 310.024,63.6453333 309.88,63.176 C309.736,62.7066667 309.52,62.296 309.232,61.944 C308.944,61.592 308.581333,61.3146667 308.144,61.112 C307.706667,60.9093333 307.194667,60.808 306.608,60.808 C306.117333,60.808 305.642667,60.904 305.184,61.096 C304.725333,61.288 304.317333,61.5653333 303.96,61.928 C303.602667,62.2906667 303.314667,62.7306667 303.096,63.248 C302.877333,63.7653333 302.768,64.3493333 302.768,65 C302.768,65.6613333 302.874667,66.2533333 303.088,66.776 C303.301333,67.2986667 303.592,67.7386667 303.96,68.096 C304.328,68.4533333 304.762667,68.7253333 305.264,68.912 C305.765333,69.0986667 306.309333,69.192 306.896,69.192 Z M307.76,64.04 L305.392,64.04 C305.477333,63.6346667 305.634667,63.3413333 305.864,63.16 C306.093333,62.9786667 306.362667,62.888 306.672,62.888 C307.088,62.888 307.373333,63.0026667 307.528,63.232 C307.682667,63.4613333 307.76,63.7306667 307.76,64.04 L307.76,64.04 Z M89.68,90 L89.68,84.752 C90.0853333,84.3466667 90.4586667,84.144 90.8,84.144 C91.0773333,84.144 91.28,84.2293333 91.408,84.4 C91.536,84.5706667 91.6,84.912 91.6,85.424 L91.6,85.424 L91.6,90 L94.352,90 L94.352,84.752 C94.7573333,84.3466667 95.1306667,84.144 95.472,84.144 C95.7493333,84.144 95.952,84.2293333 96.08,84.4 C96.208,84.5706667 96.272,84.912 96.272,85.424 L96.272,85.424 L96.272,90 L99.024,90 L99.024,85.072 C99.024,84.08 98.8213333,83.288 98.416,82.696 C98.0106667,82.104 97.3706667,81.808 96.496,81.808 C95.952,81.808 95.488,81.936 95.104,82.192 C94.72,82.448 94.3626667,82.7466667 94.032,83.088 C93.8186667,82.672 93.5333333,82.3546667 93.176,82.136 C92.8186667,81.9173333 92.368,81.808 91.824,81.808 C91.28,81.808 90.824,81.9253333 90.456,82.16 C90.088,82.3946667 89.744,82.6666667 89.424,82.976 L89.424,82.976 L89.36,82.976 L89.168,82 L86.928,82 L86.928,90 L89.68,90 Z M103.248,90.192 C103.792,90.192 104.258667,90.08 104.648,89.856 C105.037333,89.632 105.392,89.328 105.712,88.944 L105.712,88.944 L105.776,88.944 L105.968,90 L108.208,90 L108.208,82 L105.456,82 L105.456,87.152 C105.274667,87.408 105.101333,87.5893333 104.936,87.696 C104.770667,87.8026667 104.56,87.856 104.304,87.856 C104.026667,87.856 103.824,87.7706667 103.696,87.6 C103.568,87.4293333 103.504,87.088 103.504,86.576 L103.504,86.576 L103.504,82 L100.752,82 L100.752,86.928 C100.752,87.4293333 100.8,87.88 100.896,88.28 C100.992,88.68 101.141333,89.0213333 101.344,89.304 C101.546667,89.5866667 101.805333,89.8053333 102.12,89.96 C102.434667,90.1146667 102.810667,90.192 103.248,90.192 Z M112.528,90.192 C112.837333,90.192 113.101333,90.1706667 113.32,90.128 C113.538667,90.0853333 113.722667,90.032 113.872,89.968 L113.872,89.968 L113.552,87.952 C113.488,87.9733333 113.437333,87.984 113.4,87.984 L113.4,87.984 L113.264,87.984 C113.168,87.984 113.069333,87.936 112.968,87.84 C112.866667,87.744 112.816,87.5573333 112.816,87.28 L112.816,87.28 L112.816,78.864 L110.064,78.864 L110.064,87.184 C110.064,87.632 110.104,88.04 110.184,88.408 C110.264,88.776 110.4,89.0933333 110.592,89.36 C110.784,89.6266667 111.037333,89.832 111.352,89.976 C111.666667,90.12 112.058667,90.192 112.528,90.192 Z M118.128,90.192 C118.576,90.192 118.949333,90.16 119.248,90.096 C119.546667,90.032 119.802667,89.968 120.016,89.904 L120.016,89.904 L119.6,87.92 C119.504,87.952 119.394667,87.9813333 119.272,88.008 C119.149333,88.0346667 119.024,88.048 118.896,88.048 C118.64,88.048 118.416,87.9653333 118.224,87.8 C118.032,87.6346667 117.936,87.328 117.936,86.88 L117.936,86.88 L117.936,84.144 L119.76,84.144 L119.76,82 L117.936,82 L117.936,79.92 L115.664,79.92 L115.344,82 L114.128,82.096 L114.128,84.144 L115.184,84.144 L115.184,86.928 C115.184,87.4186667 115.24,87.864 115.352,88.264 C115.464,88.664 115.64,89.008 115.88,89.296 C116.12,89.584 116.424,89.8053333 116.792,89.96 C117.16,90.1146667 117.605333,90.192 118.128,90.192 Z M122.608,81.008 C123.056,81.008 123.424,80.88 123.712,80.624 C124,80.368 124.144,80.0373333 124.144,79.632 C124.144,79.2266667 124,78.896 123.712,78.64 C123.424,78.384 123.056,78.256 122.608,78.256 C122.16,78.256 121.792,78.384 121.504,78.64 C121.216,78.896 121.072,79.2266667 121.072,79.632 C121.072,80.0373333 121.216,80.368 121.504,80.624 C121.792,80.88 122.16,81.008 122.608,81.008 Z M123.984,90 L123.984,82 L121.232,82 L121.232,90 L123.984,90 Z M128.592,92.816 L128.592,90.608 L128.496,89.392 C129.029333,89.9253333 129.626667,90.192 130.288,90.192 C130.714667,90.192 131.128,90.096 131.528,89.904 C131.928,89.712 132.282667,89.432 132.592,89.064 C132.901333,88.696 133.149333,88.2453333 133.336,87.712 C133.522667,87.1786667 133.616,86.5653333 133.616,85.872 C133.616,85.2533333 133.544,84.6933333 133.4,84.192 C133.256,83.6906667 133.048,83.264 132.776,82.912 C132.504,82.56 132.176,82.288 131.792,82.096 C131.408,81.904 130.981333,81.808 130.512,81.808 C130.106667,81.808 129.717333,81.8933333 129.344,82.064 C128.970667,82.2346667 128.634667,82.4586667 128.336,82.736 L128.336,82.736 L128.272,82.736 L128.08,82 L125.84,82 L125.84,92.816 L128.592,92.816 Z M129.616,87.952 C129.434667,87.952 129.258667,87.9253333 129.088,87.872 C128.917333,87.8186667 128.752,87.7173333 128.592,87.568 L128.592,87.568 L128.592,84.624 C128.773333,84.4106667 128.946667,84.2613333 129.112,84.176 C129.277333,84.0906667 129.466667,84.048 129.68,84.048 C130.053333,84.048 130.333333,84.192 130.52,84.48 C130.706667,84.768 130.8,85.2426667 130.8,85.904 C130.8,86.672 130.682667,87.2053333 130.448,87.504 C130.213333,87.8026667 129.936,87.952 129.616,87.952 Z M137.584,90.192 C137.893333,90.192 138.157333,90.1706667 138.376,90.128 C138.594667,90.0853333 138.778667,90.032 138.928,89.968 L138.928,89.968 L138.608,87.952 C138.544,87.9733333 138.493333,87.984 138.456,87.984 L138.456,87.984 L138.32,87.984 C138.224,87.984 138.125333,87.936 138.024,87.84 C137.922667,87.744 137.872,87.5573333 137.872,87.28 L137.872,87.28 L137.872,78.864 L135.12,78.864 L135.12,87.184 C135.12,87.632 135.16,88.04 135.24,88.408 C135.32,88.776 135.456,89.0933333 135.648,89.36 C135.84,89.6266667 136.093333,89.832 136.408,89.976 C136.722667,90.12 137.114667,90.192 137.584,90.192 Z M143.6,90.192 C144.048,90.192 144.536,90.1146667 145.064,89.96 C145.592,89.8053333 146.074667,89.5733333 146.512,89.264 L146.512,89.264 L145.616,87.632 C145.328,87.792 145.053333,87.912 144.792,87.992 C144.530667,88.072 144.261333,88.112 143.984,88.112 C143.536,88.112 143.146667,88.0186667 142.816,87.832 C142.485333,87.6453333 142.256,87.312 142.128,86.832 L142.128,86.832 L146.688,86.832 C146.709333,86.736 146.733333,86.5813333 146.76,86.368 C146.786667,86.1546667 146.8,85.9253333 146.8,85.68 C146.8,85.1466667 146.728,84.6453333 146.584,84.176 C146.44,83.7066667 146.224,83.296 145.936,82.944 C145.648,82.592 145.285333,82.3146667 144.848,82.112 C144.410667,81.9093333 143.898667,81.808 143.312,81.808 C142.821333,81.808 142.346667,81.904 141.888,82.096 C141.429333,82.288 141.021333,82.5653333 140.664,82.928 C140.306667,83.2906667 140.018667,83.7306667 139.8,84.248 C139.581333,84.7653333 139.472,85.3493333 139.472,86 C139.472,86.6613333 139.578667,87.2533333 139.792,87.776 C140.005333,88.2986667 140.296,88.7386667 140.664,89.096 C141.032,89.4533333 141.466667,89.7253333 141.968,89.912 C142.469333,90.0986667 143.013333,90.192 143.6,90.192 Z M144.464,85.04 L142.096,85.04 C142.181333,84.6346667 142.338667,84.3413333 142.568,84.16 C142.797333,83.9786667 143.066667,83.888 143.376,83.888 C143.792,83.888 144.077333,84.0026667 144.232,84.232 C144.386667,84.4613333 144.464,84.7306667 144.464,85.04 L144.464,85.04 Z M154.256,92.816 L154.256,90.608 L154.16,89.392 C154.693333,89.9253333 155.290667,90.192 155.952,90.192 C156.378667,90.192 156.792,90.096 157.192,89.904 C157.592,89.712 157.946667,89.432 158.256,89.064 C158.565333,88.696 158.813333,88.2453333 159,87.712 C159.186667,87.1786667 159.28,86.5653333 159.28,85.872 C159.28,85.2533333 159.208,84.6933333 159.064,84.192 C158.92,83.6906667 158.712,83.264 158.44,82.912 C158.168,82.56 157.84,82.288 157.456,82.096 C157.072,81.904 156.645333,81.808 156.176,81.808 C155.770667,81.808 155.381333,81.8933333 155.008,82.064 C154.634667,82.2346667 154.298667,82.4586667 154,82.736 L154,82.736 L153.936,82.736 L153.744,82 L151.504,82 L151.504,92.816 L154.256,92.816 Z M155.28,87.952 C155.098667,87.952 154.922667,87.9253333 154.752,87.872 C154.581333,87.8186667 154.416,87.7173333 154.256,87.568 L154.256,87.568 L154.256,84.624 C154.437333,84.4106667 154.610667,84.2613333 154.776,84.176 C154.941333,84.0906667 155.130667,84.048 155.344,84.048 C155.717333,84.048 155.997333,84.192 156.184,84.48 C156.370667,84.768 156.464,85.2426667 156.464,85.904 C156.464,86.672 156.346667,87.2053333 156.112,87.504 C155.877333,87.8026667 155.6,87.952 155.28,87.952 Z M162.704,90.192 C163.141333,90.192 163.538667,90.104 163.896,89.928 C164.253333,89.752 164.592,89.52 164.912,89.232 L164.912,89.232 L164.976,89.232 L165.168,90 L167.408,90 L167.408,85.552 C167.408,84.24 167.112,83.288 166.52,82.696 C165.928,82.104 165.114667,81.808 164.08,81.808 C163.450667,81.808 162.848,81.8986667 162.272,82.08 C161.696,82.2613333 161.125333,82.5226667 160.56,82.864 L160.56,82.864 L161.52,84.656 C161.936,84.432 162.304,84.264 162.624,84.152 C162.944,84.04 163.248,83.984 163.536,83.984 C164.218667,83.984 164.592,84.2613333 164.656,84.816 C163.12,84.976 162.010667,85.2933333 161.328,85.768 C160.645333,86.2426667 160.304,86.896 160.304,87.728 C160.304,88.0586667 160.357333,88.3733333 160.464,88.672 C160.570667,88.9706667 160.728,89.232 160.936,89.456 C161.144,89.68 161.397333,89.8586667 161.696,89.992 C161.994667,90.1253333 162.330667,90.192 162.704,90.192 Z M163.664,88.08 C163.173333,88.08 162.928,87.888 162.928,87.504 C162.928,87.28 163.050667,87.072 163.296,86.88 C163.541333,86.688 163.994667,86.544 164.656,86.448 L164.656,86.448 L164.656,87.536 C164.506667,87.696 164.36,87.8266667 164.216,87.928 C164.072,88.0293333 163.888,88.08 163.664,88.08 Z M172.112,93.296 C172.826667,93.296 173.469333,93.2266667 174.04,93.088 C174.610667,92.9493333 175.096,92.752 175.496,92.496 C175.896,92.24 176.205333,91.9333333 176.424,91.576 C176.642667,91.2186667 176.752,90.8213333 176.752,90.384 C176.752,89.648 176.477333,89.1173333 175.928,88.792 C175.378667,88.4666667 174.602667,88.304 173.6,88.304 L173.6,88.304 L172.4,88.304 C171.994667,88.304 171.706667,88.2693333 171.536,88.2 C171.365333,88.1306667 171.28,88.0053333 171.28,87.824 C171.28,87.7066667 171.290667,87.6186667 171.312,87.56 C171.333333,87.5013333 171.386667,87.4346667 171.472,87.36 C171.802667,87.4346667 172.101333,87.472 172.368,87.472 C172.816,87.472 173.237333,87.4213333 173.632,87.32 C174.026667,87.2186667 174.368,87.0613333 174.656,86.848 C174.944,86.6346667 175.173333,86.36 175.344,86.024 C175.514667,85.688 175.6,85.2853333 175.6,84.816 C175.6,84.656 175.586667,84.5013333 175.56,84.352 C175.533333,84.2026667 175.504,84.08 175.472,83.984 L175.472,83.984 L176.624,83.984 L176.624,82 L173.648,82 C173.264,81.872 172.837333,81.808 172.368,81.808 C171.930667,81.808 171.506667,81.8666667 171.096,81.984 C170.685333,82.1013333 170.32,82.28 170,82.52 C169.68,82.76 169.424,83.064 169.232,83.432 C169.04,83.8 168.944,84.2293333 168.944,84.72 C168.944,85.1893333 169.053333,85.6 169.272,85.952 C169.490667,86.304 169.744,86.576 170.032,86.768 L170.032,86.768 L170.032,86.832 C169.754667,87.024 169.536,87.2533333 169.376,87.52 C169.216,87.7866667 169.136,88.0586667 169.136,88.336 C169.136,88.6773333 169.205333,88.9546667 169.344,89.168 C169.482667,89.3813333 169.658667,89.5626667 169.872,89.712 L169.872,89.712 L169.872,89.776 C169.125333,90.1706667 168.752,90.6826667 168.752,91.312 C168.752,91.6746667 168.842667,91.9813333 169.024,92.232 C169.205333,92.4826667 169.448,92.688 169.752,92.848 C170.056,93.008 170.410667,93.1226667 170.816,93.192 C171.221333,93.2613333 171.653333,93.296 172.112,93.296 Z M172.368,85.84 C172.112,85.84 171.904,85.7493333 171.744,85.568 C171.584,85.3866667 171.504,85.104 171.504,84.72 C171.504,84.3466667 171.584,84.072 171.744,83.896 C171.904,83.72 172.112,83.632 172.368,83.632 C172.624,83.632 172.832,83.72 172.992,83.896 C173.152,84.072 173.232,84.3466667 173.232,84.72 C173.232,85.104 173.152,85.3866667 172.992,85.568 C172.832,85.7493333 172.624,85.84 172.368,85.84 Z M172.56,91.6 C172.090667,91.6 171.712,91.5413333 171.424,91.424 C171.136,91.3066667 170.992,91.12 170.992,90.864 C170.992,90.7466667 171.016,90.6453333 171.064,90.56 C171.112,90.4746667 171.184,90.384 171.28,90.288 C171.397333,90.32 171.538667,90.344 171.704,90.36 C171.869333,90.376 172.112,90.384 172.432,90.384 L173.056,90.384 C173.397333,90.384 173.661333,90.4106667 173.848,90.464 C174.034667,90.5173333 174.128,90.6506667 174.128,90.864 C174.128,91.088 173.978667,91.2666667 173.68,91.4 C173.381333,91.5333333 173.008,91.6 172.56,91.6 Z M181.328,90.192 C181.776,90.192 182.264,90.1146667 182.792,89.96 C183.32,89.8053333 183.802667,89.5733333 184.24,89.264 L184.24,89.264 L183.344,87.632 C183.056,87.792 182.781333,87.912 182.52,87.992 C182.258667,88.072 181.989333,88.112 181.712,88.112 C181.264,88.112 180.874667,88.0186667 180.544,87.832 C180.213333,87.6453333 179.984,87.312 179.856,86.832 L179.856,86.832 L184.416,86.832 C184.437333,86.736 184.461333,86.5813333 184.488,86.368 C184.514667,86.1546667 184.528,85.9253333 184.528,85.68 C184.528,85.1466667 184.456,84.6453333 184.312,84.176 C184.168,83.7066667 183.952,83.296 183.664,82.944 C183.376,82.592 183.013333,82.3146667 182.576,82.112 C182.138667,81.9093333 181.626667,81.808 181.04,81.808 C180.549333,81.808 180.074667,81.904 179.616,82.096 C179.157333,82.288 178.749333,82.5653333 178.392,82.928 C178.034667,83.2906667 177.746667,83.7306667 177.528,84.248 C177.309333,84.7653333 177.2,85.3493333 177.2,86 C177.2,86.6613333 177.306667,87.2533333 177.52,87.776 C177.733333,88.2986667 178.024,88.7386667 178.392,89.096 C178.76,89.4533333 179.194667,89.7253333 179.696,89.912 C180.197333,90.0986667 180.741333,90.192 181.328,90.192 Z M182.192,85.04 L179.824,85.04 C179.909333,84.6346667 180.066667,84.3413333 180.296,84.16 C180.525333,83.9786667 180.794667,83.888 181.104,83.888 C181.52,83.888 181.805333,84.0026667 181.96,84.232 C182.114667,84.4613333 182.192,84.7306667 182.192,85.04 L182.192,85.04 Z M188.496,90.192 C189.050667,90.192 189.541333,90.1253333 189.968,89.992 C190.394667,89.8586667 190.752,89.672 191.04,89.432 C191.328,89.192 191.546667,88.9093333 191.696,88.584 C191.845333,88.2586667 191.92,87.9093333 191.92,87.536 C191.92,87.1733333 191.858667,86.8613333 191.736,86.6 C191.613333,86.3386667 191.453333,86.1146667 191.256,85.928 C191.058667,85.7413333 190.837333,85.584 190.592,85.456 C190.346667,85.328 190.106667,85.2213333 189.872,85.136 C189.669333,85.0613333 189.477333,84.9946667 189.296,84.936 C189.114667,84.8773333 188.954667,84.816 188.816,84.752 C188.677333,84.688 188.568,84.6186667 188.488,84.544 C188.408,84.4693333 188.368,84.3786667 188.368,84.272 C188.368,83.9733333 188.602667,83.824 189.072,83.824 C189.317333,83.824 189.578667,83.8826667 189.856,84 C190.133333,84.1173333 190.416,84.2826667 190.704,84.496 L190.704,84.496 L191.92,82.864 C191.568,82.5973333 191.154667,82.3546667 190.68,82.136 C190.205333,81.9173333 189.637333,81.808 188.976,81.808 C188.506667,81.808 188.077333,81.8693333 187.688,81.992 C187.298667,82.1146667 186.965333,82.288 186.688,82.512 C186.410667,82.736 186.194667,83.008 186.04,83.328 C185.885333,83.648 185.808,84.0053333 185.808,84.4 C185.808,84.7306667 185.869333,85.0213333 185.992,85.272 C186.114667,85.5226667 186.272,85.744 186.464,85.936 C186.656,86.128 186.872,86.2906667 187.112,86.424 C187.352,86.5573333 187.589333,86.672 187.824,86.768 C188.026667,86.8533333 188.218667,86.928 188.4,86.992 C188.581333,87.056 188.744,87.1226667 188.888,87.192 C189.032,87.2613333 189.146667,87.336 189.232,87.416 C189.317333,87.496 189.36,87.5893333 189.36,87.696 C189.36,87.856 189.298667,87.976 189.176,88.056 C189.053333,88.136 188.848,88.176 188.56,88.176 C187.984,88.176 187.333333,87.9093333 186.608,87.376 L186.608,87.376 L185.392,89.072 C185.808,89.4133333 186.301333,89.6853333 186.872,89.888 C187.442667,90.0906667 187.984,90.192 188.496,90.192 Z M194.896,90.192 C195.365333,90.192 195.749333,90.032 196.048,89.712 C196.346667,89.392 196.496,88.9973333 196.496,88.528 C196.496,88.0586667 196.346667,87.664 196.048,87.344 C195.749333,87.024 195.365333,86.864 194.896,86.864 C194.426667,86.864 194.042667,87.024 193.744,87.344 C193.445333,87.664 193.296,88.0586667 193.296,88.528 C193.296,88.9973333 193.445333,89.392 193.744,89.712 C194.042667,90.032 194.426667,90.192 194.896,90.192 Z M196.656,84.848 C197.509333,84.4426667 198.138667,83.9333333 198.544,83.32 C198.949333,82.7066667 199.152,82 199.152,81.2 C199.152,80.464 199.010667,79.8906667 198.728,79.48 C198.445333,79.0693333 198.021333,78.864 197.456,78.864 C197.050667,78.864 196.72,78.9973333 196.464,79.264 C196.208,79.5306667 196.08,79.888 196.08,80.336 C196.08,80.7413333 196.213333,81.0613333 196.48,81.296 C196.746667,81.5306667 197.072,81.648 197.456,81.648 C197.530667,81.648 197.584,81.6426667 197.616,81.632 C197.616,82.112 197.488,82.5146667 197.232,82.84 C196.976,83.1653333 196.592,83.44 196.08,83.664 L196.08,83.664 L196.656,84.848 Z M200.816,84.848 C201.669333,84.4426667 202.298667,83.9333333 202.704,83.32 C203.109333,82.7066667 203.312,82 203.312,81.2 C203.312,80.464 203.170667,79.8906667 202.888,79.48 C202.605333,79.0693333 202.181333,78.864 201.616,78.864 C201.210667,78.864 200.88,78.9973333 200.624,79.264 C200.368,79.5306667 200.24,79.888 200.24,80.336 C200.24,80.7413333 200.373333,81.0613333 200.64,81.296 C200.906667,81.5306667 201.232,81.648 201.616,81.648 C201.690667,81.648 201.744,81.6426667 201.776,81.632 C201.776,82.112 201.648,82.5146667 201.392,82.84 C201.136,83.1653333 200.752,83.44 200.24,83.664 L200.24,83.664 L200.816,84.848 Z" id="Ilikeit.Ilikeeverythingononepage.Itsnotnecessarytohavemultiplepages." fill="#202F48" fill-rule="nonzero"></path>
                            <g id="Group-5" transform="translate(15.000000, 32.000000)">
                                <g id="Group-6">
                                    <rect id="Rectangle-Copy" fill-opacity="0.2" fill="#5DED7C" x="0" y="0" width="55" height="63" rx="10"></rect>
                                    <g id="" fill-rule="nonzero">
                                        <use fill="#202F48" xlink:href="#path-1"></use>
                                        <use fill="#5DED7C" xlink:href="#path-1"></use>
                                    </g>
                                </g>
                            </g>
                        </g>
                    </g>
                </g>
            </g>
        </g>
    </g>
</svg>