<svg width="144" height="56" viewBox="0 0 144 56" fill="none" xmlns="http://www.w3.org/2000/svg">
<path d="M58.2467 2.57567C58.2242 2.54971 58.2005 2.5247 58.1758 2.5H58.3265V2.57567H58.2467ZM58.2467 2.57567H56.9688C56.1393 3.32987 55.7622 4.23478 55.6111 5.29104C55.417 6.68101 55.2648 8.07099 55.1125 9.46096C54.9092 11.3145 54.7059 13.168 54.4042 15.0212C54.1325 16.7769 53.8377 18.5382 53.5423 20.3034C52.7713 24.9103 51.995 29.545 51.6134 34.1804C51.6134 34.7082 51.6135 35.161 51.0856 35.3874C50.2779 35.8224 49.5728 36.4104 48.8854 36.9841C48.7382 37.1066 48.5919 37.2288 48.4456 37.3485C48.0682 37.801 47.5404 38.2537 46.7862 38.3291C46.7862 37.9681 46.7773 37.6249 46.7688 37.2906C46.752 36.6459 46.7365 36.0329 46.7862 35.3874C46.9749 33.4635 47.1443 31.5027 47.3143 29.5415C47.484 27.5807 47.6538 25.6192 47.8421 23.6957C47.9178 22.7151 47.5407 22.338 46.5601 22.2624C45.3532 22.187 44.1462 22.187 42.8642 22.338C42.185 22.4137 41.7326 22.7905 41.6572 23.545C41.5062 25.0031 41.2884 26.4614 41.0705 27.9198C40.9616 28.649 40.8524 29.3778 40.752 30.107C40.4503 32.634 40.1295 35.142 39.8091 37.6499C39.4887 40.1579 39.1682 42.6659 38.8665 45.1929C38.7908 46.2491 39.319 47.003 40.3749 46.8526C42.6381 46.4752 44.9007 46.0227 46.7112 44.6647C48.2952 43.3827 49.7283 42.025 51.1616 40.516C51.2804 41.0796 51.2705 41.6549 51.2614 42.2232C51.2465 43.1003 51.2319 43.9621 51.6898 44.7401C51.7088 44.767 51.7284 44.7942 51.7474 44.8215C52.1061 45.3268 52.4785 45.8524 53.1231 45.4946C53.636 45.2226 54.1246 44.9032 54.6135 44.5834C55.3471 44.1034 56.0797 43.6237 56.8947 43.3067C57.1895 43.1301 57.1616 42.8609 57.1354 42.6076C57.1281 42.537 57.1211 42.4677 57.1211 42.4015C57.2718 41.1195 57.4982 39.9125 58.1014 38.7056C58.8559 39.158 59.3837 39.8372 59.7608 40.5157C60.5153 41.8737 61.2505 43.2127 61.986 44.5514C62.7215 45.8904 63.4567 47.2291 64.2113 48.5867C64.8901 49.9444 65.3426 50.1711 66.7759 49.7184C69.8687 48.5867 72.6594 46.9273 75.2994 45.1922C76.28 44.5137 76.7328 43.6085 76.8838 42.4769C77.0345 40.8925 77.1855 39.309 77.5626 37.725C78.7696 31.8415 80.3537 26.0334 82.2392 20.3759C82.2753 20.2572 82.3107 20.1372 82.3474 20.0166C82.6068 19.1376 82.8857 18.1934 83.7482 17.1324V18.8675C83.7482 21.2533 83.74 23.6473 83.7314 26.0444C83.714 30.847 83.6972 35.6606 83.7482 40.4403C83.7482 42.3125 83.9546 44.288 84.1541 46.1962C84.1956 46.5946 84.2371 46.9891 84.276 47.3801C84.276 48.36 84.7285 48.7378 85.7847 48.2853C86.916 47.8329 88.0476 47.4551 89.1792 47.1537C90.0088 46.8523 90.4612 46.3995 90.3859 45.4946C90.3102 44.514 90.3102 43.5334 90.5369 42.5525C90.6211 42.1172 90.7066 41.6837 90.7912 41.2512C91.3085 38.6093 91.8177 36.0073 92.2717 33.3499C92.7241 30.8609 93.705 28.3716 94.761 26.0333C94.9114 26.7122 94.9114 27.391 94.9114 27.9942C94.8921 28.4945 94.8718 28.9938 94.8519 29.4928C94.6394 34.7905 94.4285 40.0351 94.9114 45.3433C94.9253 45.5247 94.9342 45.7109 94.9434 45.8989C94.9823 46.7294 95.0231 47.5945 95.5149 48.2097C96.2694 49.2656 98.3059 49.7934 99.2865 49.4163C100.493 48.9639 101.021 47.9076 100.795 46.2485C100.789 46.2216 100.784 46.1934 100.777 46.1652C100.702 45.7982 100.606 45.3433 101.097 45.3433C102.268 45.3901 103.12 44.8835 103.958 44.3848C104.469 44.0806 104.975 43.7798 105.547 43.6085C106.527 43.3818 107.433 42.7029 107.961 41.9487C108.894 40.7817 109.783 39.525 110.66 38.2826C110.917 37.9181 111.174 37.5559 111.43 37.1969C111.559 37.0433 111.652 36.8457 111.752 36.6345C111.946 36.2239 112.165 35.761 112.713 35.4621C112.411 38.6302 112.411 41.572 112.411 44.5891C112.411 45.1922 112.487 45.8714 112.788 46.4749C112.788 46.7013 112.939 47.0027 113.316 47.078C114.221 47.2291 116.333 46.3995 116.711 45.4943C117.012 44.6641 117.314 43.8345 117.465 42.9293C117.843 40.2896 118.068 37.725 118.144 35.0847C118.22 32.2936 118.445 29.5783 118.898 26.7875C119.2 24.7507 118.748 24.2229 116.56 24.1475H115.504C114.222 23.9968 113.241 24.2232 113.241 25.7316C113.166 26.2597 112.939 26.7879 112.638 27.2403L109.696 32.6714C109.624 32.8059 109.55 32.9408 109.478 33.0754C107.972 35.8753 106.506 38.6004 104.491 41.1192C104.423 41.2009 104.354 41.2898 104.286 41.3804C103.973 41.7898 103.641 42.2236 103.208 42.0998C102.66 41.9782 102.703 41.4136 102.739 40.9229C102.747 40.8057 102.756 40.693 102.756 40.5911C102.68 40.1386 102.68 39.7615 102.832 39.3844C104.265 34.5568 106.151 30.0307 109.469 26.0333C109.54 25.9453 109.61 25.857 109.679 25.769C110.508 24.7203 111.333 23.6774 112.864 23.4687C112.922 23.457 112.985 23.4469 113.049 23.4367C113.393 23.3819 113.769 23.3224 113.769 22.9406C113.769 22.4128 113.316 22.2617 112.864 22.1864C110.978 21.6582 109.017 21.7336 107.509 22.8652C105.095 24.5243 103.133 26.5612 101.625 28.8994C101.593 28.9482 101.563 29.0077 101.532 29.071C101.42 29.3003 101.284 29.5779 100.871 29.5779C100.871 28.3111 100.849 27.0437 100.828 25.7766C100.769 22.2915 100.711 18.8067 101.097 15.322C101.324 13.3608 100.871 12.3799 98.4576 11.7767C98.2689 11.7391 98.0801 11.6824 97.8914 11.6257C97.703 11.5694 97.5143 11.513 97.3256 11.475C95.8172 11.0979 95.1384 11.3243 94.6103 12.7573C94.4542 13.1427 94.2993 13.5245 94.1458 13.9045C93.1848 16.2794 92.2562 18.5731 91.2157 20.9791C91.1217 21.1988 91.034 21.4186 90.9457 21.6396C90.611 22.478 90.2728 23.3265 89.5566 24.2223V22.7136C89.5566 21.473 89.5649 20.2496 89.5731 19.0347C89.5899 16.6293 89.6064 14.2572 89.5566 11.8518C89.481 9.73959 88.9532 9.13611 86.0114 8.38191C84.7291 8.08049 83.2204 8.68366 82.2398 10.0413C81.1778 11.5504 80.4059 13.1832 79.6482 14.7869C79.3829 15.3479 79.1191 15.9055 78.8456 16.4533C78.0429 18.2185 77.4119 20.0048 76.7803 21.79C76.2249 23.3614 75.6695 24.9318 74.9986 26.4855C72.8864 31.3884 71.1516 36.3667 70.1711 41.5713C69.9805 42.3353 69.8193 43.0997 69.6505 43.9026C69.5527 44.3671 69.4523 44.8452 69.3415 45.3429C69.2551 45.2853 69.1797 45.2388 69.1151 45.1989C69.011 45.1346 68.9353 45.0877 68.8887 45.0415C68.2612 44.1002 67.6606 43.1329 67.0571 42.1606C65.6281 39.859 64.1824 37.5299 62.3264 35.4618C61.8739 34.8586 62.1757 34.6322 62.7035 34.4815C64.5139 33.878 66.2487 33.1992 67.9082 32.2183C71.0009 30.3328 72.434 27.6928 73.1885 24.6754C74.018 21.5072 72.0569 19.4707 68.3609 19.9232C65.1931 20.3756 62.8545 22.2614 60.969 24.5997C59.7621 26.1081 58.6308 27.6925 57.5748 29.5779C57.5473 29.5089 57.522 29.4472 57.4992 29.3921C57.3988 29.1454 57.3484 29.0223 57.3484 28.8994C57.7062 26.0368 57.8753 23.1739 58.0425 20.3487C58.0865 19.6005 58.1305 18.8549 58.178 18.113C58.2312 17.0479 58.3407 15.9834 58.4503 14.9183C58.6514 12.966 58.8524 11.0137 58.7058 9.06107C58.5548 7.40196 58.4041 5.74254 58.7058 4.0828C58.7039 3.58475 58.6362 3.01831 58.2467 2.57567ZM64.5121 29.2775C63.6068 30.4088 62.0981 31.1633 60.5897 31.6914C61.4193 28.674 63.2294 26.4868 65.2659 24.5253C65.4923 24.2989 65.7184 24.1482 66.0958 24.2238C66.5483 24.2992 66.5483 24.6763 66.5483 24.978C66.617 26.5596 65.6826 27.7653 64.7742 28.9377C64.6862 29.0511 64.5982 29.1641 64.5121 29.2775Z" fill="#00A6A4"/>
<path d="M1 26.1851C1.52813 24.5257 1.22639 22.7153 1.52813 21.0558C1.67884 20.1506 1.30174 19.0947 2.50871 18.4912C3.94206 17.888 5.37478 17.888 6.95885 18.1895C7.48698 18.2651 7.48698 18.7929 7.48698 19.2457C7.93943 21.2822 7.63769 23.4695 7.56265 25.5063C8.09078 23.4695 8.99601 21.5086 9.90092 19.5471C11.3343 16.3793 12.918 13.2865 14.8795 10.3448C16.6896 7.62911 20.0838 7.70478 22.3471 9.21349C23.0259 9.66594 23.3273 10.3448 23.403 11.0993C23.8555 14.6445 23.3273 18.2651 23.403 21.8854V23.5448C24.1575 22.7903 24.4589 21.9608 24.8364 21.2819C26.2697 18.3402 27.5517 15.3231 28.9094 12.4567C29.4375 11.3254 30.4181 10.8726 31.7004 11.1743C32.6057 11.4007 33.5106 11.6268 34.4915 11.8532C35.9248 12.1549 36.3773 13.0602 36.3019 14.2671C36.2262 15.7005 36.0752 17.1335 36.0752 18.5669C35.9999 23.2431 35.9245 27.9953 35.7738 32.6721C35.6228 36.2927 35.3213 39.9133 35.7738 43.6096C35.8491 44.0623 35.7738 44.5151 35.8492 44.9676C36.0755 46.6267 35.7738 47.0794 34.039 47.5319C31.7761 48.06 29.6642 46.7777 29.4378 44.5898C28.6833 38.631 28.9854 32.6721 29.4378 26.713V24.7521C28.5326 26.1098 28.1555 27.3918 27.7027 28.5237C26.0436 32.446 25.8926 36.7455 24.6103 40.7435C24.3085 41.7991 24.3839 42.8554 24.4593 43.9113C24.5349 44.8919 24.0822 45.3447 23.1016 45.5704C21.7439 45.8725 20.4619 46.2496 19.1792 46.7777C18.048 47.1548 17.6709 46.7777 17.5952 45.7971C17.3688 43.6849 17.0671 41.573 17.0671 39.4608C16.8407 32.4457 16.9917 25.2802 17.0671 18.2651V16.7567C16.1618 17.4356 15.9358 18.3408 15.5587 19.0947C13.2204 24.9028 11.4853 30.7863 10.0523 36.8205C9.59981 38.4799 9.59981 40.215 9.14704 41.8741C8.99632 42.3266 8.76994 42.7794 8.39252 43.0058C6.80846 43.9863 5.14903 44.8916 3.48961 45.8721C1.98122 46.6263 1.98122 46.6263 1.15166 45.2687L1 26.1851Z" fill="#00A6A4"/>
<path d="M129.837 24.6001C128.554 26.1088 127.348 27.6929 126.141 29.3523C126.141 29.2795 126.133 29.199 126.125 29.1151C126.107 28.9397 126.09 28.7513 126.141 28.5978C126.216 27.7679 126.291 26.9298 126.367 26.0917C126.518 24.4158 126.668 22.7396 126.82 21.1302C126.856 20.7072 126.892 20.2858 126.928 19.8653C127.275 15.8613 127.614 11.9576 127.272 7.93017C127.196 6.94959 126.669 6.79888 125.839 6.94959C125.009 7.1003 124.557 7.7041 124.33 8.38294C124.104 9.06178 123.877 9.8163 123.802 10.4951C123.457 14.2905 122.717 18.0859 121.984 21.848C121.756 23.0204 121.528 24.1897 121.313 25.3546C120.182 31.3134 119.503 37.1969 119.654 43.2318C119.654 43.986 119.955 44.8155 120.785 45.268C121.394 45.5387 121.881 45.2028 122.302 44.9127C122.35 44.8795 122.398 44.8469 122.444 44.8155C123.199 44.137 124.104 43.7596 125.009 43.3822C125.537 43.1561 125.839 42.779 125.839 42.1755C125.763 40.8935 126.14 39.7616 126.668 38.4796C128.19 39.4475 128.887 40.8593 129.574 42.2502C129.636 42.3763 129.699 42.5023 129.761 42.6283C129.984 43.0447 130.204 43.4639 130.425 43.8834C132.01 46.8847 133.621 49.9379 135.871 52.5848C136.625 53.4144 137.455 53.7161 138.511 53.3393C139.105 53.1696 139.676 52.904 140.25 52.6371C140.695 52.4297 141.141 52.222 141.603 52.057C142.433 51.6799 142.358 51.3782 141.754 50.9257C139.793 49.3417 138.586 47.1541 137.605 45.0425C135.946 41.648 134.06 38.4045 131.495 35.5381C130.967 34.8593 131.118 34.6329 131.797 34.3315C133.306 33.6523 134.814 32.9735 136.323 32.2193C139.34 30.5602 140.773 27.9199 141.829 24.9781C142.659 22.6399 141.226 20.6787 138.963 20.377C134.891 19.8482 132.175 21.8847 129.837 24.6001ZM137.153 24.223C136.097 27.3154 134.287 29.9554 130.742 31.6905C132.175 28.5224 134.061 25.9578 136.173 23.6195C136.249 23.5631 136.319 23.4922 136.39 23.4213C136.602 23.2095 136.814 22.9973 137.153 23.1667C137.549 23.496 137.369 23.8253 137.216 24.1046C137.194 24.1451 137.173 24.1847 137.153 24.223Z" fill="#00A6A4"/>
<path d="M45.8137 10.1937C46.7189 10.1183 47.6995 10.3447 48.6798 10.4954C49.3586 10.5711 49.7361 10.8728 49.5097 11.7024C49.0572 13.0601 48.9062 14.4934 48.4534 15.9264C48.001 17.3595 44.9835 18.7925 43.4751 18.4908C42.947 18.4154 42.8717 18.0383 42.7963 17.7366C42.5699 16.8314 42.3438 16.0015 42.6453 15.0212C42.8717 14.2667 42.947 13.3618 43.0977 12.4566C43.3998 10.2693 43.4751 10.1937 45.8137 10.1937Z" fill="#00A6A4"/>
<path d="M58.2467 2.57567C58.2242 2.54971 58.2005 2.5247 58.1758 2.5H58.3265V2.57567H58.2467ZM58.2467 2.57567H56.9688C56.1393 3.32987 55.7622 4.23478 55.6111 5.29104C55.417 6.68101 55.2648 8.07099 55.1125 9.46096C54.9092 11.3145 54.7059 13.168 54.4042 15.0212C54.1325 16.7769 53.8377 18.5382 53.5423 20.3034C52.7713 24.9103 51.995 29.545 51.6134 34.1804C51.6134 34.7082 51.6135 35.161 51.0856 35.3874C50.2779 35.8224 49.5728 36.4104 48.8854 36.9841C48.7382 37.1066 48.5919 37.2288 48.4456 37.3485C48.0682 37.801 47.5404 38.2537 46.7862 38.3291C46.7862 37.9681 46.7773 37.6249 46.7688 37.2906C46.752 36.6459 46.7365 36.0329 46.7862 35.3874C46.9749 33.4635 47.1443 31.5027 47.3143 29.5415C47.484 27.5807 47.6538 25.6192 47.8421 23.6957C47.9178 22.7151 47.5407 22.338 46.5601 22.2624C45.3532 22.187 44.1462 22.187 42.8642 22.338C42.185 22.4137 41.7326 22.7905 41.6572 23.545C41.5062 25.0031 41.2884 26.4614 41.0705 27.9198C40.9616 28.649 40.8524 29.3778 40.752 30.107C40.4503 32.634 40.1295 35.142 39.8091 37.6499C39.4887 40.1579 39.1682 42.6659 38.8665 45.1929C38.7908 46.2491 39.319 47.003 40.3749 46.8526C42.6381 46.4752 44.9007 46.0227 46.7112 44.6647C48.2952 43.3827 49.7283 42.025 51.1616 40.516C51.2804 41.0796 51.2705 41.6549 51.2614 42.2232C51.2465 43.1003 51.2319 43.9621 51.6898 44.7401C51.7088 44.767 51.7284 44.7942 51.7474 44.8215C52.1061 45.3268 52.4785 45.8524 53.1231 45.4946C53.636 45.2226 54.1246 44.9032 54.6135 44.5834C55.3471 44.1034 56.0797 43.6237 56.8947 43.3067C57.1895 43.1301 57.1616 42.8609 57.1354 42.6076C57.1281 42.537 57.1211 42.4677 57.1211 42.4015C57.2718 41.1195 57.4982 39.9125 58.1014 38.7056C58.8559 39.158 59.3837 39.8372 59.7608 40.5157C60.5153 41.8737 61.2505 43.2127 61.986 44.5514C62.7215 45.8904 63.4567 47.2291 64.2113 48.5867C64.8901 49.9444 65.3426 50.1711 66.7759 49.7184C69.8687 48.5867 72.6594 46.9273 75.2994 45.1922C76.28 44.5137 76.7328 43.6085 76.8838 42.4769C77.0345 40.8925 77.1855 39.309 77.5626 37.725C78.7696 31.8415 80.3537 26.0334 82.2392 20.3759C82.2753 20.2572 82.3107 20.1372 82.3474 20.0166C82.6068 19.1376 82.8857 18.1934 83.7482 17.1324V18.8675C83.7482 21.2533 83.74 23.6473 83.7314 26.0444C83.714 30.847 83.6972 35.6606 83.7482 40.4403C83.7482 42.3125 83.9546 44.288 84.1541 46.1962C84.1956 46.5946 84.2371 46.9891 84.276 47.3801C84.276 48.36 84.7285 48.7378 85.7847 48.2853C86.916 47.8329 88.0476 47.4551 89.1792 47.1537C90.0088 46.8523 90.4612 46.3995 90.3859 45.4946C90.3102 44.514 90.3102 43.5334 90.5369 42.5525C90.6211 42.1172 90.7066 41.6837 90.7912 41.2512C91.3085 38.6093 91.8177 36.0073 92.2717 33.3499C92.7241 30.8609 93.705 28.3716 94.761 26.0333C94.9114 26.7122 94.9114 27.391 94.9114 27.9942C94.8921 28.4945 94.8718 28.9938 94.8519 29.4928C94.6394 34.7905 94.4285 40.0351 94.9114 45.3433C94.9253 45.5247 94.9342 45.7109 94.9434 45.8989C94.9823 46.7294 95.0231 47.5945 95.5149 48.2097C96.2694 49.2656 98.3059 49.7934 99.2865 49.4163C100.493 48.9639 101.021 47.9076 100.795 46.2485C100.789 46.2216 100.784 46.1934 100.777 46.1652C100.702 45.7982 100.606 45.3433 101.097 45.3433C102.268 45.3901 103.12 44.8835 103.958 44.3848C104.469 44.0806 104.975 43.7798 105.547 43.6085C106.527 43.3818 107.433 42.7029 107.961 41.9487C108.894 40.7817 109.783 39.525 110.66 38.2826C110.917 37.9181 111.174 37.5559 111.43 37.1969C111.559 37.0433 111.652 36.8457 111.752 36.6345C111.946 36.2239 112.165 35.761 112.713 35.4621C112.411 38.6302 112.411 41.572 112.411 44.5891C112.411 45.1922 112.487 45.8714 112.788 46.4749C112.788 46.7013 112.939 47.0027 113.316 47.078C114.221 47.2291 116.333 46.3995 116.711 45.4943C117.012 44.6641 117.314 43.8345 117.465 42.9293C117.843 40.2896 118.068 37.725 118.144 35.0847C118.22 32.2936 118.445 29.5783 118.898 26.7875C119.2 24.7507 118.748 24.2229 116.56 24.1475H115.504C114.222 23.9968 113.241 24.2232 113.241 25.7316C113.166 26.2597 112.939 26.7879 112.638 27.2403L109.696 32.6714C109.624 32.8059 109.55 32.9408 109.478 33.0754C107.972 35.8753 106.506 38.6004 104.491 41.1192C104.423 41.2009 104.354 41.2898 104.286 41.3804C103.973 41.7898 103.641 42.2236 103.208 42.0998C102.66 41.9782 102.703 41.4136 102.739 40.9229C102.747 40.8057 102.756 40.693 102.756 40.5911C102.68 40.1386 102.68 39.7615 102.832 39.3844C104.265 34.5568 106.151 30.0307 109.469 26.0333C109.54 25.9453 109.61 25.857 109.679 25.769C110.508 24.7203 111.333 23.6774 112.864 23.4687C112.922 23.457 112.985 23.4469 113.049 23.4367C113.393 23.3819 113.769 23.3224 113.769 22.9406C113.769 22.4128 113.316 22.2617 112.864 22.1864C110.978 21.6582 109.017 21.7336 107.509 22.8652C105.095 24.5243 103.133 26.5612 101.625 28.8994C101.593 28.9482 101.563 29.0077 101.532 29.071C101.42 29.3003 101.284 29.5779 100.871 29.5779C100.871 28.3111 100.849 27.0437 100.828 25.7766C100.769 22.2915 100.711 18.8067 101.097 15.322C101.324 13.3608 100.871 12.3799 98.4576 11.7767C98.2689 11.7391 98.0801 11.6824 97.8914 11.6257C97.703 11.5694 97.5143 11.513 97.3256 11.475C95.8172 11.0979 95.1384 11.3243 94.6103 12.7573C94.4542 13.1427 94.2993 13.5245 94.1458 13.9045C93.1848 16.2794 92.2562 18.5731 91.2157 20.9791C91.1217 21.1988 91.034 21.4186 90.9457 21.6396C90.611 22.478 90.2728 23.3265 89.5566 24.2223V22.7136C89.5566 21.473 89.5649 20.2496 89.5731 19.0347C89.5899 16.6293 89.6064 14.2572 89.5566 11.8518C89.481 9.73959 88.9532 9.13611 86.0114 8.38191C84.7291 8.08049 83.2204 8.68366 82.2398 10.0413C81.1778 11.5504 80.4059 13.1832 79.6482 14.7869C79.3829 15.3479 79.1191 15.9055 78.8456 16.4533C78.0429 18.2185 77.4119 20.0048 76.7803 21.79C76.2249 23.3614 75.6695 24.9318 74.9986 26.4855C72.8864 31.3884 71.1516 36.3667 70.1711 41.5713C69.9805 42.3353 69.8193 43.0997 69.6505 43.9026C69.5527 44.3671 69.4523 44.8452 69.3415 45.3429C69.2551 45.2853 69.1797 45.2388 69.1151 45.1989C69.011 45.1346 68.9353 45.0877 68.8887 45.0415C68.2612 44.1002 67.6606 43.1329 67.0571 42.1606C65.6281 39.859 64.1824 37.5299 62.3264 35.4618C61.8739 34.8586 62.1757 34.6322 62.7035 34.4815C64.5139 33.878 66.2487 33.1992 67.9082 32.2183C71.0009 30.3328 72.434 27.6928 73.1885 24.6754C74.018 21.5072 72.0569 19.4707 68.3609 19.9232C65.1931 20.3756 62.8545 22.2614 60.969 24.5997C59.7621 26.1081 58.6308 27.6925 57.5748 29.5779C57.5473 29.5089 57.522 29.4472 57.4992 29.3921C57.3988 29.1454 57.3484 29.0223 57.3484 28.8994C57.7062 26.0368 57.8753 23.1739 58.0425 20.3487C58.0865 19.6005 58.1305 18.8549 58.178 18.113C58.2312 17.0479 58.3407 15.9834 58.4503 14.9183C58.6514 12.966 58.8524 11.0137 58.7058 9.06107C58.5548 7.40196 58.4041 5.74254 58.7058 4.0828C58.7039 3.58475 58.6362 3.01831 58.2467 2.57567ZM64.5121 29.2775C63.6068 30.4088 62.0981 31.1633 60.5897 31.6914C61.4193 28.674 63.2294 26.4868 65.2659 24.5253C65.4923 24.2989 65.7184 24.1482 66.0958 24.2238C66.5483 24.2992 66.5483 24.6763 66.5483 24.978C66.617 26.5596 65.6826 27.7653 64.7742 28.9377C64.6862 29.0511 64.5982 29.1641 64.5121 29.2775Z" fill="#00A6A4"/>
<path d="M1 26.1851C1.52813 24.5257 1.22639 22.7153 1.52813 21.0558C1.67884 20.1506 1.30174 19.0947 2.50871 18.4912C3.94206 17.888 5.37478 17.888 6.95885 18.1895C7.48698 18.2651 7.48698 18.7929 7.48698 19.2457C7.93943 21.2822 7.63769 23.4695 7.56265 25.5063C8.09078 23.4695 8.99601 21.5086 9.90092 19.5471C11.3343 16.3793 12.918 13.2865 14.8795 10.3448C16.6896 7.62911 20.0838 7.70478 22.3471 9.21349C23.0259 9.66594 23.3273 10.3448 23.403 11.0993C23.8555 14.6445 23.3273 18.2651 23.403 21.8854V23.5448C24.1575 22.7903 24.4589 21.9608 24.8364 21.2819C26.2697 18.3402 27.5517 15.3231 28.9094 12.4567C29.4375 11.3254 30.4181 10.8726 31.7004 11.1743C32.6057 11.4007 33.5106 11.6268 34.4915 11.8532C35.9248 12.1549 36.3773 13.0602 36.3019 14.2671C36.2262 15.7005 36.0752 17.1335 36.0752 18.5669C35.9999 23.2431 35.9245 27.9953 35.7738 32.6721C35.6228 36.2927 35.3213 39.9133 35.7738 43.6096C35.8491 44.0623 35.7738 44.5151 35.8492 44.9676C36.0755 46.6267 35.7738 47.0794 34.039 47.5319C31.7761 48.06 29.6642 46.7777 29.4378 44.5898C28.6833 38.631 28.9854 32.6721 29.4378 26.713V24.7521C28.5326 26.1098 28.1555 27.3918 27.7027 28.5237C26.0436 32.446 25.8926 36.7455 24.6103 40.7435C24.3085 41.7991 24.3839 42.8554 24.4593 43.9113C24.5349 44.8919 24.0822 45.3447 23.1016 45.5704C21.7439 45.8725 20.4619 46.2496 19.1792 46.7777C18.048 47.1548 17.6709 46.7777 17.5952 45.7971C17.3688 43.6849 17.0671 41.573 17.0671 39.4608C16.8407 32.4457 16.9917 25.2802 17.0671 18.2651V16.7567C16.1618 17.4356 15.9358 18.3408 15.5587 19.0947C13.2204 24.9028 11.4853 30.7863 10.0523 36.8205C9.59981 38.4799 9.59981 40.215 9.14704 41.8741C8.99632 42.3266 8.76994 42.7794 8.39252 43.0058C6.80846 43.9863 5.14903 44.8916 3.48961 45.8721C1.98122 46.6263 1.98122 46.6263 1.15166 45.2687L1 26.1851Z" fill="#00A6A4"/>
<path d="M129.837 24.6001C128.554 26.1088 127.348 27.6929 126.141 29.3523C126.141 29.2795 126.133 29.199 126.125 29.1151C126.107 28.9397 126.09 28.7513 126.141 28.5978C126.216 27.7679 126.291 26.9298 126.367 26.0917C126.518 24.4158 126.668 22.7396 126.82 21.1302C126.856 20.7072 126.892 20.2858 126.928 19.8653C127.275 15.8613 127.614 11.9576 127.272 7.93017C127.196 6.94959 126.669 6.79888 125.839 6.94959C125.009 7.1003 124.557 7.7041 124.33 8.38294C124.104 9.06178 123.877 9.8163 123.802 10.4951C123.457 14.2905 122.717 18.0859 121.984 21.848C121.756 23.0204 121.528 24.1897 121.313 25.3546C120.182 31.3134 119.503 37.1969 119.654 43.2318C119.654 43.986 119.955 44.8155 120.785 45.268C121.394 45.5387 121.881 45.2028 122.302 44.9127C122.35 44.8795 122.398 44.8469 122.444 44.8155C123.199 44.137 124.104 43.7596 125.009 43.3822C125.537 43.1561 125.839 42.779 125.839 42.1755C125.763 40.8935 126.14 39.7616 126.668 38.4796C128.19 39.4475 128.887 40.8593 129.574 42.2502C129.636 42.3763 129.699 42.5023 129.761 42.6283C129.984 43.0447 130.204 43.4639 130.425 43.8834C132.01 46.8847 133.621 49.9379 135.871 52.5848C136.625 53.4144 137.455 53.7161 138.511 53.3393C139.105 53.1696 139.676 52.904 140.25 52.6371C140.695 52.4297 141.141 52.222 141.603 52.057C142.433 51.6799 142.358 51.3782 141.754 50.9257C139.793 49.3417 138.586 47.1541 137.605 45.0425C135.946 41.648 134.06 38.4045 131.495 35.5381C130.967 34.8593 131.118 34.6329 131.797 34.3315C133.306 33.6523 134.814 32.9735 136.323 32.2193C139.34 30.5602 140.773 27.9199 141.829 24.9781C142.659 22.6399 141.226 20.6787 138.963 20.377C134.891 19.8482 132.175 21.8847 129.837 24.6001ZM137.153 24.223C136.097 27.3154 134.287 29.9554 130.742 31.6905C132.175 28.5224 134.061 25.9578 136.173 23.6195C136.249 23.5631 136.319 23.4922 136.39 23.4213C136.602 23.2095 136.814 22.9973 137.153 23.1667C137.549 23.496 137.369 23.8253 137.216 24.1046C137.194 24.1451 137.173 24.1847 137.153 24.223Z" fill="#00A6A4"/>
<path d="M45.8137 10.1937C46.7189 10.1183 47.6995 10.3447 48.6798 10.4954C49.3586 10.5711 49.7361 10.8728 49.5097 11.7024C49.0572 13.0601 48.9062 14.4934 48.4534 15.9264C48.001 17.3595 44.9835 18.7925 43.4751 18.4908C42.947 18.4154 42.8717 18.0383 42.7963 17.7366C42.5699 16.8314 42.3438 16.0015 42.6453 15.0212C42.8717 14.2667 42.947 13.3618 43.0977 12.4566C43.3998 10.2693 43.4751 10.1937 45.8137 10.1937Z" fill="#00A6A4"/>
</svg>
