<svg width="165" height="56" viewBox="0 0 165 56" fill="none" xmlns="http://www.w3.org/2000/svg">
<path d="M28.3453 48.0643H23.3017C23.3287 47.2821 23.2747 46.5 23.1129 45.7448C20.8743 47.4439 18.1503 48.4149 15.3453 48.4688C14.5901 48.4688 13.781 48.4688 12.9179 48.4688C6.63368 48.0103 1.94074 42.5622 1.50921 36.1162C1.45526 35.4149 1.45526 34.6867 1.50921 33.9855C1.91377 28.0788 6.31003 23.1971 12.1627 22.1992C13.2955 22.0104 14.4283 21.9295 15.5611 21.9295C17.476 21.9564 19.3909 22.334 21.171 23.0353V9.52282L28.3723 7.5V48.0643H28.3453ZM14.9407 42.9668C17.6648 43.0477 20.1731 41.4564 21.2519 38.9481C21.6835 37.7884 21.8992 36.5477 21.8723 35.307V35.1991C21.8723 34.1203 21.7374 33.0415 21.4138 32.0166C20.4698 29.2655 17.8536 27.4315 14.9407 27.4855C10.8681 27.4855 7.87435 30.5601 7.87435 35.1991C7.87435 39.8381 10.7063 42.9668 14.9407 42.9668Z" fill="#F26C11"/>
<path d="M74.066 47.7411C72.7983 48.0378 71.5037 48.1727 70.1821 48.0648C64.6801 47.4445 63.3315 43.3719 63.1427 39.1105C63.1427 38.2204 63.1427 37.2764 63.1427 36.3324V27.6748H58.7734V21.9839H63.1427V15.0524L70.2631 12.625V21.9839H74.5245V27.6748H70.2631V36.1976C70.2631 36.791 70.2631 37.2495 70.2631 37.7619C70.344 39.7847 70.8834 40.8366 71.9352 41.1602C72.7713 41.43 73.6614 41.43 74.4975 41.1602V47.6872L74.066 47.7411Z" fill="#F26C11"/>
<path d="M101.656 21.9568V48.0646H94.8597V45.5563C92.5132 47.714 89.3576 48.7389 86.1751 48.4152C79.6481 47.8758 74.8203 42.0231 74.8203 35.1995C74.8203 28.3758 79.7021 22.5232 86.1751 21.9837C86.6606 21.9837 87.2269 21.9028 87.8473 21.9028C90.9759 21.8219 94.1045 22.3344 97.0713 23.3862L101.656 21.9568ZM88.1709 42.8592C92.2166 42.8592 94.9946 39.8924 95.0215 35.4153V35.2265C95.0215 30.6414 92.0817 27.6476 88.1709 27.6207C84.2601 27.5937 81.2664 30.6684 81.2664 35.2265C81.2664 39.7845 84.0174 42.8592 88.1709 42.8592Z" fill="#F26C11"/>
<path d="M56.9298 21.9562V48.091H50.1332V45.5827C47.7867 47.7404 44.6311 48.7653 41.4485 48.4416C34.9215 47.9022 30.0938 42.0495 30.0938 35.2259C30.0938 28.4022 34.9755 22.5495 41.4485 22.0101C41.934 22.0101 42.5004 21.9292 43.1207 21.9292C46.2493 21.8483 49.378 22.3607 52.3448 23.4126L56.9298 21.9562ZM43.4174 42.8586C47.463 42.8586 50.241 39.8918 50.268 35.4147V35.2259C50.268 30.6408 47.3282 27.647 43.4174 27.6201C39.4796 27.5661 36.5128 30.6678 36.5128 35.2259C36.5128 39.7839 39.2908 42.8586 43.4174 42.8586Z" fill="#F26C11"/>
<path d="M122.289 48.0635L116.733 40.8353L111.231 48.0635H103.437L112.661 35.2793L103.383 21.9287H110.989L116.76 29.6694L122.505 21.9287H130.111L120.887 35.2793L130.084 48.0635H122.289Z" fill="#F26C11"/>
<path d="M139.029 33.6079C139.029 34.8755 139.029 36.0622 139.029 37.195C139.298 40.1618 140.944 41.7261 144.045 41.7261C147.147 41.7261 148.792 40.1618 149.008 37.195C149.008 36.0892 149.089 34.8755 149.089 33.6079V21.9834H156.344V35.8195C156.371 36.6556 156.344 37.4917 156.263 38.3278C155.805 44.2614 151.112 48.0643 144.099 48.0643C136.52 48.0643 131.773 43.9108 131.773 36.9253V22.0373H139.029V33.6079Z" fill="#F26C11"/>
<path d="M160.073 41.8604C161.826 41.8604 163.256 43.2898 163.256 45.0429C163.256 46.796 161.826 48.2255 160.073 48.2255C158.32 48.2255 156.891 46.796 156.891 45.0429C156.891 43.2898 158.32 41.8604 160.073 41.8604ZM160.073 42.3728C158.59 42.3189 157.349 43.5056 157.295 44.989C157.241 46.4724 158.428 47.713 159.911 47.767C161.395 47.8209 162.635 46.6342 162.689 45.1508C162.689 45.1238 162.689 45.0969 162.689 45.0699C162.743 43.6404 161.584 42.4267 160.154 42.3998C160.154 42.3728 160.1 42.3728 160.073 42.3728ZM159.372 46.9039H158.806V43.2089H160.208C161.098 43.2089 161.53 43.5325 161.53 44.2608C161.584 44.8002 161.206 45.2587 160.667 45.3126C160.64 45.3126 160.613 45.3126 160.559 45.3126L161.611 46.9309H160.99L159.992 45.3126H159.345L159.372 46.9039ZM159.372 44.7732H160.1C160.801 44.7732 161.017 44.5844 161.017 44.1799C161.017 43.7753 160.801 43.7213 160.1 43.7213H159.345L159.372 44.7732Z" fill="#F26C11"/>
</svg>
