<svg width="170" height="56" viewBox="0 0 170 56" fill="none" xmlns="http://www.w3.org/2000/svg">
<path d="M18.9097 37.14C18.777 37.0029 18.5996 36.9178 18.4097 36.9C18.1368 36.8403 17.8589 36.8068 17.5797 36.8C17.2797 36.8 9.27968 36.8 8.70968 36.8C8.4905 36.8273 8.26807 36.792 8.0681 36.6983C7.86814 36.6045 7.6988 36.456 7.57968 36.27C7.51743 36.1209 7.48352 35.9615 7.47968 35.8C7.46933 35.6201 7.46933 35.4398 7.47968 35.26V34.85C7.47968 34.61 7.47968 34.54 7.47968 34.33C7.47968 34.12 7.47968 33.85 7.47968 33.64V14.32C7.49277 14.0538 7.41907 13.7906 7.26968 13.57C7.1984 13.4735 7.10472 13.3957 6.99671 13.3435C6.8887 13.2912 6.7696 13.266 6.64968 13.27C6.35968 13.27 2.19968 13.27 2.00968 13.27C1.74865 13.3122 1.51494 13.456 1.35968 13.67C1.26843 13.8462 1.22045 14.0416 1.21968 14.24C1.21968 14.48 1.21968 40.73 1.21968 40.99C1.21075 41.2111 1.26634 41.43 1.37968 41.62C1.45055 41.7255 1.54369 41.8142 1.65253 41.8799C1.76138 41.9455 1.88329 41.9865 2.00968 42C2.28968 42 17.8697 42.06 18.1397 42.06C18.3471 42.064 18.5514 42.0088 18.7286 41.9007C18.9057 41.7927 19.0483 41.6363 19.1397 41.45C19.1688 41.3014 19.1688 41.1486 19.1397 41C19.1397 40.81 19.1397 38 19.1397 37.76C19.1445 37.5316 19.0622 37.31 18.9097 37.14ZM164.59 9.29C164.59 9.29 164.59 9.29 164.59 9.35H164.68H164.78H164.88C164.892 9.34386 164.902 9.33539 164.911 9.32508C164.919 9.31477 164.926 9.30284 164.93 9.29C164.937 9.27261 164.941 9.2539 164.941 9.235C164.941 9.21609 164.937 9.19738 164.93 9.18V8.4C164.923 8.36031 164.923 8.31968 164.93 8.28C164.938 8.27351 164.949 8.27 164.96 8.27C164.97 8.27 164.981 8.27351 164.99 8.28H165.08H165.24C165.269 8.27139 165.3 8.27139 165.33 8.28C165.379 8.31086 165.417 8.3563 165.44 8.41L165.54 8.56L165.92 9.17C165.951 9.20109 165.975 9.23864 165.99 9.28C166.014 9.31485 166.045 9.34527 166.08 9.37H166.13H166.19C166.226 9.38028 166.264 9.38028 166.3 9.37H166.4C166.409 9.35328 166.414 9.33431 166.414 9.315C166.414 9.29569 166.409 9.27672 166.4 9.26C166.403 9.23012 166.403 9.19988 166.4 9.17L166.34 9.08L165.97 8.51L165.92 8.43V8.35C165.927 8.32129 165.945 8.29635 165.97 8.28C165.996 8.27461 166.023 8.27461 166.05 8.28H166.14H166.22C166.286 8.23469 166.347 8.18091 166.4 8.12C166.455 8.05648 166.496 7.98133 166.52 7.9C166.524 7.85678 166.524 7.81322 166.52 7.77C166.53 7.7239 166.53 7.67609 166.52 7.63V7.57V7.46C166.493 7.35354 166.449 7.25219 166.39 7.16C166.355 7.11656 166.31 7.08222 166.26 7.06C166.15 6.97691 166.017 6.92821 165.88 6.92H165.38H164.68C164.663 6.92366 164.647 6.93091 164.633 6.94127C164.619 6.95162 164.608 6.96483 164.6 6.98C164.6 6.98 164.6 7.03 164.6 7.07V9.23C164.6 9.23 164.6 9.29 164.6 9.32C164.594 9.34636 164.594 9.37363 164.6 9.4L164.59 9.29ZM164.99 7.39C164.984 7.36699 164.984 7.34301 164.99 7.32V7.25C164.985 7.23367 164.985 7.21633 164.99 7.2C165.013 7.16916 165.044 7.14502 165.08 7.13H165.43C165.523 7.11968 165.617 7.11968 165.71 7.13C165.786 7.13925 165.86 7.15947 165.93 7.19C165.991 7.22802 166.04 7.28379 166.07 7.35C166.078 7.3929 166.078 7.43709 166.07 7.48C166.08 7.53284 166.08 7.58716 166.07 7.64C166.057 7.69936 166.03 7.7545 165.99 7.8C165.96 7.84062 165.923 7.87468 165.88 7.9L165.71 7.95H165.51H165.14C165.113 7.95242 165.087 7.9482 165.062 7.93773C165.038 7.92725 165.016 7.91085 165 7.89C164.98 7.82813 164.98 7.76187 165 7.7V7.39H164.99ZM165.44 10.76C165.966 10.76 166.48 10.604 166.917 10.3117C167.355 10.0194 167.696 9.60399 167.897 9.11794C168.099 8.63188 168.151 8.09705 168.049 7.58106C167.946 7.06507 167.693 6.5911 167.321 6.21909C166.949 5.84709 166.475 5.59375 165.959 5.49111C165.443 5.38847 164.908 5.44115 164.422 5.64248C163.936 5.84381 163.52 6.18475 163.228 6.62218C162.936 7.05962 162.78 7.5739 162.78 8.1C162.78 8.44932 162.848 8.79521 162.982 9.11794C163.116 9.44066 163.312 9.7339 163.559 9.9809C163.806 10.2279 164.099 10.4238 164.422 10.5575C164.744 10.6912 165.09 10.76 165.44 10.76ZM165.44 5.86C165.883 5.86 166.316 5.99137 166.684 6.23751C167.052 6.48364 167.34 6.83348 167.509 7.24279C167.679 7.65209 167.723 8.10248 167.637 8.537C167.55 8.97152 167.337 9.37065 167.024 9.68392C166.71 9.99719 166.311 10.2105 165.877 10.297C165.442 10.3834 164.992 10.339 164.582 10.1695C164.173 9.99995 163.823 9.71284 163.577 9.34448C163.331 8.97611 163.2 8.54303 163.2 8.1C163.2 7.80584 163.258 7.51456 163.37 7.24279C163.483 6.97102 163.648 6.72408 163.856 6.51608C164.064 6.30808 164.311 6.14308 164.582 6.03051C164.854 5.91794 165.145 5.86 165.44 5.86ZM30.2197 20.7H30.0797C21.3097 20.7 19.3797 28.03 19.3797 31.47C19.3252 33.2186 19.6492 34.9583 20.3297 36.57C21.7297 39.63 24.6697 42.67 30.2197 42.67C35.7697 42.67 41.0597 39.2 41.0597 31.57V31.51C41.1132 30.0735 40.8692 28.6414 40.343 27.3036C39.8168 25.9659 39.0197 24.7514 38.0018 23.7363C36.9839 22.7212 35.7672 21.9275 34.428 21.405C33.0888 20.8825 31.656 20.6425 30.2197 20.7ZM30.0297 38.42C27.7697 38.42 25.0297 36.6 25.0297 31.72C25.0297 26.84 27.6497 25 30.4497 25C33.2497 25 35.3697 27.4 35.3697 31.75C35.3697 37.23 32.1997 38.42 30.0297 38.42ZM108.54 20.66C101.1 20.88 98.2297 27.35 98.2297 31.66C98.2297 34.21 99.2297 42.66 108.97 42.66C116.06 42.66 117.97 37.46 118.22 36.78C118.279 36.6273 118.299 36.4625 118.28 36.3C118.291 36.2372 118.291 36.1728 118.28 36.11C118.269 36.0012 118.222 35.8993 118.145 35.8211C118.069 35.7429 117.968 35.6931 117.86 35.68H114.45C114.278 35.6955 114.111 35.7462 113.96 35.8287C113.808 35.9113 113.676 36.024 113.57 36.16C113.48 36.26 113.37 36.41 113.28 36.52C112.802 37.1189 112.192 37.6 111.499 37.926C110.805 38.2519 110.046 38.4141 109.28 38.4C105.36 38.4 104.22 35.78 104.08 34.4C104.08 34.3 104.08 34.2 104.08 34.1C104.063 33.8903 104.113 33.6809 104.223 33.5013C104.332 33.3218 104.496 33.1814 104.69 33.1C104.833 33.042 104.985 33.0082 105.14 33C105.32 33 117.02 33 117.33 33C117.599 33.0156 117.87 33.0156 118.14 33C118.351 32.9742 118.553 32.8988 118.73 32.78C118.889 32.647 118.99 32.4566 119.01 32.25C119.05 31.9182 119.07 31.5842 119.07 31.25C119.14 27.09 116.2 20.43 108.54 20.66ZM112.96 29.08C112.858 29.1992 112.73 29.293 112.586 29.3537C112.442 29.4145 112.286 29.4406 112.13 29.43H105.34C105.029 29.4463 104.72 29.3735 104.45 29.22C104.32 29.1201 104.228 28.979 104.19 28.82C104.159 28.6513 104.159 28.4786 104.19 28.31C104.457 27.2788 105.071 26.3711 105.929 25.7392C106.787 25.1073 107.836 24.7898 108.9 24.84C109.844 24.8682 110.754 25.1965 111.498 25.7774C112.243 26.3582 112.783 27.1613 113.04 28.07C113.112 28.2316 113.142 28.4088 113.128 28.5852C113.114 28.7616 113.056 28.9317 112.96 29.08ZM63.0297 21.47C62.8646 21.3303 62.6559 21.2525 62.4397 21.25C62.2197 21.25 59.1097 21.25 58.8797 21.25C58.6702 21.2546 58.4661 21.3169 58.2897 21.43C58.1891 21.5388 58.1139 21.6686 58.0697 21.81C58.0697 21.9 58.0697 21.96 58.0697 22.08C57.9897 22.56 57.8197 22.95 57.4697 22.99C57.3683 22.9973 57.2668 22.9792 57.1742 22.9373C57.0817 22.8953 57.001 22.831 56.9397 22.75C56.261 22.0454 55.44 21.4937 54.5312 21.1315C53.6224 20.7694 52.6469 20.6052 51.6697 20.65C44.5797 20.65 42.8597 27.38 42.6697 29.81C42.6697 29.81 42.6697 30.48 42.6697 30.81C42.6697 38.26 46.8597 41.49 51.6697 41.49C53.5498 41.4792 55.3661 40.8065 56.7997 39.59C56.8613 39.5276 56.9282 39.4707 56.9997 39.42C57.0778 39.351 57.1699 39.2999 57.2697 39.27C57.3466 39.2349 57.4301 39.2167 57.5147 39.2167C57.5992 39.2167 57.6828 39.2349 57.7597 39.27C58.0397 39.43 58.0897 39.77 58.0397 40.27C58.0397 40.27 57.8797 42.19 57.8297 42.44C57.695 43.4256 57.2227 44.3341 56.4934 45.0106C55.764 45.6871 54.8226 46.0897 53.8297 46.15C52.8732 46.3288 51.8845 46.1913 51.013 45.7583C50.1416 45.3253 49.4349 44.6203 48.9997 43.75C48.9077 43.6207 48.7862 43.5153 48.6454 43.4422C48.5045 43.3692 48.3483 43.3307 48.1897 43.33C48.0497 43.33 44.5297 43.27 44.2597 43.33C44.0171 43.3684 43.7949 43.4883 43.6297 43.67C43.5542 43.7855 43.506 43.9166 43.4887 44.0535C43.4713 44.1903 43.4854 44.3293 43.5297 44.46C44.2097 47.2 47.2097 49.97 52.6897 49.97H52.7897C61.0997 49.97 63.3397 45.23 63.3397 40.33C63.3397 40.33 63.3397 22.4 63.3397 22.09C63.3357 21.9704 63.306 21.8531 63.2525 21.7461C63.199 21.6391 63.123 21.5449 63.0297 21.47ZM53.0297 37.2C50.3197 37.2 48.3397 35.09 48.3397 30.58C48.3397 26.84 50.5697 24.93 52.9997 24.93C55.1797 24.93 57.9997 26.81 57.9997 30.62C57.9497 34.81 55.9297 37.2 53.0197 37.2H53.0297ZM144.47 4C139.723 4 135.083 5.40758 131.136 8.04473C127.189 10.6819 124.113 14.4302 122.297 18.8156C120.48 23.201 120.005 28.0266 120.931 32.6822C121.857 37.3377 124.143 41.6141 127.499 44.9706C130.856 48.327 135.132 50.6128 139.787 51.5388C144.443 52.4649 149.269 51.9896 153.654 50.1731C158.039 48.3566 161.788 45.2805 164.425 41.3337C167.062 37.3869 168.47 32.7467 168.47 28C168.47 21.6348 165.941 15.5303 161.44 11.0294C156.939 6.52856 150.835 4 144.47 4ZM136.23 41.94C136.135 42.0703 136.012 42.1776 135.87 42.2538C135.728 42.33 135.571 42.3731 135.41 42.38C135.02 42.38 131.28 42.38 131.02 42.38C130.794 42.3605 130.579 42.2773 130.4 42.14C130.247 41.973 130.162 41.7559 130.16 41.53C130.127 41.2478 130.11 40.964 130.11 40.68C130.11 40.68 130.11 15.68 130.11 15.13C130.072 14.7529 130.137 14.3725 130.3 14.03C130.385 13.9099 130.495 13.81 130.623 13.7374C130.751 13.6648 130.893 13.6213 131.04 13.61C131.11 13.61 135.29 13.61 135.56 13.61C135.678 13.6076 135.795 13.6336 135.901 13.6858C136.007 13.738 136.099 13.8149 136.17 13.91C136.312 14.1269 136.389 14.3805 136.39 14.64C136.39 14.94 136.39 40.57 136.39 41C136.419 41.3219 136.364 41.6459 136.23 41.94ZM159.94 41.39C159.961 41.5864 159.914 41.784 159.806 41.9497C159.699 42.1154 159.538 42.2391 159.35 42.3C157.927 42.3797 156.502 42.3797 155.08 42.3C154.963 42.287 154.851 42.249 154.751 42.1885C154.651 42.1281 154.565 42.0467 154.5 41.95C154.383 41.7634 154.318 41.5497 154.31 41.33C154.31 41.07 154.31 31.63 154.31 31.63C154.31 30.63 154.31 29.71 154.19 28.86C154.191 28.3808 154.093 27.9066 153.904 27.4664C153.714 27.0263 153.437 26.6296 153.088 26.3007C152.74 25.9719 152.328 25.7179 151.877 25.5544C151.427 25.3909 150.948 25.3213 150.47 25.35C149.47 25.3206 148.496 25.6667 147.739 26.3201C146.982 26.9735 146.497 27.8868 146.38 28.88C146.207 30.2063 146.124 31.5426 146.13 32.88V41.15C146.136 41.3566 146.095 41.5619 146.01 41.75C145.955 41.886 145.866 42.0058 145.753 42.0985C145.639 42.1911 145.504 42.2536 145.36 42.28C144.95 42.38 141.65 42.35 141.36 42.28C141.238 42.2785 141.118 42.2531 141.007 42.205C140.895 42.1569 140.794 42.0873 140.71 42C140.502 41.6876 140.407 41.3137 140.44 40.94C140.44 40.49 140.44 22.6 140.44 22.36C140.446 22.1367 140.527 21.9219 140.67 21.75C140.83 21.53 141.18 21.43 141.82 21.43H144.12C144.77 21.43 145.57 21.43 145.67 22.05C145.67 22.2 145.84 23.44 146.37 23.45C146.447 23.4492 146.523 23.4308 146.593 23.3962C146.662 23.3615 146.723 23.3115 146.77 23.25C147.219 22.7843 147.715 22.3655 148.25 22C149.487 21.3556 150.849 20.9871 152.242 20.9198C153.635 20.8524 155.026 21.0879 156.32 21.61C157.378 22.0932 158.267 22.8842 158.87 23.88C159.611 25.3162 159.986 26.9138 159.96 28.53C159.96 29 159.95 40.92 159.94 41.39ZM95.6697 13.25H88.6697C88.4431 13.2433 88.2209 13.3138 88.0397 13.45C87.8386 13.5733 87.6839 13.7597 87.5997 13.98L87.3597 14.63C87.2197 15.06 81.7997 31.77 81.7397 31.84C81.6097 32.11 81.4597 32.25 81.2997 32.25C81.1397 32.25 80.7797 31.69 80.5097 30.85C80.3497 30.42 74.8797 14.38 74.7997 14.12C74.7322 13.8859 74.5921 13.6793 74.3997 13.53C74.1046 13.3328 73.7543 13.2347 73.3997 13.25C72.9597 13.25 66.6697 13.25 66.6197 13.25C66.5681 13.2308 66.5113 13.2308 66.4597 13.25C66.1986 13.2922 65.9649 13.436 65.8097 13.65C65.7446 13.7992 65.7041 13.9579 65.6897 14.12C65.6741 14.3297 65.6741 14.5403 65.6897 14.75V40.34C65.6743 40.6298 65.6743 40.9202 65.6897 41.21C65.6921 41.3283 65.7181 41.445 65.7662 41.5532C65.8143 41.6614 65.8834 41.7589 65.9697 41.84C66.1429 41.979 66.3575 42.0565 66.5797 42.06H70.1397C70.3417 42.08 70.5456 42.0596 70.7397 42C70.8622 41.9908 70.9809 41.9536 71.0867 41.8912C71.1925 41.8288 71.2824 41.7428 71.3497 41.64C71.4628 41.4872 71.5194 41.2999 71.5097 41.11C71.5097 40.89 71.5097 24.32 71.5097 24.11C71.5097 23.9 71.5997 23.59 71.8397 23.62C71.9112 23.6324 71.9793 23.6597 72.0397 23.7L72.1997 23.84C72.3858 24.1298 72.5336 24.4423 72.6397 24.77C72.6397 24.82 78.3597 40.96 78.4397 41.13C78.6497 41.63 78.9797 42.02 79.4397 42.02H83.1397C83.3186 42.0009 83.4874 41.9274 83.6233 41.8094C83.7592 41.6914 83.8557 41.5345 83.8997 41.36C85.0397 38.44 88.8997 26.51 89.8997 24.07C89.9907 23.8592 90.1083 23.6609 90.2497 23.48C90.2997 23.48 90.4897 23.32 90.5697 23.34C90.6497 23.36 90.7697 23.41 90.7997 23.63C90.8193 23.9097 90.8193 24.1903 90.7997 24.47C90.7997 24.72 90.7997 40.4 90.7997 40.4V41.09C90.7899 41.2799 90.8465 41.4672 90.9597 41.62C91.069 41.7589 91.2114 41.8683 91.3738 41.9382C91.5363 42.0081 91.7136 42.0362 91.8897 42.02H95.7397C95.9611 42.0129 96.1746 41.9358 96.3497 41.8C96.4327 41.7175 96.4985 41.6194 96.5431 41.5112C96.5878 41.403 96.6104 41.287 96.6097 41.17C96.6097 40.89 96.6097 14.73 96.6097 14.28C96.6296 14.1012 96.5978 13.9203 96.5181 13.759C96.4383 13.5977 96.3139 13.4627 96.1597 13.37C96.0113 13.2836 95.8411 13.2419 95.6697 13.25Z" fill="#165C7D"/>
</svg>
