<svg width="141" height="56" viewBox="0 0 141 56" fill="none" xmlns="http://www.w3.org/2000/svg">
<path d="M12.716 28.926C12.94 28.73 13.108 28.422 13.22 28.002C13.36 27.554 13.43 27.134 13.43 26.742C13.43 26.098 13.22 25.566 12.8 25.146C12.408 24.726 11.848 24.516 11.12 24.516C10.364 24.516 9.734 24.796 9.23 25.356C8.726 25.916 8.32 26.63 8.012 27.498C7.704 28.338 7.48 29.29 7.34 30.354C7.228 31.39 7.172 32.412 7.172 33.42C7.172 34.904 7.298 36.108 7.55 37.032C7.83 37.956 8.194 38.684 8.642 39.216C9.09 39.72 9.608 40.07 10.196 40.266C10.812 40.462 11.456 40.56 12.128 40.56C13.612 40.56 14.858 40.196 15.866 39.468C16.902 38.712 17.784 37.55 18.512 35.982H19.94C19.604 37.018 19.128 38.012 18.512 38.964C17.896 39.888 17.182 40.714 16.37 41.442C15.558 42.142 14.676 42.702 13.724 43.122C12.772 43.542 11.778 43.752 10.742 43.752C9.762 43.752 8.796 43.584 7.844 43.248C6.892 42.912 6.038 42.366 5.282 41.61C4.526 40.826 3.91 39.818 3.434 38.586C2.958 37.326 2.72 35.786 2.72 33.966C2.72 32.79 2.818 31.53 3.014 30.186C3.238 28.814 3.63 27.554 4.19 26.406C4.778 25.23 5.576 24.25 6.584 23.466C7.592 22.682 8.894 22.29 10.49 22.29C12.254 22.29 13.598 22.724 14.522 23.592C15.446 24.432 15.908 25.678 15.908 27.33C15.908 28.03 15.768 28.618 15.488 29.094C15.236 29.57 14.83 29.808 14.27 29.808C13.654 29.808 13.136 29.514 12.716 28.926ZM26.1668 22.29C27.2588 22.29 28.1968 22.458 28.9808 22.794C29.7648 23.13 30.4088 23.606 30.9128 24.222C31.4168 24.81 31.8088 25.51 32.0888 26.322C32.3968 27.134 32.6208 28.002 32.7608 28.926H33.0128C34.1888 28.926 35.2668 28.688 36.2468 28.212C37.2268 27.736 38.0668 27.134 38.7668 26.406L39.3968 27.54C38.8368 28.436 37.9408 29.178 36.7088 29.766C35.5048 30.354 34.2588 30.76 32.9708 30.984C32.9708 31.264 32.9708 31.544 32.9708 31.824C32.9988 32.104 33.0128 32.398 33.0128 32.706C33.0128 36.15 32.3828 38.852 31.1228 40.812C29.8628 42.772 28.0988 43.752 25.8308 43.752C24.9068 43.752 23.9688 43.584 23.0168 43.248C22.0928 42.912 21.2528 42.352 20.4968 41.568C19.7408 40.784 19.1248 39.776 18.6488 38.544C18.2008 37.312 17.9768 35.786 17.9768 33.966C17.9768 32.734 18.1028 31.432 18.3548 30.06C18.6348 28.688 19.0828 27.428 19.6988 26.28C20.3428 25.132 21.1828 24.18 22.2188 23.424C23.2828 22.668 24.5988 22.29 26.1668 22.29ZM26.5868 40.56C28.0708 40.56 29.1628 39.832 29.8628 38.376C30.5628 36.892 30.9128 34.806 30.9128 32.118C30.9128 31.95 30.9128 31.782 30.9128 31.614C30.9128 31.446 30.8988 31.278 30.8708 31.11C30.0588 31.054 29.4708 30.872 29.1068 30.564C28.7708 30.256 28.6028 29.738 28.6028 29.01C28.6028 28.366 28.7428 27.918 29.0228 27.666C29.3028 27.386 29.7228 27.232 30.2828 27.204C29.9468 26.224 29.5128 25.552 28.9808 25.188C28.4768 24.796 27.9028 24.6 27.2588 24.6C26.3908 24.6 25.6488 24.894 25.0328 25.482C24.4448 26.042 23.9548 26.77 23.5628 27.666C23.1988 28.562 22.9328 29.556 22.7648 30.648C22.5968 31.712 22.5128 32.762 22.5128 33.798C22.5128 35.17 22.6388 36.29 22.8908 37.158C23.1428 38.026 23.4648 38.712 23.8568 39.216C24.2488 39.72 24.6828 40.07 25.1588 40.266C25.6348 40.462 26.1108 40.56 26.5868 40.56ZM40.2765 22.5V25.398C41.0045 24.054 41.7745 23.2 42.5865 22.836C43.3985 22.472 44.1685 22.29 44.8965 22.29C45.6245 22.29 46.2545 22.388 46.7865 22.584C47.3465 22.78 47.8225 23.046 48.2145 23.382C48.6065 23.718 48.9285 24.11 49.1805 24.558C49.4605 25.006 49.6845 25.496 49.8525 26.028C50.2445 25.188 50.6505 24.53 51.0705 24.054C51.4905 23.55 51.9105 23.172 52.3305 22.92C52.7505 22.64 53.1565 22.472 53.5485 22.416C53.9685 22.332 54.3465 22.29 54.6825 22.29C55.9425 22.29 56.9505 22.528 57.7065 23.004C58.4905 23.48 59.0785 24.096 59.4705 24.852C59.8625 25.58 60.1145 26.392 60.2265 27.288C60.3665 28.156 60.4365 28.996 60.4365 29.808C60.4365 30.312 60.4225 30.872 60.3945 31.488C60.3665 32.076 60.3385 32.692 60.3105 33.336C60.2825 33.952 60.2545 34.582 60.2265 35.226C60.1985 35.842 60.1845 36.416 60.1845 36.948C60.1845 37.172 60.1985 37.494 60.2265 37.914C60.2545 38.306 60.3245 38.698 60.4365 39.09C60.5485 39.482 60.7305 39.832 60.9825 40.14C61.2345 40.42 61.5985 40.56 62.0745 40.56C62.7185 40.56 63.2925 40.196 63.7965 39.468C64.3285 38.74 64.7625 37.578 65.0985 35.982H66.6525C66.3445 37.746 65.9525 39.146 65.4765 40.182C65.0005 41.19 64.4965 41.96 63.9645 42.492C63.4325 43.024 62.9005 43.36 62.3685 43.5C61.8365 43.668 61.3465 43.752 60.8985 43.752C60.0025 43.752 59.2465 43.584 58.6305 43.248C58.0145 42.884 57.5105 42.408 57.1185 41.82C56.7265 41.232 56.4325 40.546 56.2365 39.762C56.0685 38.978 55.9845 38.166 55.9845 37.326C55.9845 37.074 55.9845 36.612 55.9845 35.94C56.0125 35.24 56.0265 34.498 56.0265 33.714C56.0545 32.93 56.0685 32.188 56.0685 31.488C56.0965 30.788 56.1105 30.298 56.1105 30.018C56.1105 29.122 56.0405 28.38 55.9005 27.792C55.7605 27.204 55.5645 26.742 55.3125 26.406C55.0605 26.07 54.7665 25.832 54.4305 25.692C54.1225 25.552 53.7865 25.482 53.4225 25.482C52.5545 25.482 51.8405 25.832 51.2805 26.532C50.7485 27.232 50.3705 28.408 50.1465 30.06V43.5H45.9465V29.472C45.9465 28.968 45.9185 28.478 45.8625 28.002C45.8345 27.526 45.7365 27.106 45.5685 26.742C45.4005 26.35 45.1625 26.042 44.8545 25.818C44.5465 25.594 44.1265 25.482 43.5945 25.482C42.6985 25.482 42.0125 25.86 41.5365 26.616C41.0885 27.344 40.6685 28.492 40.2765 30.06V43.5H36.0765V22.5H40.2765ZM69.4396 20.946V24.18C69.9716 23.62 70.5876 23.172 71.2876 22.836C72.0156 22.472 72.8556 22.29 73.8076 22.29C74.7876 22.29 75.6976 22.5 76.5376 22.92C77.3776 23.34 78.1056 23.984 78.7216 24.852C79.3656 25.692 79.8696 26.77 80.2336 28.086C80.5976 29.374 80.7796 30.914 80.7796 32.706C80.7796 36.206 80.1216 38.922 78.8056 40.854C77.4896 42.786 75.7396 43.752 73.5556 43.752C72.6316 43.752 71.8336 43.584 71.1616 43.248C70.5176 42.884 69.9436 42.38 69.4396 41.736V52.95L65.1976 54V20.946H69.4396ZM72.3376 25.02C71.7216 25.02 71.1616 25.202 70.6576 25.566C70.1816 25.902 69.7756 26.392 69.4396 27.036V39.636C69.8316 40.14 70.2656 40.504 70.7416 40.728C71.2456 40.952 71.7356 41.064 72.2116 41.064C72.9116 41.064 73.5276 40.84 74.0596 40.392C74.5916 39.944 75.0396 39.342 75.4036 38.586C75.7956 37.802 76.0896 36.892 76.2856 35.856C76.4816 34.82 76.5796 33.714 76.5796 32.538C76.5796 31.082 76.4396 29.878 76.1596 28.926C75.9076 27.946 75.5716 27.176 75.1516 26.616C74.7316 26.028 74.2696 25.622 73.7656 25.398C73.2616 25.146 72.7856 25.02 72.3376 25.02ZM98.4554 22.5V36.78C98.4554 37.06 98.4694 37.41 98.4974 37.83C98.5254 38.25 98.5954 38.67 98.7074 39.09C98.8474 39.482 99.0434 39.832 99.2954 40.14C99.5474 40.42 99.8974 40.56 100.345 40.56C101.717 40.56 102.725 39.034 103.369 35.982H104.923C104.615 37.746 104.223 39.146 103.747 40.182C103.271 41.19 102.767 41.96 102.235 42.492C101.703 43.024 101.157 43.36 100.597 43.5C100.037 43.668 99.5334 43.752 99.0854 43.752C98.4414 43.752 97.8814 43.64 97.4054 43.416C96.9574 43.192 96.5654 42.898 96.2294 42.534C95.9214 42.17 95.6694 41.75 95.4734 41.274C95.2774 40.798 95.1234 40.294 95.0114 39.762C94.5914 40.854 93.9054 41.792 92.9534 42.576C92.0294 43.36 90.8954 43.752 89.5514 43.752C88.7114 43.752 87.8574 43.584 86.9894 43.248C86.1494 42.912 85.3794 42.366 84.6794 41.61C84.0074 40.826 83.4474 39.832 82.9994 38.628C82.5794 37.396 82.3694 35.898 82.3694 34.134C82.3694 32.846 82.5094 31.502 82.7894 30.102C83.0974 28.702 83.5734 27.428 84.2174 26.28C84.8614 25.132 85.6874 24.18 86.6954 23.424C87.7034 22.668 88.9214 22.29 90.3494 22.29C90.6854 22.29 91.0354 22.332 91.3994 22.416C91.7914 22.472 92.1554 22.584 92.4914 22.752C92.8554 22.92 93.1914 23.158 93.4994 23.466C93.8074 23.746 94.0594 24.096 94.2554 24.516V22.5H98.4554ZM90.6014 40.56C91.0214 40.56 91.4414 40.448 91.8614 40.224C92.3094 39.972 92.7014 39.65 93.0374 39.258C93.4014 38.838 93.6954 38.348 93.9194 37.788C94.1434 37.228 94.2554 36.626 94.2554 35.982V26.406C94.0594 25.958 93.7514 25.552 93.3314 25.188C92.9394 24.796 92.4214 24.6 91.7774 24.6C90.8814 24.6 90.1114 24.908 89.4674 25.524C88.8234 26.112 88.3054 26.868 87.9134 27.792C87.5214 28.688 87.2274 29.682 87.0314 30.774C86.8634 31.838 86.7794 32.86 86.7794 33.84C86.7794 36.248 87.1014 37.97 87.7454 39.006C88.4174 40.042 89.3694 40.56 90.6014 40.56ZM107.542 22.5V25.692C107.962 24.936 108.382 24.334 108.802 23.886C109.25 23.41 109.698 23.06 110.146 22.836C110.594 22.612 111.014 22.472 111.406 22.416C111.826 22.332 112.218 22.29 112.582 22.29C113.842 22.29 114.85 22.528 115.606 23.004C116.39 23.48 116.978 24.096 117.37 24.852C117.762 25.58 118.014 26.392 118.126 27.288C118.266 28.156 118.336 28.996 118.336 29.808C118.336 30.312 118.322 30.872 118.294 31.488C118.266 32.076 118.238 32.692 118.21 33.336C118.182 33.952 118.154 34.582 118.126 35.226C118.098 35.842 118.084 36.416 118.084 36.948C118.084 37.172 118.098 37.494 118.126 37.914C118.154 38.306 118.224 38.698 118.336 39.09C118.448 39.482 118.63 39.832 118.882 40.14C119.134 40.42 119.498 40.56 119.974 40.56C120.618 40.56 121.192 40.196 121.696 39.468C122.228 38.74 122.662 37.578 122.998 35.982H124.552C124.244 37.746 123.852 39.146 123.376 40.182C122.9 41.19 122.396 41.96 121.864 42.492C121.332 43.024 120.8 43.36 120.268 43.5C119.736 43.668 119.246 43.752 118.798 43.752C117.902 43.752 117.146 43.584 116.53 43.248C115.914 42.884 115.41 42.408 115.018 41.82C114.626 41.232 114.332 40.546 114.136 39.762C113.968 38.978 113.884 38.166 113.884 37.326C113.884 37.074 113.884 36.612 113.884 35.94C113.912 35.24 113.926 34.498 113.926 33.714C113.954 32.93 113.968 32.188 113.968 31.488C113.996 30.788 114.01 30.298 114.01 30.018C114.01 29.122 113.94 28.38 113.8 27.792C113.66 27.204 113.464 26.742 113.212 26.406C112.96 26.07 112.666 25.832 112.33 25.692C112.022 25.552 111.686 25.482 111.322 25.482C110.454 25.482 109.698 25.832 109.054 26.532C108.438 27.232 107.934 28.408 107.542 30.06V43.5H103.342V22.5H107.542ZM137.144 22.5V46.818C137.144 48.134 137.004 49.24 136.724 50.136C136.444 51.06 136.052 51.802 135.548 52.362C135.072 52.95 134.512 53.37 133.868 53.622C133.252 53.874 132.594 54 131.894 54C130.494 54 129.402 53.594 128.618 52.782C127.834 51.998 127.442 51.032 127.442 49.884C127.442 49.156 127.596 48.498 127.904 47.91C128.24 47.322 128.66 46.776 129.164 46.272C129.696 45.796 130.284 45.362 130.928 44.97C131.6 44.606 132.272 44.284 132.944 44.004V41.358C132.384 42.17 131.74 42.772 131.012 43.164C130.312 43.556 129.598 43.752 128.87 43.752C128.058 43.752 127.288 43.64 126.56 43.416C125.832 43.192 125.202 42.828 124.67 42.324C124.138 41.792 123.718 41.12 123.41 40.308C123.102 39.468 122.948 38.446 122.948 37.242V22.5H127.148V36.78C127.148 38.152 127.386 39.132 127.862 39.72C128.338 40.28 128.94 40.56 129.668 40.56C130.06 40.56 130.452 40.462 130.844 40.266C131.236 40.042 131.586 39.734 131.894 39.342C132.202 38.95 132.454 38.474 132.65 37.914C132.846 37.354 132.944 36.71 132.944 35.982V22.5H137.144ZM131.096 51.816C131.852 51.816 132.342 51.522 132.566 50.934C132.818 50.374 132.944 49.604 132.944 48.624V45.684C131.544 46.328 130.55 46.958 129.962 47.574C129.374 48.218 129.08 48.932 129.08 49.716C129.08 50.36 129.248 50.864 129.584 51.228C129.948 51.62 130.452 51.816 131.096 51.816Z" fill="#605E64"/>
</svg>
