<svg width="150" height="150" viewBox="0 0 150 150" fill="none" xmlns="http://www.w3.org/2000/svg">
<rect width="149.75" height="149.75" rx="74.875" fill="#FFE1BB"/>
<path d="M113.4 75C113.4 64.8157 109.354 55.0485 102.153 47.8471C94.9515 40.6457 85.1843 36.6 75 36.6C64.8157 36.6 55.0485 40.6457 47.8471 47.8471C40.6457 55.0485 36.6 64.8157 36.6 75C36.6 85.1843 40.6457 94.9515 47.8471 102.153C55.0485 109.354 64.8157 113.4 75 113.4C85.1843 113.4 94.9515 109.354 102.153 102.153C109.354 94.9515 113.4 85.1843 113.4 75ZM123 75C123 87.7304 117.943 99.9394 108.941 108.941C99.9394 117.943 87.7304 123 75 123C68.6966 123 62.4548 121.758 56.6312 119.346C50.8076 116.934 45.5161 113.398 41.0589 108.941C32.0571 99.9394 27 87.7304 27 75C27 62.2696 32.0571 50.0606 41.0589 41.0589C50.0606 32.0571 62.2696 27 75 27C81.3035 27 87.5452 28.2416 93.3688 30.6538C99.1924 33.066 104.484 36.6017 108.941 41.0589C113.398 45.5161 116.934 50.8076 119.346 56.6312C121.758 62.4548 123 68.6966 123 75ZM91.8 55.8C95.64 55.8 99 59.16 99 63C99 66.84 95.64 70.2 91.8 70.2C87.96 70.2 84.6 66.84 84.6 63C84.6 59.16 87.96 55.8 91.8 55.8ZM65.4 63C65.4 66.84 62.04 70.2 58.2 70.2C54.36 70.2 51 66.84 51 63C51 59.16 54.36 55.8 58.2 55.8C62.04 55.8 65.4 59.16 65.4 63ZM75 84.6C83.4 84.6 90.792 88.056 95.112 93.288L88.296 100.104C86.136 96.6 81 94.2 75 94.2C69 94.2 63.864 96.6 61.704 100.104L54.888 93.288C59.208 88.056 66.6 84.6 75 84.6Z" fill="#202F48"/>
</svg>
