<svg width="128" height="128" viewBox="0 0 128 128" fill="none" xmlns="http://www.w3.org/2000/svg">
<path d="M44.12 35.8L30 50C16.68 63.24 16.68 84.76 30 98C43.32 111.24 64.76 111.32 78 98L102 74C106 70.12 106 63.76 102 59.84C101.6 59.36 101.08 58.92 100.52 58.56L102 57C106 53.12 106 46.76 102 42.84C101.44 42.2 100.68 41.64 100 41.2C101.52 37.52 100.84 33.12 97.84 30.12C94.36 26.64 88.96 26.28 85.04 29C84.64 28.4 84.2 27.84 83.68 27.32C79.8 23.44 73.44 23.44 69.52 27.32L59.48 37.36C59.12 36.8 58.68 36.28 58.2 35.8C54.32 32 48 32 44.12 35.8ZM49.76 41.48C50.56 40.68 51.8 40.68 52.6 41.48C53.4 42.28 53.4 43.52 52.6 44.32L39.88 57.04C44.56 61.72 44.56 69.32 39.88 74L45.52 79.64C51.32 73.84 52.8 65.36 50 58.2L75.2 33C76 32.2 77.24 32.2 78 33C78.76 33.8 78.84 35.04 78 35.84L59.64 54.24L65.28 59.88L89.32 35.84C90.12 35.04 91.36 35.04 92.16 35.84C92.96 36.64 92.96 37.88 92.16 38.68L68.12 62.72L73.76 68.36L93.56 48.56C94.36 47.76 95.6 47.76 96.4 48.56C97.2 49.36 97.2 50.6 96.4 51.4L73.76 74L79.4 79.68L93.56 65.52C94.36 64.72 95.6 64.72 96.4 65.52C97.2 66.32 97.2 67.56 96.4 68.36L72.4 92.4C62.24 102.56 45.8 102.56 35.64 92.4C25.48 82.24 25.48 65.8 35.64 55.64L49.76 41.48ZM108 84C108 97.24 97.24 108 84 108V102C94 102 102 94 102 84H108ZM20 44C20 30.76 30.76 20 44 20V26C34 26 26 34 26 44H20Z" fill="#E0E6EE"/>
</svg>
