<svg width="528" height="226" viewBox="0 0 528 226" fill="none" xmlns="http://www.w3.org/2000/svg">
<g opacity="0.1">
<path d="M62.096 173V63.8H90.992V104.456H123.584V63.8H152.48V173H123.584V129.656H90.992V173H62.096ZM208.196 175.016C200.02 175.016 192.628 173.28 186.02 169.808C179.524 166.336 174.372 161.352 170.564 154.856C166.756 148.248 164.852 140.296 164.852 131C164.852 121.928 166.756 114.144 170.564 107.648C174.484 101.04 179.524 95.944 185.684 92.36C191.844 88.776 198.34 86.984 205.172 86.984C213.46 86.984 220.292 88.832 225.668 92.528C231.156 96.112 235.188 100.984 237.764 107.144C240.452 113.304 241.796 120.136 241.796 127.64C241.796 130.104 241.628 132.512 241.292 134.864C241.068 137.104 240.844 138.728 240.62 139.736H192.74C194.084 144.776 196.492 148.304 199.964 150.32C203.436 152.224 207.524 153.176 212.228 153.176C217.604 153.176 223.316 151.496 229.364 148.136L238.772 165.272C234.292 168.408 229.252 170.816 223.652 172.496C218.052 174.176 212.9 175.016 208.196 175.016ZM192.404 120.92H217.268C217.268 117.672 216.428 114.872 214.748 112.52C213.18 110.056 210.212 108.824 205.844 108.824C202.708 108.824 199.908 109.776 197.444 111.68C194.98 113.584 193.3 116.664 192.404 120.92ZM278.481 175.016C271.985 175.016 266.833 173.728 263.025 171.152C259.329 168.464 256.641 164.768 254.961 160.064C253.393 155.248 252.609 149.704 252.609 143.432V56.072H281.505V144.44C281.505 147.24 282.009 149.2 283.017 150.32C284.137 151.328 285.201 151.832 286.209 151.832C286.769 151.832 287.217 151.832 287.553 151.832C288.001 151.72 288.561 151.608 289.233 151.496L292.593 172.664C291.137 173.336 289.233 173.896 286.881 174.344C284.529 174.792 281.729 175.016 278.481 175.016ZM323.48 175.016C316.984 175.016 311.832 173.728 308.024 171.152C304.328 168.464 301.64 164.768 299.96 160.064C298.392 155.248 297.608 149.704 297.608 143.432V56.072H326.504V144.44C326.504 147.24 327.008 149.2 328.016 150.32C329.136 151.328 330.2 151.832 331.208 151.832C331.768 151.832 332.216 151.832 332.552 151.832C333 151.72 333.56 151.608 334.232 151.496L337.592 172.664C336.136 173.336 334.232 173.896 331.88 174.344C329.528 174.792 326.728 175.016 323.48 175.016ZM379.903 175.016C372.735 175.016 365.959 173.28 359.575 169.808C353.303 166.336 348.151 161.352 344.119 154.856C340.199 148.248 338.239 140.296 338.239 131C338.239 121.704 340.199 113.808 344.119 107.312C348.151 100.704 353.303 95.664 359.575 92.192C365.959 88.72 372.735 86.984 379.903 86.984C387.071 86.984 393.791 88.72 400.063 92.192C406.447 95.664 411.599 100.704 415.519 107.312C419.551 113.808 421.567 121.704 421.567 131C421.567 140.296 419.551 148.248 415.519 154.856C411.599 161.352 406.447 166.336 400.063 169.808C393.791 173.28 387.071 175.016 379.903 175.016ZM379.903 151.832C384.271 151.832 387.351 149.984 389.143 146.288C391.047 142.48 391.999 137.384 391.999 131C391.999 124.616 391.047 119.576 389.143 115.88C387.351 112.072 384.271 110.168 379.903 110.168C375.535 110.168 372.399 112.072 370.495 115.88C368.703 119.576 367.807 124.616 367.807 131C367.807 137.384 368.703 142.48 370.495 146.288C372.399 149.984 375.535 151.832 379.903 151.832ZM442.663 132.008L438.631 85.304L437.623 60.44H466.519L465.511 85.304L461.479 132.008H442.663ZM452.071 175.016C447.255 175.016 443.223 173.336 439.975 169.976C436.839 166.504 435.271 162.36 435.271 157.544C435.271 152.616 436.839 148.472 439.975 145.112C443.223 141.752 447.255 140.072 452.071 140.072C456.999 140.072 461.031 141.752 464.167 145.112C467.303 148.472 468.871 152.616 468.871 157.544C468.871 162.36 467.303 166.504 464.167 169.976C461.031 173.336 456.999 175.016 452.071 175.016Z" fill="#202F48"/>
</g>
</svg>
