<svg width="188" height="188" viewBox="0 0 188 188" fill="none" xmlns="http://www.w3.org/2000/svg">
<path d="M113.88 65.8L128 80C141.32 93.24 141.32 114.76 128 128C114.68 141.24 93.24 141.32 80 128L56 104C52 100.12 52 93.76 56 89.84C56.4 89.36 56.92 88.92 57.48 88.56L56 87C52 83.12 52 76.76 56 72.84C56.56 72.2 57.32 71.64 58 71.2C56.48 67.52 57.16 63.12 60.16 60.12C63.64 56.64 69.04 56.28 72.96 59C73.36 58.4 73.8 57.84 74.32 57.32C78.2 53.44 84.56 53.44 88.48 57.32L98.52 67.36C98.88 66.8 99.32 66.28 99.8 65.8C103.68 62 110 62 113.88 65.8ZM108.24 71.48C107.44 70.68 106.2 70.68 105.4 71.48C104.6 72.28 104.6 73.52 105.4 74.32L118.12 87.04C113.44 91.72 113.44 99.32 118.12 104L112.48 109.64C106.68 103.84 105.2 95.36 108 88.2L82.8 63C82 62.2 80.76 62.2 80 63C79.24 63.8 79.16 65.04 80 65.84L98.36 84.24L92.72 89.88L68.68 65.84C67.88 65.04 66.64 65.04 65.84 65.84C65.04 66.64 65.04 67.88 65.84 68.68L89.88 92.72L84.24 98.36L64.44 78.56C63.64 77.76 62.4 77.76 61.6 78.56C60.8 79.36 60.8 80.6 61.6 81.4L84.24 104L78.6 109.68L64.44 95.52C63.64 94.72 62.4 94.72 61.6 95.52C60.8 96.32 60.8 97.56 61.6 98.36L85.6 122.4C95.76 132.56 112.2 132.56 122.36 122.4C132.52 112.24 132.52 95.8 122.36 85.64L108.24 71.48ZM50 114C50 127.24 60.76 138 74 138V132C64 132 56 124 56 114H50ZM138 74C138 60.76 127.24 50 114 50V56C124 56 132 64 132 74H138Z" fill="#9FABC9"/>
</svg>
