<svg width="96" height="96" viewBox="0 0 96 96" fill="none" xmlns="http://www.w3.org/2000/svg">
<path d="M67.88 19.8L82 34C95.32 47.24 95.32 68.76 82 82C68.68 95.24 47.24 95.32 34 82L10 58C6 54.12 6 47.76 10 43.84C10.4 43.36 10.92 42.92 11.48 42.56L10 41C6 37.12 6 30.76 10 26.84C10.56 26.2 11.32 25.64 12 25.2C10.48 21.52 11.16 17.12 14.16 14.12C17.64 10.64 23.04 10.28 26.96 13C27.36 12.4 27.8 11.84 28.32 11.32C32.2 7.44 38.56 7.44 42.48 11.32L52.52 21.36C52.88 20.8 53.32 20.28 53.8 19.8C57.68 16 64 16 67.88 19.8ZM62.24 25.48C61.44 24.68 60.2 24.68 59.4 25.48C58.6 26.28 58.6 27.52 59.4 28.32L72.12 41.04C67.44 45.72 67.44 53.32 72.12 58L66.48 63.64C60.68 57.84 59.2 49.36 62 42.2L36.8 17C36 16.2 34.76 16.2 34 17C33.24 17.8 33.16 19.04 34 19.84L52.36 38.24L46.72 43.88L22.68 19.84C21.88 19.04 20.64 19.04 19.84 19.84C19.04 20.64 19.04 21.88 19.84 22.68L43.88 46.72L38.24 52.36L18.44 32.56C17.64 31.76 16.4 31.76 15.6 32.56C14.8 33.36 14.8 34.6 15.6 35.4L38.24 58L32.6 63.68L18.44 49.52C17.64 48.72 16.4 48.72 15.6 49.52C14.8 50.32 14.8 51.56 15.6 52.36L39.6 76.4C49.76 86.56 66.2 86.56 76.36 76.4C86.52 66.24 86.52 49.8 76.36 39.64L62.24 25.48ZM4 68C4 81.24 14.76 92 28 92V86C18 86 10 78 10 68H4ZM92 28C92 14.76 81.24 4 68 4V10C78 10 86 18 86 28H92Z" fill="#E0E6EE"/>
</svg>
