<svg width="150" height="150" viewBox="0 0 150 150" fill="none" xmlns="http://www.w3.org/2000/svg">
<rect width="150" height="150" rx="75" fill="#FFE1BB"/>
<path d="M96.1705 69.6555C103.058 66.909 94.5372 58.3713 101.966 51.2256C105.585 47.7449 110.273 49.2256 110.532 55.3029C112.548 61.733 113.365 73.0008 114.043 75.8862C115.908 83.8188 118.891 94.5092 113.622 104.085C109.495 111.585 91.6216 133.585 70.3328 115.844C64.9966 111.397 54.0122 102.738 41.9737 90.1774C36.8639 84.8459 33.95 80.2334 37.7252 76.3082C40.3118 73.6188 44.8061 76.0465 46.6943 78.1399C48.5825 80.2334 58.0235 90.4391 60.1479 92.0092C60.737 92.4445 62.036 91.2241 61.3279 90.4391C60.6198 89.654 52.3601 81.8035 37.2533 63.3695C34.2803 59.7418 32.0607 54.5884 36.5452 51.1865C40.1328 48.465 45.7503 54.065 48.1105 57.2053C52.7524 62.9623 62.6919 74.8221 64.8684 76.8315C66.2856 78.1399 66.893 76.259 66.5206 75.7848C58.5744 65.6664 42.9177 46.7379 41.9737 45.4295C41.384 44.6121 36.0732 36.0089 41.9738 33.1304C46.6944 30.8275 52.2803 37.4045 54.4833 40.9809L72.6573 64.7941C73.8385 66.3642 75.2547 64.5324 74.3095 63.3695C71.3041 59.6716 65.8136 52.2333 60.385 44.1211C54.8125 35.794 53.0681 31.0354 58.2607 27.6338C63.8406 23.9785 70.2981 37.0544 74.5466 43.3356C80.6167 53.167 93.4398 72.1948 96.1705 69.6555Z" stroke="#202F48" stroke-width="7"/>
<path d="M39.6084 107.428C39.6084 107.428 42.6143 113.016 48.2616 117.652C53.9088 122.289 59.0478 122.896 59.0478 122.896" stroke="#202F48" stroke-width="7" stroke-linecap="round"/>
<path d="M28.1289 113.535C28.1289 113.535 32.1335 120.525 39.7364 126.332C47.3392 132.139 54.3067 132.909 54.3067 132.909" stroke="#202F48" stroke-width="7" stroke-linecap="round"/>
<path d="M115.404 42.9785C115.404 42.9785 111.765 38.1588 105.445 34.5434C99.1247 30.928 93.692 30.9903 93.692 30.9903" stroke="#202F48" stroke-width="7" stroke-linecap="round"/>
<path d="M120.454 34.9819C120.454 34.9819 115.726 28.3866 107.624 23.4059C99.5213 18.4251 92.6291 18.4595 92.6291 18.4595" stroke="#202F48" stroke-width="7" stroke-linecap="round"/>
</svg>
