<svg width="150" height="150" viewBox="0 0 150 150" fill="none" xmlns="http://www.w3.org/2000/svg">
<rect width="149.75" height="149.75" rx="74.875" fill="#FFE1BB"/>
<path d="M94.88 46.8L109 61C122.32 74.24 122.32 95.76 109 109C95.68 122.24 74.24 122.32 61 109L37 85C33 81.12 33 74.76 37 70.84C37.4 70.36 37.92 69.92 38.48 69.56L37 68C33 64.12 33 57.76 37 53.84C37.56 53.2 38.32 52.64 39 52.2C37.48 48.52 38.16 44.12 41.16 41.12C44.64 37.64 50.04 37.28 53.96 40C54.36 39.4 54.8 38.84 55.32 38.32C59.2 34.44 65.56 34.44 69.48 38.32L79.52 48.36C79.88 47.8 80.32 47.28 80.8 46.8C84.68 43 91 43 94.88 46.8ZM89.24 52.48C88.44 51.68 87.2 51.68 86.4 52.48C85.6 53.28 85.6 54.52 86.4 55.32L99.12 68.04C94.44 72.72 94.44 80.32 99.12 85L93.48 90.64C87.68 84.84 86.2 76.36 89 69.2L63.8 44C63 43.2 61.76 43.2 61 44C60.24 44.8 60.16 46.04 61 46.84L79.36 65.24L73.72 70.88L49.68 46.84C48.88 46.04 47.64 46.04 46.84 46.84C46.04 47.64 46.04 48.88 46.84 49.68L70.88 73.72L65.24 79.36L45.44 59.56C44.64 58.76 43.4 58.76 42.6 59.56C41.8 60.36 41.8 61.6 42.6 62.4L65.24 85L59.6 90.68L45.44 76.52C44.64 75.72 43.4 75.72 42.6 76.52C41.8 77.32 41.8 78.56 42.6 79.36L66.6 103.4C76.76 113.56 93.2 113.56 103.36 103.4C113.52 93.24 113.52 76.8 103.36 66.64L89.24 52.48ZM31 95C31 108.24 41.76 119 55 119V113C45 113 37 105 37 95H31ZM119 55C119 41.76 108.24 31 95 31V37C105 37 113 45 113 55H119Z" fill="#2E2E2E"/>
</svg>
