<svg id="a1dab9f4-a951-4655-a917-8d1737900010" data-name="Layer 1" xmlns="http://www.w3.org/2000/svg" viewBox="0 0 100 100"><defs><style>.be26c25d-a0aa-48e6-a09c-ed8b040b163f{fill:#fff;}.f6683cd0-1652-44e6-b742-c8fdaf0a0653{fill:#07cacc;fill-rule:evenodd;}</style></defs><title>404_QUOTE_2_outlines_100</title><rect class="be26c25d-a0aa-48e6-a09c-ed8b040b163f" width="100" height="100"/><polygon class="f6683cd0-1652-44e6-b742-c8fdaf0a0653" points="0 50 0 0 100 0 100 100 0 100 0 50"/><path class="be26c25d-a0aa-48e6-a09c-ed8b040b163f" d="M23.54,23.81c-.23,1.31-.32,2.35-.32,2.35l-.53.11-.12-.09-.22-1-1.08-.06c0,.42-.05,1.06-.05,2a22.88,22.88,0,0,0,.1,2.49l.7-.07a4,4,0,0,0-.11.71l-.07,0a9.84,9.84,0,0,0-1.69-.09,9,9,0,0,0-1.57.11,3.36,3.36,0,0,1-.18-.64l.06-.14.55-.19c0-.41.08-1.12.08-2.22s0-1.6-.06-2l-1,0a12,12,0,0,0-.53,1.14,2.77,2.77,0,0,0-.54-.09l-.06-.08a20.93,20.93,0,0,1,.26-2.25,15.5,15.5,0,0,0,3,.17h2.61l.5-.33Z"/><path class="be26c25d-a0aa-48e6-a09c-ed8b040b163f" d="M28.33,25.7a11.81,11.81,0,0,1-.2,2.26,2.42,2.42,0,0,1-.64.17L27.31,28s.09-.78-.34-.78-.6.73-.67,1.4c0,.48.06.86.09,1.08l.62,0a3.86,3.86,0,0,0-.09.64l-.07,0a8.37,8.37,0,0,0-1.55-.09,5.69,5.69,0,0,0-1.25.11,3.07,3.07,0,0,1-.18-.61l.06-.14.32-.1a12.36,12.36,0,0,0,.06-1.3,11.5,11.5,0,0,0-.07-1.36l-.41.13a6.23,6.23,0,0,0-.09-.91l.1-.12a22,22,0,0,0,2.26-.34l.32.3s-.07.54-.11,1.18c.26-.76.72-1.44,1.55-1.44a1.44,1.44,0,0,1,.47.07Z"/><path class="be26c25d-a0aa-48e6-a09c-ed8b040b163f" d="M35,29.57a1.75,1.75,0,0,1-1.47.82,1.09,1.09,0,0,1-1-.51,2.59,2.59,0,0,1-1.56.51c-1.08,0-1.74-.58-1.74-1.49v-.76c0-.54,0-1-.06-1.31l-.43.13a5.14,5.14,0,0,0-.08-.91l.1-.12A22,22,0,0,0,31,25.59l.31.3a16.23,16.23,0,0,0-.13,1.89v.57c0,.57.27.72.58.72a1,1,0,0,0,.59-.21v-.78c0-.52,0-.94,0-1.26l-.44.14a5.14,5.14,0,0,0-.08-.91l.1-.12a22,22,0,0,0,2.26-.34l.32.3a8.41,8.41,0,0,0-.14,1.68,9.71,9.71,0,0,0,.13,1.65l.44,0Z"/><path class="be26c25d-a0aa-48e6-a09c-ed8b040b163f" d="M39.64,28.08H37.49a1.09,1.09,0,0,0,1.15,1.09,2.59,2.59,0,0,0,1.14-.27c0,.37-.09.74-.09,1.08a3.77,3.77,0,0,1-1.71.41,2.3,2.3,0,0,1-2.56-2.27A2.45,2.45,0,0,1,38,25.62c1.12,0,2,.55,2,1.6a2.08,2.08,0,0,1-.11.67Zm-2.18-.66h.84a1.77,1.77,0,0,0,0-.24c0-.48-.16-.67-.37-.67S37.5,26.86,37.46,27.42Z"/><path class="be26c25d-a0aa-48e6-a09c-ed8b040b163f" d="M47,23.76a7,7,0,0,1-.13,1.47,1.46,1.46,0,0,1-.41.11l-.12-.09s.06-.79-.42-.79c-.31,0-.48.32-.48,1.13V26l1,0,.06.16a3.52,3.52,0,0,1-.23.67q-.39,0-.78,0v.67a19,19,0,0,0,.1,2.18l.6,0a4.06,4.06,0,0,0-.1.64l-.06,0a8.51,8.51,0,0,0-1.55-.09,5.69,5.69,0,0,0-1.25.11,3.07,3.07,0,0,1-.18-.61l.06-.14.33-.11c0-.34.08-.9.08-1.63v-1H43l-.11-.1a2.7,2.7,0,0,1-.07-.63l.59-.22a2.09,2.09,0,0,1,2.34-2.36,3.61,3.61,0,0,1,1.19.18Z"/><path class="be26c25d-a0aa-48e6-a09c-ed8b040b163f" d="M51.46,25.7a11.81,11.81,0,0,1-.2,2.26,2.42,2.42,0,0,1-.64.17L50.44,28s.09-.78-.34-.78-.6.73-.67,1.4c0,.48.06.86.09,1.08l.62,0a3.86,3.86,0,0,0-.09.64l-.07,0a8.37,8.37,0,0,0-1.55-.09,5.81,5.81,0,0,0-1.25.11,3.07,3.07,0,0,1-.18-.61l.07-.14.31-.1a12.36,12.36,0,0,0,.06-1.3,11.5,11.5,0,0,0-.07-1.36L47,27a6.23,6.23,0,0,0-.09-.91l.1-.12a22,22,0,0,0,2.26-.34l.32.3s-.07.54-.11,1.18c.26-.76.72-1.44,1.55-1.44a1.44,1.44,0,0,1,.47.07Z"/><path class="be26c25d-a0aa-48e6-a09c-ed8b040b163f" d="M56,28.08H53.84A1.09,1.09,0,0,0,55,29.17a2.59,2.59,0,0,0,1.14-.27c0,.37-.09.74-.09,1.08a3.77,3.77,0,0,1-1.71.41,2.31,2.31,0,0,1-2.56-2.27,2.45,2.45,0,0,1,2.61-2.5c1.12,0,2,.55,2,1.6a2.08,2.08,0,0,1-.11.67Zm-2.18-.66h.84a1.77,1.77,0,0,0,0-.24c0-.48-.16-.67-.37-.67S53.85,26.86,53.81,27.42Z"/><path class="be26c25d-a0aa-48e6-a09c-ed8b040b163f" d="M61.08,28.08H58.92a1.09,1.09,0,0,0,1.15,1.09,2.59,2.59,0,0,0,1.14-.27c0,.37-.09.74-.09,1.08a3.77,3.77,0,0,1-1.71.41,2.31,2.31,0,0,1-2.56-2.27,2.45,2.45,0,0,1,2.61-2.5c1.12,0,2,.55,2,1.6a2.08,2.08,0,0,1-.11.67Zm-2.18-.66h.83a1.77,1.77,0,0,0,0-.24c0-.48-.16-.67-.37-.67S58.93,26.86,58.9,27.42Z"/><path class="be26c25d-a0aa-48e6-a09c-ed8b040b163f" d="M67.8,29.57a1.73,1.73,0,0,1-1.47.82,1.07,1.07,0,0,1-1.06-.59,2.45,2.45,0,0,1-1.6.59c-1.23,0-1.74-.91-1.74-2.07a2.45,2.45,0,0,1,2.52-2.7,2.84,2.84,0,0,1,.69.08c0-.34,0-.63,0-.87l-.5.15a5.22,5.22,0,0,0-.08-.91l.1-.12a22,22,0,0,0,2.26-.34l.31.31h0s-.08.62-.08,2.93a17.94,17.94,0,0,0,.07,2.37l.5,0Zm-3.23-.52a1,1,0,0,0,.58-.23V27a.59.59,0,0,0-.53-.43c-.4,0-.66.48-.66,1.38C64,28.66,64.12,29.05,64.57,29.05Z"/><path class="be26c25d-a0aa-48e6-a09c-ed8b040b163f" d="M68,28.12a2.46,2.46,0,0,1,2.7-2.5,2.23,2.23,0,0,1,2.51,2.25,2.49,2.49,0,0,1-2.72,2.52A2.23,2.23,0,0,1,68,28.12Zm3.18-.05c0-.88-.24-1.48-.61-1.48s-.54.53-.54,1.33.24,1.5.61,1.5S71.21,28.87,71.21,28.07Z"/><path class="be26c25d-a0aa-48e6-a09c-ed8b040b163f" d="M83.05,29.65a3,3,0,0,0-.09.64l-.07,0a5.91,5.91,0,0,0-1.29-.09,5.81,5.81,0,0,0-1.25.11,2.51,2.51,0,0,1-.17-.61l.06-.14.32-.11a10.52,10.52,0,0,0,0-1.11V27.8c0-.69-.29-.84-.58-.84a1,1,0,0,0-.56.19v1.22a9.47,9.47,0,0,0,.08,1.31l.38,0a3.86,3.86,0,0,0-.09.64l-.07,0a8.1,8.1,0,0,0-2.54,0,3.05,3.05,0,0,1-.17-.61l.06-.14.32-.11a10.09,10.09,0,0,0,.06-1.11V27.8c0-.69-.3-.84-.59-.84a1.06,1.06,0,0,0-.56.18v1.19a8.64,8.64,0,0,0,.09,1.35l.37,0a5.35,5.35,0,0,0-.09.64l-.07,0a8.1,8.1,0,0,0-2.54,0,3.05,3.05,0,0,1-.17-.61l.06-.14.31-.1a9.68,9.68,0,0,0,.07-1.3c0-.57,0-1-.07-1.36l-.42.13a5.14,5.14,0,0,0-.08-.91l.1-.12s1-.1,2.06-.34l.11.17a2.48,2.48,0,0,0-.32.91,2.5,2.5,0,0,1,2-1.05,1.61,1.61,0,0,1,1.43.68,2.42,2.42,0,0,1,1.69-.68,1.55,1.55,0,0,1,1.69,1.62v1.13a9.47,9.47,0,0,0,.08,1.31Z"/><path class="be26c25d-a0aa-48e6-a09c-ed8b040b163f" d="M13.59,40.22a4,4,0,0,0-.1.63l-.06,0a6.69,6.69,0,0,0-1.3-.08,5.81,5.81,0,0,0-1.25.11,4.24,4.24,0,0,1-.17-.61l.06-.14.32-.11a12.21,12.21,0,0,0,.06-1.3c0-.56,0-1-.07-1.35l-.42.13a5.25,5.25,0,0,0-.08-.92l.1-.12a22,22,0,0,0,2.26-.34l.31.31a15.68,15.68,0,0,0,0,3.79Zm-2.47-5.41a1,1,0,1,1,1,.88A1,1,0,0,1,11.12,34.81Z"/><path class="be26c25d-a0aa-48e6-a09c-ed8b040b163f" d="M18.4,39.24c0,1-.78,1.72-2.58,1.72a5,5,0,0,1-1.56-.21,6.77,6.77,0,0,1,.13-1.44,1.46,1.46,0,0,1,.41-.11l.11.09h0a1,1,0,0,0,.94.89c.36,0,.58-.16.58-.37,0-.68-2.13-.31-2.13-2,0-1,.76-1.62,2.35-1.62a7,7,0,0,1,1.53.17,6.59,6.59,0,0,1-.12,1.35,1.34,1.34,0,0,1-.39.11l-.1-.08a.74.74,0,0,0-.84-.78c-.34,0-.54.13-.54.32C16.19,37.9,18.4,37.57,18.4,39.24Z"/><path class="be26c25d-a0aa-48e6-a09c-ed8b040b163f" d="M26.75,38.26A2.44,2.44,0,0,1,24.23,41a2.4,2.4,0,0,1-1.55-.5l-.9.55-.37-.26a21.51,21.51,0,0,0,.15-2.92c0-1.15,0-1.92-.06-2.42l-.44.14a5.14,5.14,0,0,0-.08-.91l.1-.12s1.12-.11,2.26-.34l.31.3a19.24,19.24,0,0,0-.12,2.21,2.41,2.41,0,0,1,1.48-.5C26.24,36.19,26.75,37.1,26.75,38.26Zm-2,.35c0-.69-.17-1.08-.62-1.08a1,1,0,0,0-.58.23v1.81a.61.61,0,0,0,.53.42C24.46,40,24.73,39.51,24.73,38.61Z"/><path class="be26c25d-a0aa-48e6-a09c-ed8b040b163f" d="M31.54,38.65H29.39a1.09,1.09,0,0,0,1.15,1.09,2.52,2.52,0,0,0,1.14-.28c0,.38-.09.74-.09,1.08a3.7,3.7,0,0,1-1.71.42,2.3,2.3,0,0,1-2.56-2.28,2.45,2.45,0,0,1,2.61-2.5c1.12,0,2,.55,2,1.61a2.08,2.08,0,0,1-.11.67ZM29.36,38h.84a1.69,1.69,0,0,0,0-.23c0-.48-.16-.68-.38-.68S29.4,37.42,29.36,38Z"/><path class="be26c25d-a0aa-48e6-a09c-ed8b040b163f" d="M35.47,40.22a5.23,5.23,0,0,0-.09.63l-.07,0A6.5,6.5,0,0,0,34,40.8a5.81,5.81,0,0,0-1.25.11,3.25,3.25,0,0,1-.17-.61l.06-.14.31-.11a9.57,9.57,0,0,0,.07-1.3c0-.56,0-1-.07-1.35l-.42.13a5.25,5.25,0,0,0-.08-.92l.1-.12a22,22,0,0,0,2.26-.34l.31.31a15.68,15.68,0,0,0,0,3.79ZM33,34.81a1,1,0,1,1,1,.88A1,1,0,0,1,33,34.81Z"/><path class="be26c25d-a0aa-48e6-a09c-ed8b040b163f" d="M42.19,40.22a5.23,5.23,0,0,0-.09.63l-.07,0a6.5,6.5,0,0,0-1.29-.08,5.9,5.9,0,0,0-1.21.1,2.43,2.43,0,0,1-.17-.6l.06-.14.28-.1a10.2,10.2,0,0,0,.06-1.13v-.56c0-.69-.29-.85-.58-.85a.94.94,0,0,0-.56.19c0,.28,0,.68,0,1.19a8.48,8.48,0,0,0,.09,1.34l.32,0a4,4,0,0,0-.1.63l-.06,0a6,6,0,0,0-1.23-.08,5.86,5.86,0,0,0-1.26.11,4.24,4.24,0,0,1-.17-.61l.06-.14.32-.11a12.21,12.21,0,0,0,.06-1.3c0-.56,0-1-.07-1.35l-.42.13a5.25,5.25,0,0,0-.08-.92l.1-.12s1-.1,2.07-.34l.1.17a2.36,2.36,0,0,0-.31.91,2.5,2.5,0,0,1,2-1,1.55,1.55,0,0,1,1.69,1.62v1.13a9.64,9.64,0,0,0,.08,1.32Z"/><path class="be26c25d-a0aa-48e6-a09c-ed8b040b163f" d="M47.82,41c0,1.12-1.31,1.85-3.25,1.85-1.27,0-2.2-.35-2.2-1.13,0-.6.58-.94,1.06-1.12a.85.85,0,0,1-.13-.48,1,1,0,0,1,.85-1c-.88-.18-1.45-.68-1.45-1.43,0-1,.93-1.59,2.36-1.59a3.7,3.7,0,0,1,1.1.15,12.54,12.54,0,0,0,1.52-.16l.12.16a2.39,2.39,0,0,0-.12.8L47.17,37a1.29,1.29,0,0,1,.17.65c0,.93-.9,1.57-2.31,1.59-.09,0-.21.13-.21.25C44.82,40.21,47.82,39.24,47.82,41Zm-2.65,1.15c.58,0,1-.2,1-.5,0-.48-1-.4-1.78-.56a.83.83,0,0,0-.06.34c0,.47.25.72.88.72Zm-.61-4.56c0,.59.2,1,.5,1s.42-.33.42-.8-.2-1-.5-1S44.56,37.16,44.56,37.63Z"/><path class="be26c25d-a0aa-48e6-a09c-ed8b040b163f" d="M59,37l-.54.22c-.23.44-.57,1.14-1,2.17l-.58,1.39-1.27.11-1.06-2.64-1.1,2.53-1.27.11-.55-1.37c-.58-1.44-.94-2.2-1.14-2.6l-.35,0a5.23,5.23,0,0,0,.09-.63l.06,0a6,6,0,0,0,1.3.09,10.32,10.32,0,0,0,1.68-.11,3.05,3.05,0,0,1,.17.61l-.06.14-.53.15c.12.37.31.92.62,1.69l0,.1a16.54,16.54,0,0,0,.6-1.78L54,36.91l.18-.36a5.56,5.56,0,0,0,1.59-.5l1,2.57.07-.18c.35-.83.52-1.32.61-1.59l-.79.07a4,4,0,0,0,.1-.63l.06,0a3.69,3.69,0,0,0,1,.09,8.45,8.45,0,0,0,1-.05,3.19,3.19,0,0,1,.16.55Z"/><path class="be26c25d-a0aa-48e6-a09c-ed8b040b163f" d="M62.21,40.22a4,4,0,0,0-.1.63l-.06,0a6.62,6.62,0,0,0-1.29-.08,5.86,5.86,0,0,0-1.26.11,4.24,4.24,0,0,1-.17-.61l.06-.14.32-.11a12.21,12.21,0,0,0,.06-1.3c0-.56,0-1-.07-1.35l-.42.13a5.25,5.25,0,0,0-.08-.92l.1-.12a22,22,0,0,0,2.26-.34l.31.31a15.68,15.68,0,0,0,0,3.79Zm-2.47-5.41a1,1,0,1,1,1,.88A1,1,0,0,1,59.74,34.81Z"/><path class="be26c25d-a0aa-48e6-a09c-ed8b040b163f" d="M66.5,39.47a9.72,9.72,0,0,0-.11,1.14A4,4,0,0,1,64.8,41a1.44,1.44,0,0,1-1.64-1.61c0-.65,0-1.37,0-1.91l-.37,0-.11-.1a3.47,3.47,0,0,1-.07-.63l.67-.25.55-1.39A9.28,9.28,0,0,0,65.05,35l.17.08s0,.42-.07,1.51l1.26,0,.06.16a4.27,4.27,0,0,1-.23.66c-.37,0-.73,0-1.09,0,0,.45,0,1,0,1.27,0,.69.18,1,.57,1A2.52,2.52,0,0,0,66.5,39.47Z"/><path class="be26c25d-a0aa-48e6-a09c-ed8b040b163f" d="M72.93,40.22a5.23,5.23,0,0,0-.09.63l-.06,0a6.69,6.69,0,0,0-1.3-.08,5.81,5.81,0,0,0-1.25.11,4.24,4.24,0,0,1-.17-.61l.06-.14.32-.11a10.14,10.14,0,0,0,.06-1.12v-.56c0-.69-.29-.85-.58-.85a1,1,0,0,0-.57.19c0,1.52.07,2.23.1,2.54l.37,0a4,4,0,0,0-.1.63l-.06,0a6.62,6.62,0,0,0-1.29-.08,5.69,5.69,0,0,0-1.25.11,3.28,3.28,0,0,1-.18-.61l.06-.14.29-.1c0-.41.09-1.21.09-2.6,0-.87,0-1.56-.06-2l-.43.13a5.14,5.14,0,0,0-.08-.91l.1-.12s1.12-.11,2.26-.34l.31.3a17.59,17.59,0,0,0-.12,2.16,2.45,2.45,0,0,1,1.42-.46,1.55,1.55,0,0,1,1.69,1.62v1.13a9.64,9.64,0,0,0,.08,1.32Z"/><path class="be26c25d-a0aa-48e6-a09c-ed8b040b163f" d="M73.39,38.68a2.46,2.46,0,0,1,2.7-2.5,2.23,2.23,0,0,1,2.5,2.26A2.49,2.49,0,0,1,75.87,41,2.23,2.23,0,0,1,73.39,38.68Zm3.18,0c0-.89-.25-1.49-.62-1.49s-.54.54-.54,1.34S75.66,40,76,40,76.57,39.44,76.57,38.64Z"/><path class="be26c25d-a0aa-48e6-a09c-ed8b040b163f" d="M85.37,40.14a1.75,1.75,0,0,1-1.48.82,1.11,1.11,0,0,1-1-.51,2.55,2.55,0,0,1-1.56.51c-1.07,0-1.74-.58-1.74-1.5v-.75c0-.54,0-1,0-1.32l-.43.14a6.43,6.43,0,0,0-.08-.92l.09-.12a22,22,0,0,0,2.26-.34l.32.31a16.18,16.18,0,0,0-.13,1.88v.58c0,.56.27.72.58.72a.94.94,0,0,0,.59-.22v-.77c0-.53,0-.95,0-1.26l-.44.14a5.25,5.25,0,0,0-.08-.92l.1-.12a22,22,0,0,0,2.26-.34l.31.31a9,9,0,0,0-.13,1.68,10,10,0,0,0,.12,1.64l.45,0Z"/><path class="be26c25d-a0aa-48e6-a09c-ed8b040b163f" d="M89.53,39.47c0,.4-.1.79-.11,1.14a4,4,0,0,1-1.58.35,1.45,1.45,0,0,1-1.65-1.61c0-.65,0-1.37,0-1.91l-.36,0-.11-.1a3.51,3.51,0,0,1-.08-.63l.67-.25.56-1.39A9,9,0,0,0,88.08,35l.17.08s0,.42-.07,1.51l1.27,0,0,.16a4.26,4.26,0,0,1-.22.66c-.37,0-.74,0-1.09,0,0,.45,0,1,0,1.27,0,.69.18,1,.57,1A2.52,2.52,0,0,0,89.53,39.47Z"/><path class="be26c25d-a0aa-48e6-a09c-ed8b040b163f" d="M21.63,50.6a1.75,1.75,0,0,1-1.48.82,1.11,1.11,0,0,1-1-.48,2.22,2.22,0,0,1-1.32.47,1.19,1.19,0,0,1-1.31-1.23c0-1,.87-1.47,2.09-1.47a3.48,3.48,0,0,1,.53,0,.79.79,0,0,0-.88-.85,1.54,1.54,0,0,0-1.09.47l-.2-.08a6.32,6.32,0,0,0-.11-1.11,3.8,3.8,0,0,1,2-.54c1.15,0,2.27.46,2.24,1.67v.75a9.87,9.87,0,0,0,0,1.18l.39,0Zm-2.79-.5.2,0a2.64,2.64,0,0,0,.09-.69v-.16h-.05c-.47,0-.66.18-.66.47A.37.37,0,0,0,18.84,50.1Z"/><path class="be26c25d-a0aa-48e6-a09c-ed8b040b163f" d="M28.14,50.68a4,4,0,0,0-.1.63l-.06,0a6.62,6.62,0,0,0-1.29-.08,6.08,6.08,0,0,0-1.22.1,3,3,0,0,1-.17-.6l.06-.14.28-.1a10.2,10.2,0,0,0,.06-1.13v-.56c0-.69-.29-.85-.58-.85a.94.94,0,0,0-.56.19c0,.28,0,.68,0,1.19a8.48,8.48,0,0,0,.09,1.34l.32,0a3.77,3.77,0,0,0-.09.63l-.07,0a6,6,0,0,0-1.23-.08,5.69,5.69,0,0,0-1.25.11,3.28,3.28,0,0,1-.18-.61l.07-.14.31-.11a12.21,12.21,0,0,0,.06-1.3,11.44,11.44,0,0,0-.07-1.35L22.1,48a6.37,6.37,0,0,0-.09-.92l.1-.12s1-.1,2.07-.34l.11.17a2.28,2.28,0,0,0-.32.91,2.52,2.52,0,0,1,2-1,1.54,1.54,0,0,1,1.68,1.62v1.13a11.62,11.62,0,0,0,.08,1.32Z"/><path class="be26c25d-a0aa-48e6-a09c-ed8b040b163f" d="M33.83,47.71l-.44.53-.49.63,1.56,1.91-.1.29a4.72,4.72,0,0,0-1.25.57l-2-1.9-.15.19a5.69,5.69,0,0,0-.58.81l.86-.06a4,4,0,0,0-.1.63l-.06,0a6.62,6.62,0,0,0-1.29-.08,6.65,6.65,0,0,0-1.15.08,3.54,3.54,0,0,1-.17-.58l.06-.14q.34-.13.81-.27c.29-.29.65-.67,1-1.11l.13-.14c-.69-.74-1.31-1.38-1.7-1.75l-.53,0a4,4,0,0,0,.1-.63l.06,0a10.12,10.12,0,0,0,1.6.08,12.17,12.17,0,0,0,1.83-.11,3.05,3.05,0,0,1,.17.61l-.06.14c-.16.05-.34.1-.53.14a9.06,9.06,0,0,0,.68.86l.45-.58a5.37,5.37,0,0,0,.37-.54l-.62.06a4,4,0,0,0,.1-.63l.06,0a3.67,3.67,0,0,0,1,.08,7.46,7.46,0,0,0,1-.06,3.58,3.58,0,0,1,.16.56l-.06.13a7.34,7.34,0,0,1-.74.28Z"/><path class="be26c25d-a0aa-48e6-a09c-ed8b040b163f" d="M38,50.68a5.23,5.23,0,0,0-.09.63l-.06,0a6.69,6.69,0,0,0-1.3-.08,5.81,5.81,0,0,0-1.25.11,4.24,4.24,0,0,1-.17-.61l.06-.14.32-.11a12.21,12.21,0,0,0,.06-1.3c0-.56,0-1-.07-1.35l-.42.13a5.25,5.25,0,0,0-.08-.92l.1-.12a22,22,0,0,0,2.26-.34l.31.31a15.68,15.68,0,0,0,0,3.79Zm-2.46-5.41a1,1,0,1,1,1,.88A1,1,0,0,1,35.55,45.27Z"/><path class="be26c25d-a0aa-48e6-a09c-ed8b040b163f" d="M42.77,49.11H40.61a1.09,1.09,0,0,0,1.15,1.09,2.52,2.52,0,0,0,1.14-.28c0,.38-.09.75-.09,1.08a3.7,3.7,0,0,1-1.71.42,2.31,2.31,0,0,1-2.56-2.28,2.45,2.45,0,0,1,2.61-2.5c1.12,0,2,.55,2,1.61a2.08,2.08,0,0,1-.11.67Zm-2.18-.67h.83a1.62,1.62,0,0,0,0-.23c0-.48-.16-.68-.37-.68S40.62,47.89,40.59,48.44Z"/><path class="be26c25d-a0aa-48e6-a09c-ed8b040b163f" d="M47.39,49.93a9.72,9.72,0,0,0-.11,1.14,4,4,0,0,1-1.59.35,1.44,1.44,0,0,1-1.64-1.61c0-.65,0-1.37,0-1.91l-.37,0-.11-.1a2.76,2.76,0,0,1-.07-.63l.67-.25.55-1.39a9.28,9.28,0,0,0,1.19-.08l.17.08s0,.42-.07,1.51l1.26,0,.06.16a4.27,4.27,0,0,1-.23.66c-.37,0-.73,0-1.09,0,0,.45,0,1,0,1.27,0,.69.17,1,.57,1A2.52,2.52,0,0,0,47.39,49.93Z"/><path class="be26c25d-a0aa-48e6-a09c-ed8b040b163f" d="M53.39,47.43,53,47.6c-.24.43-.63,1.14-1.18,2.26l-1.69,3.46c-.52,0-1.06-.1-1.63-.19l-.2-.31,1.57-1.42h-.15L49,49.88c-.59-1.24-1.07-2.1-1.31-2.52l-.28,0a3.77,3.77,0,0,0,.09-.63l.07,0a6.62,6.62,0,0,0,1.29.08,10.32,10.32,0,0,0,1.68-.11,3.07,3.07,0,0,1,.18.61l-.06.14-.49.14c.15.39.39,1,.74,1.72l.11.22.13-.27a19.83,19.83,0,0,0,.85-2l-.87.08a4,4,0,0,0,.1-.63l.06,0a4,4,0,0,0,1,.08,7.14,7.14,0,0,0,1-.06,2.23,2.23,0,0,1,.16.56Z"/><path class="be26c25d-a0aa-48e6-a09c-ed8b040b163f" d="M61,50.6a1.75,1.75,0,0,1-1.47.82,1.11,1.11,0,0,1-1-.48,2.2,2.2,0,0,1-1.32.47,1.19,1.19,0,0,1-1.3-1.23c0-1,.86-1.47,2.08-1.47a3.37,3.37,0,0,1,.53,0,.78.78,0,0,0-.87-.85,1.51,1.51,0,0,0-1.09.47l-.2-.08a7.51,7.51,0,0,0-.12-1.11,3.86,3.86,0,0,1,2-.54c1.14,0,2.26.46,2.24,1.67l0,.75a9.34,9.34,0,0,0,0,1.18l.38,0Zm-2.79-.5.2,0a2.64,2.64,0,0,0,.09-.69v-.16h0c-.47,0-.66.18-.66.47A.36.36,0,0,0,58.22,50.1Z"/><path class="be26c25d-a0aa-48e6-a09c-ed8b040b163f" d="M66.88,48.72a2.45,2.45,0,0,1-2.53,2.7,2.39,2.39,0,0,1-1.54-.5l-.9.55-.38-.26a19.32,19.32,0,0,0,.15-2.92c0-1.15,0-1.92,0-2.42l-.44.14a5.14,5.14,0,0,0-.08-.91l.1-.12s1.12-.11,2.26-.34l.31.3a19.24,19.24,0,0,0-.12,2.21,2.41,2.41,0,0,1,1.48-.5C66.37,46.65,66.88,47.56,66.88,48.72Zm-2,.35c0-.69-.16-1.08-.61-1.08a1,1,0,0,0-.58.23V50a.6.6,0,0,0,.53.42C64.59,50.45,64.85,50,64.85,49.07Z"/><path class="be26c25d-a0aa-48e6-a09c-ed8b040b163f" d="M67.45,49.14a2.46,2.46,0,0,1,2.7-2.5,2.23,2.23,0,0,1,2.5,2.26,2.49,2.49,0,0,1-2.72,2.52A2.23,2.23,0,0,1,67.45,49.14Zm3.18,0c0-.88-.25-1.49-.61-1.49s-.55.54-.55,1.34.25,1.5.61,1.5S70.63,49.9,70.63,49.1Z"/><path class="be26c25d-a0aa-48e6-a09c-ed8b040b163f" d="M79.43,50.6a1.75,1.75,0,0,1-1.47.82,1.09,1.09,0,0,1-1-.51,2.6,2.6,0,0,1-1.57.51c-1.07,0-1.73-.58-1.73-1.5v-.75c0-.54,0-1-.06-1.32l-.43.14a5.25,5.25,0,0,0-.08-.92l.1-.12a21.59,21.59,0,0,0,2.25-.34l.32.31a16.23,16.23,0,0,0-.13,1.89v.57c0,.56.27.72.58.72a.94.94,0,0,0,.59-.22v-.77c0-.53,0-1,0-1.26l-.44.14a5.25,5.25,0,0,0-.08-.92l.1-.12a22,22,0,0,0,2.26-.34l.31.31a9,9,0,0,0-.13,1.68,10,10,0,0,0,.12,1.64l.45,0Z"/><path class="be26c25d-a0aa-48e6-a09c-ed8b040b163f" d="M83.59,49.93c0,.4-.1.79-.1,1.14a4.11,4.11,0,0,1-1.59.35,1.45,1.45,0,0,1-1.65-1.61c0-.65,0-1.37,0-1.91l-.37,0-.11-.1a3.51,3.51,0,0,1-.08-.63l.68-.25L81,45.55a9.28,9.28,0,0,0,1.19-.08l.16.08s0,.42-.07,1.51l1.27,0,0,.16a4.26,4.26,0,0,1-.22.66c-.37,0-.73,0-1.09,0,0,.45,0,1,0,1.27,0,.69.17,1,.56,1A2.52,2.52,0,0,0,83.59,49.93Z"/><path class="be26c25d-a0aa-48e6-a09c-ed8b040b163f" d="M20.42,61.14a3.77,3.77,0,0,0-.09.63l-.07,0A6.62,6.62,0,0,0,19,61.72a5.81,5.81,0,0,0-1.25.11,3.05,3.05,0,0,1-.17-.61l.06-.14.31-.11a11.59,11.59,0,0,0,.07-1.3c0-.56,0-1-.07-1.35l-.42.13a5.14,5.14,0,0,0-.08-.91l.1-.13a22,22,0,0,0,2.25-.34l.32.31a15.68,15.68,0,0,0,0,3.79ZM18,55.73a1,1,0,1,1,1,.88A1,1,0,0,1,18,55.73Z"/><path class="be26c25d-a0aa-48e6-a09c-ed8b040b163f" d="M30.26,61.14a2.94,2.94,0,0,0-.09.63l-.07,0a6.62,6.62,0,0,0-1.29-.08,5.81,5.81,0,0,0-1.25.11,2.51,2.51,0,0,1-.17-.61l.06-.14.32-.11a10.59,10.59,0,0,0,.05-1.12v-.56c0-.69-.29-.85-.58-.85a.89.89,0,0,0-.56.2v1.21a9.64,9.64,0,0,0,.08,1.32l.38,0a3.77,3.77,0,0,0-.09.63l-.07,0a6.5,6.5,0,0,0-1.29-.08,5.81,5.81,0,0,0-1.25.11,3.05,3.05,0,0,1-.17-.61l.06-.14.32-.11a10.14,10.14,0,0,0,.06-1.12v-.56c0-.69-.3-.85-.59-.85a1,1,0,0,0-.56.19v1.19a8.64,8.64,0,0,0,.09,1.35l.37,0a5.23,5.23,0,0,0-.09.63l-.07,0a6.5,6.5,0,0,0-1.29-.08,5.81,5.81,0,0,0-1.25.11,3.05,3.05,0,0,1-.17-.61l.06-.14.31-.11a9.57,9.57,0,0,0,.07-1.3c0-.56,0-1-.07-1.35l-.42.13a5.14,5.14,0,0,0-.08-.91l.1-.13s1-.1,2.06-.34l.11.17a2.48,2.48,0,0,0-.32.91,2.53,2.53,0,0,1,2-1,1.64,1.64,0,0,1,1.43.68,2.47,2.47,0,0,1,1.69-.68,1.55,1.55,0,0,1,1.69,1.62v1.13a9.64,9.64,0,0,0,.08,1.32Z"/><path class="be26c25d-a0aa-48e6-a09c-ed8b040b163f" d="M33.29,61.81c0,.64.06,1.07.08,1.3l.62,0a3.63,3.63,0,0,0-.09.63l-.07,0a8.37,8.37,0,0,0-1.55-.09,5.24,5.24,0,0,0-1.25.12,3.17,3.17,0,0,1-.18-.62l.06-.13.29-.1c0-.46.09-1.3.09-2.59,0-1,0-1.61-.07-2l-.42.13a5.14,5.14,0,0,0-.08-.91l.1-.13s1-.1,2.07-.34l.11.17a2.37,2.37,0,0,0-.32.92,2.48,2.48,0,0,1,2-1c1.24,0,1.75.91,1.75,2.07a2.45,2.45,0,0,1-2.53,2.7A2.86,2.86,0,0,1,33.29,61.81Zm1.12-2.28c0-.69-.17-1.08-.61-1.08a.91.91,0,0,0-.54.19v1.94a.56.56,0,0,0,.49.33c.39,0,.66-.48.66-1.38Z"/><path class="be26c25d-a0aa-48e6-a09c-ed8b040b163f" d="M41.22,59.57H39.07a1.09,1.09,0,0,0,1.15,1.09,2.59,2.59,0,0,0,1.14-.27c0,.37-.09.74-.09,1.07a3.7,3.7,0,0,1-1.71.42A2.31,2.31,0,0,1,37,59.6a2.45,2.45,0,0,1,2.61-2.5c1.12,0,2,.56,2,1.61a2.08,2.08,0,0,1-.11.67ZM39,58.9h.84a1.62,1.62,0,0,0,0-.23c0-.48-.16-.68-.37-.68S39.08,58.35,39,58.9Z"/><path class="be26c25d-a0aa-48e6-a09c-ed8b040b163f" d="M46.73,57.19a10.3,10.3,0,0,1-.2,2.25,2.09,2.09,0,0,1-.64.17l-.18-.13s.09-.78-.34-.78-.59.72-.66,1.39c0,.48.06.86.08,1.09l.63,0a4,4,0,0,0-.1.63l-.06,0a9.55,9.55,0,0,0-1.55-.08,5.86,5.86,0,0,0-1.26.11,3.91,3.91,0,0,1-.17-.61l.06-.14.32-.11a12.21,12.21,0,0,0,.06-1.3c0-.56,0-1-.07-1.35l-.42.13a5.14,5.14,0,0,0-.08-.91l.1-.13a22,22,0,0,0,2.26-.34l.31.31s-.07.54-.11,1.18c.27-.76.73-1.45,1.56-1.45a1.31,1.31,0,0,1,.46.08Z"/><path class="be26c25d-a0aa-48e6-a09c-ed8b040b163f" d="M51.29,55.25a6.9,6.9,0,0,1-.13,1.46,1.45,1.45,0,0,1-.42.12l-.11-.09s.06-.79-.42-.79c-.31,0-.48.31-.48,1.12v.45l1,0,.06.16a4.8,4.8,0,0,1-.23.67c-.26,0-.52,0-.78,0V59a19.26,19.26,0,0,0,.1,2.19l.6,0a4,4,0,0,0-.1.63l-.06,0a9.63,9.63,0,0,0-1.56-.08,5.81,5.81,0,0,0-1.25.11,3.91,3.91,0,0,1-.17-.61l.06-.14.33-.11c0-.35.07-.9.07-1.64v-1l-.4,0-.11-.1a3.51,3.51,0,0,1-.08-.63l.59-.22a2.1,2.1,0,0,1,2.35-2.36,3.35,3.35,0,0,1,1.19.18Z"/><path class="be26c25d-a0aa-48e6-a09c-ed8b040b163f" d="M55.27,59.57H53.11a1.1,1.1,0,0,0,1.16,1.09,2.65,2.65,0,0,0,1.14-.27c0,.37-.1.74-.1,1.07a3.65,3.65,0,0,1-1.71.42A2.31,2.31,0,0,1,51,59.6a2.45,2.45,0,0,1,2.61-2.5c1.12,0,2,.56,2,1.61a2.08,2.08,0,0,1-.11.67Zm-2.18-.67h.83a1.52,1.52,0,0,0,0-.23c0-.48-.17-.68-.38-.68S53.12,58.35,53.09,58.9Z"/><path class="be26c25d-a0aa-48e6-a09c-ed8b040b163f" d="M60.1,60.46c0,.38-.09.74-.09,1.08a3.29,3.29,0,0,1-1.47.34,2.24,2.24,0,0,1-2.42-2.28,2.45,2.45,0,0,1,2.61-2.5,4.26,4.26,0,0,1,1.42.23A8.67,8.67,0,0,1,60,59.05a1.69,1.69,0,0,1-.49.13l-.14-.1s.08-1.1-.59-1.1c-.46,0-.68.53-.68,1.27s.35,1.41,1.1,1.41A2.42,2.42,0,0,0,60.1,60.46Z"/><path class="be26c25d-a0aa-48e6-a09c-ed8b040b163f" d="M64.35,60.39a9.72,9.72,0,0,0-.11,1.14,4.11,4.11,0,0,1-1.59.35A1.44,1.44,0,0,1,61,60.27c0-.65,0-1.37,0-1.91l-.37,0-.11-.1a2.76,2.76,0,0,1-.07-.63l.67-.25L61.71,56a9.28,9.28,0,0,0,1.19-.08l.17.08s0,.42-.08,1.51l1.27,0,0,.16a3.75,3.75,0,0,1-.22.67c-.37,0-.73,0-1.09,0,0,.45,0,1,0,1.27,0,.69.17,1,.56,1A2.61,2.61,0,0,0,64.35,60.39Z"/><path class="be26c25d-a0aa-48e6-a09c-ed8b040b163f" d="M67.8,61.14a2.94,2.94,0,0,0-.09.63l-.07,0a6.62,6.62,0,0,0-1.29-.08,5.81,5.81,0,0,0-1.25.11,3.05,3.05,0,0,1-.17-.61l.06-.14L65.3,61a11.59,11.59,0,0,0,.07-1.3c0-.56,0-1-.07-1.35l-.42.13a6.29,6.29,0,0,0-.08-.91l.09-.13a22,22,0,0,0,2.26-.34l.32.31a15.68,15.68,0,0,0,0,3.79Zm-2.46-5.41a1,1,0,1,1,1,.88A1,1,0,0,1,65.34,55.73Z"/><path class="be26c25d-a0aa-48e6-a09c-ed8b040b163f" d="M68.33,59.6A2.46,2.46,0,0,1,71,57.1a2.23,2.23,0,0,1,2.5,2.26,2.49,2.49,0,0,1-2.72,2.52A2.23,2.23,0,0,1,68.33,59.6Zm3.18,0c0-.88-.25-1.49-.61-1.49s-.55.54-.55,1.34.25,1.5.61,1.5S71.51,60.36,71.51,59.56Z"/><path class="be26c25d-a0aa-48e6-a09c-ed8b040b163f" d="M80.23,61.14a4,4,0,0,0-.1.63l-.06,0a6.62,6.62,0,0,0-1.29-.08,6.08,6.08,0,0,0-1.22.1,3,3,0,0,1-.17-.6l.06-.14.28-.1a10.2,10.2,0,0,0,.06-1.13v-.56c0-.69-.29-.85-.58-.85a.94.94,0,0,0-.56.19c0,.28,0,.68,0,1.19a8.48,8.48,0,0,0,.09,1.34l.32,0a3.77,3.77,0,0,0-.09.63l-.07,0a6,6,0,0,0-1.23-.08,5.69,5.69,0,0,0-1.25.11,3.07,3.07,0,0,1-.18-.61l.06-.14.32-.11a12.21,12.21,0,0,0,.06-1.3,11.44,11.44,0,0,0-.07-1.35l-.42.13a5.14,5.14,0,0,0-.08-.91l.1-.13s1-.1,2.07-.34l.11.17a2.28,2.28,0,0,0-.32.91,2.52,2.52,0,0,1,2-1,1.54,1.54,0,0,1,1.68,1.62v1.13a11.62,11.62,0,0,0,.08,1.32Z"/><path class="be26c25d-a0aa-48e6-a09c-ed8b040b163f" d="M80.63,61a1,1,0,1,1,1,.88A1,1,0,0,1,80.63,61Z"/><path class="be26c25d-a0aa-48e6-a09c-ed8b040b163f" d="M26.53,73.53a1.13,1.13,0,0,0,.67.18.47.47,0,0,0,.35-.1.3.3,0,0,0,.07-.21.25.25,0,0,0-.15-.26,2,2,0,0,0-.36-.13c-.44-.14-.62-.3-.62-.57s.27-.51.7-.51a1.14,1.14,0,0,1,.63.16l-.11.21a.92.92,0,0,0-.51-.13c-.25,0-.4.1-.4.26a.28.28,0,0,0,.11.22,1.57,1.57,0,0,0,.34.13c.54.18.68.3.68.61s-.25.56-.74.56a1.44,1.44,0,0,1-.77-.19Z"/><path class="be26c25d-a0aa-48e6-a09c-ed8b040b163f" d="M28.54,72.19a.17.17,0,0,1-.19.18.18.18,0,0,1,0-.36A.17.17,0,0,1,28.54,72.19Zm-.34.41h.31v1.31H28.2Z"/><path class="be26c25d-a0aa-48e6-a09c-ed8b040b163f" d="M28.68,72.6H29l.39.44.39-.44h.32l-.55.63.6.68h-.34l-.46-.51-.44.51H28.6l.62-.69Z"/><path class="be26c25d-a0aa-48e6-a09c-ed8b040b163f" d="M30.14,72.83V72.6h.23l0-.39.27,0v.43h.44v.23h-.44v.56c0,.25.05.31.22.31l.16,0,0,.23a1.39,1.39,0,0,1-.27,0,.4.4,0,0,1-.38-.16.74.74,0,0,1-.07-.41v-.54Z"/><path class="be26c25d-a0aa-48e6-a09c-ed8b040b163f" d="M31.28,71.82h.3v.92a.69.69,0,0,1,.51-.17.56.56,0,0,1,.51.22.76.76,0,0,1,.08.42v.7h-.3v-.68a.55.55,0,0,0-.06-.29A.35.35,0,0,0,32,72.8a.4.4,0,0,0-.35.15.62.62,0,0,0-.07.34v.62h-.3Z"/><path class="be26c25d-a0aa-48e6-a09c-ed8b040b163f" d="M33,72.88h.83v.23H33Z"/><path class="be26c25d-a0aa-48e6-a09c-ed8b040b163f" d="M35.34,73.82a1,1,0,0,1-.53.13c-.5,0-.8-.26-.8-.69a.68.68,0,0,1,.77-.69.94.94,0,0,1,.52.14l-.11.2a.54.54,0,0,0-.38-.12.43.43,0,0,0-.48.47.44.44,0,0,0,.49.47.71.71,0,0,0,.41-.12Z"/><path class="be26c25d-a0aa-48e6-a09c-ed8b040b163f" d="M35.7,73.32c0,.28.19.41.52.41a.88.88,0,0,0,.48-.12l.11.21a1.3,1.3,0,0,1-.6.13.88.88,0,0,1-.61-.19.7.7,0,0,1,.54-1.19c.46,0,.74.25.74.64v.11Zm.88-.2c0-.23-.16-.34-.43-.34a.4.4,0,0,0-.45.34Z"/><path class="be26c25d-a0aa-48e6-a09c-ed8b040b163f" d="M37.13,72.6h.28v.16a.63.63,0,0,1,.52-.19.54.54,0,0,1,.5.22.76.76,0,0,1,.08.42v.7h-.3v-.68a.55.55,0,0,0-.06-.29.34.34,0,0,0-.31-.14.39.39,0,0,0-.35.15.65.65,0,0,0-.06.35v.61h-.31Z"/><path class="be26c25d-a0aa-48e6-a09c-ed8b040b163f" d="M38.71,72.83V72.6h.23l0-.39.27,0v.43h.44v.23h-.44v.56c0,.25.05.31.22.31l.16,0,0,.23a1.22,1.22,0,0,1-.26,0,.4.4,0,0,1-.38-.16c-.06-.09-.07-.17-.07-.41v-.54Z"/><path class="be26c25d-a0aa-48e6-a09c-ed8b040b163f" d="M40.14,72.6v.7c0,.31.09.42.35.42a.35.35,0,0,0,.32-.16.57.57,0,0,0,.07-.34V72.6h.3v1.31h-.26l0-.17a.57.57,0,0,1-.5.21.51.51,0,0,1-.48-.22.72.72,0,0,1-.08-.41V72.6Z"/><path class="be26c25d-a0aa-48e6-a09c-ed8b040b163f" d="M41.55,72.6h.27l0,.16a.58.58,0,0,1,.45-.19h.13l0,.25a.44.44,0,0,0-.15,0,.36.36,0,0,0-.31.16.57.57,0,0,0-.07.34v.61h-.3Z"/><path class="be26c25d-a0aa-48e6-a09c-ed8b040b163f" d="M42.47,72.6h.33l.42,1,.44-1H44l-.69,1.46a1.48,1.48,0,0,1-.21.37.47.47,0,0,1-.41.17,1,1,0,0,1-.31,0l.06-.21a.55.55,0,0,0,.24,0,.29.29,0,0,0,.25-.15s0-.07.11-.2l.06-.12Z"/><path class="be26c25d-a0aa-48e6-a09c-ed8b040b163f" d="M44.56,73.79l1.22-1.59H44.7V72h1.48v.13L45,73.67h1.26v.24H44.56Z"/><path class="be26c25d-a0aa-48e6-a09c-ed8b040b163f" d="M46.65,73.32c0,.28.19.41.52.41a.88.88,0,0,0,.48-.12l.11.21a1.3,1.3,0,0,1-.6.13.88.88,0,0,1-.61-.19.65.65,0,0,1-.2-.5.66.66,0,0,1,.75-.69.64.64,0,0,1,.73.64v.11Zm.89-.2c0-.23-.17-.34-.44-.34s-.42.12-.44.34Z"/><path class="be26c25d-a0aa-48e6-a09c-ed8b040b163f" d="M48.08,72.6h.28v.16a.63.63,0,0,1,.52-.19.54.54,0,0,1,.5.22.76.76,0,0,1,.08.42v.7h-.3v-.68a.55.55,0,0,0-.06-.29.34.34,0,0,0-.31-.14.4.4,0,0,0-.35.15.76.76,0,0,0-.06.35v.61h-.31Z"/><path class="be26c25d-a0aa-48e6-a09c-ed8b040b163f" d="M50.43,72.6h.28v.16a.59.59,0,0,1,.5-.19.48.48,0,0,1,.48.24l0,0a.51.51,0,0,1,.14-.13.76.76,0,0,1,.38-.09.51.51,0,0,1,.48.22.76.76,0,0,1,.08.42v.7h-.3v-.68a.55.55,0,0,0-.06-.29.3.3,0,0,0-.29-.14.35.35,0,0,0-.32.15.69.69,0,0,0-.06.33v.63h-.31v-.68c0-.31-.09-.43-.34-.43a.35.35,0,0,0-.32.15.63.63,0,0,0-.07.35v.61h-.3Z"/><path class="be26c25d-a0aa-48e6-a09c-ed8b040b163f" d="M54.28,73.73a.66.66,0,0,1-.53.22.69.69,0,1,1,0-1.38.67.67,0,0,1,.54.21V72.6h.29v1.31h-.26Zm-.91-.47a.42.42,0,0,0,.44.47.43.43,0,0,0,.45-.47.45.45,0,1,0-.89,0Z"/><path class="be26c25d-a0aa-48e6-a09c-ed8b040b163f" d="M54.86,73.63a.92.92,0,0,0,.46.1c.21,0,.31-.06.31-.18a.12.12,0,0,0-.07-.12,1,1,0,0,0-.31-.1c-.3-.08-.42-.19-.42-.38s.19-.38.52-.38a1,1,0,0,1,.5.12l-.09.2a.78.78,0,0,0-.39-.1c-.15,0-.25.06-.25.16a.14.14,0,0,0,.09.12l.24.07a1,1,0,0,1,.34.13.32.32,0,0,1,.14.28c0,.27-.2.39-.6.39a1.28,1.28,0,0,1-.56-.1Z"/><path class="be26c25d-a0aa-48e6-a09c-ed8b040b163f" d="M56,72.83V72.6h.23l0-.39.27,0v.43H57v.23h-.44v.56c0,.25,0,.31.22.31l.16,0,0,.23a1.39,1.39,0,0,1-.27,0,.4.4,0,0,1-.38-.16c-.06-.09-.07-.17-.07-.41v-.54Z"/><path class="be26c25d-a0aa-48e6-a09c-ed8b040b163f" d="M57.33,73.32c0,.28.19.41.52.41a.88.88,0,0,0,.48-.12l.11.21a1.3,1.3,0,0,1-.6.13.88.88,0,0,1-.61-.19.65.65,0,0,1-.2-.5.66.66,0,0,1,.75-.69.64.64,0,0,1,.73.64v.11Zm.89-.2c0-.23-.17-.34-.44-.34s-.42.12-.44.34Z"/><path class="be26c25d-a0aa-48e6-a09c-ed8b040b163f" d="M58.76,72.6H59v.16a.59.59,0,0,1,.46-.19h.12l0,.25a.39.39,0,0,0-.14,0,.38.38,0,0,0-.32.16.68.68,0,0,0-.06.34v.61h-.31Z"/><path class="be26c25d-a0aa-48e6-a09c-ed8b040b163f" d="M60.46,73.53a1.11,1.11,0,0,0,.67.18.45.45,0,0,0,.34-.1.3.3,0,0,0,.08-.21.25.25,0,0,0-.15-.26A2,2,0,0,0,61,73c-.44-.14-.62-.3-.62-.57s.27-.51.7-.51a1.14,1.14,0,0,1,.63.16l-.11.21a.94.94,0,0,0-.51-.13c-.25,0-.41.1-.41.26a.26.26,0,0,0,.12.22,1.36,1.36,0,0,0,.34.13c.54.18.68.3.68.61s-.25.56-.74.56a1.44,1.44,0,0,1-.77-.19Z"/><path class="be26c25d-a0aa-48e6-a09c-ed8b040b163f" d="M62.35,73.32c0,.28.18.41.51.41a.89.89,0,0,0,.49-.12l.11.21a1.3,1.3,0,0,1-.6.13.88.88,0,0,1-.61-.19.7.7,0,0,1,.54-1.19c.46,0,.74.25.74.64v.11Zm.88-.2c0-.23-.16-.34-.43-.34a.4.4,0,0,0-.45.34Z"/><path class="be26c25d-a0aa-48e6-a09c-ed8b040b163f" d="M63.78,72.6h.28v.16a.62.62,0,0,1,.51-.19.55.55,0,0,1,.51.22.76.76,0,0,1,.08.42v.7h-.3v-.68a.55.55,0,0,0-.06-.29.34.34,0,0,0-.31-.14.39.39,0,0,0-.35.15.63.63,0,0,0-.07.35v.61h-.3Z"/><path class="be26c25d-a0aa-48e6-a09c-ed8b040b163f" d="M66.64,73.72a.66.66,0,0,1-.53.21.68.68,0,1,1,0-1.36.69.69,0,0,1,.54.21V72.6h.28v1.15a.73.73,0,0,1-.86.85,1.42,1.42,0,0,1-.54-.09l.07-.21a1,1,0,0,0,.46.08.57.57,0,0,0,.52-.21.73.73,0,0,0,.06-.35Zm-.91-.47a.42.42,0,0,0,.44.46.43.43,0,0,0,.46-.45.43.43,0,0,0-.46-.47A.42.42,0,0,0,65.73,73.25Z"/><path class="be26c25d-a0aa-48e6-a09c-ed8b040b163f" d="M68.52,73.82A1,1,0,0,1,68,74c-.5,0-.79-.26-.79-.69a.67.67,0,0,1,.76-.69.91.91,0,0,1,.52.14l-.1.2a.56.56,0,0,0-.38-.12.44.44,0,0,0-.49.47.44.44,0,0,0,.49.47.74.74,0,0,0,.42-.12Z"/><path class="be26c25d-a0aa-48e6-a09c-ed8b040b163f" d="M68.72,71.82H69v.92a.7.7,0,0,1,.51-.17.56.56,0,0,1,.51.22.76.76,0,0,1,.08.42v.7h-.3v-.68a.55.55,0,0,0-.06-.29.35.35,0,0,0-.32-.14.4.4,0,0,0-.35.15.62.62,0,0,0-.07.34v.62h-.3Z"/><path class="be26c25d-a0aa-48e6-a09c-ed8b040b163f" d="M71.61,73.73a.68.68,0,0,1-.54.22.65.65,0,0,1-.69-.69.64.64,0,0,1,.68-.69.67.67,0,0,1,.54.21V72.6h.29v1.31h-.26Zm-.92-.47a.45.45,0,1,0,.44-.47A.42.42,0,0,0,70.69,73.26Z"/><path class="be26c25d-a0aa-48e6-a09c-ed8b040b163f" d="M72.25,72.6h.28v.16a.63.63,0,0,1,.52-.19.54.54,0,0,1,.5.22.76.76,0,0,1,.08.42v.7h-.3v-.68a.55.55,0,0,0-.06-.29A.34.34,0,0,0,73,72.8a.39.39,0,0,0-.35.15.65.65,0,0,0-.06.35v.61h-.31Z"/></svg>