<svg id="b766854f-1432-487b-8001-9363d901df3a" data-name="Layer 1" xmlns="http://www.w3.org/2000/svg" xmlns:xlink="http://www.w3.org/1999/xlink" viewBox="0 0 100 100"><defs><style>.b6d75e42-56b9-484a-8399-cfef7530edfb{fill:none;}.f850d91e-3572-49a8-9037-4a2b9d44f85e{fill:#fff;}.be565b2e-0bff-40d8-b047-61bf5b29fb48{opacity:0.33;isolation:isolate;}.e31f76f0-f170-43a8-8b5c-577ccb7b0e33{clip-path:url(#b89ffba2-a324-48a6-966e-2aa279b26f0b);}.a859dbcf-4b10-4b2a-8f3e-e83f82f77c43{fill:#e5c896;fill-rule:evenodd;}.abfda6d9-ebee-41bc-88bc-97d7d7f6bcf9{fill:#1497f6;}.a36c5d6b-4c6b-439d-a2b5-ba209c69f7ae{fill:#411512;}</style><clipPath id="b89ffba2-a324-48a6-966e-2aa279b26f0b"><rect class="b6d75e42-56b9-484a-8399-cfef7530edfb" width="100" height="100"/></clipPath></defs><title>51_abetterpresentstartshere_outlines_100</title><rect class="f850d91e-3572-49a8-9037-4a2b9d44f85e" width="100" height="100"/><g class="be565b2e-0bff-40d8-b047-61bf5b29fb48"><g class="e31f76f0-f170-43a8-8b5c-577ccb7b0e33"><g class="e31f76f0-f170-43a8-8b5c-577ccb7b0e33"><polygon class="a859dbcf-4b10-4b2a-8f3e-e83f82f77c43" points="0 50 0 0 100 0 100 100 0 100 0 50"/></g></g></g><path class="abfda6d9-ebee-41bc-88bc-97d7d7f6bcf9" d="M6.72,60.68,6,42.12l-2.11.43v-.49l6.72-1.4,0,3.57h.09c.5-2.48,1.53-4.19,4.2-4.74,2.38-.5,4.18.82,4.8,3.83,1.07,5.16-1.36,9.15-4.74,9.85-2,.41-3.15-.26-3.69-1.39l.29,7.89L14.63,59v.5l-9.56,2V61ZM11.3,44.3a17.8,17.8,0,0,0,.31,6.58c.28,1.33,1,1.92,1.8,1.75,1.25-.25,1.49-2,1.45-4.74a35.55,35.55,0,0,0-.45-5.48c-.25-1.22-.8-1.46-1.33-1.35C12.31,41.21,11.65,42.29,11.3,44.3Z"/><path class="abfda6d9-ebee-41bc-88bc-97d7d7f6bcf9" d="M21.89,46l-.48-7.1-1.8.37,0-.49,6.54-1.36L26,42.64h.14c.34-2.19,1.58-5.82,4.54-6.43a2.28,2.28,0,0,1,2.95,1.84,2.42,2.42,0,0,1-2,3.09,4.07,4.07,0,0,1-1.92-.07l-.61-2.16c-1.42.35-2.42,2.57-2.48,5.59a28.31,28.31,0,0,0,.42,5.74,41,41,0,0,0-5.25,1.45Z"/><path class="abfda6d9-ebee-41bc-88bc-97d7d7f6bcf9" d="M45.29,36.29c.54,2.6-2.13,4-4.52,4.81a17.74,17.74,0,0,1-2,.56c.4,3.81,1.48,5.27,3.33,4.88,1.3-.27,2.53-1.49,2.86-4.57l.56.05c-.3,3.46-2,5.21-5.13,5.87-3.36.7-5.72-.69-6.37-3.81-1.12-5.43,1.58-8.89,6.26-9.86C43.24,33.6,44.89,34.34,45.29,36.29Zm-5.17-1.52c-1.43.3-1.7,3.09-1.44,6.37,1.79-.45,3.25-1.66,2.57-4.92C41.05,35.24,40.76,34.64,40.12,34.77Z"/><path class="abfda6d9-ebee-41bc-88bc-97d7d7f6bcf9" d="M53.62,42.35c-.3-1.46-1.57-1.55-3.48-1.85-1.62-.24-3.44-.77-3.9-3-.6-2.91,1.9-5,5.55-5.71,2.14-.44,4.81-.64,5.29,1.67a2,2,0,0,1-1.79,2.44c-.92.19-1.9-.1-2.06-.9a2,2,0,0,1,.14-1.32l.84-.18a1.56,1.56,0,0,0,0-.67c-.12-.61-.77-.8-2-.56-2,.42-2.63,1.43-2.44,2.36.27,1.3,1.27,1.47,3.16,1.8s4,.6,4.48,2.82c.67,3.23-2,5.47-5.93,6.28-3,.62-5.14.11-5.54-1.85A2.1,2.1,0,0,1,47.83,41a1.61,1.61,0,0,1,2.08,1.28,2.87,2.87,0,0,1,0,1.13l-1.06.22a1.35,1.35,0,0,0,0,.53c.14.68.9,1.13,2.38.83C53.52,44.55,53.8,43.22,53.62,42.35Z"/><path class="abfda6d9-ebee-41bc-88bc-97d7d7f6bcf9" d="M69.61,31.24c.54,2.59-2.13,3.95-4.52,4.81a17.82,17.82,0,0,1-2,.56c.41,3.8,1.48,5.26,3.33,4.88,1.3-.27,2.54-1.49,2.86-4.57l.57,0c-.31,3.46-2,5.21-5.13,5.87-3.36.7-5.72-.69-6.37-3.81-1.13-5.43,1.58-8.89,6.26-9.86C67.56,28.55,69.2,29.28,69.61,31.24Zm-5.17-1.52C63,30,62.73,32.81,63,36.09c1.78-.45,3.24-1.66,2.57-4.92C65.36,30.19,65.07,29.59,64.44,29.72Z"/><path class="abfda6d9-ebee-41bc-88bc-97d7d7f6bcf9" d="M79.27,36.66c-.35-1.67.11-5.57.18-6.66.1-1.54.16-2.58-.71-2.39S77.31,29,76.89,30.67c-.73,2.88-.35,6,0,9.25a47.3,47.3,0,0,0-5.21,1.36l.11-5.19-.47-7.55-1.88.39,0-.49L76.14,27,76,31.59h.09c.44-2.63,1.31-5.1,4.51-5.77a2.68,2.68,0,0,1,3.53,2.25,7.89,7.89,0,0,1,.13,2l-.21,5.34a8.62,8.62,0,0,0,0,1.63c.11.5.4.58.74.5s.92-.49,1.46-1.9l.48.18A4.21,4.21,0,0,1,83.38,39C81.37,39.37,79.72,38.83,79.27,36.66Z"/><path class="abfda6d9-ebee-41bc-88bc-97d7d7f6bcf9" d="M92.22,24.2l0,5.84a26.61,26.61,0,0,0,.16,4.24c.17.82.5,1.31,1.37,1.13s1.41-.93,2.06-3l.53.2c-.62,2-1.57,4-4.19,4.54-3.09.64-4.26-1-4.58-2.53a20.79,20.79,0,0,1-.26-3.78l-.09-5.61-1.91.39,0-.49,1.91-.4-.07-2.83L91.53,20l.53-.11.14,3.87L95,23.13l0,.49Z"/><path class="a36c5d6b-4c6b-439d-a2b5-ba209c69f7ae" d="M32,66.09c-.24-1.35-1.4-1.47-3.15-1.8-1.48-.26-3.14-.8-3.5-2.83-.48-2.7,1.88-4.5,5.25-5.1,2-.35,4.44-.46,4.82,1.67a1.84,1.84,0,0,1-1.71,2.2c-.85.15-1.74-.15-1.87-.88A1.85,1.85,0,0,1,32,58.13L32.8,58a1.46,1.46,0,0,0,0-.61c-.1-.56-.69-.76-1.79-.57-1.84.33-2.46,1.25-2.31,2.1.22,1.2,1.13,1.39,2.86,1.74s3.68.67,4,2.72c.53,3-2,5-5.62,5.62-2.74.48-4.73,0-5.05-1.86a1.94,1.94,0,0,1,1.75-2.41A1.49,1.49,0,0,1,28.6,66a2.47,2.47,0,0,1,0,1l-1,.17a1.33,1.33,0,0,0,0,.48c.12.64.8,1.08,2.17.83C31.86,68.11,32.15,66.89,32,66.09Z"/><path class="a36c5d6b-4c6b-439d-a2b5-ba209c69f7ae" d="M41.87,55.07l-.11,5.38a24.38,24.38,0,0,0,0,3.9c.13.76.42,1.22,1.22,1.07s1.32-.81,2-2.69l.49.19c-.63,1.85-1.55,3.63-4,4.06-2.87.51-3.89-1-4.15-2.45a20,20,0,0,1-.14-3.48l.08-5.17-1.77.32v-.46l1.76-.31,0-2.6,4-1.68.48-.09,0,3.56,2.57-.45v.45Z"/><path class="a36c5d6b-4c6b-439d-a2b5-ba209c69f7ae" d="M60.05,61.52a3.74,3.74,0,0,1-2.91,2.67c-2.42.42-3.54-.64-3.5-2.69h-.13c-.32,2-1.34,3.57-3.47,3.94-2.84.5-4.23-.94-4.69-3.56-.8-4.5.66-8.25,4.63-9,1.81-.32,2.49.27,3,1.13l.12-1.36a29.73,29.73,0,0,0,4.44-1c-.08,3.12-.21,6.07-.12,9.71a7.23,7.23,0,0,0,.06.9c.11.64.43.73.77.67s.86-.4,1.38-1.63Zm-7-.47a19.65,19.65,0,0,0-.15-5.86c-.26-1.47-1-1.91-1.73-1.79s-1.13.91-1.31,2.71A27,27,0,0,0,50,62.62c.15.83.41,1.77,1.37,1.6C52.13,64.09,52.81,63.08,53.05,61.05Z"/><path class="a36c5d6b-4c6b-439d-a2b5-ba209c69f7ae" d="M60.63,58.34l-.25-6.54-1.67.29v-.45l6.05-1.07-.24,4.79h.12c.38-2,1.61-5.31,4.36-5.79a2.1,2.1,0,0,1,2.66,1.77,2.24,2.24,0,0,1-1.91,2.79A3.82,3.82,0,0,1,68,54l-.51-2c-1.31.29-2.29,2.3-2.43,5.08a25.59,25.59,0,0,0,.23,5.29,38.15,38.15,0,0,0-4.87,1.19Z"/><path class="a36c5d6b-4c6b-439d-a2b5-ba209c69f7ae" d="M77.68,48.73l-.11,5.38a24.38,24.38,0,0,0,0,3.9c.13.76.42,1.22,1.22,1.07s1.32-.81,2-2.69l.48.19c-.63,1.85-1.55,3.63-4,4.06-2.87.51-3.89-1-4.15-2.45A20.12,20.12,0,0,1,73,54.71l.07-5.16-1.77.31V49.4l1.76-.31,0-2.6,4-1.68.49-.08,0,3.55,2.57-.45v.45Z"/><path class="a36c5d6b-4c6b-439d-a2b5-ba209c69f7ae" d="M88.18,56.14C88,54.79,86.79,54.67,85,54.35c-1.49-.27-3.15-.81-3.51-2.84-.47-2.69,1.88-4.5,5.26-5.09,2-.36,4.44-.46,4.82,1.67a1.83,1.83,0,0,1-1.71,2.19c-.86.16-1.74-.14-1.87-.88a1.77,1.77,0,0,1,.16-1.21l.78-.14a1.49,1.49,0,0,0,0-.61c-.1-.57-.69-.77-1.8-.57-1.83.32-2.45,1.24-2.3,2.1.21,1.2,1.13,1.39,2.86,1.74s3.68.66,4,2.72c.53,3-2,5-5.62,5.61-2.74.49-4.73,0-5-1.86a1.94,1.94,0,0,1,1.74-2.4A1.49,1.49,0,0,1,84.78,56a2.83,2.83,0,0,1,0,1l-1,.18a1.13,1.13,0,0,0,0,.48c.11.64.8,1.07,2.17.83C88,58.16,88.33,57,88.18,56.14Z"/><path class="a36c5d6b-4c6b-439d-a2b5-ba209c69f7ae" d="M24.45,90.19C24,87.75,24.91,82,25,81c.19-1.94.33-3.49-1-3.26-.85.15-2,1.57-2.72,4.64-.71,2.91-.83,6.32-.29,12.37a69.19,69.19,0,0,0-7.32,1.71L14,89.29l-.59-21-2.58.46v-.68l9.72-1.72-.4,16.69.16,0c.87-3.51,2-7,6.37-7.76,2.88-.51,4.47.69,4.9,3.13a13.45,13.45,0,0,1,0,3.23l-.41,6.52a19.28,19.28,0,0,0,0,2.75c.12.7.52.82,1,.74.7-.13,1.36-.7,2.13-2.59l.66.26c-1,2.46-2.19,3.79-4.89,4.26S25,93.36,24.45,90.19Z"/><path class="a36c5d6b-4c6b-439d-a2b5-ba209c69f7ae" d="M48.77,75.74c.64,3.62-3.12,5.4-6.48,6.48a22.66,22.66,0,0,1-2.85.7c.41,5.3,1.84,7.37,4.43,6.92,1.81-.32,3.58-2,4.16-6.23l.78.09c-.57,4.79-2.93,7.15-7.37,7.94-4.69.83-7.91-1.19-8.68-5.56-1.34-7.57,2.56-12.26,9.1-13.42C46,71.92,48.29,73,48.77,75.74Zm-7.12-2.32c-2,.35-2.49,4.21-2.26,8.78,2.5-.55,4.57-2.18,3.77-6.72C42.92,74.11,42.54,73.26,41.65,73.42Z"/><path class="a36c5d6b-4c6b-439d-a2b5-ba209c69f7ae" d="M49.88,82.25l-.37-9.88L47,72.82v-.69l9.13-1.62-.36,7.23H56c.57-3,2.43-8,6.57-8.75a3.17,3.17,0,0,1,4,2.68,3.37,3.37,0,0,1-2.88,4.21A5.7,5.7,0,0,1,61,75.71l-.76-3c-2,.43-3.47,3.47-3.68,7.67a39.45,39.45,0,0,0,.35,8,60.53,60.53,0,0,0-7.35,1.79Z"/><path class="a36c5d6b-4c6b-439d-a2b5-ba209c69f7ae" d="M81,70c.64,3.62-3.13,5.39-6.48,6.48a23.09,23.09,0,0,1-2.85.7c.41,5.3,1.84,7.37,4.43,6.91,1.81-.32,3.57-2,4.16-6.22l.77.09c-.56,4.79-2.92,7.15-7.36,7.94-4.69.83-7.91-1.2-8.68-5.56C63.69,72.8,67.58,68.1,74.12,67,78.3,66.21,80.55,67.29,81,70Zm-7.12-2.32c-2,.35-2.5,4.21-2.26,8.78,2.49-.55,4.57-2.18,3.76-6.73C75.18,68.4,74.8,67.55,73.92,67.71Z"/><path class="a36c5d6b-4c6b-439d-a2b5-ba209c69f7ae" d="M88.47,79.31a3.63,3.63,0,0,1-3.08,4.55,2.58,2.58,0,0,1-3.26-2.25,3.71,3.71,0,0,1,3.1-4.28C86.93,77,88.19,77.72,88.47,79.31Z"/><path class="a36c5d6b-4c6b-439d-a2b5-ba209c69f7ae" d="M31.47,11.73l-1.94.41,0-.43,6.36-1.35-.12,8.4.13.06a3.86,3.86,0,0,1,3.06-2.74c2.47-.52,3.91.81,4.42,3.21.82,3.88-.59,7.93-5.55,9-3.39.72-5.25-.76-5.82-3.49a11.73,11.73,0,0,1-.21-1.86Zm4.58,8.57A17.94,17.94,0,0,0,36.36,26c.3,1.43.87,1.84,1.56,1.69,1.25-.26,1.34-2.45,1.2-5.6a23.65,23.65,0,0,0-.34-3.31c-.19-.92-.53-1.47-1.19-1.33S36.29,18.68,36.05,20.3Z"/><path class="a36c5d6b-4c6b-439d-a2b5-ba209c69f7ae" d="M54.26,15.55c.48,2.26-1.85,3.46-3.93,4.21a16,16,0,0,1-1.77.5c.36,3.32,1.31,4.59,2.92,4.25,1.13-.24,2.21-1.31,2.48-4l.49,0c-.25,3-1.68,4.55-4.45,5.14-2.93.62-5-.58-5.57-3.3-1-4.73,1.34-7.76,5.43-8.63C52.46,13.21,53.9,13.85,54.26,15.55Zm-4.52-1.31c-1.24.27-1.48,2.7-1.23,5.57,1.55-.4,2.82-1.47,2.22-4.3C50.55,14.65,50.3,14.13,49.74,14.24Z"/><path class="a36c5d6b-4c6b-439d-a2b5-ba209c69f7ae" d="M67.45,10.76l.08,5.05a22.43,22.43,0,0,0,.15,3.7c.16.71.44,1.14,1.2,1s1.15-.92,1.76-2.64l.49.18c-.54,1.78-1.36,3.5-3.64,4s-3.43-.48-3.87-1.64a4.74,4.74,0,0,1-3.49,3.2c-2.7.57-3.72-.83-4-2.19a19.51,19.51,0,0,1-.24-3.3l-.11-4.85-1.66.35V13.1l1.66-.35-.07-2.47,3.78-1.71.47-.1.13,3.37,3.05-.65-.07-2.47L66.84,7l.47-.1.13,3.37,2.42-.51v.48ZM63.4,19.41a23.27,23.27,0,0,1-.16-2.89l-.11-4.85-3,.65.08,5a22.51,22.51,0,0,0,.15,3.71c.16.71.44,1.14,1.2,1S62.81,21.1,63.4,19.41Z"/><path class="a36c5d6b-4c6b-439d-a2b5-ba209c69f7ae" d="M80.7,10c.48,2.27-1.84,3.46-3.93,4.21a14.09,14.09,0,0,1-1.77.5c.36,3.32,1.31,4.59,2.92,4.25,1.13-.24,2.21-1.31,2.48-4l.49,0c-.25,3-1.68,4.55-4.45,5.14-2.93.62-5-.58-5.57-3.3-1-4.73,1.34-7.76,5.43-8.63C78.91,7.61,80.34,8.25,80.7,10Zm-4.52-1.3c-1.24.26-1.47,2.7-1.23,5.56,1.56-.4,2.82-1.47,2.22-4.3C77,9.05,76.74,8.53,76.18,8.65Z"/><path class="a36c5d6b-4c6b-439d-a2b5-ba209c69f7ae" d="M82.6,13.8l-.44-6.2-1.57.33,0-.43,5.7-1.21-.08,4.55h.12c.3-1.92,1.36-5.09,4-5.63a2,2,0,0,1,2.58,1.6,2.12,2.12,0,0,1-1.72,2.7,3.45,3.45,0,0,1-1.68-.06L88.9,7.57c-1.24.31-2.1,2.25-2.15,4.89a25.09,25.09,0,0,0,.39,5,37,37,0,0,0-4.58,1.29Z"/><path class="a36c5d6b-4c6b-439d-a2b5-ba209c69f7ae" d="M17.84,23.78l-7.53,1.6L8,34.15l3-.63.07.71L5.16,35.48l-.07-.71,2-.42L14.43,6.78l4.41-.94L27.71,30l2.16-.46.08.71L18.49,32.66,18.42,32l2-.42Zm-7.3.7L17.6,23,13.88,12.15Z"/></svg>