<svg id="eb43457b-84b3-4e77-8f3e-a19185a41745" data-name="Layer 1" xmlns="http://www.w3.org/2000/svg" viewBox="0 0 100 100"><defs><style>.a6c3b87f-b5a8-43c7-b953-92ac9ac9d111{fill:#fff;}.b84d19a1-194a-40df-b8ba-32eb54929acf{fill:#21708c;fill-rule:evenodd;}.b6d70cc3-13b5-4e9d-966a-39a2fac5b7c0{fill:#fedaa1;}.b96c83fa-cec6-4421-870b-34be40de1611{fill:#fefefe;}</style></defs><title>43_abetterfuturestartsnow</title><rect class="a6c3b87f-b5a8-43c7-b953-92ac9ac9d111" width="100" height="100"/><polygon class="b84d19a1-194a-40df-b8ba-32eb54929acf" points="0 50 0 0 100 0 100 100 0 100 0 50"/><path class="b6d70cc3-13b5-4e9d-966a-39a2fac5b7c0" d="M17.66,20l-4.76.84-1.62,5.46L13.16,26l0,.45-3.73.66,0-.45,1.26-.22L15.87,9.3l2.79-.49,5.06,15.33,1.37-.24,0,.44-7.24,1.29,0-.45L19.1,25Zm-4.6.29,4.46-.79-2.1-6.88Z"/><path class="b96c83fa-cec6-4421-870b-34be40de1611" d="M11.38,40.62l-2.2.45,0-.56,2.16-.45,0-1.21c-.13-5,2-8.52,6.87-9.52,2.16-.45,5,0,5.48,2.56a2.84,2.84,0,0,1-2.14,3.58,2.16,2.16,0,0,1-2.77-1.59,3.12,3.12,0,0,1,0-1.32l1.32-.46c.4-2-.43-2.55-1.4-2.35-1.68.35-1.89,2.18-1.7,7l.09,2.08,3.6-.75v.57l-3.55.73.32,14.08c.11,5.06-1.88,8.48-7,9.54-1.89.39-4.73.14-5.27-2.42a3.07,3.07,0,0,1,2.39-3.75c1.9-.4,3,1.09,2.63,3L9,60.28c-.48,1.47.09,2.39,1.17,2.17,1.69-.35,1.77-2.5,1.7-6.94Z"/><path class="b96c83fa-cec6-4421-870b-34be40de1611" d="M21,38.61,19,39l0-.56,7.7-1.6c-.13,5.89-.18,9.44-.06,11.67,0,.78.07,1.81,1.09,1.6,1.32-.28,2.21-3.69,2.12-8.22a33.05,33.05,0,0,0-.42-5.31A55,55,0,0,0,35.33,35c0,3.79,0,9.24.28,12.05.08,1,.16,2,1.09,1.78.54-.11,1.08-.7,1.63-2.1l.56.26a4.77,4.77,0,0,1-3.82,3.37c-3.37.7-4.83-.78-4.52-4.42l-.2,0c-.47,3.14-1.5,5.74-5,6.46-2.85.59-4.2-1.2-4.25-3.88S21,40.53,21,38.61Z"/><path class="b96c83fa-cec6-4421-870b-34be40de1611" d="M44.71,33.69l.07,6.63A30.13,30.13,0,0,0,45,45.15c.2.93.56,1.48,1.55,1.27s1.6-1.05,2.34-3.4l.61.22c-.71,2.31-1.79,4.54-4.76,5.16-3.52.73-4.84-1.1-5.21-2.87a25.12,25.12,0,0,1-.3-4.3l-.1-6.37-2.16.45,0-.56,2.16-.45L39,31.08l4.93-2.21.6-.13.16,4.39,3.16-.66,0,.56Z"/><path class="b96c83fa-cec6-4421-870b-34be40de1611" d="M50,32.59,48,33l0-.56,7.69-1.59c-.12,5.89-.17,9.44-.05,11.67,0,.78.06,1.81,1.09,1.6,1.32-.28,2.21-3.69,2.11-8.22a32,32,0,0,0-.41-5.31A55,55,0,0,0,64.31,29c0,3.79,0,9.24.28,12.05.08,1,.16,2,1.09,1.78.54-.11,1.08-.7,1.63-2.1l.56.26a4.78,4.78,0,0,1-3.82,3.37c-3.37.7-4.83-.79-4.52-4.43l-.2,0c-.47,3.14-1.5,5.74-5,6.46-2.86.59-4.2-1.2-4.26-3.88S50,34.5,50,32.59Z"/><path class="b96c83fa-cec6-4421-870b-34be40de1611" d="M68.5,36.93,68,28.86l-2,.43,0-.56,7.43-1.55-.12,5.92h.16c.39-2.49,1.79-6.61,5.16-7.31a2.59,2.59,0,0,1,3.35,2.09,2.75,2.75,0,0,1-2.25,3.51,4.52,4.52,0,0,1-2.18-.08l-.7-2.45c-1.61.39-2.75,2.92-2.82,6.35a31.56,31.56,0,0,0,.48,6.52,48.64,48.64,0,0,0-6,1.65Z"/><path class="b96c83fa-cec6-4421-870b-34be40de1611" d="M95.09,25.89c.61,2.94-2.43,4.48-5.14,5.46a18.21,18.21,0,0,1-2.32.63c.46,4.33,1.69,6,3.79,5.55,1.47-.3,2.88-1.69,3.25-5.19l.64.06c-.34,3.92-2.22,5.91-5.83,6.66-3.82.8-6.5-.78-7.23-4.33C81,28.57,84,24.64,89.36,23.53,92.76,22.83,94.62,23.66,95.09,25.89Zm-5.88-1.73c-1.63.34-1.94,3.51-1.63,7.24,2-.52,3.68-1.89,2.91-5.59C90.26,24.7,89.93,24,89.21,24.16Z"/><path class="b6d70cc3-13b5-4e9d-966a-39a2fac5b7c0" d="M24.08,69.21c-.23-1.35-1.39-1.47-3.14-1.79-1.49-.27-3.15-.81-3.51-2.84-.47-2.69,1.88-4.5,5.26-5.09,2-.36,4.44-.46,4.82,1.67a1.83,1.83,0,0,1-1.71,2.19c-.86.15-1.74-.14-1.87-.88a1.77,1.77,0,0,1,.16-1.21l.78-.14a1.53,1.53,0,0,0,.05-.62c-.1-.56-.69-.76-1.79-.56-1.84.32-2.46,1.24-2.31,2.1.21,1.2,1.13,1.39,2.86,1.74s3.68.66,4,2.72c.53,3-2,5-5.62,5.61-2.74.49-4.73,0-5.05-1.86a1.94,1.94,0,0,1,1.74-2.4,1.49,1.49,0,0,1,1.89,1.23,2.64,2.64,0,0,1,0,1l-1,.18a1.13,1.13,0,0,0,0,.48c.11.64.8,1.07,2.17.83C23.94,71.23,24.23,70,24.08,69.21Z"/><path class="b6d70cc3-13b5-4e9d-966a-39a2fac5b7c0" d="M34,58.2l-.11,5.37a24.53,24.53,0,0,0,0,3.91c.13.76.41,1.21,1.22,1.07s1.32-.82,2-2.7l.49.19c-.63,1.86-1.55,3.63-4,4.06-2.86.51-3.89-1-4.14-2.44a19.11,19.11,0,0,1-.14-3.49L29.37,59l-1.76.31v-.45l1.76-.31,0-2.61,4-1.67.49-.09,0,3.56,2.57-.46v.45Z"/><path class="b6d70cc3-13b5-4e9d-966a-39a2fac5b7c0" d="M52.13,64.65a3.73,3.73,0,0,1-2.91,2.66c-2.42.43-3.54-.63-3.5-2.69h-.13c-.32,2-1.34,3.57-3.47,3.95-2.84.5-4.23-.95-4.69-3.56-.8-4.51.66-8.25,4.62-9,1.81-.32,2.5.26,3,1.13l.11-1.36a28.65,28.65,0,0,0,4.45-1c-.08,3.12-.21,6.07-.12,9.72a7.58,7.58,0,0,0,0,.9c.12.63.44.73.78.67s.86-.41,1.38-1.64Zm-7-.48A19.92,19.92,0,0,0,45,58.32c-.26-1.47-1-1.91-1.73-1.79s-1.13.9-1.32,2.7a27.61,27.61,0,0,0,.15,6.52c.14.83.41,1.77,1.37,1.6C44.21,67.21,44.89,66.21,45.13,64.17Z"/><path class="b6d70cc3-13b5-4e9d-966a-39a2fac5b7c0" d="M52.71,61.47l-.25-6.55-1.67.3v-.46l6-1.07-.24,4.79h.13c.38-2,1.61-5.31,4.35-5.8a2.11,2.11,0,0,1,2.67,1.78,2.23,2.23,0,0,1-1.91,2.78,3.68,3.68,0,0,1-1.76-.11l-.51-2c-1.31.28-2.29,2.3-2.43,5.08a25.44,25.44,0,0,0,.23,5.28,39.91,39.91,0,0,0-4.87,1.19Z"/><path class="b6d70cc3-13b5-4e9d-966a-39a2fac5b7c0" d="M69.76,51.86l-.11,5.37a24.53,24.53,0,0,0,0,3.91c.13.76.41,1.21,1.22,1.07s1.32-.82,2-2.7l.49.19c-.63,1.86-1.55,3.64-4,4.06-2.87.51-3.89-1-4.15-2.44a19.11,19.11,0,0,1-.14-3.49l.07-5.16L63.42,53v-.45l1.76-.31,0-2.61,4-1.67.49-.09,0,3.56L72.33,51v.45Z"/><path class="b6d70cc3-13b5-4e9d-966a-39a2fac5b7c0" d="M80.26,59.27c-.24-1.35-1.39-1.47-3.14-1.8-1.49-.26-3.15-.8-3.51-2.83-.48-2.7,1.88-4.5,5.26-5.1,2-.35,4.44-.46,4.81,1.67a1.83,1.83,0,0,1-1.7,2.2c-.86.15-1.75-.15-1.88-.88a1.85,1.85,0,0,1,.17-1.22l.78-.14a1.46,1.46,0,0,0,0-.61C81,50,80.4,49.8,79.3,50c-1.83.33-2.45,1.25-2.3,2.1.21,1.2,1.13,1.39,2.86,1.74s3.67.67,4,2.72c.53,3-2,5-5.62,5.62-2.75.48-4.73-.05-5-1.86A1.93,1.93,0,0,1,75,57.91a1.49,1.49,0,0,1,1.89,1.23,2.65,2.65,0,0,1,0,1l-1,.17a1.17,1.17,0,0,0,0,.49c.11.63.79,1.07,2.17.82C80.11,61.29,80.4,60.07,80.26,59.27Z"/><path class="b6d70cc3-13b5-4e9d-966a-39a2fac5b7c0" d="M30.87,89.35c-.38-2.14.36-7.11.5-8.5.17-1.95.29-3.27-.83-3.07s-1.87,1.69-2.47,3.83c-1,3.65-.67,7.69-.37,11.8A61.52,61.52,0,0,0,21,95l.33-6.61L21,78.69l-2.41.43-.05-.63L27.24,77l-.3,5.8h.11c.67-3.34,1.87-6.46,6-7.18,2.51-.45,4,.76,4.41,3a10.33,10.33,0,0,1,.1,2.5l-.48,6.81A10.19,10.19,0,0,0,37,90c.12.65.49.76.93.68.61-.11,1.19-.6,1.92-2.37l.61.24c-.8,2-1.84,3.44-4.46,3.9S31.37,92.13,30.87,89.35Z"/><path class="b6d70cc3-13b5-4e9d-966a-39a2fac5b7c0" d="M38.58,85.39c-1.08-6.08,1.61-11.07,8.13-12.23,4.52-.8,7.29.61,8,4.88,1.27,7.14-2.14,11.45-8,12.5C42,91.37,39.32,89.6,38.58,85.39Zm9.88-9.45c-.27-1.53-.83-2.31-1.81-2.13-2.11.37-2.22,3.09-2.18,8.68a35.63,35.63,0,0,0,.4,5.39c.28,1.57.81,2.21,1.93,2,1.9-.34,2.08-2.29,2-8.76A34.16,34.16,0,0,0,48.46,75.94Z"/><path class="b6d70cc3-13b5-4e9d-966a-39a2fac5b7c0" d="M73.49,84.57c3-.54,6-5.82,5.13-10.61-.25-1.43-1.12-2.57-2.21-2.38l-.71,1.53a2.58,2.58,0,0,1-2.45-2,2.48,2.48,0,0,1,2.19-3c2.58-.46,3.68,1.76,4,3.46,1,5.44-.52,13.33-7.75,14.61a7,7,0,0,1-5.14-.77A9.25,9.25,0,0,1,61.48,88c-2.85.5-5.59-.73-5.66-5.06,0-3,.06-5,.18-7.91.06-1,.14-2-.51-1.87s-1.34.93-2.2,2.59l-.55-.32c1.49-3.07,3.11-3.84,5.21-4.22,2.89-.51,4.78.91,4.75,3.86-.05,3.68-.22,5.11-.26,8.62,0,1.83.34,2.71,1.52,2.5a3.6,3.6,0,0,0,2.11-1.35,9.13,9.13,0,0,1-.39-3c0-2.53.32-7.73.16-11.38a55.7,55.7,0,0,0,6.36-1.65c-.29,5.27-.45,11.11-.35,14.21C71.89,84.26,72.17,84.8,73.49,84.57Z"/><path class="b6d70cc3-13b5-4e9d-966a-39a2fac5b7c0" d="M86.28,79.85A3.34,3.34,0,0,1,83.45,84a2.36,2.36,0,0,1-3-2.06A3.39,3.39,0,0,1,83.3,78C84.86,77.76,86,78.39,86.28,79.85Z"/><path class="b6d70cc3-13b5-4e9d-966a-39a2fac5b7c0" d="M29.87,11.37l-1.95.34,0-.43,6.42-1.13-.41,8.39.13.07A3.88,3.88,0,0,1,37.19,16c2.48-.44,3.88.94,4.31,3.36.69,3.91-.85,7.92-5.85,8.81-3.42.6-5.23-.95-5.72-3.69a13.07,13.07,0,0,1-.14-1.87Zm4.31,8.73a17.71,17.71,0,0,0,.11,5.66c.26,1.44.81,1.87,1.51,1.75,1.26-.22,1.42-2.41,1.39-5.57A23.44,23.44,0,0,0,37,18.62c-.16-.93-.48-1.49-1.15-1.37S34.47,18.49,34.18,20.1Z"/><path class="b6d70cc3-13b5-4e9d-966a-39a2fac5b7c0" d="M52.55,16c.41,2.28-2,3.39-4.07,4.08a14,14,0,0,1-1.79.43c.25,3.34,1.15,4.64,2.78,4.36,1.14-.21,2.25-1.24,2.62-3.92l.49.06c-.36,3-1.84,4.5-4.63,5-3,.52-5-.75-5.47-3.49-.84-4.77,1.61-7.72,5.73-8.45C50.83,13.55,52.25,14.24,52.55,16ZM48.08,14.5c-1.26.22-1.57,2.65-1.42,5.52,1.56-.34,2.87-1.37,2.36-4.23C48.87,14.93,48.63,14.4,48.08,14.5Z"/><path class="b6d70cc3-13b5-4e9d-966a-39a2fac5b7c0" d="M65.91,11.61l-.09,5.05a23.38,23.38,0,0,0,0,3.71c.13.72.4,1.15,1.17,1s1.18-.88,1.84-2.58l.49.2c-.6,1.77-1.47,3.46-3.78,3.86s-3.41-.59-3.81-1.77a4.78,4.78,0,0,1-3.6,3.09c-2.72.48-3.7-1-3.94-2.33a18.19,18.19,0,0,1-.13-3.31l0-4.85L52.47,14V13.5l1.67-.29,0-2.48L58,9.14l.47-.08,0,3.38,3.07-.55,0-2.47,3.84-1.59.47-.08,0,3.37,2.44-.43v.48Zm-4.35,8.51a23.83,23.83,0,0,1-.05-2.89l.05-4.85-3.07.54-.09,5a22.09,22.09,0,0,0,0,3.71c.12.72.39,1.15,1.16,1S60.92,21.79,61.56,20.12Z"/><path class="b6d70cc3-13b5-4e9d-966a-39a2fac5b7c0" d="M79.2,11.24c.4,2.28-2,3.4-4.07,4.08a14.33,14.33,0,0,1-1.8.44c.26,3.33,1.16,4.64,2.79,4.35,1.14-.2,2.25-1.24,2.61-3.92l.49.06c-.35,3-1.84,4.5-4.63,5-3,.53-5-.75-5.46-3.49C68.29,13,70.74,10,74.85,9.3,77.48,8.84,78.9,9.52,79.2,11.24ZM74.72,9.78c-1.25.22-1.57,2.65-1.42,5.53,1.57-.35,2.88-1.37,2.37-4.23C75.52,10.22,75.28,9.68,74.72,9.78Z"/><path class="b6d70cc3-13b5-4e9d-966a-39a2fac5b7c0" d="M81,15.15l-.24-6.22-1.58.28V8.78l5.74-1-.23,4.54h.12c.36-1.91,1.53-5.05,4.14-5.51A2,2,0,0,1,91.45,8.5a2.13,2.13,0,0,1-1.81,2.65A3.5,3.5,0,0,1,88,11l-.48-1.9c-1.25.27-2.18,2.18-2.31,4.82a24.45,24.45,0,0,0,.22,5,38.64,38.64,0,0,0-4.62,1.13Z"/></svg>