<svg id="b66d83dd-8931-4648-9b6a-e684e2f3cf19" data-name="Layer 1" xmlns="http://www.w3.org/2000/svg" viewBox="0 0 100 100"><defs><style>.e89351e8-3fca-4e95-86a9-22faf99ab002{fill:#fff;}.fed49fcf-d8e5-463d-82a8-c5ea8b6d12eb{fill:#0c1c37;fill-rule:evenodd;}.b787ffee-0c49-4c98-80be-b48951b80724{opacity:0.4;}.ef189152-130b-4f41-b963-0c97363a40a2{fill:#51ffde;}</style></defs><title>34_all-thoughts-come-and-go</title><rect class="e89351e8-3fca-4e95-86a9-22faf99ab002" width="100" height="100"/><polygon class="fed49fcf-d8e5-463d-82a8-c5ea8b6d12eb" points="0 50 0 0 100 0 100 100 0 100 0 50"/><g class="b787ffee-0c49-4c98-80be-b48951b80724"><path class="ef189152-130b-4f41-b963-0c97363a40a2" d="M4.24,74c0-6.58,3.83-10.34,8.32-13.08a19.89,19.89,0,0,1-2.82-9.33c0-6.79,5.2-12.72,13.59-12.72,7.51,0,12.43,4.34,12.43,11.13,0,6.15-4.63,10-9.4,13.09a56.11,56.11,0,0,0,8.24,7,30.26,30.26,0,0,0,5.06-10.41H50.94a49.58,49.58,0,0,1-7.66,15.4,26.41,26.41,0,0,0,7.8,2.53l-2.89,10A42.76,42.76,0,0,1,35.61,83a26.38,26.38,0,0,1-15.18,4.55C9.52,87.58,4.24,81.08,4.24,74ZM22,78.18A11.24,11.24,0,0,0,26.65,77a61.47,61.47,0,0,1-8.53-8.17A6.45,6.45,0,0,0,16,73.27C16,76.16,18.27,78.18,22,78.18Zm-.79-21.9c3-1.73,5.13-3.54,5.13-6.29,0-2-.94-3-2.75-3s-3.68,1.59-3.68,4.62A10.23,10.23,0,0,0,21.23,56.28Z"/></g><path class="ef189152-130b-4f41-b963-0c97363a40a2" d="M51.47,82.79c.55-1.49,1.84-2.29,3.83-2.54l.05-.14a3.81,3.81,0,0,1-.51-3.73,4.73,4.73,0,0,1,3.29-2.65l0-.14A6,6,0,0,1,57.44,68c1.67-4.48,6.21-5.19,10.19-3.71a10.12,10.12,0,0,1,2.73,1.51l6.73,2.5-1.67,4.48-2.6-1a7,7,0,0,1-.41,2c-1.58,4.27-5.48,4.79-9.54,3.29a9.79,9.79,0,0,1-1.93-1,1.22,1.22,0,0,0-.82.89c-.3.8.32,1.36,2.13,2l2.71,1c4.52,1.68,6.62,4,5.38,7.35-1.45,3.91-6.49,5.08-12.93,2.69C53.28,88.56,50.27,86,51.47,82.79ZM64,86.29c.34-.94-.47-1.41-2-2l-1.41-.52a10,10,0,0,1-2.52-1.19,1.91,1.91,0,0,0-1.14,1.06c-.42,1.16.83,2.2,2.93,3S63.63,87.3,64,86.29Zm3.13-14.65c.61-1.66.11-2.75-1-3.18s-2.25.07-2.87,1.73-.14,2.83,1,3.26S66.49,73.38,67.14,71.64Z"/><path class="ef189152-130b-4f41-b963-0c97363a40a2" d="M74,77.47c2.23-6,7.86-7.87,12.49-6.15s7.68,6.8,5.45,12.81S84,92,79.4,90.28,71.72,83.47,74,77.47Zm11.58,4.29c1-2.74.94-4.75-.94-5.45s-3.25.77-4.27,3.52-.94,4.76.94,5.45S84.51,84.51,85.53,81.76Z"/><path class="e89351e8-3fca-4e95-86a9-22faf99ab002" d="M7,30.38c.15-4.31,3.55-6.59,11.52-7.14-.11-1.5-1-2.19-2.82-2.25a11.26,11.26,0,0,0-5.28,1.55L8.1,17.82a17.48,17.48,0,0,1,9.2-2.42c5.39.19,8.51,3.2,8.28,10L25.17,36.9l-5.79-.2-.43-2h-.17A8.38,8.38,0,0,1,13,37,6.09,6.09,0,0,1,7,30.38Zm11.27-.1.1-2.82c-3.41.38-4.52,1.42-4.56,2.58,0,.95.61,1.51,1.85,1.55A3.24,3.24,0,0,0,18.27,30.28Z"/><path class="e89351e8-3fca-4e95-86a9-22faf99ab002" d="M27.17,29.68l.76-21.52,7.12.25-.76,21.77c0,1.41.59,1.85,1.09,1.86a2.52,2.52,0,0,0,.75-.05l.64,5.24a8.76,8.76,0,0,1-3.49.46C28.47,37.52,27,34.32,27.17,29.68Z"/><path class="e89351e8-3fca-4e95-86a9-22faf99ab002" d="M37.56,30.05l.76-21.53,7.12.25-.77,21.78c-.05,1.41.6,1.84,1.1,1.86a2.59,2.59,0,0,0,.75-.06l.64,5.25a9,9,0,0,1-3.5.46C38.86,37.89,37.4,34.69,37.56,30.05Z"/><path class="e89351e8-3fca-4e95-86a9-22faf99ab002" d="M50.06,35.15,50.85,33,50,32.73l.58-1.57,1,.27.83-1.5,1.74.65-.59,1.59,1.39.51-.61,1.64L53,33.81l-.78,2.09c-.25.67,0,1,.4,1.16a1.81,1.81,0,0,0,.58.1L52.9,38.8a4.93,4.93,0,0,1-1.52-.32C49.79,37.89,49.5,36.64,50.06,35.15Z"/><path class="e89351e8-3fca-4e95-86a9-22faf99ab002" d="M56.44,30.5l2.11.78-.74,2-.49,1a2.93,2.93,0,0,1,2.13-.1c1.34.5,1.54,1.68,1,3.2L59,41.14l-2.1-.78,1.3-3.49c.29-.79.16-1-.25-1.21a1.39,1.39,0,0,0-1.1.12l-1.49,4L53.29,39Z"/><path class="e89351e8-3fca-4e95-86a9-22faf99ab002" d="M60.55,38.23a3.24,3.24,0,1,1,1.84,4.33A3.23,3.23,0,0,1,60.55,38.23Zm3.91,1.45c.34-.93.32-1.61-.32-1.84S63,38.1,62.7,39s-.32,1.6.32,1.84S64.11,40.61,64.46,39.68Z"/><path class="e89351e8-3fca-4e95-86a9-22faf99ab002" d="M66.78,41.31l1.4-3.77,2.1.78L69,41.82c-.29.78-.17,1,.25,1.2a1,1,0,0,0,1.08-.21l1.46-3.93,2.1.78L71.6,45.77l-1.71-.64.16-.86,0,0a2.46,2.46,0,0,1-2.24.26C66.42,44,66.22,42.82,66.78,41.31Z"/><path class="e89351e8-3fca-4e95-86a9-22faf99ab002" d="M71.54,46.89A1.4,1.4,0,0,1,72.83,46l0,0a1.28,1.28,0,0,1-.17-1.26,1.59,1.59,0,0,1,1.11-.9l0,0a2,2,0,0,1-.25-1.87c.56-1.51,2.09-1.75,3.44-1.25a3,3,0,0,1,.92.51L80.2,42l-.57,1.52-.88-.33a1.91,1.91,0,0,1-.14.67c-.53,1.44-1.85,1.62-3.22,1.11a2.93,2.93,0,0,1-.65-.34.44.44,0,0,0-.28.3c-.1.27.11.46.72.69l.92.34c1.53.57,2.23,1.36,1.82,2.48-.49,1.32-2.2,1.72-4.37.91C72.15,48.84,71.13,48,71.54,46.89Zm4.24,1.18c.11-.31-.16-.47-.69-.67l-.47-.17a3.71,3.71,0,0,1-.86-.4.59.59,0,0,0-.38.36c-.15.39.28.74,1,1S75.65,48.42,75.78,48.07Zm1-4.94c.21-.57,0-.93-.35-1.08s-.76,0-1,.59-.05,1,.35,1.1S76.62,43.71,76.83,43.13Z"/><path class="e89351e8-3fca-4e95-86a9-22faf99ab002" d="M81.57,39.8l2.1.79-.74,2-.48,1a2.9,2.9,0,0,1,2.12-.1c1.34.5,1.54,1.68,1,3.2l-1.4,3.76-2.1-.78,1.3-3.49c.29-.78.17-1.05-.25-1.21a1.4,1.4,0,0,0-1.1.12l-1.49,4-2.1-.78Z"/><path class="e89351e8-3fca-4e95-86a9-22faf99ab002" d="M86.09,48.48l.79-2.13-.81-.29.58-1.57,1,.27.84-1.5,1.73.65-.59,1.59L91,46l-.6,1.64L89,47.14l-.77,2.09c-.25.67,0,1,.4,1.16a1.76,1.76,0,0,0,.57.1l-.24,1.64a5,5,0,0,1-1.53-.32C85.83,51.22,85.54,50,86.09,48.48Z"/><path class="e89351e8-3fca-4e95-86a9-22faf99ab002" d="M89.21,51.5l1.41-1a2.75,2.75,0,0,0,1.26,1.16c.44.17.66.11.75-.14s-.39-.67-.91-1.14a2.17,2.17,0,0,1-.85-2.37c.45-1.2,1.72-1.62,3.16-1.09a3.89,3.89,0,0,1,2,1.65l-1.39.9a2.48,2.48,0,0,0-1.06-1c-.36-.13-.57-.1-.67.14s.35.64.88,1.08a2.1,2.1,0,0,1,.89,2.42c-.43,1.15-1.66,1.69-3.37,1A4.31,4.31,0,0,1,89.21,51.5Z"/><path class="e89351e8-3fca-4e95-86a9-22faf99ab002" d="M40,45.23a6.67,6.67,0,0,1,8.93-4,5.78,5.78,0,0,1,3.11,2.6l-3,2a2.15,2.15,0,0,0-1.15-1.09c-1.57-.58-2.93.25-3.62,2.11s-.09,3.42,1.23,3.91a3.69,3.69,0,0,0,2.25-.06L48.4,54a6.6,6.6,0,0,1-4.59-.08C40.33,52.64,38.5,49.3,40,45.23Z"/><path class="e89351e8-3fca-4e95-86a9-22faf99ab002" d="M49.47,48.73a6.49,6.49,0,1,1,12.15,4.49,6.49,6.49,0,1,1-12.15-4.49Zm7.84,2.9c.68-1.86.63-3.22-.65-3.69s-2.19.52-2.88,2.38-.63,3.22.64,3.69S56.62,53.49,57.31,51.63Z"/><path class="e89351e8-3fca-4e95-86a9-22faf99ab002" d="M64.58,47.35,68,48.61l-.25,1.61.09,0a5.39,5.39,0,0,1,4.34-.43A3.7,3.7,0,0,1,74.85,53a5.51,5.51,0,0,1,4.49-.57c2.7,1,3.15,3.39,2,6.43l-2.79,7.55-4.21-1.56,2.59-7c.58-1.56.33-2.1-.51-2.41a2.79,2.79,0,0,0-2,.3l-3,8-4.22-1.55,2.59-7c.58-1.57.33-2.1-.5-2.41a2.81,2.81,0,0,0-2.06.3l-3,8L60.06,59.6Z"/><path class="e89351e8-3fca-4e95-86a9-22faf99ab002" d="M81.56,60.59c1.46-4,5.26-5.36,8.25-4.25,3.63,1.34,4.36,4.62,3.15,7.9a9.7,9.7,0,0,1-.82,1.7l-7-2.58a2.74,2.74,0,0,0,2.11,3,5.39,5.39,0,0,0,2.77.19l.45,3a8.69,8.69,0,0,1-5-.22A6.41,6.41,0,0,1,81.56,60.59Zm8.19,1.35a1.65,1.65,0,0,0-1-2.38,2.07,2.07,0,0,0-2.61,1Z"/></svg>