<?xml version="1.0" encoding="UTF-8"?>
<svg width="100px" height="100px" viewBox="0 0 100 100" version="1.1" xmlns="http://www.w3.org/2000/svg" xmlns:xlink="http://www.w3.org/1999/xlink">
    <!-- Generator: Sketch 64 (93537) - https://sketch.com -->
    <title>Fear</title>
    <desc>Created with Sketch.</desc>
    <g id="Fear" stroke="none" stroke-width="1" fill="none" fill-rule="evenodd">
        <rect fill="#FFCDB9" x="0" y="0" width="100" height="100"></rect>
        <path d="M10.2766949,63.4991376 L10.2766949,53.4302226 L19.4148698,53.4302226 L19.4148698,47.338106 L10.2766949,47.338106 L10.2766949,42.0921166 L20.937899,42.0921166 L20.937899,36 L3,36 L3,63.4991376 L10.2766949,63.4991376 Z M43.8679491,63.4991376 L43.8679491,57.407021 L32.9529068,57.407021 L32.9529068,52.4994826 L41.9218563,52.4994826 L41.9218563,46.4073659 L32.9529068,46.4073659 L32.9529068,42.0921166 L43.4448855,42.0921166 L43.4448855,36 L25.6762119,36 L25.6762119,63.4991376 L43.8679491,63.4991376 Z M53.1753496,63.4991376 L54.5291533,57.6608592 L62.2289118,57.6608592 L63.5827155,63.4991376 L71.282474,63.4991376 L62.9058137,36 L54.1060896,36 L45.7294292,63.4991376 L53.1753496,63.4991376 Z M60.9174145,52.0341126 L55.8406506,52.0341126 L56.3060206,50.1303261 C56.9829225,47.5073314 57.6598243,44.2074349 58.2521134,41.4152148 L58.4213389,41.4152148 C59.0982408,44.1651286 59.7751426,47.5073314 60.4520445,50.1303261 L60.9174145,52.0341126 Z M81.1821636,63.4991376 L81.1821636,54.2763499 L83.9743837,54.2763499 L88.7126967,63.4991376 L96.8355189,63.4991376 L90.8703213,52.8379335 C93.5356223,51.3995171 95.3124897,48.8188288 95.3124897,44.8843368 C95.3124897,38.0307055 90.2357258,36 84.3128346,36 L73.9054687,36 L73.9054687,63.4991376 L81.1821636,63.4991376 Z M83.8051583,48.5226842 L81.1821636,48.5226842 L81.1821636,41.7536657 L83.8051583,41.7536657 C86.6819911,41.7536657 88.2050203,42.5151803 88.2050203,44.8843368 C88.2050203,47.2534932 86.6819911,48.5226842 83.8051583,48.5226842 Z" id="FEAR" fill="#86244F" fill-rule="nonzero"></path>
        <path d="M10.2766949,96.4991376 L10.2766949,86.4302226 L19.4148698,86.4302226 L19.4148698,80.338106 L10.2766949,80.338106 L10.2766949,75.0921166 L20.937899,75.0921166 L20.937899,69 L3,69 L3,96.4991376 L10.2766949,96.4991376 Z M43.8679491,96.4991376 L43.8679491,90.407021 L32.9529068,90.407021 L32.9529068,85.4994826 L41.9218563,85.4994826 L41.9218563,79.4073659 L32.9529068,79.4073659 L32.9529068,75.0921166 L43.4448855,75.0921166 L43.4448855,69 L25.6762119,69 L25.6762119,96.4991376 L43.8679491,96.4991376 Z M53.1753496,96.4991376 L54.5291533,90.6608592 L62.2289118,90.6608592 L63.5827155,96.4991376 L71.282474,96.4991376 L62.9058137,69 L54.1060896,69 L45.7294292,96.4991376 L53.1753496,96.4991376 Z M60.9174145,85.0341126 L55.8406506,85.0341126 L56.3060206,83.1303261 C56.9829225,80.5073314 57.6598243,77.2074349 58.2521134,74.4152148 L58.4213389,74.4152148 C59.0982408,77.1651286 59.7751426,80.5073314 60.4520445,83.1303261 L60.9174145,85.0341126 Z M81.1821636,96.4991376 L81.1821636,87.2763499 L83.9743837,87.2763499 L88.7126967,96.4991376 L96.8355189,96.4991376 L90.8703213,85.8379335 C93.5356223,84.3995171 95.3124897,81.8188288 95.3124897,77.8843368 C95.3124897,71.0307055 90.2357258,69 84.3128346,69 L73.9054687,69 L73.9054687,96.4991376 L81.1821636,96.4991376 Z M83.8051583,81.5226842 L81.1821636,81.5226842 L81.1821636,74.7536657 L83.8051583,74.7536657 C86.6819911,74.7536657 88.2050203,75.5151803 88.2050203,77.8843368 C88.2050203,80.2534932 86.6819911,81.5226842 83.8051583,81.5226842 Z" id="FEAR" fill="#86244F" fill-rule="nonzero" transform="translate(49.917759, 82.749569) rotate(-180.000000) translate(-49.917759, -82.749569) "></path>
        <path d="M10.2766949,30.4991376 L10.2766949,20.4302226 L19.4148698,20.4302226 L19.4148698,14.338106 L10.2766949,14.338106 L10.2766949,9.09211664 L20.937899,9.09211664 L20.937899,3 L3,3 L3,30.4991376 L10.2766949,30.4991376 Z M43.8679491,30.4991376 L43.8679491,24.407021 L32.9529068,24.407021 L32.9529068,19.4994826 L41.9218563,19.4994826 L41.9218563,13.4073659 L32.9529068,13.4073659 L32.9529068,9.09211664 L43.4448855,9.09211664 L43.4448855,3 L25.6762119,3 L25.6762119,30.4991376 L43.8679491,30.4991376 Z M53.1753496,30.4991376 L54.5291533,24.6608592 L62.2289118,24.6608592 L63.5827155,30.4991376 L71.282474,30.4991376 L62.9058137,3 L54.1060896,3 L45.7294292,30.4991376 L53.1753496,30.4991376 Z M60.9174145,19.0341126 L55.8406506,19.0341126 L56.3060206,17.1303261 C56.9829225,14.5073314 57.6598243,11.2074349 58.2521134,8.41521479 L58.4213389,8.41521479 C59.0982408,11.1651286 59.7751426,14.5073314 60.4520445,17.1303261 L60.9174145,19.0341126 Z M81.1821636,30.4991376 L81.1821636,21.2763499 L83.9743837,21.2763499 L88.7126967,30.4991376 L96.8355189,30.4991376 L90.8703213,19.8379335 C93.5356223,18.3995171 95.3124897,15.8188288 95.3124897,11.8843368 C95.3124897,5.03070555 90.2357258,3 84.3128346,3 L73.9054687,3 L73.9054687,30.4991376 L81.1821636,30.4991376 Z M83.8051583,15.5226842 L81.1821636,15.5226842 L81.1821636,8.75366572 L83.8051583,8.75366572 C86.6819911,8.75366572 88.2050203,9.5151803 88.2050203,11.8843368 C88.2050203,14.2534932 86.6819911,15.5226842 83.8051583,15.5226842 Z" id="FEAR" fill="#86244F" fill-rule="nonzero" transform="translate(49.917759, 16.749569) rotate(-180.000000) translate(-49.917759, -16.749569) "></path>
        <polygon id="Fill-3" fill="#FFFFFF" points="1 49.8095703 1 45 98.3632812 45 98.3632812 54.6191406 1 54.6191406"></polygon>
    </g>
</svg>