<?xml version="1.0" encoding="UTF-8"?>
<svg width="2048px" height="2048px" viewBox="0 0 2048 2048" version="1.1" xmlns="http://www.w3.org/2000/svg" xmlns:xlink="http://www.w3.org/1999/xlink">
    <!-- Generator: Sketch 64 (93537) - https://sketch.com -->
    <title>be-here-now-transparent</title>
    <desc>Created with Sketch.</desc>
    <g id="be-here-now-transparent" stroke="none" stroke-width="1" fill="none" fill-rule="evenodd">
        <g id="Group-3" transform="translate(332.000000, 146.000000)" fill="#FFFFFF" fill-rule="nonzero">
            <g id="NOW" transform="translate(0.000000, 1279.000000)">
                <path d="M115.856061,470 L115.856061,336.664615 C115.856061,279.926154 105.965909,213.258462 100.314394,160.775385 L103.140152,160.775385 L146.939394,263.613846 L248.666667,470 L373,470 L373,9 L257.143939,9 L257.143939,142.335385 C257.143939,199.073846 267.034091,268.578462 272.685606,318.224615 L269.859848,318.224615 L226.060606,214.676923 L124.333333,9 L0,9 L0,470 L115.856061,470 Z" id="Path"></path>
                <path d="M610.5,1.13686838e-13 C737.751656,1.13686838e-13 824,85.8130564 824,236.872404 C824,388.64095 737.751656,478 610.5,478 C483.248344,478 397,388.64095 397,236.872404 C397,85.1038576 483.248344,1.13686838e-13 610.5,1.13686838e-13 Z M610.5,105.267416 C555.375209,105.267416 521.452261,153.576078 521.452261,237.405814 C521.452261,321.235551 555.375209,373.806742 610.5,373.806742 C665.624791,373.806742 699.547739,321.235551 699.547739,237.405814 C699.547739,153.576078 665.624791,105.267416 610.5,105.267416 Z" id="Combined-Shape"></path>
                <path d="M1047.12935,470 L1081.0995,287.018462 C1088.17662,251.556923 1093.1306,213.258462 1098.08458,179.215385 L1100.91542,179.215385 C1105.16169,213.258462 1110.82338,251.556923 1117.9005,287.018462 L1153.28607,470 L1307.56716,470 L1384,9 L1267.93532,9 L1242.45771,210.421538 C1237.50373,257.230769 1231.84204,306.167692 1226.88806,355.104615 L1224.05721,355.104615 C1215.56468,306.167692 1207.07214,256.521538 1198.5796,210.421538 L1154.70149,9 L1052.79104,9 L1008.91294,210.421538 C1000.4204,257.94 991.927861,306.876923 983.435323,355.104615 L980.604478,355.104615 C975.650498,306.876923 969.988806,258.649231 965.034826,210.421538 L939.557214,9 L815,9 L895.679104,470 L1047.12935,470 Z" id="Path"></path>
            </g>
            <g id="Group-2">
                <g id="HERE" transform="translate(662.000000, 0.000000)">
                    <path d="M407.279476,827 C495.681223,827 609.340611,795.435115 694.585153,735.461832 L606.183406,574.480916 C549.353712,606.045802 498.838428,621.828244 445.165939,621.828244 C356.764192,621.828244 287.305677,590.263359 262.048035,495.568702 L711.949782,495.568702 C716.68559,476.629771 723,429.282443 723,381.935115 C723,170.450382 612.497817,0 378.864629,0 C186.275109,0 0,157.824427 0,413.5 C0,675.48855 176.803493,827 407.279476,827 Z M492,318 L259,318 C274.743243,239.527778 325.121622,205 384.945946,205 C466.810811,205 492,258.361111 492,318 Z" id="e"></path>
                </g>
                <g id="BE">
                    <path d="M297.317647,0 C470.117647,0 609.882353,43.2584615 609.882353,206.113846 C609.882353,276.650585 570.03264,357.163233 507.593121,383.45681 L505.694118,384.236923 L505.694118,389.326154 C584.470588,412.227692 648,473.298462 648,582.716923 C648,751.501262 503.544791,825.514454 328.056617,826.977839 L322.729412,827 L-1.70530257e-13,827 L-1.70530257e-13,0 L297.317647,0 Z M306.941176,484 L218,484 L218,660 L306.941176,660 C393.341176,660 434,629.391304 434,568.173913 C434,506.956522 393.341176,484 306.941176,484 L306.941176,484 Z M291.775427,168.235429 L218.204082,168.235429 L218.204082,323.238857 L291.775427,323.238857 C362.809829,323.238857 395.790087,290.20534 395.790087,239.384543 C395.790087,188.563747 362.809829,168.235429 291.775427,168.235429 Z" id="Combined-Shape"></path>
                </g>
            </g>
            <g id="Group" transform="translate(0.000000, 858.000000)">
                <polygon id="Path" points="104.862454 396 104.862454 238.818462 223.137546 238.818462 223.137546 396 328 396 328 0 223.137546 0 223.137546 147.433846 104.862454 147.433846 104.862454 0 0 0 0 396"></polygon>
                <path d="M868.454545,0 C953.730627,0 1027.01476,29.2430769 1027.37216,127.620853 C1027.01476,184.596923 1001.36531,221.76 962.488636,242.104265 L962.488636,242.104265 L1049,396 L931.457386,396 L863.752841,262.748815 L823.318182,262.748815 L823.318182,396 L718,396 L718,0 Z M852.46875,82.5781991 L814.855114,82.5781991 L814.855114,180.170616 L852.46875,180.170616 C894.387562,180.170616 916.411932,161.872038 916.411932,127.620853 C916.411932,93.557346 894.387562,82.5781991 852.46875,82.5781991 L852.46875,82.5781991 Z" id="Combined-Shape"></path>
                <path d="M544.908297,396 C587.213974,396 641.606987,380.885496 682.401747,352.167939 L640.09607,275.083969 C612.899563,290.198473 588.724891,297.755725 563.039301,297.755725 C520.733624,297.755725 487.49345,282.641221 475.406114,237.29771 L690.71179,237.29771 C692.978166,228.229008 696,205.557252 696,182.885496 C696,81.6183206 643.117904,0 531.310044,0 C439.144105,0 350,75.5725191 350,198 C350,323.450382 434.611354,396 544.908297,396 Z M585.826316,152.027586 L473.831579,152.027586 C481.398791,114.728736 505.613869,98.3172414 534.369275,98.3172414 C573.718777,98.3172414 585.826316,123.68046 585.826316,152.027586 Z" id="e"></path>
                <path d="M1233.9083,396 C1276.21397,396 1330.60699,380.885496 1371.40175,352.167939 L1329.09607,275.083969 C1301.89956,290.198473 1277.72489,297.755725 1252.0393,297.755725 C1209.73362,297.755725 1176.49345,282.641221 1164.40611,237.29771 L1379.71179,237.29771 C1381.97817,228.229008 1385,205.557252 1385,182.885496 C1385,81.6183206 1332.1179,0 1220.31004,0 C1128.1441,0 1039,75.5725191 1039,198 C1039,323.450382 1123.61135,396 1233.9083,396 Z M1274.82632,152.027586 L1162.83158,152.027586 C1170.39879,114.728736 1194.61387,98.3172414 1223.36927,98.3172414 C1262.71878,98.3172414 1274.82632,123.68046 1274.82632,152.027586 Z" id="e-copy"></path>
            </g>
        </g>
    </g>
</svg>