<svg id="e61d9144-e3c2-4d0d-bd11-16284c74763c" data-name="Layer 1" xmlns="http://www.w3.org/2000/svg" viewBox="0 0 100 100"><defs><style>.e0339e07-2127-4d45-aaef-387804055bb9{fill:#fff;}.aa890528-c260-46fa-8b8a-f23d1010f155{fill:#0b0826;fill-rule:evenodd;}.adb74b1a-8e99-473d-ab88-57551a988441{fill:#ffa4d9;}.fc3e242c-48a5-4539-b090-496e0d4de39d{fill:#63feff;}</style></defs><title>42_checklessreducestress</title><rect class="e0339e07-2127-4d45-aaef-387804055bb9" width="100" height="100"/><polygon class="aa890528-c260-46fa-8b8a-f23d1010f155" points="0 50 0 0 100 0 100 100 0 100 0 50"/><path class="e0339e07-2127-4d45-aaef-387804055bb9" d="M19.38,71.61l-.16-1,1-.38c-.06-.49-.14-1-.22-1.58l-.22-1.48-.19-1.3-.15-.93c0-.23-.08-.45-.12-.65s-.08-.43-.14-.7l-1.14,0-.13-.85,4.35-2.11.41.17.52,2.36a4,4,0,0,1,.9-2.14,2.36,2.36,0,0,1,1.42-.87,2,2,0,0,1,1.36.25,2,2,0,0,1,.83,1.3,1.9,1.9,0,0,1-.3,1.37,1.48,1.48,0,0,1-1,.62,2.19,2.19,0,0,1-1.91-.88l-.12-.13a6,6,0,0,0-.58,1.19,4.54,4.54,0,0,0-.28,1.43l.2,1.31.21,1.4q.12.81.24,1.53l1.67.11.16,1Z"/><path class="e0339e07-2127-4d45-aaef-387804055bb9" d="M32.77,59a4.61,4.61,0,0,1,2.56.24,3.9,3.9,0,0,1,1.72,1.41,5.05,5.05,0,0,1,.84,2.21c0,.22.06.41.07.57A5,5,0,0,1,38,64l-5.74.86a3.44,3.44,0,0,0,1.22,2.05,2.36,2.36,0,0,0,1.75.44,3.14,3.14,0,0,0,1.31-.48,4,4,0,0,0,.9-.84l.92.66a4.11,4.11,0,0,1-1.53,2.11,6.43,6.43,0,0,1-5.45.75A4.9,4.9,0,0,1,29.15,68,5.77,5.77,0,0,1,28,65.15a5.45,5.45,0,0,1,.13-2.41,4.94,4.94,0,0,1,1-1.85,5.52,5.52,0,0,1,1.65-1.27A6.36,6.36,0,0,1,32.77,59Zm-.08,1.15c-.31,0-.55.32-.7.82a7.56,7.56,0,0,0,0,2.68l1-.14a1.35,1.35,0,0,0,1-.45,1.78,1.78,0,0,0,.1-1.12,2.62,2.62,0,0,0-.55-1.46A.92.92,0,0,0,32.69,60.14Z"/><path class="e0339e07-2127-4d45-aaef-387804055bb9" d="M50.71,66.94l-4.35.9L46,66.75a3.93,3.93,0,0,1-2.71,1.63,3.87,3.87,0,0,1-2.16-.28,4,4,0,0,1-1.74-1.54,6.88,6.88,0,0,1-1-2.84,6,6,0,0,1,.24-3,4.91,4.91,0,0,1,1.47-2.13,4.21,4.21,0,0,1,2.08-1,3.53,3.53,0,0,1,1.43,0,3.3,3.3,0,0,1,1.13.55l-.51-3.39H42.91l-.14-.93,4.7-1.65.38.17.35,2.89,1.58,10.56.77.07Zm-8.12-3.88a4.7,4.7,0,0,0,.87,2.34,1.54,1.54,0,0,0,1.47.64,1.63,1.63,0,0,0,.82-.35l-.94-6.28a1.49,1.49,0,0,0-.79-.07,1.63,1.63,0,0,0-1.27,1.06A4.83,4.83,0,0,0,42.59,63.06Z"/><path class="e0339e07-2127-4d45-aaef-387804055bb9" d="M62.63,65.18l-4.76.94-.33-1.62A4.69,4.69,0,0,1,56.31,66a3.63,3.63,0,0,1-1.73.73,3.06,3.06,0,0,1-2.33-.51A4,4,0,0,1,51,63.43l-.66-5-1.11-.08-.14-.93L53.67,56l.41.18.33,2.94L55,62.94A1.76,1.76,0,0,0,55.41,64a.81.81,0,0,0,.7.21,1.34,1.34,0,0,0,.62-.31,4.3,4.3,0,0,0,.59-.61l-.78-5.82-1-.08-.12-.83,4.44-1.51.41.18.37,2.94.88,5.89,1,.06Z"/><path class="e0339e07-2127-4d45-aaef-387804055bb9" d="M67.12,55a1.86,1.86,0,0,0-1,.51,2.85,2.85,0,0,0-.71,1.33,5.91,5.91,0,0,0,0,2.32,4.12,4.12,0,0,0,1.13,2.52,2.43,2.43,0,0,0,2.11.63,2.35,2.35,0,0,0,1.13-.46,4.66,4.66,0,0,0,.83-.83l.92.67A4.2,4.2,0,0,1,70,63.8a5.75,5.75,0,0,1-2.52,1,6,6,0,0,1-2.71-.19,4.93,4.93,0,0,1-2.24-1.48,5.47,5.47,0,0,1-1.2-2.86,5.34,5.34,0,0,1,.35-3A5.17,5.17,0,0,1,63.58,55,7,7,0,0,1,66.48,54a4.37,4.37,0,0,1,2.09.13,3.6,3.6,0,0,1,1.54.94,2.88,2.88,0,0,1,.78,1.48,1.55,1.55,0,0,1-1.39,1.43,1.72,1.72,0,0,1-1.25-.32,2.72,2.72,0,0,1-.88-1.77L67.2,55Z"/><path class="e0339e07-2127-4d45-aaef-387804055bb9" d="M76.14,52.51a4.81,4.81,0,0,1,2.56.24,3.86,3.86,0,0,1,1.72,1.42,5.31,5.31,0,0,1,.84,2.21q0,.33.06.57a4.85,4.85,0,0,1,0,.54l-5.75.85A3.43,3.43,0,0,0,76.8,60.4a2.39,2.39,0,0,0,1.74.44,3,3,0,0,0,1.32-.49,4,4,0,0,0,.9-.84l.92.67a4.27,4.27,0,0,1-1.53,2.11,6,6,0,0,1-2.59,1A5.9,5.9,0,0,1,74.7,63a4.82,4.82,0,0,1-2.19-1.57,5.82,5.82,0,0,1-1.13-2.8,5.27,5.27,0,0,1,.13-2.4,4.85,4.85,0,0,1,1-1.86,5.69,5.69,0,0,1,1.65-1.27A6.27,6.27,0,0,1,76.14,52.51Zm-.08,1.16c-.32,0-.55.32-.7.82a7.31,7.31,0,0,0,0,2.68l1-.15a1.3,1.3,0,0,0,1-.45,1.72,1.72,0,0,0,.09-1.12A2.66,2.66,0,0,0,76.86,54,.9.9,0,0,0,76.06,53.67Z"/><path class="adb74b1a-8e99-473d-ab88-57551a988441" d="M32.94,78.82,33.5,80c-1.56,2.33-4.45,5.93-7,6.31-2.15.33-4.76-.41-5.8-2.62a1.09,1.09,0,0,1-.61.55.62.62,0,0,1-.67-.5c-.08-.41.34-1,.55-1.27l5.65-7.72A2,2,0,0,1,27,72.28c1-.19,1.21.06,1.48.93a30.82,30.82,0,0,1,1.35,3.58c.52,2.62-1.2,5-3,6.63,2.11,0,3.16-1.26,4.49-2.75ZM22.23,81.65c1.19-.17,2.09.68,2.86,1.39,1.68-1.56,2.08-2.21,1.81-4.08-.23-.65-.53-1.48-.94-2.53Z"/><path class="adb74b1a-8e99-473d-ab88-57551a988441" d="M41.78,68.93c-.9,3.33-.92,4.56-4.47,5-.8,1.62-2.1,4.6-1.72,6.51.14.7.45,1.07,1.18.92,1-.2,2-1.39,4.83-4.41L42,78.36c-1.53,2.1-4.3,6.2-7,6.74a2,2,0,0,1-2.43-1.73A8.62,8.62,0,0,1,32.78,80L32.7,80l-1.36,1.63-.59-1.14a18.56,18.56,0,0,0,3.82-6.07,12,12,0,0,0-3,.73l.24-.64c1.16-3.15,1.31-3.71,4.7-4.52.69-1.5,1.1-3.14,3-3.51.41-.08,1-.11,1.14.41s-.6,1.81-.83,2.32Z"/><path class="adb74b1a-8e99-473d-ab88-57551a988441" d="M42.51,75.42c-.77,2-1.94,3.07-3,4.72l-.41-1.38A11.31,11.31,0,0,0,40.7,76c-.68.07-.92-.15-1.06-.82C39.19,72.9,42,70,42.75,69.8a.58.58,0,0,1,.68.43,2.24,2.24,0,0,1,0,.93c2.92-1,4.6-1.74,5-1.42a3.18,3.18,0,0,1,1.1,1.53c.2,1-.31,1.59-.92,2.34-.77,1-2,2.86-1.76,4.14a1,1,0,0,0,1.16.69c1.37-.27,3-2.75,3.86-3.75l.46,1.13c-.94,1.62-3.9,5.89-5.71,6.25a2.36,2.36,0,0,1-2.66-2c-.44-2.17.88-4.19,1.85-6l-.07,0Z"/><path class="adb74b1a-8e99-473d-ab88-57551a988441" d="M62.62,73.66c-1.5,2.65-4.41,6.35-7.56,7-2.33.46-3.83-1.39-4.31-3.48-1-4.16,2.81-9.35,7-10.15,1-.2,2.35-.2,2.6,1.07.31,1.57-.78,4.24-6.5,7.47l.07.71c.15,1.23,1.29,1.44,2.31,1.24,2.26-.46,4.47-3.32,5.9-5Zm-5-4.35c0-.22-.24-.38-.46-.27A7.13,7.13,0,0,0,53.69,74C56.3,72.43,57.78,69.85,57.64,69.31Z"/><path class="adb74b1a-8e99-473d-ab88-57551a988441" d="M72.1,71l.56,1.15c-1.56,2.33-4.45,5.93-7,6.31-2.15.33-4.76-.41-5.79-2.62-.16.23-.34.5-.62.55a.61.61,0,0,1-.67-.49c-.08-.42.34-1,.55-1.27l5.65-7.73a2,2,0,0,1,1.4-2.44c1-.19,1.21.06,1.48.93A30.82,30.82,0,0,1,69,69c.52,2.62-1.2,5-3,6.63,2.11,0,3.16-1.26,4.49-2.75ZM61.39,73.84c1.19-.18,2.09.67,2.86,1.38,1.68-1.56,2.08-2.2,1.81-4.07-.23-.65-.53-1.49-.94-2.54Z"/><path class="adb74b1a-8e99-473d-ab88-57551a988441" d="M82.53,68.92l.56,1.15c-1.56,2.33-4.45,5.93-7,6.31-2.16.33-4.76-.41-5.8-2.62a1.08,1.08,0,0,1-.62.55.6.6,0,0,1-.66-.5c-.08-.41.34-1,.54-1.27l5.66-7.72a2,2,0,0,1,1.4-2.44c1-.19,1.21.06,1.48.93a30.84,30.84,0,0,1,1.34,3.58c.53,2.62-1.19,5-3,6.63,2.11,0,3.16-1.26,4.49-2.75ZM71.82,71.75c1.19-.17,2.09.68,2.86,1.39,1.68-1.56,2.08-2.21,1.81-4.07-.23-.66-.53-1.49-.94-2.54Z"/><path class="e0339e07-2127-4d45-aaef-387804055bb9" d="M28.48,19.93a1.8,1.8,0,0,0-.95.5,2.72,2.72,0,0,0-.72,1.33,6,6,0,0,0,0,2.31,4.17,4.17,0,0,0,1.11,2.54,2.41,2.41,0,0,0,2.1.64,2.34,2.34,0,0,0,1.14-.45A4.65,4.65,0,0,0,32,26l.91.67a4.25,4.25,0,0,1-1.53,2.1,5.82,5.82,0,0,1-2.53.94,6,6,0,0,1-2.71-.21A4.92,4.92,0,0,1,23.87,28a5.56,5.56,0,0,1-1.17-2.88,5.3,5.3,0,0,1,.37-3,5.1,5.1,0,0,1,1.87-2.15,7.24,7.24,0,0,1,2.91-1.05,4.49,4.49,0,0,1,2.09.15,3.62,3.62,0,0,1,1.54.95,3,3,0,0,1,.77,1.48,1.58,1.58,0,0,1-1.41,1.43,1.74,1.74,0,0,1-1.25-.33,2.74,2.74,0,0,1-.86-1.78l-.16-.86Z"/><path class="e0339e07-2127-4d45-aaef-387804055bb9" d="M33.56,24.25l-1.21-8.5-1.14-.05-.14-.93,4.59-1.6.38.18.33,2.89.43,3a5.06,5.06,0,0,1,1.33-1.52,3.68,3.68,0,0,1,1.52-.55,3.17,3.17,0,0,1,2.41.55,3.51,3.51,0,0,1,1.26,2.45l.37,2.61.21,1.51c.08.56.17,1.09.25,1.59l.9.06L45.2,27l-5.73.81-.15-1.06.86-.33c-.06-.5-.13-1-.21-1.6l-.21-1.48L39.43,21a2.81,2.81,0,0,0-.34-1.16.73.73,0,0,0-.74-.23,1.54,1.54,0,0,0-.65.29,3.63,3.63,0,0,0-.65.65l.44,3.11.21,1.5c.08.57.16,1.11.25,1.62l.81.05.15,1.06-5.71.8-.15-1.05.92-.36q-.09-.75-.21-1.59C33.69,25.17,33.62,24.68,33.56,24.25Z"/><path class="e0339e07-2127-4d45-aaef-387804055bb9" d="M48.94,15.89a4.69,4.69,0,0,1,2.56.26,3.86,3.86,0,0,1,1.71,1.43A5.16,5.16,0,0,1,54,19.79c0,.22,0,.42.06.58a3.18,3.18,0,0,1,0,.53l-5.75.82a3.46,3.46,0,0,0,1.21,2.06,2.37,2.37,0,0,0,1.75.45,3,3,0,0,0,1.31-.47,4.27,4.27,0,0,0,.91-.83l.91.67a4.16,4.16,0,0,1-1.55,2.1,5.9,5.9,0,0,1-2.59.95,5.72,5.72,0,0,1-2.85-.25,4.76,4.76,0,0,1-2.18-1.58A5.75,5.75,0,0,1,44.14,22a5.44,5.44,0,0,1,.14-2.41,4.81,4.81,0,0,1,1-1.84A5.26,5.26,0,0,1,47,16.51,6.33,6.33,0,0,1,48.94,15.89Zm-.09,1.16c-.31,0-.55.31-.7.81a7.19,7.19,0,0,0,0,2.68l1-.14a1.27,1.27,0,0,0,1-.44,1.7,1.7,0,0,0,.1-1.12,2.59,2.59,0,0,0-.53-1.46A.91.91,0,0,0,48.85,17.05Z"/><path class="e0339e07-2127-4d45-aaef-387804055bb9" d="M60.32,15.42a1.86,1.86,0,0,0-1,.51,2.68,2.68,0,0,0-.72,1.32,5.84,5.84,0,0,0,0,2.32,4.2,4.2,0,0,0,1.1,2.53,2.65,2.65,0,0,0,3.25.2,5,5,0,0,0,.83-.83l.92.67a4.17,4.17,0,0,1-1.54,2.1,5.74,5.74,0,0,1-2.52,1A6,6,0,0,1,57.94,25a4.84,4.84,0,0,1-2.23-1.49,5.5,5.5,0,0,1-1.18-2.87,5.32,5.32,0,0,1,.38-3,5.08,5.08,0,0,1,1.87-2.14,7,7,0,0,1,2.91-1.06,4.45,4.45,0,0,1,2.08.15,3.76,3.76,0,0,1,1.54,1A2.94,2.94,0,0,1,64.08,17a1.56,1.56,0,0,1-1.4,1.42,1.73,1.73,0,0,1-1.25-.33,2.67,2.67,0,0,1-.86-1.78l-.17-.86Z"/><path class="e0339e07-2127-4d45-aaef-387804055bb9" d="M63.11,10.24l4.64-1.61.39.18.32,2.89.85,6,2.83-3.57H70.75l-.14-1,4.84-.68.14,1L73.8,14l-1.44,1.72,3.57,5.57,1.36.17.14,1-4.79.68L70,18.57l-.47.55c.07.44.14,1,.22,1.54s.17,1.12.25,1.6l.91.06L71,23.38l-5.81.82-.15-1.05.92-.37c-.06-.51-.13-1.06-.21-1.64s-.15-1.06-.2-1.42l-1.21-8.5-1.14-.05Z"/><path class="fc3e242c-48a5-4539-b090-496e0d4de39d" d="M41.56,37.73c-1.3,2.22-3.5,6.13-6.22,6.78C33,45.07,32,43,31.53,41.08a16.11,16.11,0,0,1,1.21-10.26C34.69,26.71,37,23,38,22.8c.53-.13.84.6.91,1,.5,3.06.35,6-4.91,14.33a3.7,3.7,0,0,0,.31,2.24,1.79,1.79,0,0,0,1.9,1c1.74-.42,3.69-3,4.68-4.47ZM34,35.07A19.9,19.9,0,0,0,37.1,27c-1.36,1.14-2.48,4.42-3.18,8Z"/><path class="fc3e242c-48a5-4539-b090-496e0d4de39d" d="M51.7,35.25c-1.39,2.71-4.15,6.52-7.28,7.27-2.3.56-3.87-1.24-4.44-3.31-1.13-4.11,2.44-9.45,6.56-10.41,1-.24,2.33-.29,2.64,1,.37,1.55-.61,4.26-6.2,7.72l.1.71c.19,1.22,1.34,1.38,2.35,1.14,2.24-.54,4.34-3.49,5.7-5.22ZM46.56,31.1c-.06-.22-.26-.37-.47-.25a7.14,7.14,0,0,0-3.3,5C45.35,34.27,46.72,31.63,46.56,31.1Z"/><path class="fc3e242c-48a5-4539-b090-496e0d4de39d" d="M61.07,32.22l.61,1.13c-1.46,2.39-4.22,6.1-6.78,6.58-2.14.42-4.77-.22-5.89-2.39-.15.23-.31.51-.6.58a.62.62,0,0,1-.68-.47c-.1-.42.3-1,.49-1.29l5.35-7.95a2,2,0,0,1,1.3-2.49c1-.23,1.21,0,1.52.87a31.51,31.51,0,0,1,1.48,3.53c.63,2.59-1,5-2.72,6.74,2.11-.14,3.11-1.38,4.38-2.93ZM50.49,35.48c1.18-.22,2.11.59,2.91,1.27,1.62-1.63,2-2.29,1.64-4.15-.25-.64-.58-1.46-1-2.49Z"/><path class="fc3e242c-48a5-4539-b090-496e0d4de39d" d="M71.38,29.74,72,30.86c-1.47,2.4-4.22,6.1-6.78,6.59-2.14.41-4.77-.23-5.9-2.4a1.08,1.08,0,0,1-.59.58.59.59,0,0,1-.68-.47c-.1-.41.3-1,.49-1.29l5.34-7.94a2,2,0,0,1,1.31-2.49c.95-.23,1.21,0,1.51.87a30.54,30.54,0,0,1,1.49,3.52c.62,2.6-1,5-2.72,6.75,2.1-.14,3.11-1.39,4.37-2.93ZM60.79,33c1.19-.22,2.12.6,2.92,1.27,1.61-1.62,2-2.28,1.64-4.14-.25-.64-.59-1.46-1-2.49Z"/></svg>