<svg id="a30359f5-2fa6-4c2c-8c20-f46ebf9d23b2" data-name="Layer 1" xmlns="http://www.w3.org/2000/svg" viewBox="0 0 100 100"><defs><style>.a5e8c8c0-8bbc-49a5-8367-8269c936c5e2{fill:#f6d230;fill-rule:evenodd;}.a6c590a6-2e5f-4eca-8d41-c645cc9b833a{fill:#161635;}.f06c7112-3d0f-4a0b-91c6-a8dedf7ac1e2{fill:#dfdfdf;}</style></defs><title>dont_take_yourself_too_seriously</title><polygon class="a5e8c8c0-8bbc-49a5-8367-8269c936c5e2" points="0 50 0 0 100 0 100 100 0 100 0 50"/><path class="a6c590a6-2e5f-4eca-8d41-c645cc9b833a" d="M31.05,27.6,25.7,28.84l0-.45,1.24-.29-1-15.85-1.36.32v-.46l5.95-1.38c4.58-1.06,7.94-.16,9,4.45C41,21.44,37.64,26.08,31.05,27.6Zm.36-.54c3.66-.85,4.5-5.41,3.57-11.07-.08-.49-.15-.87-.24-1.26-.91-4-2.56-3.92-4.33-3.51l-.28.06,1,15.84Z"/><path class="a6c590a6-2e5f-4eca-8d41-c645cc9b833a" d="M40.19,21.17c-1-4.13.71-7.65,5.13-8.67,3.06-.71,5,.15,5.68,3.05,1.12,4.84-1,7.92-5.06,8.85C42.76,25.13,40.85,24,40.19,21.17Zm6.43-6.83c-.24-1-.65-1.55-1.32-1.4-1.43.33-1.41,2.2-1.18,6a23.65,23.65,0,0,0,.47,3.68c.24,1.06.63,1.48,1.39,1.3,1.29-.3,1.34-1.64,1.07-6.07A24.18,24.18,0,0,0,46.62,14.34Z"/><path class="a6c590a6-2e5f-4eca-8d41-c645cc9b833a" d="M58.72,18.67a28.83,28.83,0,0,1,0-5.83c0-1.35.08-2.25-.68-2.08S56.85,12,56.52,13.48c-.58,2.53-.19,5.28.17,8.09a42.43,42.43,0,0,0-4.53,1.29V18.32l-.55-6.59L50,12.11l-.05-.43,5.88-1.36v4h.07c.34-2.31,1-4.49,3.84-5.14a2.35,2.35,0,0,1,3.13,1.9A7.36,7.36,0,0,1,63,12.78l-.08,4.68A7.43,7.43,0,0,0,63,18.88c.1.44.36.5.66.43s.79-.45,1.24-1.69l.42.14a3.68,3.68,0,0,1-2.92,2.83C60.61,21,59.15,20.56,58.72,18.67Z"/><path class="a6c590a6-2e5f-4eca-8d41-c645cc9b833a" d="M63.26,8.83c1.19-1,1.9-2.18,1.71-3a1,1,0,0,0-.75-.72l-.69,1a1.55,1.55,0,0,1-1.32-1.29,2,2,0,0,1,1.52-2.47,2,2,0,0,1,2.59,1.56c.44,1.92-.85,3.55-2.79,5.24Z"/><path class="a6c590a6-2e5f-4eca-8d41-c645cc9b833a" d="M72.38,6.92l.16,5.1a23.45,23.45,0,0,0,.23,3.71c.17.72.46,1.14,1.22,1s1.21-.84,1.74-2.66l.47.16c-.51,1.79-1.3,3.53-3.58,4-2.69.63-3.74-.76-4.06-2.11a18.74,18.74,0,0,1-.3-3.31l-.19-4.91-1.66.39,0-.43L68,7.48,67.93,5l3.76-1.79.46-.11.2,3.38,2.42-.57,0,.44Z"/><path class="a6c590a6-2e5f-4eca-8d41-c645cc9b833a" d="M11.06,93C10.78,91.71,9.67,91.64,8,91.4c-1.42-.2-3-.66-3.44-2.57-.55-2.55,1.63-4.35,4.82-5,1.87-.41,4.2-.6,4.64,1.41a1.75,1.75,0,0,1-1.55,2.15c-.81.18-1.66-.07-1.81-.76a1.81,1.81,0,0,1,.11-1.17l.74-.16a1.29,1.29,0,0,0,0-.58c-.12-.53-.68-.7-1.72-.47-1.74.37-2.29,1.27-2.12,2.07.25,1.14,1.13,1.29,2.78,1.56s3.52.49,3.94,2.43c.61,2.82-1.69,4.8-5.14,5.55-2.59.56-4.49.12-4.86-1.59A1.84,1.84,0,0,1,6,91.88,1.42,1.42,0,0,1,7.81,93a2.36,2.36,0,0,1,0,1l-.92.2a1,1,0,0,0,0,.46c.13.6.79,1,2.09.71C11,94.91,11.22,93.75,11.06,93Z"/><path class="a6c590a6-2e5f-4eca-8d41-c645cc9b833a" d="M24.13,83.33c.5,2.26-1.83,3.47-3.92,4.23a12.81,12.81,0,0,1-1.77.51c.38,3.33,1.33,4.6,2.95,4.25,1.13-.25,2.2-1.33,2.47-4l.49,0c-.24,3-1.67,4.57-4.45,5.17s-5-.56-5.6-3.29c-1-4.73,1.32-7.78,5.41-8.67C22.32,81,23.76,81.62,24.13,83.33ZM19.6,82c-1.25.27-1.47,2.71-1.21,5.58,1.55-.41,2.82-1.48,2.2-4.33C20.41,82.44,20.15,81.92,19.6,82Z"/><path class="a6c590a6-2e5f-4eca-8d41-c645cc9b833a" d="M25.22,87.35l-.47-6.21-1.57.34,0-.43,5.7-1.24-.05,4.56h.12c.29-1.93,1.34-5.11,3.93-5.67a2,2,0,0,1,2.59,1.59A2.11,2.11,0,0,1,33.74,83,3.53,3.53,0,0,1,32.07,83l-.56-1.89c-1.24.32-2.1,2.27-2.13,4.92a25.07,25.07,0,0,0,.41,5,38.38,38.38,0,0,0-4.58,1.3Z"/><path class="a6c590a6-2e5f-4eca-8d41-c645cc9b833a" d="M42.88,86.4a3.72,3.72,0,0,1-3,2.77c-1.76.38-3.12-.1-3.54-2a16.29,16.29,0,0,1-.18-2.3l-.1-6.15-1.83.39,0-.43,6.12-1.33c.05,4.69.09,6.78.15,8.47a13.21,13.21,0,0,0,.11,1.67c.09.41.36.5.61.44.42-.09.81-.61,1.24-1.67ZM35.22,74.87c-.34-1.57.85-2.79,2.47-3.14,1.31-.29,2.25.14,2.5,1.29.35,1.57-.87,2.78-2.44,3.12S35.39,75.66,35.22,74.87Z"/><path class="a6c590a6-2e5f-4eca-8d41-c645cc9b833a" d="M41.82,84.21c-.9-4.14.82-7.63,5.25-8.59,3.08-.67,5,.22,5.64,3.13,1.06,4.86-1.16,7.9-5.19,8.77C44.33,88.22,42.44,87.08,41.82,84.21Zm6.53-6.74c-.23-1-.63-1.55-1.3-1.41-1.44.31-1.44,2.18-1.26,6a22.69,22.69,0,0,0,.41,3.69c.23,1.06.61,1.48,1.37,1.32,1.3-.28,1.37-1.63,1.16-6.06A24.19,24.19,0,0,0,48.35,77.47Z"/><path class="a6c590a6-2e5f-4eca-8d41-c645cc9b833a" d="M53.59,74.88,52,75.23l0-.44,5.92-1.28c-.06,4.54-.07,7.28,0,9,0,.59.06,1.39.85,1.22,1-.22,1.68-2.86,1.58-6.35A25.26,25.26,0,0,0,60,73.3,45.67,45.67,0,0,0,64.59,72c0,2.92.09,7.12.29,9.28.07.78.13,1.51.85,1.36.42-.09.83-.54,1.25-1.63l.43.2a3.7,3.7,0,0,1-2.92,2.62c-2.59.56-3.73-.57-3.52-3.38h-.14c-.35,2.42-1.13,4.42-3.78,5-2.2.48-3.25-.89-3.31-3S53.6,76.36,53.59,74.88Z"/><path class="a6c590a6-2e5f-4eca-8d41-c645cc9b833a" d="M72.88,79.59c-.27-1.28-1.38-1.35-3-1.59-1.43-.2-3-.66-3.44-2.57-.55-2.55,1.62-4.35,4.81-5,1.87-.41,4.2-.6,4.64,1.41A1.74,1.74,0,0,1,74.3,74c-.81.18-1.66-.07-1.81-.76A1.69,1.69,0,0,1,72.6,72l.74-.16a1.66,1.66,0,0,0,0-.58c-.12-.53-.69-.7-1.73-.47-1.73.37-2.29,1.27-2.11,2.08.24,1.13,1.12,1.28,2.78,1.55s3.52.49,3.94,2.43c.61,2.82-1.7,4.8-5.14,5.55-2.59.56-4.5.12-4.87-1.59a1.85,1.85,0,0,1,1.57-2.35,1.43,1.43,0,0,1,1.84,1.11,2.74,2.74,0,0,1,0,1l-.93.2a1.18,1.18,0,0,0,0,.46c.13.6.8,1,2.09.71C72.81,81.51,73.05,80.35,72.88,79.59Z"/><path class="a6c590a6-2e5f-4eca-8d41-c645cc9b833a" d="M83.79,77.56c-.74,1.73-1.41,2.41-2.94,2.74-2.12.46-3.39-.23-3.82-2.22a26,26,0,0,1-.3-5.09l-.17-9.71-1.64.35,0-.43,5.91-1.28.44,15a9.83,9.83,0,0,0,.09,1.65c.09.41.28.61.72.52s.81-.49,1.3-1.69Z"/><path class="a6c590a6-2e5f-4eca-8d41-c645cc9b833a" d="M83.91,83.15c-.32.62-.07,1.68,1.09,1.43s2.53-1.59,3.77-4c-1.58-3-4-7.49-5.14-9.64-.49-.93-.76-1.38-1.2-1.28s-.58.53-.89,2l-.5-.08c.27-1.51.7-3.44,3.15-4,1.57-.35,2.56.19,3.43,1.77,1.23,2.2,2.22,4.29,3.37,6.5,1.34-3.31,1.67-4.81,1.46-5.78-.14-.67-.52-.86-1-.79l-.48,1.12a2.15,2.15,0,0,1-2.16-1.69,2,2,0,0,1,1.64-2.48c1.45-.32,2.5.47,2.86,2.14.48,2.22-1,5.94-2.13,8.49-1.84,4-3.22,7.72-6.61,8.45a2.68,2.68,0,0,1-3.46-2,2.25,2.25,0,0,1,1.74-2.8c1.07-.23,2.3.32,2.25,2.2Z"/><path class="a6c590a6-2e5f-4eca-8d41-c645cc9b833a" d="M97.78,74.09A2.3,2.3,0,0,1,95.94,77a1.63,1.63,0,0,1-2.1-1.33,2.34,2.34,0,0,1,1.84-2.78A1.58,1.58,0,0,1,97.78,74.09Z"/><path class="a6c590a6-2e5f-4eca-8d41-c645cc9b833a" d="M13.29,67.22c-.32.63-.07,1.69,1.09,1.44s2.53-1.59,3.77-4c-1.58-3-4-7.48-5.14-9.63-.49-.93-.76-1.38-1.2-1.29s-.58.54-.89,2l-.5-.08c.27-1.51.7-3.45,3.15-4,1.57-.34,2.56.2,3.43,1.78,1.23,2.2,2.22,4.28,3.37,6.5,1.34-3.31,1.67-4.81,1.46-5.78-.14-.67-.52-.86-1-.79l-.48,1.12a2.15,2.15,0,0,1-2.16-1.69,2,2,0,0,1,1.64-2.48c1.45-.32,2.5.47,2.86,2.13.48,2.22-1,6-2.13,8.5-1.84,4-3.22,7.71-6.61,8.45a2.68,2.68,0,0,1-3.46-2,2.24,2.24,0,0,1,1.74-2.79c1.07-.23,2.3.32,2.25,2.2Z"/><path class="a6c590a6-2e5f-4eca-8d41-c645cc9b833a" d="M22.93,57.08c-.9-4.14.81-7.63,5.25-8.59,3.07-.67,5,.22,5.64,3.13,1,4.85-1.17,7.9-5.19,8.77C25.44,61.08,23.55,59.94,22.93,57.08Zm6.52-6.74c-.22-1-.63-1.56-1.3-1.41-1.43.31-1.44,2.17-1.26,6a25,25,0,0,0,.41,3.68c.23,1.07.62,1.49,1.38,1.33,1.29-.28,1.36-1.63,1.15-6.06A24,24,0,0,0,29.45,50.34Z"/><path class="a6c590a6-2e5f-4eca-8d41-c645cc9b833a" d="M34.7,47.75l-1.57.34,0-.43L39,46.38c-.05,4.54-.07,7.27,0,9,0,.6.06,1.39.85,1.22,1-.22,1.67-2.85,1.57-6.34a25.58,25.58,0,0,0-.35-4.09,43.64,43.64,0,0,0,4.56-1.28c0,2.93.09,7.12.29,9.28.08.78.14,1.52.86,1.37.41-.09.82-.55,1.24-1.63l.43.2a3.65,3.65,0,0,1-2.92,2.61c-2.58.57-3.73-.57-3.51-3.37l-.15,0c-.35,2.42-1.12,4.43-3.78,5-2.19.47-3.24-.9-3.3-3S34.7,49.23,34.7,47.75Z"/><path class="a6c590a6-2e5f-4eca-8d41-c645cc9b833a" d="M48.14,51.15l-.48-6.21-1.57.34,0-.43,5.71-1.24-.05,4.56h.12c.28-1.92,1.34-5.1,3.92-5.66a2,2,0,0,1,2.6,1.59,2.11,2.11,0,0,1-1.71,2.71,3.56,3.56,0,0,1-1.68,0l-.55-1.89c-1.24.32-2.1,2.27-2.13,4.91a24.35,24.35,0,0,0,.41,5,36.72,36.72,0,0,0-4.58,1.31Z"/><path class="a6c590a6-2e5f-4eca-8d41-c645cc9b833a" d="M64.62,50.15c-.28-1.27-1.38-1.35-3.06-1.59-1.42-.2-3-.65-3.43-2.57-.55-2.54,1.62-4.35,4.81-5,1.87-.4,4.2-.59,4.64,1.42A1.75,1.75,0,0,1,66,44.52c-.8.17-1.66-.08-1.81-.77a1.79,1.79,0,0,1,.11-1.16l.74-.16a1.33,1.33,0,0,0,0-.59c-.11-.53-.68-.7-1.72-.47-1.74.37-2.29,1.27-2.12,2.08C61.5,44.58,62.38,44.73,64,45s3.52.49,3.94,2.44c.62,2.82-1.69,4.79-5.13,5.54-2.59.56-4.5.13-4.87-1.58a1.84,1.84,0,0,1,1.57-2.35,1.42,1.42,0,0,1,1.84,1.1,2.54,2.54,0,0,1,0,1l-.92.2a1,1,0,0,0,0,.46c.13.6.8,1,2.09.71C64.55,52.07,64.78,50.91,64.62,50.15Z"/><path class="a6c590a6-2e5f-4eca-8d41-c645cc9b833a" d="M77.7,40.49c.49,2.26-1.84,3.47-3.92,4.24a14.17,14.17,0,0,1-1.78.5c.38,3.33,1.33,4.6,3,4.25,1.13-.24,2.21-1.32,2.47-4l.49,0c-.24,3-1.67,4.57-4.44,5.17-2.94.64-5-.56-5.6-3.28-1-4.74,1.31-7.79,5.4-8.68C75.88,38.15,77.33,38.78,77.7,40.49ZM73.16,39.2c-1.25.27-1.47,2.71-1.21,5.58,1.56-.41,2.82-1.48,2.21-4.32C74,39.6,73.71,39.08,73.16,39.2Z"/><path class="a6c590a6-2e5f-4eca-8d41-c645cc9b833a" d="M85.37,46c-.73,1.73-1.41,2.41-2.94,2.74-2.12.46-3.39-.23-3.82-2.22a26.19,26.19,0,0,1-.3-5.09l-.17-9.71-1.64.35,0-.43,5.91-1.28.44,15A10.8,10.8,0,0,0,82.92,47c.09.42.28.62.72.53s.81-.49,1.3-1.69Z"/><path class="a6c590a6-2e5f-4eca-8d41-c645cc9b833a" d="M85,36.84l-1.69.37,0-.43L85,36.42l0-.94c-.14-3.87,1.5-6.57,5.22-7.38,1.67-.36,3.83,0,4.25,1.94a2.2,2.2,0,0,1-1.63,2.77,1.67,1.67,0,0,1-2.15-1.2,2.52,2.52,0,0,1,0-1l1-.37c.3-1.54-.35-1.95-1.09-1.79-1.29.28-1.45,1.69-1.26,5.42l.08,1.61,2.77-.6v.43l-2.73.59.34,10.84c.12,3.9-1.39,6.55-5.32,7.4-1.45.32-3.64.14-4.07-1.83a2.37,2.37,0,0,1,1.81-2.91c1.46-.31,2.36.82,2.05,2.29l-1,.33c-.35,1.14.09,1.85.92,1.66,1.29-.28,1.35-1.93,1.26-5.35Z"/><path class="a6c590a6-2e5f-4eca-8d41-c645cc9b833a" d="M42.53,33.19l.08,2.61a11,11,0,0,0,.12,1.89c.08.37.23.58.62.49s.62-.43.89-1.36l.24.08A2.51,2.51,0,0,1,42.65,39c-1.37.31-1.91-.39-2.07-1.09a9.13,9.13,0,0,1-.16-1.69l-.09-2.5-.85.19v-.22l.84-.19-.05-1.27,1.92-.91.23-.06.1,1.73,1.24-.29v.22Z"/><path class="a6c590a6-2e5f-4eca-8d41-c645cc9b833a" d="M51.11,36a1.84,1.84,0,0,1-1.35,1.37C48.6,37.59,48,37.1,48,36.1h-.06a2.06,2.06,0,0,1-1.58,2c-1.37.31-2.08-.35-2.37-1.61-.5-2.17.11-4,2-4.46.87-.2,1.21.06,1.49.47l0-.66a14.69,14.69,0,0,0,2.14-.6c0,1.52.05,3,.18,4.72a3.92,3.92,0,0,0,.06.44c.07.3.22.34.39.3s.41-.21.63-.82ZM47.7,35.9a9.89,9.89,0,0,0-.23-2.84c-.16-.71-.55-.9-.88-.83s-.53.47-.57,1.35a13.53,13.53,0,0,0,.23,3.16c.1.4.25.85.71.74S47.63,36.89,47.7,35.9Z"/><path class="a6c590a6-2e5f-4eca-8d41-c645cc9b833a" d="M57.29,34.53a1.93,1.93,0,0,1-1.51,1.39c-.85.2-1.88.18-1.9-1.16v-.65c0-.61-.17-.75-.49-.67a1.15,1.15,0,0,0-.39.18l.18,2.73A19.78,19.78,0,0,0,50.9,37l0-2.63L50.35,28l-.79.18v-.22l3.06-.71L53,33.35l.62-.47c.83-.62,1.07-1.08,1-1.44l-.53,0a1,1,0,0,1,.74-1.46.88.88,0,0,1,1.17.69c.14.57-.23,1.07-.87,1.51l-1.37,1v0a5.57,5.57,0,0,1,.87-.28c1.13-.27,1.38.38,1.4,1.17l0,.85c0,.41.19.5.39.46s.45-.3.7-.87Z"/><path class="a6c590a6-2e5f-4eca-8d41-c645cc9b833a" d="M61.53,29.84c.26,1.16-.92,1.79-2,2.2a8.23,8.23,0,0,1-.9.27c.22,1.7.71,2.34,1.54,2.15.58-.14,1.12-.7,1.23-2.07h.25a2.6,2.6,0,0,1-2.23,2.68,2.16,2.16,0,0,1-2.89-1.64A3.4,3.4,0,0,1,59.25,29C60.58,28.66,61.33,29,61.53,29.84Zm-2.33-.62c-.64.14-.73,1.39-.58,2.86.79-.22,1.43-.78,1.1-2.23C59.62,29.42,59.48,29.15,59.2,29.22Z"/><line class="f06c7112-3d0f-4a0b-91c6-a8dedf7ac1e2" x1="14.39" y1="41.12" x2="36.98" y2="36.32"/><rect class="a6c590a6-2e5f-4eca-8d41-c645cc9b833a" x="14.14" y="38.23" width="23.1" height="0.98" transform="translate(-7.49 6.19) rotate(-12.01)"/><path class="a6c590a6-2e5f-4eca-8d41-c645cc9b833a" d="M46.19,63.36l0,2.38a10.76,10.76,0,0,0,.08,1.73c.08.34.21.53.56.46s.58-.39.83-1.23l.22.08a2.29,2.29,0,0,1-1.69,1.86c-1.26.28-1.74-.38-1.88-1a9,9,0,0,1-.12-1.54l-.06-2.29L43.4,64v-.2l.78-.17,0-1.16,1.76-.81.22,0,.07,1.57,1.13-.24v.2Z"/><path class="a6c590a6-2e5f-4eca-8d41-c645cc9b833a" d="M47.41,66.25a3.08,3.08,0,0,1,2.45-4c1.43-.31,2.34.1,2.63,1.46C53,66,52,67.39,50.07,67.8,48.58,68.12,47.7,67.59,47.41,66.25Zm3-3.14c-.1-.48-.29-.72-.6-.65-.67.14-.67,1-.59,2.8A11.09,11.09,0,0,0,49.45,67c.11.5.29.7.64.62.61-.13.64-.76.54-2.82A10.21,10.21,0,0,0,50.45,63.11Z"/><path class="a6c590a6-2e5f-4eca-8d41-c645cc9b833a" d="M52.57,65.14a3.09,3.09,0,0,1,2.45-4c1.43-.31,2.33.11,2.63,1.46.49,2.26-.54,3.68-2.42,4.09C53.74,67,52.86,66.47,52.57,65.14Zm3-3.14c-.1-.49-.29-.73-.6-.66-.67.14-.67,1-.59,2.8a11.41,11.41,0,0,0,.19,1.72c.11.49.29.69.64.61.61-.13.64-.76.54-2.82A11.31,11.31,0,0,0,55.61,62Z"/><line class="f06c7112-3d0f-4a0b-91c6-a8dedf7ac1e2" x1="64.32" y1="30.28" x2="86.91" y2="25.48"/><rect class="a6c590a6-2e5f-4eca-8d41-c645cc9b833a" x="64.06" y="27.39" width="23.1" height="0.98" transform="translate(-4.15 16.34) rotate(-12.01)"/><line class="f06c7112-3d0f-4a0b-91c6-a8dedf7ac1e2" x1="60.24" y1="62.43" x2="82.8" y2="57.63"/><rect class="a6c590a6-2e5f-4eca-8d41-c645cc9b833a" x="59.99" y="59.55" width="23.07" height="0.98" transform="translate(-10.92 16.19) rotate(-12.01)"/><line class="f06c7112-3d0f-4a0b-91c6-a8dedf7ac1e2" x1="18.76" y1="71.32" x2="41.35" y2="66.52"/><rect class="a6c590a6-2e5f-4eca-8d41-c645cc9b833a" x="18.51" y="68.43" width="23.1" height="0.98" transform="translate(-13.68 7.76) rotate(-12.01)"/></svg>