<?xml version="1.0" encoding="UTF-8"?>
<svg width="2048px" height="2049px" viewBox="0 0 2048 2049" version="1.1" xmlns="http://www.w3.org/2000/svg" xmlns:xlink="http://www.w3.org/1999/xlink">
    <!-- Generator: Sketch 64 (93537) - https://sketch.com -->
    <title>embrace_reality</title>
    <desc>Created with Sketch.</desc>
    <g id="embrace_reality" stroke="none" stroke-width="1" fill="none" fill-rule="evenodd" transform="translate(0.000000, 1.000000)">
        <rect fill="#1D353D" x="0" y="0" width="2048" height="2048"></rect>
        <g id="Text-Outlines" transform="translate(1053.995873, 1039.167858) rotate(-10.000000) translate(-1053.995873, -1039.167858) translate(108.495873, 600.667858)" fill="#FFE0AA" fill-rule="nonzero">
            <path d="M247.807143,350.434492 L268.338483,249.177655 L260.872541,249.177655 C235.208366,307.971948 209.54419,341.568686 128.818693,341.568686 L112.486945,341.568686 L137.684499,190.383362 L145.617063,190.383362 C178.280559,190.383362 199.27852,202.048897 199.745142,255.243733 L207.211083,255.243733 L230.075531,117.123807 L223.542831,117.123807 C208.610948,158.653109 182.946772,178.251207 153.083005,178.251207 L140.017606,178.251207 L164.281917,32.6653393 L184.813258,32.6653393 C241.741065,32.6653393 266.471997,44.7974949 276.271046,115.723943 L283.270367,115.723943 L294.46928,23.7995333 L52.2927886,23.7995333 L50.8929245,32.6653393 L78.4235853,32.6653393 L27.0952346,341.568686 L1.43105923,341.568686 L0.0311951153,350.434492 L247.807143,350.434492 Z M610.369767,355.100706 C644.433127,355.100706 661.698118,341.568686 679.42973,313.571404 L671.497167,308.90519 C659.831633,328.503288 649.099341,335.96923 642.10002,335.96923 C635.567321,335.96923 629.967865,334.102744 629.967865,324.770317 C629.967865,319.637482 632.767593,307.038705 635.567321,295.373171 L657.498526,207.648353 C660.298254,195.982819 662.631361,182.450799 662.631361,167.518915 C662.164739,141.388119 645.36637,123.656506 614.102738,123.656506 C559.041417,123.656506 536.643591,168.452158 523.578192,196.916062 L521.711707,196.44944 C525.911299,183.850663 528.711027,172.185129 528.711027,161.919459 C528.711027,139.055012 516.578872,123.656506 486.248483,123.656506 C432.587025,123.656506 410.655821,160.052973 389.657859,206.248489 L388.257995,205.781868 L406.456229,128.32272 L288.401022,128.32272 L287.467779,136.721905 L319.664654,136.721905 L300.533177,266.909267 L280.93508,353.700842 C294.000478,350.901114 359.32747,348.568007 373.792733,349.034628 C378.925568,273.441966 388.257995,231.446043 405.056364,195.982819 C422.787976,158.653109 438.186482,147.454196 448.452152,147.454196 C461.51755,147.454196 460.584307,159.119731 452.651744,189.45012 C437.71986,247.777791 423.254598,298.172899 411.122442,353.700842 C422.787976,350.901114 486.248483,348.568007 499.780503,349.034628 C507.246444,281.37453 517.978736,227.713072 538.043455,188.983498 C552.042096,161.919459 565.574116,147.454196 575.839786,147.454196 C592.638155,147.454196 584.705592,167.518915 576.773029,189.45012 C573.040058,198.782547 549.242368,269.708995 549.242368,300.506006 C549.242368,340.168822 574.906543,355.100706 610.369767,355.100706 Z M792.932281,355.100706 C893.255876,355.100706 937.118285,282.307772 937.118285,203.915382 C937.118285,155.38676 914.720459,123.656506 864.791972,123.656506 C827.928884,123.656506 809.264029,140.921497 794.332145,164.252566 L791.999038,162.38608 L828.862127,0.468464746 L700.074629,0.468464746 L699.141386,8.86764941 L738.337581,8.86764941 L698.208143,226.779829 C695.408415,243.111577 694.475172,256.643597 694.475172,263.642918 C694.475172,318.704239 724.33894,355.100706 792.932281,355.100706 Z M798.065116,343.435172 C784.066475,343.435172 774.734048,333.169502 774.734048,304.238977 C774.734048,273.908588 779.400261,228.179693 791.999038,193.649712 C803.197951,163.319323 818.129835,143.721225 833.52834,143.721225 C847.06036,143.721225 851.259952,155.853381 851.259952,174.518236 C851.259952,194.582955 846.593739,226.779829 844.260632,239.845228 C833.994962,301.439248 823.26267,343.435172 798.065116,343.435172 Z M947.030891,354.167463 C970.828581,350.901114 1021.22369,347.168143 1040.82179,348.101386 C1041.75503,321.503967 1044.08814,292.573442 1053.88719,249.644276 C1065.55272,198.782547 1090.28365,164.719187 1115.48121,163.785944 L1118.28093,202.515518 C1129.01323,208.114974 1140.21214,210.448081 1150.47781,210.448081 C1174.74212,209.98146 1194.80684,195.982819 1194.80684,165.185808 C1194.80684,133.922177 1171.94239,123.656506 1151.41105,123.656506 C1099.14946,123.656506 1065.55272,180.584314 1052.0207,216.514159 L1049.68759,216.047538 L1069.75231,128.32272 L954.496833,128.32272 L953.096969,136.721905 L984.827222,136.721905 L968.028853,258.510082 L947.030891,354.167463 Z M1392.06976,355.100706 C1417.73394,355.100706 1437.79865,342.96855 1454.59702,315.43789 L1447.5977,311.238297 C1434.06568,332.236259 1423.80001,336.902473 1416.80069,336.902473 C1410.26799,336.902473 1404.66854,334.102744 1404.66854,321.970589 C1404.66854,317.770996 1405.60178,311.238297 1406.53502,305.172219 C1416.80069,237.512121 1428.93285,183.384042 1440.59838,125.989613 C1422.40015,129.722584 1377.6045,130.189206 1355.20667,129.722584 L1348.67397,154.453517 C1341.67465,136.721905 1330.94236,123.656506 1296.41238,123.656506 C1220.81972,123.656506 1181.62352,188.050256 1181.62352,273.908588 C1181.62352,323.837074 1202.62148,355.100706 1256.74956,355.100706 C1297.34562,355.100706 1321.14331,329.903152 1333.74209,293.506685 L1336.0752,293.973307 C1328.60925,331.769638 1345.87424,355.100706 1392.06976,355.100706 Z M1285.21347,336.902473 C1267.01523,336.902473 1265.14875,318.704239 1265.14875,302.839113 C1265.14875,269.242374 1273.54793,217.914023 1283.8136,181.984178 C1293.14603,149.320682 1302.94508,136.255283 1316.94372,136.255283 C1330.00912,136.255283 1343.07452,146.987575 1343.07452,174.984857 C1343.07452,212.314567 1337.00844,251.044141 1326.74277,283.707636 C1315.54386,320.570725 1299.67873,336.902473 1285.21347,336.902473 Z M1555.03418,355.100706 C1623.62752,355.100706 1646.02534,308.438569 1655.35777,272.975345 L1646.02534,270.642238 C1632.49332,320.570725 1604.49604,338.768958 1583.49808,338.768958 C1558.30053,338.768958 1546.63499,323.370453 1546.63499,284.640879 C1546.63499,258.510082 1550.36796,233.77915 1554.56756,210.448081 C1562.50012,167.052294 1577.432,132.055691 1607.29577,132.055691 C1616.6282,132.055691 1626.89387,135.322041 1626.89387,149.787303 C1626.89387,155.38676 1625.494,162.38608 1621.76103,171.251886 L1602.16294,171.251886 C1598.42996,179.18445 1595.16361,188.050256 1595.16361,195.982819 C1595.16361,209.98146 1602.62956,225.379965 1627.82711,225.379965 C1659.09074,225.379965 1672.62276,201.582275 1672.62276,176.384721 C1672.62276,149.320682 1652.09142,123.656506 1600.76307,123.656506 C1509.30528,123.656506 1456.57707,179.651071 1456.57707,265.042782 C1456.57707,322.43721 1489.70718,355.100706 1555.03418,355.100706 Z M1766.06059,355.100706 C1822.05516,355.100706 1856.11852,331.303016 1873.38351,273.908588 L1864.05108,271.108859 C1847.71933,321.970589 1822.52178,338.302337 1799.65733,338.302337 C1766.99384,338.302337 1753.92844,309.838433 1760.46114,244.04482 C1770.26019,244.04482 1781.92572,243.578199 1796.8576,241.711713 C1840.25339,235.645635 1890.18188,222.113616 1890.18188,176.384721 C1890.18188,141.85474 1864.98432,123.656506 1812.25611,123.656506 C1729.66413,123.656506 1671.80308,172.65175 1671.80308,268.309131 C1671.80308,323.370453 1706.79968,355.100706 1766.06059,355.100706 Z M1761.39438,235.179014 C1768.3937,178.717828 1782.85896,132.522312 1808.05652,132.522312 C1819.25543,132.522312 1822.05516,143.721225 1822.05516,160.986216 C1822.05516,218.380645 1793.12463,233.77915 1761.39438,235.179014 Z" id="Embrace"></path>
            <path d="M424.042977,764.666214 C467.905385,764.666214 479.104298,740.868524 486.103619,726.869883 L478.637677,723.136912 C470.238492,738.535417 465.105657,746.001359 456.239851,746.001359 C443.174453,746.001359 440.374725,736.20231 438.97486,715.67097 L435.708511,665.742483 C431.97554,606.481569 410.044335,595.282656 354.983014,592.949549 L354.983014,591.549685 C424.042977,586.41685 478.171056,559.819432 478.171056,500.558518 C478.171056,442.697468 403.978258,433.365041 337.251402,433.365041 L226.662137,433.365041 L225.262273,442.230847 L252.792934,442.230847 L201.464583,750.667573 L176.73365,750.667573 L174.400544,760 L312.053848,760 L314.386955,750.667573 L286.856294,750.667573 L313.453712,594.816035 L316.25344,594.816035 C333.518431,594.816035 342.384237,603.21522 345.183965,646.144386 L347.983693,691.87328 C352.183286,757.666893 392.779345,764.666214 424.042977,764.666214 Z M318.119926,585.950229 L314.853576,585.950229 L337.718023,442.230847 L340.517751,442.230847 C369.914898,442.230847 387.179888,462.295566 387.179888,500.558518 C387.179888,559.352811 354.516392,585.950229 318.119926,585.950229 Z M576.854185,764.666214 C632.848749,764.666214 666.912109,740.868524 684.1771,683.474095 L674.844672,680.674367 C658.512925,731.536096 633.315371,747.867844 610.450923,747.867844 C577.787427,747.867844 564.722029,719.403941 571.254728,653.610328 C581.053777,653.610328 592.719311,653.143706 607.651195,651.277221 C651.046983,645.211143 700.975469,631.679123 700.975469,585.950229 C700.975469,551.420248 675.777915,533.222014 623.0497,533.222014 C540.457718,533.222014 482.596668,582.217258 482.596668,677.874639 C482.596668,732.935961 517.593271,764.666214 576.854185,764.666214 Z M572.187971,644.744522 C579.187292,588.283336 593.652554,542.08782 618.850108,542.08782 C630.049021,542.08782 632.848749,553.286733 632.848749,570.551724 C632.848749,627.946152 603.918224,643.344657 572.187971,644.744522 Z M910.012718,764.666214 C935.676893,764.666214 955.741612,752.534058 972.539982,725.003397 L965.540661,720.803805 C952.008641,741.801767 941.742971,746.46798 934.743651,746.46798 C928.210952,746.46798 922.611495,743.668252 922.611495,731.536096 C922.611495,727.336504 923.544738,720.803805 924.477981,714.737727 C934.743651,647.077628 946.875806,592.949549 958.541341,535.555121 C940.343107,539.288092 895.547456,539.754713 873.14963,539.288092 L866.616931,564.019025 C859.61761,546.287412 848.885319,533.222014 814.355337,533.222014 C738.762675,533.222014 699.56648,597.615763 699.56648,683.474095 C699.56648,733.402582 720.564442,764.666214 774.692521,764.666214 C815.28858,764.666214 839.08627,739.46866 851.685047,703.072193 L854.018154,703.538814 C846.552212,741.335145 863.817202,764.666214 910.012718,764.666214 Z M803.156424,746.46798 C784.958191,746.46798 783.091705,728.269747 783.091705,712.40462 C783.091705,678.807882 791.49089,627.479531 801.75656,591.549685 C811.088988,558.886189 820.888036,545.820791 834.886677,545.820791 C847.952076,545.820791 861.017474,556.553083 861.017474,584.550365 C861.017474,621.880074 854.951396,660.609648 844.685726,693.273144 C833.486813,730.136232 817.621687,746.46798 803.156424,746.46798 Z M1042.15223,764.666214 C1072.94924,764.666214 1088.81437,754.400544 1110.27895,724.070154 L1102.81301,718.470698 C1088.34775,739.46866 1078.08208,745.534738 1070.61614,745.534738 C1061.75033,745.534738 1058.9506,740.868524 1058.9506,732.469339 C1058.9506,724.536776 1061.75033,712.40462 1064.08344,700.272465 L1118.21152,410.033972 L998.756446,410.033972 L997.356582,418.433157 L1030.4867,418.433157 L993.156989,606.481569 C979.62497,673.675047 977.758484,688.60693 977.758484,705.871921 C977.758484,746.001359 999.223067,764.666214 1042.15223,764.666214 Z M1197.99465,504.291489 C1229.7249,504.291489 1258.1888,486.093256 1258.1888,454.363003 C1258.1888,431.031934 1241.85705,418.899778 1215.25964,418.899778 C1182.59614,418.899778 1154.59886,437.564633 1154.59886,469.294886 C1154.59886,485.160013 1163.93129,504.291489 1197.99465,504.291489 Z M1185.39587,764.666214 C1219.92585,764.666214 1237.19084,749.73433 1253.98921,723.603533 L1246.98989,718.470698 C1234.39111,737.135553 1224.59206,745.534738 1216.19288,745.534738 C1211.06004,745.534738 1206.39383,742.735009 1206.39383,734.335825 C1206.39383,725.470019 1209.19356,713.337863 1211.06004,701.672329 C1217.12612,669.008833 1225.05869,628.412774 1243.72354,537.888228 L1120.06888,537.888228 L1118.66901,546.287412 L1155.5321,546.287412 L1131.73441,665.275862 C1128.93468,680.207746 1125.66833,699.805843 1125.66833,710.538135 C1125.66833,749.73433 1149.93264,764.666214 1185.39587,764.666214 Z M1335.98971,765.132835 C1382.18522,765.132835 1405.04967,735.269067 1422.78128,703.072193 L1414.3821,697.939358 C1396.18387,730.602854 1383.58509,741.335145 1369.11983,741.335145 C1353.72132,741.335145 1349.98835,732.002718 1349.98835,717.537455 C1349.98835,699.339222 1356.52105,673.208425 1362.12051,645.211143 L1381.7186,546.287412 L1430.71385,546.287412 L1432.11371,537.888228 L1383.11847,537.888228 L1394.31738,472.094615 L1384.98495,472.094615 L1304.72608,489.826227 L1295.86027,537.888228 L1262.26353,537.888228 L1260.86367,546.287412 L1294.46041,546.287412 L1276.26217,641.478172 C1271.12934,667.142347 1267.39637,689.540173 1267.39637,706.338542 C1267.39637,733.869203 1281.39501,765.132835 1335.98971,765.132835 Z M1407.70359,876.655343 C1476.29693,876.655343 1518.29285,810.861729 1570.55445,741.335145 C1603.68456,697.006115 1647.08035,631.212502 1647.08035,586.41685 C1647.08035,552.820112 1630.28198,533.222014 1600.88484,533.222014 C1573.8208,533.222014 1558.88891,553.753354 1558.88891,574.284695 C1558.88891,592.016307 1569.6212,609.747919 1593.41889,615.813997 L1607.41754,596.215899 C1617.68321,597.149142 1624.2159,602.281977 1624.2159,615.813997 C1624.2159,635.412094 1611.61713,662.942755 1571.95431,721.270426 C1558.88891,673.675047 1548.62324,629.346016 1534.15798,581.750637 C1523.89231,547.687277 1507.09394,533.222014 1475.36369,533.222014 C1425.90182,533.222014 1409.57007,568.685238 1397.90454,596.68252 L1407.23697,600.415491 C1419.36912,573.351452 1423.56872,565.418889 1432.90114,565.418889 C1441.76695,565.418889 1445.0333,575.217937 1450.63276,595.282656 C1464.16477,641.478172 1491.69544,737.135553 1509.42705,802.462545 C1475.36369,844.458468 1444.10006,864.523187 1419.83574,864.523187 C1396.50468,864.523187 1396.03805,843.058604 1404.90386,832.326312 L1428.70155,829.059963 C1437.56736,793.130117 1416.10277,777.264991 1394.63819,777.264991 C1370.37388,777.264991 1349.37592,794.529981 1349.37592,823.927128 C1349.37592,855.19076 1372.70699,876.655343 1407.70359,876.655343 Z" id="Reality"></path>
        </g>
        <line x1="690.730288" y1="710" x2="401" y2="756.889384" id="Stroke-4" stroke="#FFE0AA" stroke-width="8" stroke-linecap="square"></line>
        <line x1="1076.73029" y1="1073" x2="662.618346" y2="1140.01907" id="Stroke-4-Copy-3" stroke="#FFE0AA" stroke-width="8" stroke-linecap="square"></line>
        <line x1="1864.38168" y1="516" x2="933" y2="666.732992" id="Stroke-4-Copy" stroke="#FFE0AA" stroke-width="8" stroke-linecap="square"></line>
        <line x1="1473.38168" y1="1357" x2="364.311923" y2="1536.48968" id="Stroke-4-Copy-2" stroke="#FFE0AA" stroke-width="8" stroke-linecap="square"></line>
    </g>
</svg>