<?xml version="1.0" encoding="UTF-8"?>
<svg width="100px" height="100px" viewBox="0 0 100 100" version="1.1" xmlns="http://www.w3.org/2000/svg" xmlns:xlink="http://www.w3.org/1999/xlink">
    <!-- Generator: Sketch 64 (93537) - https://sketch.com -->
    <title>home</title>
    <desc>Created with Sketch.</desc>
    <g id="home" stroke="none" stroke-width="1" fill="none" fill-rule="evenodd">
        <g id="00_posts_for_pause_home" transform="translate(13.000000, 13.000000)">
            <path d="M7.48,71 L7.48,71 C7.48,69.5979226 8.03765411,68.2534162 9.03001005,67.2629362 C10.022366,66.2724562 11.3679251,65.7173446 12.77,65.7199905 L61.23,65.7199905 C62.6320749,65.7173446 63.977634,66.2724562 64.9699899,67.2629362 C65.9623459,68.2534162 66.52,69.5979226 66.52,71 L66.52,71 C66.5144845,73.9176803 64.1476855,76.28 61.23,76.28 L12.77,76.28 C9.85231446,76.28 7.48551547,73.9176803 7.48,71 Z" id="Path" fill="#131F4A"></path>
            <path d="M9.64,17.54 L4.87,17.54 L4.87,0.08 L10.55,0.08 C13.55,0.08 15.39,0.47 16.83,1.45 C18.3202358,2.50002888 19.1841184,4.227794 19.13,6.05 C19.201045,8.04302649 18.1817868,9.91677564 16.47,10.94 C14.85347,11.7357384 13.058944,12.1008435 11.26,12 L9.64,12 L9.64,17.54 Z M11.06,8.54 C11.9271031,8.64001525 12.8017063,8.43110194 13.53,7.95 C14.0252293,7.42434636 14.288294,6.7216393 14.26,6 C14.2737058,5.22586425 13.930784,4.48839802 13.33,4 C12.6299372,3.64228697 11.8430149,3.48975577 11.06,3.56 L9.64,3.56 L9.64,8.5 L11.06,8.54 Z" id="Shape" fill="#FFFFFF" fill-rule="nonzero"></path>
            <path d="M35,11.43 C35,15.54 32.18,17.89 27.24,17.89 C22.3,17.89 19.42,15.59 19.42,11.33 C19.42,7.33 22.3,4.97 27.22,4.97 C32.14,4.97 35,7.29 35,11.43 Z M24.26,11.38 C24.26,13.51 25.26,14.61 27.26,14.61 C29.26,14.61 30.26,13.51 30.26,11.43 C30.26,9.35 29.26,8.25 27.26,8.25 C25.26,8.25 24.27,9.35 24.27,11.38 L24.26,11.38 Z" id="Shape" fill="#FFFFFF" fill-rule="nonzero"></path>
            <path d="M36.82,14.05 C38.1601912,14.6040182 39.6000499,14.8763319 41.05,14.85 C42.71,14.85 43.52,14.53 43.52,13.85 C43.52,13.34 43.13,13.07 42.08,12.85 C40.6743567,12.6362926 39.3027157,12.2395925 38,11.67 C36.8511683,11.1516546 36.1202109,10.0002002 36.14,8.74 C36.14,6.36 38.14,4.97 41.64,4.97 C43.5371216,4.94005949 45.4178026,5.3257527 47.15,6.1 L45.92,9 C44.710885,8.36114026 43.3673923,8.01841253 42,8 C41,8 40.46,8.32 40.46,8.81 C40.46,9.3 40.82,9.47 42.78,9.86 C46.47,10.6 47.94,11.77 47.94,13.92 C47.94,16.59 45.84,17.92 41.43,17.92 C39.4966202,17.944494 37.5699055,17.688497 35.71,17.16 L36.82,14.05 Z" id="Path" fill="#FFFFFF" fill-rule="nonzero"></path>
            <path d="M48.07,8.76 L48.07,5.31 L50.24,5.31 L50.56,1.79 L54.67,1.33 L54.67,5.33 L58.34,5.33 L58.34,8.78 L54.67,8.78 L54.67,12.23 C54.67,13.89 54.97,14.29 56.29,14.29 C56.8245854,14.2926592 57.3545311,14.1907466 57.85,13.99 L58.37,17.49 C57.2170064,17.7157917 56.0448941,17.829654 54.87,17.83 C52.57,17.83 51.37,17.32 50.66,16.05 C50.2,15.19 50.07,14.38 50.07,11.91 L50.07,8.76 L48.07,8.76 Z" id="Path" fill="#FFFFFF" fill-rule="nonzero"></path>
            <path d="M60.15,14.05 C61.490436,14.6031957 62.9301224,14.8754768 64.38,14.85 C66.05,14.85 66.85,14.53 66.85,13.85 C66.85,13.34 66.46,13.07 65.41,12.85 C64.0040591,12.6376491 62.6322433,12.2408984 61.33,11.67 C60.1811683,11.1516546 59.4502109,10.0002002 59.47,8.74 C59.47,6.36 61.47,4.97 64.97,4.97 C66.8637594,4.94152124 68.7408706,5.32718228 70.47,6.1 L69.25,9 C68.0353047,8.3569776 66.6843231,8.01408888 65.31,8 C64.31,8 63.77,8.32 63.77,8.81 C63.77,9.3 64.14,9.47 66.09,9.86 C69.79,10.6 71.26,11.77 71.26,13.92 C71.26,16.59 69.15,17.92 64.75,17.92 C62.8050251,17.9390904 60.8677586,17.6729269 59,17.13 L60.15,14.05 Z" id="Path" fill="#FFFFFF" fill-rule="nonzero"></path>
            <path d="M5.13,55.06 L0.36,55.06 L0.36,37.59 L6,37.59 C9,37.59 10.85,37.98 12.29,38.96 C13.8114787,40.0872095 14.6843537,41.8881736 14.626517,43.7808314 C14.5686802,45.6734892 13.5874672,47.4177952 12,48.45 C10.3860587,49.254802 8.59086552,49.6269342 6.79,49.53 L5.13,49.53 L5.13,55.06 Z M6.55,46.06 C7.41405904,46.1464283 8.28105953,45.9270241 9,45.44 C9.48157742,44.921942 9.74328714,44.2371947 9.73,43.53 C9.74073222,42.7564972 9.39838372,42.0202639 8.8,41.53 C8.09820022,41.1773541 7.31273282,41.0251049 6.53,41.09 L5.13,41.09 L5.13,46 L6.55,46.06 Z" id="Shape" fill="#FFFFFF" fill-rule="nonzero"></path>
            <path d="M25.67,54 C24.4689382,55.0372461 22.9017168,55.5488448 21.32,55.42 C17.32,55.42 14.99,53.05 14.99,48.96 C14.99,44.87 17.28,42.5 21.22,42.5 C22.7796542,42.3641693 24.3313584,42.8372061 25.55,43.82 L25.67,42.82 L30,42.82 L30,55.06 L26.07,55.06 L25.67,54 Z M19.83,49 C19.83,51.08 20.73,52.18 22.45,52.18 C24.17,52.18 25.31,51 25.31,49 C25.31,47 24.31,45.77 22.45,45.77 C20.59,45.77 19.83,46.86 19.83,48.94 L19.83,49 Z" id="Shape" fill="#FFFFFF" fill-rule="nonzero"></path>
            <path d="M37.39,42.83 L37.39,49.11 C37.39,51.24 37.86,51.92 39.39,51.92 C41.2,51.92 41.74,51.24 41.74,48.92 L41.74,42.83 L46.43,42.83 L46.43,55.06 L42.45,55.06 L42.11,54 C40.9045119,55.02938 39.3406495,55.5398822 37.76,55.42 C35.63,55.42 34.14,54.73 33.35,53.34 C32.7960369,52.0519678 32.5693025,50.6469016 32.69,49.25 L32.69,42.85 L37.39,42.83 Z" id="Path" fill="#FFFFFF" fill-rule="nonzero"></path>
            <path d="M49.13,51.56 C50.470436,52.1131957 51.9101224,52.3854768 53.36,52.36 C55.03,52.36 55.83,52.05 55.83,51.36 C55.83,50.85 55.44,50.58 54.39,50.36 C52.983013,50.1524431 51.610569,49.7555108 50.31,49.18 C49.1593692,48.6637309 48.4275664,47.5109448 48.45,46.25 C48.45,43.88 50.45,42.48 53.95,42.48 C55.8437594,42.4515212 57.7208706,42.8371823 59.45,43.61 L58.23,46.49 C57.0154453,45.8466127 55.6643735,45.5037011 54.29,45.49 C53.29,45.49 52.75,45.8 52.75,46.29 C52.75,46.78 53.12,46.95 55.08,47.29 C58.77,48.03 60.24,49.2 60.24,51.36 C60.24,54.02 58.13,55.36 53.73,55.36 C51.7951511,55.3998959 49.8648295,55.1573424 48,54.64 L49.13,51.56 Z" id="Path" fill="#FFFFFF" fill-rule="nonzero"></path>
            <path d="M65.52,50 C65.76,51.57 66.86,52.25 69.09,52.25 C70.7055243,52.2920967 72.3053542,51.9239638 73.74,51.18 L75.18,54.18 C73.256521,55.1033534 71.130068,55.5231386 69,55.4 C63.74,55.4 60.9,53.12 60.9,48.89 C60.9,44.66 63.52,42.48 68.17,42.48 C70.64,42.48 72.5,43.02 73.69,44.1 C74.9464534,45.2607429 75.6362308,46.9103692 75.58,48.62 C75.58,48.96 75.58,49.21 75.58,49.99 L65.52,50 Z M71.12,47.31 C70.93,45.87 70.12,45.31 68.38,45.31 C66.64,45.31 65.76,45.97 65.62,47.31 L71.12,47.31 Z" id="Shape" fill="#FFFFFF" fill-rule="nonzero"></path>
            <polygon id="Path" fill="#FFFFFF" fill-rule="nonzero" points="14.59 69.29 13.13 69.29 13.13 68.29 17.34 68.29 17.34 69.29 15.89 69.29 15.89 73 14.59 73"></polygon>
            <path d="M19.89,72.67 C19.5702734,72.9398267 19.1570827,73.0727663 18.74,73.04 C17.8488911,72.9717053 17.1606713,72.2287221 17.1606713,71.335 C17.1606713,70.4412779 17.8488911,69.6982947 18.74,69.63 C19.1539244,69.5958949 19.5652562,69.7210829 19.89,69.98 L19.89,69.72 L21,69.72 L21,73 L20,73 L19.89,72.67 Z M18.34,71.34 C18.34,71.89 18.58,72.18 19.03,72.18 C19.48,72.18 19.79,71.88 19.79,71.35 C19.79,70.82 19.53,70.5 19.03,70.5 C18.53,70.5 18.34,70.79 18.34,71.34 Z" id="Shape" fill="#FFFFFF" fill-rule="nonzero"></path>
            <path d="M23.14,74.5 L21.9,74.5 L21.9,69.72 L23,69.72 L23.07,69.98 C23.4018259,69.7198048 23.819799,69.5947701 24.24,69.63 C25.1311089,69.6982947 25.8193287,70.4412779 25.8193287,71.335 C25.8193287,72.2287221 25.1311089,72.9717053 24.24,73.04 C23.8455771,73.0793289 23.4521155,72.9565978 23.15,72.7 L23.14,74.5 Z M23.14,71.32 C23.14,71.88 23.41,72.18 23.93,72.18 C24.45,72.18 24.65,71.89 24.65,71.34 C24.6575838,71.1208681 24.5982895,70.9046183 24.48,70.72 C24.3436802,70.5611295 24.1382802,70.4789695 23.93,70.5 C23.7095436,70.4800028 23.4919216,70.5611184 23.3383386,70.7205336 C23.1847557,70.8799488 23.1118038,71.1004416 23.14,71.32 L23.14,71.32 Z" id="Shape" fill="#FFFFFF" fill-rule="nonzero"></path>
            <path d="M27.74,70.63 L27.74,69.72 L28.31,69.72 L28.39,68.79 L29.48,68.67 L29.48,69.67 L30.48,69.67 L30.48,70.58 L29.48,70.58 L29.48,71.49 C29.48,71.93 29.56,72.04 29.91,72.04 C30.0507746,72.042494 30.1904891,72.0152326 30.32,71.96 L30.46,72.88 C30.1541072,72.9431494 29.8423255,72.9733218 29.53,72.97 C28.93,72.97 28.61,72.84 28.42,72.5 C28.2754017,72.1560738 28.2236759,71.7801999 28.27,71.41 L28.27,70.58 L27.74,70.63 Z" id="Path" fill="#FFFFFF" fill-rule="nonzero"></path>
            <path d="M34.87,71.34 C34.87,72.42 34.13,73.04 32.87,73.04 C31.61,73.04 30.8,72.44 30.8,71.31 C30.8,70.18 31.57,69.63 32.87,69.63 C34.17,69.63 34.87,70.24 34.87,71.34 Z M32.03,71.34 C32.03,71.91 32.3,72.2 32.82,72.2 C33.34,72.2 33.6,71.91 33.6,71.36 C33.6,70.81 33.33,70.52 32.82,70.52 C32.5985371,70.4912513 32.3760981,70.5654547 32.2162489,70.7214051 C32.0563997,70.8773555 31.9767275,71.0978949 32,71.32 L32.03,71.34 Z" id="Shape" fill="#FFFFFF" fill-rule="nonzero"></path>
            <path d="M37,72 C37.352048,72.144153 37.729623,72.2155861 38.11,72.21 C38.55,72.21 38.77,72.13 38.77,71.95 C38.77,71.77 38.66,71.74 38.39,71.68 C38.0165971,71.6309011 37.6525978,71.5264199 37.31,71.37 C37.0054041,71.235174 36.8092527,70.9331009 36.81,70.6 C36.81,69.97 37.35,69.6 38.27,69.6 C38.7694416,69.5929137 39.2643735,69.6953134 39.72,69.9 L39.4,70.66 C39.0912163,70.4972756 38.7489384,70.4082834 38.4,70.4 C38.15,70.4 37.99,70.49 37.99,70.62 C37.99,70.75 38.09,70.79 38.61,70.89 C39.61,71.09 39.97,71.4 39.97,71.97 C39.97,72.54 39.41,72.97 38.25,72.97 C37.7394063,72.9808416 37.2301653,72.9133925 36.74,72.77 L37,72 Z" id="Path" fill="#FFFFFF" fill-rule="nonzero"></path>
            <path d="M40.5,68 L41.74,68 L41.74,69.91 C42.0695708,69.7067634 42.4533685,69.6090695 42.84,69.63 C43.3205156,69.5729044 43.7944872,69.7793114 44.08,70.17 C44.2360167,70.5109479 44.3014578,70.886373 44.27,71.26 L44.27,73 L43,73 L43,71.29 C43,70.73 42.86,70.55 42.41,70.55 C41.96,70.55 41.72,70.73 41.72,71.32 L41.72,73 L40.5,73 L40.5,68 Z" id="Path" fill="#FFFFFF" fill-rule="nonzero"></path>
            <path d="M46.32,69.72 L46.32,71.38 C46.32,71.94 46.44,72.13 46.83,72.13 C47.22,72.13 47.45,71.94 47.45,71.33 L47.45,69.72 L48.69,69.72 L48.69,73 L47.69,73 L47.6,72.72 C47.2808118,72.9907967 46.8672108,73.1238683 46.45,73.09 C45.9903371,73.141378 45.5411474,72.9284001 45.29,72.54 C45.1407733,72.2006739 45.0788913,71.829382 45.11,71.46 L45.11,69.72 L46.32,69.72 Z" id="Path" fill="#FFFFFF" fill-rule="nonzero"></path>
            <path d="M52.35,69.4 C52.3028049,69.0326065 52.387879,68.660407 52.59,68.35 C52.8384679,68.0611146 53.2102496,67.9086841 53.59,67.94 C53.9047348,67.9369231 54.2181729,67.980737 54.52,68.07 L54.42,68.86 C54.2963324,68.7958157 54.1593228,68.7615633 54.02,68.76 C53.8671868,68.7413593 53.7147051,68.7971452 53.61,68.91 C53.5504077,69.0484948 53.5296652,69.2006061 53.55,69.35 L53.55,69.72 L54.43,69.72 L54.43,70.63 L53.55,70.63 L53.55,73 L52.35,73 L52.35,70.63 L51,70.63 L51,73 L49.72,73 L49.72,70.63 L49.17,70.63 L49.17,69.72 L49.72,69.72 L49.72,69.4 C49.6844722,69.0277535 49.7838387,68.6551294 50,68.35 C50.251313,68.0650858 50.6210111,67.9135096 51,67.94 C51.3082105,67.9363274 51.6151462,67.9801754 51.91,68.07 L51.81,68.86 C51.6901774,68.7951638 51.556237,68.7608201 51.42,68.76 C51.2703336,68.7430147 51.1215939,68.7987921 51.02,68.91 C50.9543843,69.0467416 50.9300584,69.199647 50.95,69.35 L50.95,69.72 L52.34,69.72 L52.35,69.4 Z M55,68 L56.24,68 L56.24,73 L55,73 L55,68 Z" id="Shape" fill="#FFFFFF" fill-rule="nonzero"></path>
            <path d="M58,71.62 C58.06,72.03 58.35,72.21 58.94,72.21 C59.3669795,72.2211522 59.7899205,72.1248729 60.17,71.93 L60.55,72.72 C60.0630435,72.9355664 59.5316004,73.031569 59,73 C57.61,73 56.86,72.4 56.86,71.28 C56.86,70.16 57.55,69.59 58.78,69.59 C59.3032144,69.5467059 59.8237766,69.7000222 60.24,70.02 C60.5728821,70.3243118 60.7556309,70.7592541 60.74,71.21 C60.74,71.3 60.74,71.37 60.74,71.58 L58,71.62 Z M59.48,70.9 C59.48,70.52 59.22,70.37 58.75,70.37 C58.28,70.37 58.06,70.55 58.02,70.9 L59.48,70.9 Z" id="Shape" fill="#FFFFFF" fill-rule="nonzero"></path>
            <path d="M30.59,29.94 C30.9905885,30.2596071 31.280873,30.6967824 31.42,31.19 L33.57,29.86 L33.74,30.45 C33.1325532,31.0600365 32.4424885,31.5817928 31.69,32 C31.7298571,32.2886305 31.7298571,32.5813695 31.69,32.87 C31.57,34.76 29.34,36.51 28.18,36.69 C27.45,36.8 27.24,35.32 27.24,34.8 C27.3978182,33.6697087 27.7785137,32.5820075 28.36,31.6 C28.0815549,31.3768952 27.910755,31.0461975 27.89,30.69 C27.89,30.06 28.32,29.88 28.79,29.63 C29.6360723,29.1177276 30.3112064,28.3660319 30.73,27.47 C31.14,26.69 33.19,22.9 34,22.9 C34.35,22.9 34.38,23.35 34.38,23.6 C34.2838565,24.3969995 34.0030803,25.1605736 33.56,25.83 L30.59,29.94 Z M30.53,32.26 C30.1417808,32.3083513 29.7476288,32.263795 29.38,32.13 C29.021342,32.6765119 28.7733296,33.2880493 28.65,33.93 C28.6148126,34.4251701 28.7373361,34.9187646 29,35.34 C30.0282762,34.6645123 30.6129616,33.4874987 30.53,32.26 L30.53,32.26 Z" id="Shape" fill="#131F4A" fill-rule="nonzero"></path>
            <path d="M40,30.3 C39.4258824,31.1528644 38.4467621,31.6424246 37.42,31.59 C36.8111136,32.3023374 35.9359115,32.7327054 35,32.78 C34.18,32.78 33.41,31.96 33.35,30.51 C33.3380627,29.4288809 33.8866925,28.4186453 34.8,27.84 C35.6555508,27.1487049 36.7027503,26.7368065 37.8,26.66 C38.15,26.66 38.67,26.8 38.67,27.23 C38.67,27.47 38.48,27.57 38.31,27.66 C38.78,27.79 38.88,28.12 38.88,28.6 C38.8234554,29.2665818 38.611082,29.9105528 38.26,30.48 C38.96,30.61 39.41,30 39.9,29.64 L40,30.3 Z M35.15,29.56 C34.7868426,29.9553904 34.5713651,30.4640587 34.54,31 C34.54,31.46 34.84,31.6 35.23,31.6 C35.7030046,31.5697406 36.1449859,31.35414 36.46,31 C36.3446529,30.7732579 36.2798309,30.5242052 36.27,30.27 C36.4020002,29.6087425 36.6490852,28.9757988 37,28.4 C36.3507265,28.709805 35.7426875,29.0994875 35.19,29.56 L35.15,29.56 Z" id="Shape" fill="#131F4A" fill-rule="nonzero"></path>
            <path d="M41,29.24 C40.4458802,29.9808823 39.8046018,30.652378 39.09,31.24 L39.03,30.54 C39.4131435,30.1992364 39.7494077,29.8091699 40.03,29.38 C39.69,29.38 39.6,29.22 39.6,28.89 C39.6,27.74 41.22,26.6 41.6,26.6 C41.6742734,26.5972999 41.7465731,26.6242401 41.8009693,26.6748849 C41.8553655,26.7255296 41.8873947,26.7957232 41.89,26.87 C41.8842958,27.0227154 41.846833,27.1725668 41.78,27.31 C43.27,27.11 44.15,26.91 44.3,27.11 C44.5080012,27.3467168 44.6434007,27.6383466 44.69,27.95 C44.69,28.44 44.38,28.68 44.02,28.95 C43.66,29.22 42.78,30.13 42.78,30.76 C42.7960407,31.0172213 43.0123458,31.2158689 43.27,31.21 C43.95,31.21 44.96,30.21 45.48,29.78 L45.59,30.37 C44.99,31.05 43.16,32.82 42.25,32.82 C41.6127872,32.7772076 41.1300256,32.2273958 41.17,31.59 C41.3337957,30.5524402 41.8492609,29.6027132 42.63,28.9 L42.63,28.9 L41,29.24 Z" id="Path" fill="#131F4A" fill-rule="nonzero"></path>
        </g>
    </g>
</svg>