<svg id="a98e91a1-1694-465f-9d59-80a8b2901346" data-name="Layer 1" xmlns="http://www.w3.org/2000/svg" viewBox="0 0 100 100"><defs><style>.f726696d-ab75-4b4e-ad72-dc3b680de045{fill:#fff;}.adebd76d-0930-415c-9464-9717cbaf586f{fill:#228fff;fill-rule:evenodd;}</style></defs><title>50_justbekind_outlines_100</title><rect class="f726696d-ab75-4b4e-ad72-dc3b680de045" width="100" height="100"/><polygon class="adebd76d-0930-415c-9464-9717cbaf586f" points="0 50 0 0 100 0 100 100 0 100 0 50"/><path class="f726696d-ab75-4b4e-ad72-dc3b680de045" d="M25.1,74.4c-.2-.2-1.7-1.5-2.1-1.4s-.2,1.1-.2,1.4c.9,4,2.5,2.2,3.1,4.3s.5,3.2-6.5,4.9c-3.7,1-7.8,2.2-8.6-.8s2.3-1.2,1.4-4.9-1.5-7.5-2-9.5L8.5,62c-.9-3.6-3.7-.3-4.4-2.9s8.8-7.7,11.2-8.4,1.5.4,1.7,1.4l2.2,9.6c.6,2.9.9,4,2,3.7s3.2-2.4,3-3.1-1.1-.8-1.4-1.7,4-3.6,5.5-4,6.7-1.7,7.5,1.1-1.4,1.5-3.7,3.8c-.4.4-1.9,1.7-1.8,2.3s7.2,6.2,8.3,7c2.7,2,5.1,1.3,5.6,3.2s-.3,2.8-3.8,3.7l-6.3,1.6c-1.8.5-2,.5-3.5-.6Z" transform="translate(0)"/><path class="f726696d-ab75-4b4e-ad72-dc3b680de045" d="M35.5,48.8c-1.6.3-3.4-.1-3.7-1.9s4.2-4.4,6.1-4.8,3.7-.2,4,1.6S37.6,48.3,35.5,48.8Zm9.9,11.7c.9,4.3,2.8,2.3,3.1,4.3s-4.2,3.4-5.8,3.7c-6.4,1.3-6.9-.1-7.1-1s1.2-1.7,1.4-2.9-.7-6.8-1.4-8.1-2.4-.4-2.7-2.1,8.7-5.6,9-5.7,1.3.6,1.5,1.4Z" transform="translate(0)"/><path class="f726696d-ab75-4b4e-ad72-dc3b680de045" d="M57.4,63c.4,3.6,1.6,2.9,1.7,4.3s-4.8,2.7-6.3,2.8-5.3.5-5.6-1.7,1.8-.4,1.5-4.1l-.3-5.6C48.2,55.9,46,57,45.8,55s8.3-4.7,9-4.7a1.3,1.3,0,0,1,1.5,1.3v.7c.1.5.3,1,.9.9s.9-.9,1.5-1.7a5.5,5.5,0,0,1,3.9-1.9c7.8-.8,7.2,7,8.1,12.7.4,2.9,1.9,2.1,2.1,3.7s.3,2.3-6.7,2.9c-1.4.1-5,.6-5.2-1.5s1.2-.9,1.2-3.3.4-8.8-3.1-8.5-2,2.8-1.8,4.5Z" transform="translate(0)"/><path class="f726696d-ab75-4b4e-ad72-dc3b680de045" d="M92.4,62.9c-.5,2.6,1.6,2.2,1.3,4.1s-8.7,1.5-9.1,1.4-.2-2.1-1.4-2.4a9.8,9.8,0,0,0-2,.8,7.3,7.3,0,0,1-3.8.4c-4.9-.9-7.7-6.8-6.9-11.3s5.9-9.1,11-8.1a12.6,12.6,0,0,1,4.2,1.9c.5.1.8-1.1.9-1.5.4-2.3-2.5-1.6-2.2-3.6s10.2-1.7,10.3-1.7,1.2,1.1,1,2.3ZM83.6,52.4c-2.5-.5-3.7,3.7-4,5.4s-.5,4.9,1.8,5.3,3.2-4.1,3.5-5.7S85.8,52.8,83.6,52.4Z" transform="translate(0)"/><path class="f726696d-ab75-4b4e-ad72-dc3b680de045" d="M18.3,41.7c2.2,5.4-3.2,8.3-4.6,9-3,1.2-7.9,1.9-9.5-1.7a3.2,3.2,0,0,1,1.6-4.3,3,3,0,0,1,4,1.2,11.1,11.1,0,0,1,.3,1.3,1.1,1.1,0,0,0,1.6.5c2.8-1.6-.8-6.2-2.6-10.8C8,34,6.2,36.5,5.5,34.8s-.7-2.2,4.2-4.3,5.9-1.2,6.2-.5-1.7,1.6-.8,3.8Z" transform="translate(0)"/><path class="f726696d-ab75-4b4e-ad72-dc3b680de045" d="M23.8,40.4c.2.8.6,2.1,1.7,1.9s.9-2.3.7-3.3a19.5,19.5,0,0,0-.6-2.3c-.4-1-1.3-.4-1.5-1.3s3.9-2.3,4.7-2.5a.9.9,0,0,1,1.3.9,15.5,15.5,0,0,1,.4,2.1l.9,4.2c.3,1.3,1.3.4,1.5,1.4s-3.3,2.7-4.5,2.9-.8-1.2-1.6-1-.5.5-1,.9a3.8,3.8,0,0,1-2,1.1c-4,.8-4.3-2.4-5-5.6s-1.8-1.5-2.1-2.9,5-2.5,5.2-2.5.7.1.8.6Z" transform="translate(0)"/><path class="f726696d-ab75-4b4e-ad72-dc3b680de045" d="M35.9,29.6h1c.2,0,.4-.2.6-.3l.6-.3c1-.2,2.6,1.6,2.8,2.5a1.3,1.3,0,0,1-.9,1.4c-1.3.3-2.4-1.3-3.4-1.1a.9.9,0,0,0-.7,1c.4,1.4,5.5.5,6.3,4s-1.2,4.1-3.5,4.7l-1.7.2-1.3.2h-.4l-.4.2a1.1,1.1,0,0,1-1.1-.2,5.3,5.3,0,0,1-1.9-2.5c-.1-.6,0-1.1.6-1.3s2.5,1.8,3.8,1.5a.9.9,0,0,0,.7-1c-.4-1.3-4.8-.4-5.8-4.1a3.9,3.9,0,0,1,3.3-4.7Z" transform="translate(0)"/><path class="f726696d-ab75-4b4e-ad72-dc3b680de045" d="M49,38.4c.1,1.4.7,1.7,1.3,1.6s1-.6,1.4-.6a1,1,0,0,1,.8.9c.2,1.4-2.2,2.9-4.3,3.1A3.6,3.6,0,0,1,44,39.9l-.5-4.4c0-.4,0-.5-.1-.6s-.4,0-.9.1-.8.1-.9,0-.2-.4-.2-.9a.6.6,0,0,1,.1-.7l4.6-3.6a1.3,1.3,0,0,1,1.1-.3c.8-.1.9-.2,1,.8a6.3,6.3,0,0,0,.2,1.6c.1.1.2.1.8,0h1.5c.9-.1.9,0,1,.9s0,1.4-.9,1.4l-1.4.2c-.8.1-.8.1-.8.9Z" transform="translate(0)"/><path class="f726696d-ab75-4b4e-ad72-dc3b680de045" d="M61.2,28.7c.1.2.1.7.4.6s.8-.8,1.8-1.6a8.3,8.3,0,0,1,4.3-2.1c4.6-.8,9.1,2.4,10,8A12.8,12.8,0,0,1,67,48.8c-5.4,1-8.4-1.4-9.1-1.3s-1.2.9-2.6,1.1-1.4.1-1.5-.6a28.9,28.9,0,0,0-.4-7.8L51.5,28.8c-.4-2.5-3.5-.9-3.9-3.3s7.5-6.2,11.1-6.8c1.2-.2,1.3.7,1.4,1.7Zm3,4.3c-1.9.3-1.9,1.9-1.6,3.3,1.4,8.3,2,8.9,3.7,8.7s2.8-3.8,2.4-6S67,32.5,64.2,33Z" transform="translate(0)"/><path class="f726696d-ab75-4b4e-ad72-dc3b680de045" d="M86.6,33.8c-.4,0-.9-.1-.9.5s2.3,3.2,3.9,3.2S93.5,36,94.3,36s1.3,1.1,1.3,1.7c0,2.7-4.9,4.7-8.1,4.7-6.3,0-9.5-4.6-9.5-9.1A9.5,9.5,0,0,1,87.8,24c6,0,8.6,4.6,8.6,7.2s-1.1,2.6-2.2,2.6Zm3.1-4.4a2.1,2.1,0,0,0-2.1-2.2,2.3,2.3,0,0,0-2.1,2.3c0,1.3,1.2,1,2.1,1S89.7,30.7,89.7,29.4Z" transform="translate(0)"/></svg>