<svg width="1000" height="1000" viewBox="0 0 1000 1000" fill="none" xmlns="http://www.w3.org/2000/svg">
<path d="M279.525 828.371C436.826 828.371 509.427 738.485 509.427 546.612V256.209H365.954V563.898C365.954 664.156 338.297 700.456 279.525 700.456C220.753 700.456 194.824 664.156 194.824 563.898V256.209H46.1653V546.612C46.1653 738.485 122.223 828.371 279.525 828.371Z" fill="#15042F"/>
<path d="M536.112 970.115H684.77V850.843L679.585 785.157C707.242 812.814 740.085 828.371 776.385 828.371C868.001 828.371 956.159 743.671 956.159 595.012C956.159 461.911 890.472 375.481 788.486 375.481C745.271 375.481 702.921 396.225 670.942 425.611H667.484L657.113 385.853H536.112V970.115ZM740.085 707.37C721.071 707.37 702.056 702.185 684.77 686.627V527.597C703.785 505.126 721.071 496.483 743.542 496.483C783.3 496.483 804.043 525.869 804.043 596.741C804.043 679.713 774.657 707.37 740.085 707.37Z" fill="#15042F"/>
<path d="M36.7229 269H173.928V221.733H93.1806V55.6426H36.7229V269Z" fill="#F5F6F7"/>
<path d="M259.476 272.939C301.491 272.939 340.88 241.428 340.88 186.939C340.88 132.451 301.491 100.94 259.476 100.94C217.461 100.94 178.072 132.451 178.072 186.939C178.072 241.428 217.461 272.939 259.476 272.939ZM259.476 227.641C242.408 227.641 235.843 211.886 235.843 186.939C235.843 161.993 242.408 146.237 259.476 146.237C276.545 146.237 283.11 161.993 283.11 186.939C283.11 211.886 276.545 227.641 259.476 227.641Z" fill="#F5F6F7"/>
<path d="M428.38 272.939C470.395 272.939 509.784 241.428 509.784 186.939C509.784 132.451 470.395 100.94 428.38 100.94C386.365 100.94 346.976 132.451 346.976 186.939C346.976 241.428 386.365 272.939 428.38 272.939ZM428.38 227.641C411.311 227.641 404.746 211.886 404.746 186.939C404.746 161.993 411.311 146.237 428.38 146.237C445.449 146.237 452.013 161.993 452.013 186.939C452.013 211.886 445.449 227.641 428.38 227.641Z" fill="#F5F6F7"/>
<path d="M573.04 272.939C618.994 272.939 643.284 249.305 643.284 218.451C643.284 188.909 620.963 176.436 601.269 169.214C584.857 163.306 571.07 160.024 571.07 151.489C571.07 144.924 575.994 142.299 585.513 142.299C595.689 142.299 607.177 147.55 618.994 156.085L643.94 122.604C629.497 111.772 610.459 100.94 583.544 100.94C544.811 100.94 518.552 121.947 518.552 154.115C518.552 181.031 540.216 195.145 559.254 202.695C575.666 209.26 590.765 213.199 590.765 221.733C590.765 228.298 586.17 231.58 574.353 231.58C562.864 231.58 549.406 226.329 534.307 215.168L509.361 249.962C526.429 263.748 552.032 272.939 573.04 272.939Z" fill="#F5F6F7"/>
<path d="M732.286 272.939C750.668 272.939 774.301 266.374 792.026 253.901L773.645 220.42C761.828 226.985 751.324 230.267 740.164 230.267C721.782 230.267 707.34 223.703 702.088 204.008H795.637C796.621 200.069 797.934 190.222 797.934 180.375C797.934 136.39 774.957 100.94 726.378 100.94C686.332 100.94 647.599 133.764 647.599 186.939C647.599 241.428 684.363 272.939 732.286 272.939ZM701.431 167.245C704.714 150.833 715.217 143.611 727.691 143.611C744.759 143.611 750.011 154.772 750.011 167.245H701.431Z" fill="#F5F6F7"/>
<path d="M814.139 269H870.596V161.337C879.131 153.459 885.039 148.863 895.543 148.863C906.703 148.863 911.955 154.115 911.955 175.123V269H968.413V167.901C968.413 127.199 953.313 100.94 917.207 100.94C894.886 100.94 878.474 112.1 865.345 124.573H864.032L860.093 104.879H814.139V269Z" fill="#F5F6F7"/>
</svg>
