<svg width="1000" height="1000" viewBox="0 0 1000 1000" fill="none" xmlns="http://www.w3.org/2000/svg">
<path d="M276.968 380.594C339.403 380.594 397.936 333.768 397.936 252.797C397.936 171.826 339.403 125 276.968 125C214.533 125 156 171.826 156 252.797C156 333.768 214.533 380.594 276.968 380.594ZM276.968 313.281C251.604 313.281 241.848 289.868 241.848 252.797C241.848 215.726 251.604 192.313 276.968 192.313C302.332 192.313 312.088 215.726 312.088 252.797C312.088 289.868 302.332 313.281 276.968 313.281Z" fill="#F8FCFD"/>
<path d="M395.288 374.741H479.185V214.751C491.867 203.044 500.647 196.215 516.256 196.215C532.84 196.215 540.645 204.02 540.645 235.237V374.741H624.542V224.506C624.542 164.022 602.104 125 548.449 125C515.28 125 490.892 141.584 471.381 160.12H469.43L463.576 130.853H395.288V374.741Z" fill="#F8FCFD"/>
<path d="M746.013 380.594C773.329 380.594 808.448 370.838 834.788 352.303L807.473 302.55C789.913 312.306 774.304 317.183 757.72 317.183C730.404 317.183 708.942 307.428 701.138 278.161H840.154C841.617 272.308 843.568 257.675 843.568 243.042C843.568 177.68 809.424 125 737.233 125C677.725 125 620.167 173.777 620.167 252.797C620.167 333.768 674.798 380.594 746.013 380.594ZM700.162 223.531C705.04 199.142 720.649 188.411 739.184 188.411C764.549 188.411 772.353 204.995 772.353 223.531H700.162Z" fill="#F8FCFD"/>
<path d="M241.243 673.812C259.902 673.812 272.455 670.419 281.275 667.705L272.455 625.637C268.384 626.994 262.956 628.351 257.527 628.351C246.671 628.351 237.172 622.245 237.172 603.585V545.572H275.847V500.112H237.172V456.008H188.997L182.212 500.112L156.429 502.147V545.572H178.82V604.603C178.82 645.993 197.14 673.812 241.243 673.812Z" fill="#1A1A1C"/>
<path d="M278.355 669.741H336.707V558.464C345.528 550.322 351.634 545.572 362.491 545.572C374.025 545.572 379.453 551 379.453 572.713V669.741H437.806V565.249C437.806 523.181 422.2 496.041 384.881 496.041C361.812 496.041 345.528 507.575 333.993 517.753L336.707 488.577V433.617H278.355V669.741Z" fill="#1A1A1C"/>
<path d="M446.976 669.741H505.328V500.112H446.976V669.741ZM476.152 479.078C495.151 479.078 508.043 467.543 508.043 449.902C508.043 432.26 495.151 420.726 476.152 420.726C457.154 420.726 444.262 432.26 444.262 449.902C444.262 467.543 457.154 479.078 476.152 479.078Z" fill="#1A1A1C"/>
<path d="M515.875 669.741H574.227V558.464C583.048 550.322 589.154 545.572 600.01 545.572C611.545 545.572 616.973 551 616.973 572.713V669.741H675.326V565.249C675.326 523.181 659.72 496.041 622.401 496.041C599.332 496.041 582.369 507.575 568.799 520.467H567.442L563.371 500.112H515.875V669.741Z" fill="#1A1A1C"/>
<path d="M746.241 739.628C806.629 739.628 844.626 714.523 844.626 677.883C844.626 646.671 820.199 633.779 777.792 633.779H752.348C735.385 633.779 728.6 631.065 728.6 623.602C728.6 618.852 729.278 616.816 732.671 613.763C740.134 615.459 746.241 616.138 751.669 616.138C789.666 616.138 820.199 599.854 820.199 559.821C820.199 553.036 818.842 546.251 817.485 542.18H841.912V500.112H778.81C770.668 497.398 761.168 496.041 751.669 496.041C714.351 496.041 679.068 515.718 679.068 557.786C679.068 577.463 689.924 593.068 702.138 601.211V602.568C690.603 610.71 683.139 622.923 683.139 634.458C683.139 648.707 689.924 657.527 698.745 663.634V664.991C683.139 673.133 674.997 683.65 674.997 697.56C674.997 728.093 707.566 739.628 746.241 739.628ZM751.669 581.534C740.813 581.534 733.349 574.07 733.349 557.786C733.349 542.18 740.813 534.716 751.669 534.716C762.525 534.716 769.989 542.18 769.989 557.786C769.989 574.07 762.525 581.534 751.669 581.534ZM755.74 703.666C736.063 703.666 722.493 698.917 722.493 688.06C722.493 683.311 724.529 679.918 728.6 675.847C733.349 677.204 739.456 677.883 753.026 677.883H766.257C780.845 677.883 788.987 679.24 788.987 688.06C788.987 697.56 774.739 703.666 755.74 703.666Z" fill="#1A1A1C"/>
<path d="M191.275 874.025C201.559 874.025 209.94 869.454 217.558 862.598H218.32L220.605 871.74H247.269V818.792C247.269 787.557 232.414 774.225 207.654 774.225C192.798 774.225 179.085 778.796 165.753 786.795L177.181 808.127C187.084 802.794 194.322 800.127 201.178 800.127C209.559 800.127 213.749 803.175 214.511 810.031C177.942 813.84 162.706 824.887 162.706 844.695C162.706 860.312 173.371 874.025 191.275 874.025ZM202.702 848.885C196.988 848.885 193.941 846.409 193.941 842.028C193.941 836.695 198.893 831.744 214.511 829.458V842.409C211.082 846.218 208.035 848.885 202.702 848.885Z" fill="#F8FCFD"/>
<path d="M290.808 874.025C301.284 874.025 308.331 872.121 313.283 870.597L308.331 846.98C306.045 847.742 302.998 848.504 299.95 848.504C293.856 848.504 288.523 845.076 288.523 834.6V802.032H310.235V776.511H288.523V751.751H261.478L257.669 776.511L243.194 777.653V802.032H255.764V835.172C255.764 858.408 266.049 874.025 290.808 874.025Z" fill="#F8FCFD"/>
<path d="M364.056 874.025C374.341 874.025 382.721 869.454 390.339 862.598H391.101L393.387 871.74H420.051V818.792C420.051 787.557 405.195 774.225 380.436 774.225C365.58 774.225 351.867 778.796 338.535 786.795L349.962 808.127C359.866 802.794 367.103 800.127 373.96 800.127C382.34 800.127 386.53 803.175 387.292 810.031C350.724 813.84 335.487 824.887 335.487 844.695C335.487 860.312 346.153 874.025 364.056 874.025ZM375.484 848.885C369.77 848.885 366.722 846.409 366.722 842.028C366.722 836.695 371.674 831.744 387.292 829.458V842.409C383.864 846.218 380.816 848.885 375.484 848.885Z" fill="#F8FCFD"/>
<path d="M492.107 874.025C502.582 874.025 509.629 872.121 514.581 870.597L509.629 846.98C507.343 847.742 504.296 848.504 501.249 848.504C495.154 848.504 489.821 845.076 489.821 834.6V802.032H511.533V776.511H489.821V751.751H462.776L458.967 776.511L444.492 777.653V802.032H457.062V835.172C457.062 858.408 467.347 874.025 492.107 874.025Z" fill="#F8FCFD"/>
<path d="M515.798 871.74H548.557V776.511H515.798V871.74ZM532.177 764.702C542.843 764.702 550.08 758.227 550.08 748.323C550.08 738.419 542.843 731.943 532.177 731.943C521.512 731.943 514.274 738.419 514.274 748.323C514.274 758.227 521.512 764.702 532.177 764.702Z" fill="#F8FCFD"/>
<path d="M557.334 871.74H590.093V809.269C595.045 804.318 599.616 802.032 603.425 802.032C609.901 802.032 612.948 805.079 612.948 817.269V871.74H645.707V809.269C650.659 804.318 655.23 802.032 659.039 802.032C665.515 802.032 668.562 805.079 668.562 817.269V871.74H701.321V813.079C701.321 789.462 692.179 774.225 671.228 774.225C658.277 774.225 649.707 781.463 641.898 789.462C636.755 779.558 628.566 774.225 615.614 774.225C602.663 774.225 594.664 780.701 587.046 788.129H586.284L583.998 776.511H557.334V871.74Z" fill="#F8FCFD"/>
<path d="M753.538 874.025C764.203 874.025 777.916 870.216 788.201 862.979L777.535 843.552C770.679 847.361 764.584 849.266 758.109 849.266C747.443 849.266 739.063 845.457 736.015 834.029H790.296C790.867 831.744 791.629 826.03 791.629 820.316C791.629 794.795 778.297 774.225 750.109 774.225C726.873 774.225 704.399 793.271 704.399 824.125C704.399 855.741 725.731 874.025 753.538 874.025ZM735.635 812.698C737.539 803.175 743.634 798.985 750.871 798.985C760.775 798.985 763.822 805.46 763.822 812.698H735.635Z" fill="#F8FCFD"/>
<path d="M815.697 874.025C826.744 874.025 834.743 865.264 834.743 854.218C834.743 843.171 826.744 834.41 815.697 834.41C804.65 834.41 796.651 843.171 796.651 854.218C796.651 865.264 804.65 874.025 815.697 874.025Z" fill="#F8FCFD"/>
</svg>
