<svg id="bfe2e225-2d65-4ed4-bb0e-846592b0da28" data-name="Layer 1" xmlns="http://www.w3.org/2000/svg" xmlns:xlink="http://www.w3.org/1999/xlink" viewBox="0 0 100 100"><defs><style>.fc1ab1c0-76ce-4481-8d07-5166c6e594be{fill:none;}.b34a5a5d-5b9b-45b0-b065-a89045a36e8c{fill:#170832;}.b34a5a5d-5b9b-45b0-b065-a89045a36e8c,.edb0fd53-371c-44d4-a0af-550054c226bb{fill-rule:evenodd;}.f782078f-a48a-4352-9b47-1901531b1262{opacity:0.2;}.e4b1b6f3-71a0-4387-a445-4615f29754bf,.e5087730-1219-4780-b0b3-ea39797cb7ea,.f3a56f7f-2ea0-46ec-83ec-60460f52cdec,.f782078f-a48a-4352-9b47-1901531b1262{isolation:isolate;}.f5cbe0b0-64cd-4ede-a7a6-f4ae2535c74a{clip-path:url(#fcf8b7be-204e-4c96-8f10-736e33f49f85);}.aee7dfb5-0403-498b-b0d5-d553edd2fb96{clip-path:url(#a794b659-f7b2-45de-b9b8-20169aaa111c);}.edb0fd53-371c-44d4-a0af-550054c226bb{fill:#ff69bb;}.bbe58e6b-e619-4201-88d3-a1c3f6fe1007{clip-path:url(#a118f927-050c-4bcb-9241-cc991c28d941);}.f3a56f7f-2ea0-46ec-83ec-60460f52cdec{opacity:0.51;}.f5486815-7afc-4456-b353-70a702784227{clip-path:url(#b28d8fc8-80b1-43ae-ba64-7a58762e1667);}.a6680610-d6c4-4ade-a03c-505eafc2c0c9{clip-path:url(#af335c68-f1f1-400a-98a0-1e5d1f3c0785);}.e4b1b6f3-71a0-4387-a445-4615f29754bf{opacity:0.7;}.ac4dfa29-2aad-4c3f-bd6b-1b14b87b5976{clip-path:url(#aaf3fbb7-13c8-4f4b-aa4f-fddbd00f5454);}.e5087730-1219-4780-b0b3-ea39797cb7ea{opacity:0.85;}.f66570de-85c0-46a5-b372-7f22da7e35cb{clip-path:url(#a191caf7-36c2-4a4a-96f8-e97cb76ab2ac);}.a2f49eb3-9489-45bb-b2ed-ff97480f8203{clip-path:url(#e72ce0f2-86b8-48b8-998d-303eacb6c92e);}.f6ebd6a5-7683-407d-993d-9ee0eacc749c{fill:#fff;}.be9e47ec-66b2-4265-bc6a-d4f008279fe2{clip-path:url(#e3c1264f-7f53-4cc5-8e1f-0a3734c09916);}.ba3d00dc-f0e2-4aa0-a2d5-6024d6a5fffe{clip-path:url(#bca344e3-ebe8-4326-9793-66fbb1a48420);}.af34e77a-410b-4070-91b0-02689eab0e48{clip-path:url(#b168e6f5-8da2-4dc2-bdc2-7936923fcd5b);}.b1152744-2060-4a01-bc45-afd7539cae41{clip-path:url(#f071415c-a54a-4a90-b534-07a20134fe3b);}.f55f1f23-3faf-45e7-8110-9927f48c32da{clip-path:url(#f80667ff-b8c7-485f-b6c3-5478aa91047f);}.ae455bff-0413-450c-8258-0b2e6af21f0c{clip-path:url(#aada1889-0a32-4876-905b-b219d1eeaaa2);}.a873ccc4-0780-490d-9d4c-2b8707c1b95f{clip-path:url(#ef399c16-3647-404b-ae52-d78479b5ec9e);}</style><clipPath id="fcf8b7be-204e-4c96-8f10-736e33f49f85"><rect class="fc1ab1c0-76ce-4481-8d07-5166c6e594be" x="69.58" y="26.61" width="4.64" height="4.69"/></clipPath><clipPath id="a794b659-f7b2-45de-b9b8-20169aaa111c"><rect class="fc1ab1c0-76ce-4481-8d07-5166c6e594be" width="100" height="100"/></clipPath><clipPath id="a118f927-050c-4bcb-9241-cc991c28d941"><rect class="fc1ab1c0-76ce-4481-8d07-5166c6e594be" x="24.66" y="33.84" width="4.64" height="4.64"/></clipPath><clipPath id="b28d8fc8-80b1-43ae-ba64-7a58762e1667"><rect class="fc1ab1c0-76ce-4481-8d07-5166c6e594be" x="62.11" y="27.83" width="4.64" height="4.64"/></clipPath><clipPath id="af335c68-f1f1-400a-98a0-1e5d1f3c0785"><rect class="fc1ab1c0-76ce-4481-8d07-5166c6e594be" x="32.13" y="32.67" width="4.64" height="4.64"/></clipPath><clipPath id="aaf3fbb7-13c8-4f4b-aa4f-fddbd00f5454"><rect class="fc1ab1c0-76ce-4481-8d07-5166c6e594be" x="39.65" y="31.45" width="4.64" height="4.64"/></clipPath><clipPath id="a191caf7-36c2-4a4a-96f8-e97cb76ab2ac"><rect class="fc1ab1c0-76ce-4481-8d07-5166c6e594be" x="47.12" y="30.22" width="4.64" height="4.64"/></clipPath><clipPath id="e72ce0f2-86b8-48b8-998d-303eacb6c92e"><rect class="fc1ab1c0-76ce-4481-8d07-5166c6e594be" x="54.59" y="29.05" width="4.64" height="4.64"/></clipPath><clipPath id="e3c1264f-7f53-4cc5-8e1f-0a3734c09916"><rect class="fc1ab1c0-76ce-4481-8d07-5166c6e594be" x="69.58" y="59.42" width="4.64" height="4.64"/></clipPath><clipPath id="bca344e3-ebe8-4326-9793-66fbb1a48420"><rect class="fc1ab1c0-76ce-4481-8d07-5166c6e594be" x="24.66" y="66.65" width="4.64" height="4.64"/></clipPath><clipPath id="b168e6f5-8da2-4dc2-bdc2-7936923fcd5b"><rect class="fc1ab1c0-76ce-4481-8d07-5166c6e594be" x="62.06" y="60.64" width="4.69" height="4.64"/></clipPath><clipPath id="f071415c-a54a-4a90-b534-07a20134fe3b"><rect class="fc1ab1c0-76ce-4481-8d07-5166c6e594be" x="32.13" y="65.43" width="4.69" height="4.69"/></clipPath><clipPath id="f80667ff-b8c7-485f-b6c3-5478aa91047f"><rect class="fc1ab1c0-76ce-4481-8d07-5166c6e594be" x="39.65" y="64.26" width="4.64" height="4.64"/></clipPath><clipPath id="aada1889-0a32-4876-905b-b219d1eeaaa2"><rect class="fc1ab1c0-76ce-4481-8d07-5166c6e594be" x="47.12" y="63.04" width="4.64" height="4.64"/></clipPath><clipPath id="ef399c16-3647-404b-ae52-d78479b5ec9e"><rect class="fc1ab1c0-76ce-4481-8d07-5166c6e594be" x="54.59" y="61.87" width="4.64" height="4.64"/></clipPath></defs><title>32_pausebreatherelax</title><polygon class="b34a5a5d-5b9b-45b0-b065-a89045a36e8c" points="0 50 0 0 100 0 100 100 0 100 0 50"/><g class="f782078f-a48a-4352-9b47-1901531b1262"><g class="f5cbe0b0-64cd-4ede-a7a6-f4ae2535c74a"><g class="aee7dfb5-0403-498b-b0d5-d553edd2fb96"><path class="edb0fd53-371c-44d4-a0af-550054c226bb" d="M70.89,27.2A2,2,0,1,1,70.14,30a2,2,0,0,1,.75-2.77"/></g></g></g><g class="f782078f-a48a-4352-9b47-1901531b1262"><g class="bbe58e6b-e619-4201-88d3-a1c3f6fe1007"><g class="aee7dfb5-0403-498b-b0d5-d553edd2fb96"><path class="edb0fd53-371c-44d4-a0af-550054c226bb" d="M26,34.43a2,2,0,1,1-.74,2.75A2,2,0,0,1,26,34.43"/></g></g></g><g class="f3a56f7f-2ea0-46ec-83ec-60460f52cdec"><g class="f5486815-7afc-4456-b353-70a702784227"><g class="aee7dfb5-0403-498b-b0d5-d553edd2fb96"><path class="edb0fd53-371c-44d4-a0af-550054c226bb" d="M63.4,28.39a2,2,0,1,1-.73,2.76,2,2,0,0,1,.73-2.76"/></g></g></g><g class="f3a56f7f-2ea0-46ec-83ec-60460f52cdec"><g class="a6680610-d6c4-4ade-a03c-505eafc2c0c9"><g class="aee7dfb5-0403-498b-b0d5-d553edd2fb96"><path class="edb0fd53-371c-44d4-a0af-550054c226bb" d="M33.46,33.23A2,2,0,1,1,32.72,36a2,2,0,0,1,.74-2.75"/></g></g></g><g class="e4b1b6f3-71a0-4387-a445-4615f29754bf"><g class="ac4dfa29-2aad-4c3f-bd6b-1b14b87b5976"><g class="aee7dfb5-0403-498b-b0d5-d553edd2fb96"><path class="edb0fd53-371c-44d4-a0af-550054c226bb" d="M40.94,32a2,2,0,1,1-.73,2.77A2,2,0,0,1,40.94,32"/></g></g></g><g class="e5087730-1219-4780-b0b3-ea39797cb7ea"><g class="f66570de-85c0-46a5-b372-7f22da7e35cb"><g class="aee7dfb5-0403-498b-b0d5-d553edd2fb96"><path class="edb0fd53-371c-44d4-a0af-550054c226bb" d="M48.43,30.81a2,2,0,1,1-.75,2.76,2,2,0,0,1,.75-2.76"/></g></g></g><g class="e4b1b6f3-71a0-4387-a445-4615f29754bf"><g class="a2f49eb3-9489-45bb-b2ed-ff97480f8203"><g class="aee7dfb5-0403-498b-b0d5-d553edd2fb96"><path class="edb0fd53-371c-44d4-a0af-550054c226bb" d="M55.92,29.62a2,2,0,1,1-.74,2.75,2,2,0,0,1,.74-2.75"/></g></g></g><path class="f6ebd6a5-7683-407d-993d-9ee0eacc749c" d="M34.22,16.89c.37,2.37-.77,5.66-5.16,6.34l-1.2.18.06,4.08-4.33.67-.21-13.62,5-.77C31.65,13.27,33.82,14.34,34.22,16.89Zm-4.39,1c-.1-.69-.5-1.12-1.44-1l-.63.09,0,3.3.73-.11C29.85,20,29.94,18.52,29.83,17.85Z"/><path class="f6ebd6a5-7683-407d-993d-9ee0eacc749c" d="M37.5,23.54l-.34,2.52-4.52.7,3.51-14.19,5.16-.8,3.89,13-4.58.71-.45-2.39Zm1.15-8.6-.73,5.41,1.68-.26Z"/><path class="f6ebd6a5-7683-407d-993d-9ee0eacc749c" d="M50.22,24.47c-3.83.59-5.66-1.22-5.7-4.24l-.15-8.93,4.34-.67.11,8.83c0,1.39.33,2,1.28,1.82s1.28-.86,1.26-2.23l-.11-8.82,4.31-.66.15,9C55.75,21.3,54,23.88,50.22,24.47Z"/><path class="f6ebd6a5-7683-407d-993d-9ee0eacc749c" d="M66.25,9.44,64.46,12a3.8,3.8,0,0,0-2.76-.63c-1,.15-1.28.57-1.21,1s.58.61,2.18.94c2.53.44,3.67,1.6,3.94,3.39.38,2.45-.75,5.34-5.34,6.05a7.4,7.4,0,0,1-5.64-1.26l2-2.83a4.1,4.1,0,0,0,3.14.82c1.16-.18,1.48-.64,1.41-1.11-.1-.63-.57-1-2-1.28-2.89-.49-3.94-1.76-4.2-3.42-.36-2.33,1-4.75,5.2-5.4A6.32,6.32,0,0,1,66.25,9.44Z"/><path class="f6ebd6a5-7683-407d-993d-9ee0eacc749c" d="M71.32,10.24l0,2.1L75,11.78l.09,3-3.65.57,0,2.32L75.88,17l0,3.1-8.76,1.36L66.94,7.81l8.92-1.38L75.47,9.6Z"/><path class="f6ebd6a5-7683-407d-993d-9ee0eacc749c" d="M23.38,56c.36,2.31-1,4.47-6.09,5.26L12.48,62l-.21-13.61,4.13-.64c3.61-.56,6-.2,6.34,2.21.3,2-1.06,3-2.37,3.61C21.73,53.67,23.08,54.11,23.38,56Zm-5-4.74c-.07-.46-.37-.7-1.47-.53l-.25,0,0,2.1.36,0C18.67,52.6,18.41,51.72,18.35,51.3Zm.54,5c-.09-.59-.58-.85-1.54-.7l-.65.1,0,2.54.52-.08C18.84,57.91,19,57.18,18.89,56.3Z"/><path class="f6ebd6a5-7683-407d-993d-9ee0eacc749c" d="M32.69,53.52l3.12,4.91-4.69.73-2.31-4.3-.48.08.08,4.64-4.34.67-.21-13.61,5.12-.8c3.4-.52,5.32.28,5.7,2.74C35,50.34,34.86,51.74,32.69,53.52Zm-3.63-1.69a1.63,1.63,0,0,0,1.26-2.09c-.1-.69-.63-.94-1.43-.81l-.65.1,0,2.92Z"/><path class="f6ebd6a5-7683-407d-993d-9ee0eacc749c" d="M40.35,47.19l0,2.11L44,48.74l.09,3-3.65.56,0,2.33,4.45-.69,0,3.1-8.77,1.36L36,44.76l8.91-1.38-.39,3.17Z"/><path class="f6ebd6a5-7683-407d-993d-9ee0eacc749c" d="M50.23,53.74l-.34,2.51-4.52.7,3.51-14.18L54,42l3.89,13-4.58.71-.45-2.39Zm1.15-8.6-.73,5.41,1.68-.26Z"/><path class="f6ebd6a5-7683-407d-993d-9ee0eacc749c" d="M63,43.92l.15,10.28-4.34.67-.14-10.28-3,.47-.06-3.33,10.61-1.64-.37,3.4Z"/><path class="f6ebd6a5-7683-407d-993d-9ee0eacc749c" d="M82.86,40.62l0,2.1,3.61-.55.09,3-3.65.57L83,48l4.45-.69,0,3.11L78.69,51.8l-.21-13.61,8.91-1.38L87,40Z"/><path class="f6ebd6a5-7683-407d-993d-9ee0eacc749c" d="M71.2,47.66,71.29,53,67,53.62,66.75,40l4.33-.67.07,4.88,2.39-.37L73.47,39l4.31-.66L78,51.91l-4.31.67-.12-5.28Z"/><path class="f6ebd6a5-7683-407d-993d-9ee0eacc749c" d="M78.86,84.74l-4.62.72-1.62-4.37L71.36,85.9l-4.61.72L70,78.9,66.75,73l4.61-.71L72.57,76l1.27-4.08,4.58-.71L75.21,78l0,0Z"/><path class="f6ebd6a5-7683-407d-993d-9ee0eacc749c" d="M30.89,86.77,34,91.68l-4.7.73L27,88.11l-.48.08.07,4.64-4.33.67-.21-13.61,5.12-.8c3.4-.52,5.32.28,5.7,2.74C33.15,83.58,33.05,85,30.89,86.77Zm-3.63-1.69A1.63,1.63,0,0,0,28.52,83c-.1-.69-.63-.94-1.43-.81l-.65.1,0,2.92Z"/><path class="f6ebd6a5-7683-407d-993d-9ee0eacc749c" d="M38.8,80.4l0,2.11L42.44,82l.09,3-3.65.56,0,2.33,4.45-.69,0,3.1-8.76,1.36L34.42,78l8.91-1.38-.39,3.17Z"/><path class="f6ebd6a5-7683-407d-993d-9ee0eacc749c" d="M58.48,85.43,58.14,88l-4.52.7,3.51-14.19,5.15-.8,3.9,13-4.58.7L61.15,85Zm1.15-8.6-.73,5.41L60.58,82Z"/><path class="f6ebd6a5-7683-407d-993d-9ee0eacc749c" d="M53.26,85.28l-.38,3.48-8.7,1.35L44,76.5l4.33-.67L48.45,86Z"/><g class="f782078f-a48a-4352-9b47-1901531b1262"><g class="be9e47ec-66b2-4265-bc6a-d4f008279fe2"><g class="aee7dfb5-0403-498b-b0d5-d553edd2fb96"><path class="edb0fd53-371c-44d4-a0af-550054c226bb" d="M70.89,60a2,2,0,1,1-.74,2.75A2,2,0,0,1,70.89,60"/></g></g></g><g class="f782078f-a48a-4352-9b47-1901531b1262"><g class="ba3d00dc-f0e2-4aa0-a2d5-6024d6a5fffe"><g class="aee7dfb5-0403-498b-b0d5-d553edd2fb96"><path class="edb0fd53-371c-44d4-a0af-550054c226bb" d="M26,67.23A2,2,0,1,1,25.24,70,2,2,0,0,1,26,67.23"/></g></g></g><g class="f3a56f7f-2ea0-46ec-83ec-60460f52cdec"><g class="af34e77a-410b-4070-91b0-02689eab0e48"><g class="aee7dfb5-0403-498b-b0d5-d553edd2fb96"><path class="edb0fd53-371c-44d4-a0af-550054c226bb" d="M63.41,61.22A2,2,0,1,1,62.66,64a2,2,0,0,1,.75-2.75"/></g></g></g><g class="f3a56f7f-2ea0-46ec-83ec-60460f52cdec"><g class="b1152744-2060-4a01-bc45-afd7539cae41"><g class="aee7dfb5-0403-498b-b0d5-d553edd2fb96"><path class="edb0fd53-371c-44d4-a0af-550054c226bb" d="M33.47,66a2,2,0,1,1-.75,2.76A2,2,0,0,1,33.47,66"/></g></g></g><g class="e4b1b6f3-71a0-4387-a445-4615f29754bf"><g class="f55f1f23-3faf-45e7-8110-9927f48c32da"><g class="aee7dfb5-0403-498b-b0d5-d553edd2fb96"><path class="edb0fd53-371c-44d4-a0af-550054c226bb" d="M41,64.83a2,2,0,1,1-.74,2.75A2,2,0,0,1,41,64.83"/></g></g></g><g class="e5087730-1219-4780-b0b3-ea39797cb7ea"><g class="ae455bff-0413-450c-8258-0b2e6af21f0c"><g class="aee7dfb5-0403-498b-b0d5-d553edd2fb96"><path class="edb0fd53-371c-44d4-a0af-550054c226bb" d="M48.44,63.62a2,2,0,1,1,2,3.49,2,2,0,1,1-2-3.49"/></g></g></g><g class="e4b1b6f3-71a0-4387-a445-4615f29754bf"><g class="a873ccc4-0780-490d-9d4c-2b8707c1b95f"><g class="aee7dfb5-0403-498b-b0d5-d553edd2fb96"><path class="edb0fd53-371c-44d4-a0af-550054c226bb" d="M55.92,62.42a2,2,0,1,1-.74,2.75,2,2,0,0,1,.74-2.75"/></g></g></g></svg>