<svg id="e5a202d9-fae2-45ca-a9a5-7047dde15097" data-name="Layer 1" xmlns="http://www.w3.org/2000/svg" viewBox="0 0 100 100"><defs><style>.fa7327f5-7ba5-4163-a96f-9843defe904e{fill:#071828;}.baf21757-4871-42cd-8c17-edede059a931{fill:#2c99ff;}.b1215d40-08d4-4314-b180-afa1d5a6bd9d{fill:#18548c;}.eaf16e49-d0c6-4294-982c-7f8b7cb2ac61{fill:#fff;}</style></defs><title>35_pauseinhaleexhalerepeatresume</title><rect class="fa7327f5-7ba5-4163-a96f-9843defe904e" width="100" height="100"/><path class="baf21757-4871-42cd-8c17-edede059a931" d="M52.12,44.06l1.24.16-.6,4.72-1.25-.16Z"/><path class="baf21757-4871-42cd-8c17-edede059a931" d="M57.23,44.72l1.27.16.78,2.24.31,1.12h0c0-.51,0-1.24.07-1.82l.18-1.36,1.19.15-.61,4.71-1.28-.16-.77-2.24-.31-1.11h0c0,.55,0,1.24-.07,1.82l-.18,1.37-1.19-.16Z"/><path class="baf21757-4871-42cd-8c17-edede059a931" d="M64.91,45.71l1.25.16-.23,1.75,1.41.18.23-1.75,1.24.16-.6,4.71L67,50.76l.24-1.87-1.41-.18-.24,1.87-1.24-.16Z"/><path class="baf21757-4871-42cd-8c17-edede059a931" d="M73.52,46.81,75,47l.83,4.9-1.32-.17-.11-1-1.32-.17-.36,1-1.27-.17Zm-.06,2.79.87.11,0-.33c-.06-.47-.1-1.06-.16-1.54h0c-.16.47-.35,1-.52,1.45Z"/><path class="baf21757-4871-42cd-8c17-edede059a931" d="M79.73,47.61l1.25.16-.47,3.67,1.78.23-.13,1-3-.39Z"/><path class="baf21757-4871-42cd-8c17-edede059a931" d="M86.39,48.47l3,.39-.13,1-1.8-.24-.09.74,1.53.2-.13,1-1.54-.2-.11.84,1.87.24-.13,1-3.12-.4Z"/><path class="b1215d40-08d4-4314-b180-afa1d5a6bd9d" d="M8.84,28.46l3.05.39-.14,1L10,29.67l-.1.74,1.54.19-.14,1-1.53-.2-.11.84,1.87.24-.13,1-3.12-.4Z"/><path class="b1215d40-08d4-4314-b180-afa1d5a6bd9d" d="M16.22,31.74l-.91-2.45,1.39.18.22.81c.08.23.15.51.24.83h0c.14-.29.27-.54.39-.74l.37-.74,1.33.17L17.78,32l1,2.53-1.39-.18-.27-.89c-.08-.26-.15-.52-.23-.83h0c-.14.28-.27.51-.41.74l-.45.8L14.63,34Z"/><path class="b1215d40-08d4-4314-b180-afa1d5a6bd9d" d="M22.77,30.25l1.25.16-.23,1.76,1.41.18.23-1.76,1.24.16-.6,4.72-1.25-.16.24-1.87-1.41-.18-.24,1.87L22.17,35Z"/><path class="b1215d40-08d4-4314-b180-afa1d5a6bd9d" d="M31.38,31.36l1.51.19.83,4.9-1.32-.17-.11-1L31,35.08l-.36,1-1.27-.16Zm-.06,2.79.87.11,0-.34c0-.46-.1-1.05-.15-1.54h0c-.16.46-.35,1-.53,1.45Z"/><path class="b1215d40-08d4-4314-b180-afa1d5a6bd9d" d="M37.59,32.16l1.25.16L38.37,36l1.78.23-.13,1-3-.39Z"/><path class="b1215d40-08d4-4314-b180-afa1d5a6bd9d" d="M44.25,33l3,.39-.13,1-1.8-.23-.1.74,1.54.2-.14,1L45.14,36l-.11.84,1.87.25-.13,1-3.12-.4Z"/><path class="baf21757-4871-42cd-8c17-edede059a931" d="M52.12,53.87l1.24.17-.6,4.71-1.25-.16Z"/><path class="baf21757-4871-42cd-8c17-edede059a931" d="M57.23,54.53l1.27.17.78,2.23.31,1.12h0c0-.51,0-1.24.07-1.82l.18-1.36,1.19.15-.61,4.72-1.28-.17-.77-2.24-.31-1.11h0c0,.54,0,1.23-.07,1.81l-.18,1.37-1.19-.16Z"/><path class="baf21757-4871-42cd-8c17-edede059a931" d="M64.91,55.52l1.25.16-.23,1.76,1.41.18.23-1.76,1.24.16-.6,4.71L67,60.57l.24-1.87-1.41-.18-.24,1.87-1.24-.16Z"/><path class="baf21757-4871-42cd-8c17-edede059a931" d="M73.52,56.63l1.51.19.83,4.9-1.32-.17-.11-1-1.32-.17-.36,1-1.27-.16Zm-.06,2.78.87.11,0-.33c-.06-.47-.1-1-.16-1.54h0c-.16.46-.35,1-.52,1.45Z"/><path class="baf21757-4871-42cd-8c17-edede059a931" d="M79.73,57.43l1.25.16-.47,3.66,1.78.23-.13,1.05-3-.39Z"/><path class="baf21757-4871-42cd-8c17-edede059a931" d="M86.39,58.28l3,.39-.13,1-1.8-.23-.09.74,1.53.19-.13,1-1.54-.2-.11.84,1.87.24-.13,1L85.78,63Z"/><path class="b1215d40-08d4-4314-b180-afa1d5a6bd9d" d="M8.84,38.32l3.05.4-.14,1L10,39.53l-.1.74,1.54.2-.14,1-1.53-.2-.11.84,1.87.24-.13,1L8.24,43Z"/><path class="b1215d40-08d4-4314-b180-afa1d5a6bd9d" d="M16.22,41.6l-.91-2.44,1.39.17.22.81c.08.23.15.51.24.83h0c.14-.29.27-.54.39-.74l.37-.74,1.33.18-1.5,2.19,1,2.53-1.39-.18-.27-.89c-.08-.26-.15-.52-.23-.83h0c-.14.28-.27.51-.41.74L16,44l-1.34-.17Z"/><path class="b1215d40-08d4-4314-b180-afa1d5a6bd9d" d="M22.77,40.11l1.25.16L23.79,42l1.41.18.23-1.75,1.24.16-.6,4.71-1.25-.16.24-1.87-1.41-.18L23.41,45l-1.24-.16Z"/><path class="b1215d40-08d4-4314-b180-afa1d5a6bd9d" d="M31.38,41.22l1.51.19.83,4.9-1.32-.17-.11-1L31,44.94l-.36,1-1.27-.16ZM31.32,44l.87.11,0-.34c0-.46-.1-1.05-.15-1.54h0c-.16.47-.35,1-.53,1.45Z"/><path class="b1215d40-08d4-4314-b180-afa1d5a6bd9d" d="M37.59,42l1.25.16-.47,3.67,1.78.23-.13,1-3-.39Z"/><path class="b1215d40-08d4-4314-b180-afa1d5a6bd9d" d="M44.25,42.88l3,.39-.13,1-1.8-.23-.1.74,1.54.2-.14,1-1.53-.2-.11.85L46.9,47l-.13,1-3.12-.4Z"/><path class="baf21757-4871-42cd-8c17-edede059a931" d="M52,63.7l1.25.16-.61,4.71-1.25-.16Z"/><path class="baf21757-4871-42cd-8c17-edede059a931" d="M57.13,64.36l1.28.16.77,2.24.31,1.11h0c0-.52,0-1.24.07-1.82l.18-1.36,1.19.15-.61,4.71-1.27-.16-.78-2.25L58,66h0c0,.54,0,1.24-.07,1.82l-.18,1.36-1.19-.15Z"/><path class="baf21757-4871-42cd-8c17-edede059a931" d="M64.82,65.34l1.24.16-.22,1.76,1.4.18.23-1.75,1.25.16-.61,4.71-1.25-.16.24-1.87-1.4-.18-.24,1.87-1.25-.16Z"/><path class="baf21757-4871-42cd-8c17-edede059a931" d="M73.42,66.45l1.51.2.83,4.89-1.32-.17-.1-1L73,70.17l-.36,1L71.38,71Zm0,2.79.87.11,0-.34c-.06-.46-.1-1.05-.16-1.54h0c-.16.47-.35,1-.52,1.45Z"/><path class="baf21757-4871-42cd-8c17-edede059a931" d="M79.63,67.25l1.25.16-.47,3.67,1.78.23-.13,1L79,72Z"/><path class="baf21757-4871-42cd-8c17-edede059a931" d="M86.29,68.11l3,.39-.14,1-1.8-.23-.09.74,1.54.2-.14,1-1.54-.2-.1.84,1.87.25-.14,1-3.12-.4Z"/><path class="b1215d40-08d4-4314-b180-afa1d5a6bd9d" d="M8.84,48.21l3.05.39-.14,1L10,49.41l-.1.74,1.54.2-.14,1L9.73,51.2,9.62,52l1.87.24-.13,1-3.12-.4Z"/><path class="b1215d40-08d4-4314-b180-afa1d5a6bd9d" d="M16.22,51.49,15.31,49l1.39.18.22.81c.08.23.15.5.24.83h0q.21-.44.39-.75l.37-.73,1.33.17-1.5,2.2,1,2.52-1.39-.18-.27-.88c-.08-.27-.15-.53-.23-.83h0c-.14.27-.27.51-.41.74l-.45.8-1.34-.18Z"/><path class="b1215d40-08d4-4314-b180-afa1d5a6bd9d" d="M22.77,50l1.25.16-.23,1.75,1.41.19.23-1.76,1.24.16-.6,4.71-1.25-.16.24-1.87L23.65,53l-.24,1.87-1.24-.16Z"/><path class="b1215d40-08d4-4314-b180-afa1d5a6bd9d" d="M31.38,51.11l1.51.19.83,4.9L32.4,56l-.11-1L31,54.83l-.36,1-1.27-.17Zm-.06,2.78.87.11,0-.33c0-.47-.1-1.05-.15-1.54h0c-.16.46-.35,1-.53,1.45Z"/><path class="b1215d40-08d4-4314-b180-afa1d5a6bd9d" d="M37.59,51.91l1.25.16-.47,3.66,1.78.23L40,57l-3-.39Z"/><path class="b1215d40-08d4-4314-b180-afa1d5a6bd9d" d="M44.25,52.76l3,.39-.13,1.05L45.37,54l-.1.74,1.54.19L46.67,56l-1.53-.2-.11.84,1.87.24-.13,1.05-3.12-.4Z"/><path class="baf21757-4871-42cd-8c17-edede059a931" d="M52.12,34.25l1.24.16-.6,4.71L51.51,39Z"/><path class="baf21757-4871-42cd-8c17-edede059a931" d="M57.23,34.91l1.27.16.78,2.24.31,1.12h0c0-.52,0-1.24.07-1.82l.18-1.36,1.19.15-.61,4.71L59.17,40,58.4,37.7l-.31-1.1h0c0,.55,0,1.24-.07,1.82l-.18,1.36-1.19-.15Z"/><path class="baf21757-4871-42cd-8c17-edede059a931" d="M64.91,35.9l1.25.16-.23,1.75,1.41.18.23-1.75,1.24.16-.6,4.71L67,41l.24-1.87-1.41-.18-.24,1.87-1.24-.16Z"/><path class="baf21757-4871-42cd-8c17-edede059a931" d="M73.52,37l1.51.2.83,4.89-1.32-.17-.11-1-1.32-.17-.36,1-1.27-.16Zm-.06,2.79.87.11,0-.34c-.06-.46-.11-1.05-.16-1.53h0c-.16.47-.35,1-.53,1.45Z"/><path class="baf21757-4871-42cd-8c17-edede059a931" d="M79.73,37.8,81,38l-.47,3.67,1.78.23-.13,1-3-.39Z"/><path class="baf21757-4871-42cd-8c17-edede059a931" d="M86.39,38.66l3,.39-.13,1-1.8-.23-.09.74,1.53.2-.13,1-1.54-.19-.11.84,1.87.24-.13,1-3.12-.4Z"/><path class="eaf16e49-d0c6-4294-982c-7f8b7cb2ac61" d="M10.17,6.09l1.71.35c1,.2,1.82.75,1.58,1.92a1.67,1.67,0,0,1-2.19,1.26l-.5-.1L10.47,11l-1.23-.25Zm1.24,2.55a.63.63,0,0,0,.85-.52c.08-.41-.16-.63-.63-.72l-.42-.08L11,8.55Z"/><path class="eaf16e49-d0c6-4294-982c-7f8b7cb2ac61" d="M19.63,8l1.49.29.49,5L20.3,13l0-1L19,11.67l-.43.94-1.26-.25Zm-.25,2.77.86.17,0-.34c0-.46,0-1.05,0-1.54h0c-.2.46-.42,1-.63,1.41Z"/><path class="eaf16e49-d0c6-4294-982c-7f8b7cb2ac61" d="M26.74,11.91l.48-2.41,1.23.25-.51,2.55c-.16.83,0,1.18.48,1.27s.77-.15.94-1L29.87,10l1.19.24-.48,2.41c-.32,1.59-1.07,2.22-2.37,2S26.42,13.5,26.74,11.91Z"/><path class="eaf16e49-d0c6-4294-982c-7f8b7cb2ac61" d="M35.23,15.35l.87-.71a1.94,1.94,0,0,0,1,.67c.37.07.55,0,.59-.22s-.17-.34-.54-.58l-.53-.36a1.42,1.42,0,0,1-.68-1.49,1.62,1.62,0,0,1,2-1.1,2.31,2.31,0,0,1,1.42.94l-.77.65a1.55,1.55,0,0,0-.87-.53c-.3-.06-.5,0-.55.22s.21.36.6.6l.52.34A1.3,1.3,0,0,1,39,15.24a1.65,1.65,0,0,1-2.12,1.13A2.76,2.76,0,0,1,35.23,15.35Z"/><path class="eaf16e49-d0c6-4294-982c-7f8b7cb2ac61" d="M44.64,13l3,.6-.21,1-1.78-.35-.15.73,1.52.3-.2,1L45.32,16l-.17.83,1.85.37-.2,1-3.09-.61Z"/><path class="b1215d40-08d4-4314-b180-afa1d5a6bd9d" d="M8.84,58.07l3.05.39-.14,1L10,59.27l-.1.74,1.54.2-.14,1-1.53-.2-.11.84,1.87.24-.13,1-3.12-.4Z"/><path class="b1215d40-08d4-4314-b180-afa1d5a6bd9d" d="M16.22,61.35l-.91-2.45,1.39.18.22.81c.08.23.15.51.24.83h0q.21-.44.39-.75l.37-.73,1.33.17-1.5,2.2,1,2.52L17.36,64l-.27-.89c-.08-.27-.15-.52-.23-.83h0c-.14.27-.27.51-.41.74l-.45.8-1.34-.17Z"/><path class="b1215d40-08d4-4314-b180-afa1d5a6bd9d" d="M22.77,59.86,24,60l-.23,1.76L25.2,62l.23-1.76,1.24.16-.6,4.72-1.25-.16L25.06,63l-1.41-.18-.24,1.87-1.24-.16Z"/><path class="b1215d40-08d4-4314-b180-afa1d5a6bd9d" d="M31.38,61l1.51.19.83,4.9-1.32-.17-.11-1L31,64.69l-.36,1-1.27-.16Zm-.06,2.78.87.12,0-.34c0-.47-.1-1.05-.15-1.54h0c-.16.46-.35,1-.53,1.45Z"/><path class="b1215d40-08d4-4314-b180-afa1d5a6bd9d" d="M37.59,61.77l1.25.16-.47,3.67,1.78.23-.13,1-3-.39Z"/><path class="b1215d40-08d4-4314-b180-afa1d5a6bd9d" d="M44.25,62.62l3,.39-.13,1.05-1.8-.23-.1.74,1.54.2-.14,1-1.53-.2-.11.84,1.87.24-.13,1-3.12-.4Z"/><path class="baf21757-4871-42cd-8c17-edede059a931" d="M52,73.51l1.25.16-.61,4.71-1.25-.16Z"/><path class="baf21757-4871-42cd-8c17-edede059a931" d="M57.13,74.17l1.28.16.77,2.24.31,1.12h0c0-.52,0-1.24.07-1.82l.18-1.36,1.19.15-.61,4.71-1.27-.16L58.3,77,58,75.86h0c0,.55,0,1.24-.07,1.82L57.71,79l-1.19-.15Z"/><path class="baf21757-4871-42cd-8c17-edede059a931" d="M64.82,75.16l1.24.16-.22,1.75,1.4.18.23-1.75,1.25.16-.61,4.71-1.25-.16.24-1.87-1.4-.18L65.46,80l-1.25-.16Z"/><path class="baf21757-4871-42cd-8c17-edede059a931" d="M73.42,76.26l1.51.2.83,4.89-1.32-.17-.1-1L73,80l-.36,1-1.28-.17Zm0,2.79.87.11,0-.34c-.06-.46-.1-1-.16-1.53h0c-.16.47-.35,1-.52,1.45Z"/><path class="baf21757-4871-42cd-8c17-edede059a931" d="M79.63,77.06l1.25.16-.47,3.67,1.78.23-.13,1-3-.39Z"/><path class="baf21757-4871-42cd-8c17-edede059a931" d="M86.29,77.92l3,.39-.14,1-1.8-.23-.09.74,1.54.2-.14,1-1.54-.19-.1.84,1.87.24-.14,1-3.12-.4Z"/><path class="b1215d40-08d4-4314-b180-afa1d5a6bd9d" d="M8.84,18.58l3.05.39-.14,1L10,19.78l-.1.74,1.54.2-.14,1-1.53-.2-.11.85,1.87.24-.13,1-3.12-.4Z"/><path class="b1215d40-08d4-4314-b180-afa1d5a6bd9d" d="M16.22,21.85l-.91-2.44,1.39.18.22.81c.08.23.15.5.24.82h0q.21-.43.39-.75l.37-.73,1.33.17-1.5,2.19,1,2.53-1.39-.18-.27-.89c-.08-.26-.15-.52-.23-.82h0c-.14.28-.27.51-.41.75l-.45.79-1.34-.17Z"/><path class="b1215d40-08d4-4314-b180-afa1d5a6bd9d" d="M22.77,20.37l1.25.16-.23,1.75,1.41.18.23-1.75,1.24.16-.6,4.71-1.25-.16.24-1.87-1.41-.18-.24,1.87-1.24-.16Z"/><path class="b1215d40-08d4-4314-b180-afa1d5a6bd9d" d="M31.38,21.47l1.51.2.83,4.9L32.4,26.4l-.11-1L31,25.2l-.36,1L29.34,26Zm-.06,2.79.87.11,0-.33c0-.47-.1-1.06-.15-1.54h0c-.16.47-.35,1-.53,1.45Z"/><path class="b1215d40-08d4-4314-b180-afa1d5a6bd9d" d="M37.59,22.27l1.25.16-.47,3.67,1.78.23L40,27.38,37,27Z"/><path class="b1215d40-08d4-4314-b180-afa1d5a6bd9d" d="M44.25,23.13l3,.39-.13,1.05-1.8-.24-.1.74,1.54.2-.14,1.05-1.53-.2L45,27l1.87.24-.13,1-3.12-.4Z"/><path class="baf21757-4871-42cd-8c17-edede059a931" d="M52.12,14.61l1.24.16-.6,4.72-1.25-.16Z"/><path class="baf21757-4871-42cd-8c17-edede059a931" d="M57.23,15.27l1.27.17.78,2.23.31,1.12h0c0-.51,0-1.24.07-1.82l.18-1.36,1.19.15-.61,4.72-1.28-.17-.77-2.24L58.09,17h0c0,.54,0,1.23-.07,1.81l-.18,1.37L56.62,20Z"/><path class="baf21757-4871-42cd-8c17-edede059a931" d="M64.91,16.26l1.25.16-.23,1.75,1.41.19.23-1.76,1.24.16-.6,4.71L67,21.31l.24-1.87-1.41-.18-.24,1.87L64.31,21Z"/><path class="baf21757-4871-42cd-8c17-edede059a931" d="M73.52,17.37l1.51.19.83,4.9-1.32-.17-.11-1-1.32-.17-.36,1-1.27-.17Zm-.06,2.78.87.11,0-.33c-.06-.47-.1-1.05-.16-1.54h0c-.16.46-.35,1-.52,1.45Z"/><path class="baf21757-4871-42cd-8c17-edede059a931" d="M79.73,18.17l1.25.16L80.51,22l1.78.23-.13,1.05-3-.39Z"/><path class="baf21757-4871-42cd-8c17-edede059a931" d="M86.39,19l3,.39-.13,1.05-1.8-.23-.09.73,1.53.2-.13,1.05L87.27,22l-.11.84,1.87.24-.13,1-3.12-.4Z"/><path class="baf21757-4871-42cd-8c17-edede059a931" d="M52.12,24.43l1.24.16-.6,4.71-1.25-.16Z"/><path class="baf21757-4871-42cd-8c17-edede059a931" d="M57.23,25.08l1.27.17.78,2.23.31,1.12h0c0-.51,0-1.23.07-1.81l.18-1.37,1.19.16-.61,4.71-1.28-.17-.77-2.24-.31-1.11h0c0,.54,0,1.24-.07,1.82L57.81,30l-1.19-.15Z"/><path class="baf21757-4871-42cd-8c17-edede059a931" d="M64.91,26.07l1.25.16L65.93,28l1.41.18.23-1.76,1.24.16-.6,4.72L67,31.13l.24-1.87-1.41-.19-.24,1.87-1.24-.16Z"/><path class="baf21757-4871-42cd-8c17-edede059a931" d="M73.52,27.18l1.51.19.83,4.9-1.32-.17-.11-1-1.32-.17-.36,1-1.27-.16ZM73.46,30l.87.12,0-.34c-.06-.46-.1-1-.16-1.54h0c-.16.46-.35,1-.52,1.45Z"/><path class="baf21757-4871-42cd-8c17-edede059a931" d="M79.73,28l1.25.16-.47,3.67,1.78.23-.13,1-3-.39Z"/><path class="baf21757-4871-42cd-8c17-edede059a931" d="M86.39,28.83l3,.39-.13,1.05L87.5,30l-.09.74,1.53.19L88.81,32l-1.54-.2-.11.84L89,32.9,88.9,34l-3.12-.4Z"/><path class="b1215d40-08d4-4314-b180-afa1d5a6bd9d" d="M8.84,77.83l3.05.39-.14,1L10,79l-.1.74,1.54.2-.14,1-1.53-.19-.11.84,1.87.24-.13,1-3.12-.4Z"/><path class="b1215d40-08d4-4314-b180-afa1d5a6bd9d" d="M16.22,81.11l-.91-2.45,1.39.18.22.81c.08.23.15.5.24.83h0q.21-.44.39-.75L18,79l1.33.17-1.5,2.2,1,2.52-1.39-.18-.27-.88c-.08-.27-.15-.53-.23-.83h0c-.14.27-.27.51-.41.74l-.45.8-1.34-.18Z"/><path class="b1215d40-08d4-4314-b180-afa1d5a6bd9d" d="M22.77,79.62l1.25.16-.23,1.76,1.41.18L25.43,80l1.24.16-.6,4.71-1.25-.16.24-1.87-1.41-.18-.24,1.87-1.24-.16Z"/><path class="b1215d40-08d4-4314-b180-afa1d5a6bd9d" d="M31.38,80.73l1.51.19.83,4.9-1.32-.17-.11-1L31,84.45l-.36,1-1.27-.17Zm-.06,2.78.87.11,0-.33c0-.47-.1-1.05-.15-1.54h0c-.16.46-.35,1-.53,1.45Z"/><path class="b1215d40-08d4-4314-b180-afa1d5a6bd9d" d="M37.59,81.53l1.25.16-.47,3.66,1.78.23-.13,1-3-.39Z"/><path class="b1215d40-08d4-4314-b180-afa1d5a6bd9d" d="M44.25,82.38l3,.39-.13,1-1.8-.23-.1.74,1.54.19-.14,1-1.53-.2-.11.84,1.87.24-.13,1-3.12-.4Z"/><path class="b1215d40-08d4-4314-b180-afa1d5a6bd9d" d="M8.84,67.93l3.05.39-.14,1.05L10,69.14l-.1.74,1.54.19-.14,1.05-1.53-.2-.11.84,1.87.24-.13,1-3.12-.4Z"/><path class="b1215d40-08d4-4314-b180-afa1d5a6bd9d" d="M16.22,71.21l-.91-2.45,1.39.18.22.81c.08.23.15.51.24.83h0c.14-.29.27-.54.39-.74L18,69.1l1.33.17-1.5,2.2,1,2.53-1.39-.18-.27-.89c-.08-.26-.15-.52-.23-.83h0c-.14.27-.27.51-.41.74l-.45.8-1.34-.17Z"/><path class="b1215d40-08d4-4314-b180-afa1d5a6bd9d" d="M22.77,69.72l1.25.16-.23,1.76,1.41.18.23-1.76,1.24.16-.6,4.72-1.25-.16.24-1.87-1.41-.19-.24,1.88-1.24-.17Z"/><path class="b1215d40-08d4-4314-b180-afa1d5a6bd9d" d="M31.38,70.83l1.51.19.83,4.9-1.32-.17-.11-1L31,74.55l-.36,1-1.27-.16Zm-.06,2.78.87.12,0-.34c0-.46-.1-1-.15-1.54h0c-.16.46-.35,1-.53,1.45Z"/><path class="b1215d40-08d4-4314-b180-afa1d5a6bd9d" d="M37.59,71.63l1.25.16-.47,3.67,1.78.23-.13,1-3-.39Z"/><path class="b1215d40-08d4-4314-b180-afa1d5a6bd9d" d="M44.25,72.48l3,.4-.13,1-1.8-.23-.1.74,1.54.2-.14,1-1.53-.2-.11.84,1.87.24-.13,1-3.12-.4Z"/><path class="eaf16e49-d0c6-4294-982c-7f8b7cb2ac61" d="M51.63,83.89l1.66.21c1,.12,1.72.55,1.58,1.65A1.36,1.36,0,0,1,54,86.93l.73,1.83-1.3-.16L52.86,87,52.42,87l-.19,1.48-1.17-.15ZM53,86.1c.47.06.74-.12.78-.5s-.18-.53-.64-.59L52.67,85,52.53,86Z"/><path class="eaf16e49-d0c6-4294-982c-7f8b7cb2ac61" d="M58.53,84.78l2.85.36-.13,1-1.68-.22-.09.69,1.44.19-.13,1-1.43-.18-.11.78,1.75.23-.12,1L58,89.18Z"/><path class="eaf16e49-d0c6-4294-982c-7f8b7cb2ac61" d="M64.16,89.42l.77-.72a1.81,1.81,0,0,0,1,.56c.35,0,.52-.05.54-.24s-.19-.31-.54-.51l-.52-.3a1.31,1.31,0,0,1-.73-1.34,1.52,1.52,0,0,1,1.82-1.16,2.14,2.14,0,0,1,1.38.78l-.67.66a1.45,1.45,0,0,0-.84-.43c-.29,0-.48,0-.5.23s.21.32.59.53l.51.28a1.22,1.22,0,0,1,.71,1.31,1.54,1.54,0,0,1-1.91,1.19A2.55,2.55,0,0,1,64.16,89.42Z"/><path class="eaf16e49-d0c6-4294-982c-7f8b7cb2ac61" d="M71.06,88.7l.29-2.28,1.17.15L72.21,89c-.1.78.07,1.09.53,1.15s.71-.2.81-1l.31-2.41,1.13.14-.3,2.28c-.19,1.5-.85,2.13-2.08,2S70.87,90.2,71.06,88.7Z"/><path class="eaf16e49-d0c6-4294-982c-7f8b7cb2ac61" d="M78.57,87.35l1.25.16.43,1.89c0,.25.08.53.13.8h0c.11-.24.21-.5.33-.74l.86-1.72,1.25.16-.57,4.41-1-.14.16-1.3a15.87,15.87,0,0,1,.36-1.55h0l-.5,1-.73,1.39-.63-.08-.35-1.53L79.29,89h0c0,.45,0,1.14-.06,1.59l-.16,1.3-1-.13Z"/><path class="eaf16e49-d0c6-4294-982c-7f8b7cb2ac61" d="M86.46,88.37l2.85.36-.13,1-1.68-.22-.09.69,1.44.19-.13,1-1.43-.18-.1.78,1.74.23-.12,1-2.91-.37Z"/></svg>