<svg id="b680f8ca-2c04-49b5-a19e-61a5fb382e02" data-name="Layer 1" xmlns="http://www.w3.org/2000/svg" viewBox="0 0 100 100"><defs><style>.bccf9f8f-150d-4fd1-86be-330be39bd68d{fill:#ff6d5d;}.a7241b21-d0b9-48bf-99fb-e972ee89748e,.bccf9f8f-150d-4fd1-86be-330be39bd68d{fill-rule:evenodd;}.a7241b21-d0b9-48bf-99fb-e972ee89748e{fill:#b04b40;}.ffa7e38c-b29a-425e-bfc0-f4c4e370e263{fill:#fff;}</style></defs><title>53_pauseandfeelfreedom_outlines_100</title><polygon class="bccf9f8f-150d-4fd1-86be-330be39bd68d" points="0 50 0 0 100 0 100 100 0 100 0 50"/><polygon class="a7241b21-d0b9-48bf-99fb-e972ee89748e" points="100 81.19 0 97.8 0 100 98.2 100 100 99.7 100 81.19"/><path class="ffa7e38c-b29a-425e-bfc0-f4c4e370e263" d="M15,70.09v.19l2.75-.45-.45,3.58-2.22.36.15,7c.12,4.61-2.59,6.91-5.62,8.37L7.88,85.77a3.76,3.76,0,0,0,2.41-3.85l-.18-7.33-1.49.24-.1-3.49L10,71.09v-.51c-.07-2.72,1.56-5.17,5.11-5.75a7,7,0,0,1,4.08.49L18,68.5a3.67,3.67,0,0,0-1.79-.15C15.45,68.47,15,68.92,15,70.09Z"/><path class="ffa7e38c-b29a-425e-bfc0-f4c4e370e263" d="M27.22,68.11l-.6,5.13a3.81,3.81,0,0,0-1.11,0c-1.45.23-1.8,1.8-2.08,3.3l.11,5-5,.81-.31-12.57L22.62,69,23,71.15a4.32,4.32,0,0,1,3-3.07A2.73,2.73,0,0,1,27.22,68.11Z"/><path class="ffa7e38c-b29a-425e-bfc0-f4c4e370e263" d="M32.15,75.64a1.48,1.48,0,0,0,1.91,1,5.84,5.84,0,0,0,2.8-1.61L39,77.65a9,9,0,0,1-5.05,2.68c-4.14.68-6.32-1.27-6.83-4.42-.54-3.32.64-8.19,6.28-9.11,3.32-.54,5.38.68,5.72,2.76C39.66,73,35.54,74.78,32.15,75.64Zm2.06-5c-.09-.55-.34-.77-1-.67-1,.16-1.32,1.46-1.36,2.83C34.5,72.34,34.22,70.71,34.21,70.69Z"/><path class="ffa7e38c-b29a-425e-bfc0-f4c4e370e263" d="M44.46,73.63a1.48,1.48,0,0,0,1.91,1.06,5.75,5.75,0,0,0,2.8-1.61l2.14,2.57a9.08,9.08,0,0,1-5.05,2.68c-4.15.67-6.33-1.28-6.84-4.42-.54-3.32.64-8.2,6.28-9.12,3.33-.54,5.39.68,5.72,2.77C52,71,47.85,72.78,44.46,73.63Zm2.07-4.94c-.09-.56-.34-.77-1-.67-1,.16-1.32,1.46-1.35,2.83C46.82,70.33,46.53,68.71,46.53,68.69Z"/><path class="ffa7e38c-b29a-425e-bfc0-f4c4e370e263" d="M64.36,74.87l-4.45.72-.22-1.49a4.58,4.58,0,0,1-3.28,2.58c-2.66.43-4.13-1.24-4.64-4.4-.57-3.51.26-8.51,4.94-9.28a3.36,3.36,0,0,1,2.38.49L59,57.7l5-.3Zm-7.47-3.52c.23,1.4.61,1.43.93,1.38.57-.09,1.1-1.19,1.42-2l-.08-4.13a1.11,1.11,0,0,0-.95-.2C56.56,66.7,56.62,69.68,56.89,71.35Z"/><path class="ffa7e38c-b29a-425e-bfc0-f4c4e370e263" d="M77.15,65.19c.59,3.78-.52,8.2-6.05,9.1-3.44.56-5.85-1.1-6.4-4.47-.61-3.8.51-8.2,6-9.1C74.19,60.16,76.64,61.88,77.15,65.19Zm-7.34,4c.18,1.12.5,1.47,1.14,1.36,1.7-.27,1.3-3.41,1.1-4.81-.17-1.15-.5-1.49-1.17-1.39C69.18,64.67,69.58,67.81,69.81,69.23Z"/><path class="ffa7e38c-b29a-425e-bfc0-f4c4e370e263" d="M95.14,60.52l.22,9.3-5,.81-.06-7.87c0-.8-.16-1-.36-.93s-.74.83-1,2.54l.16,6.47-5,.81-.05-7.88c0-.8-.16-1-.37-.93s-.82.87-1,2.61l.1,6.41-5,.81-.3-12.57L82,59.39l.32,1.69a4.57,4.57,0,0,1,3.27-2.77,2.53,2.53,0,0,1,3.07,1.55,4.84,4.84,0,0,1,3.16-2.56C93.84,57,95.08,58.1,95.14,60.52Z"/><path class="ffa7e38c-b29a-425e-bfc0-f4c4e370e263" d="M25.74,26.21c.63,3.78-1.12,9.06-8.13,10.23l-1.92.32.18,6.52L9,44.43,8.36,22.66l8-1.34C21.56,20.46,25.06,22.13,25.74,26.21Zm-7,1.61c-.18-1.1-.83-1.78-2.32-1.53l-1,.17.13,5.28,1.16-.2C18.8,31.19,18.92,28.89,18.74,27.82Z"/><path class="ffa7e38c-b29a-425e-bfc0-f4c4e370e263" d="M42.62,23.46,42.86,33c0,.28,0,.56.07.77a1.05,1.05,0,0,0,.85,1l-1.2,4.58c-2,.24-4.06-.29-5.09-1.91a5.38,5.38,0,0,1-4.31,3.64c-3.66.61-5.89-1.68-6.58-5.83-.81-4.88.77-11.35,8.18-12.58A14.75,14.75,0,0,1,42.62,23.46ZM33.36,34.09c.31,1.86.88,1.86,1.3,1.79.58-.1,1.24-.65,1.67-1.88l-.13-6.77a5.37,5.37,0,0,0-1,.07C33,27.67,32.91,31.38,33.36,34.09Z"/><path class="ffa7e38c-b29a-425e-bfc0-f4c4e370e263" d="M54.63,36.81,54.35,35a6.71,6.71,0,0,1-4.55,3.36c-3.2.53-4.56-1.46-4.66-4.64l-.31-12,6.62-1.1.33,10.6c0,1.09.35,1.19.66,1.14s.77-.63,1.15-1.73l-.25-10.33L60,19.13l.47,16.72Z"/><path class="ffa7e38c-b29a-425e-bfc0-f4c4e370e263" d="M75.15,18.16l-2.21,4a7.07,7.07,0,0,0-3.87-.51c-.89.14-1.07.36-1,.7s.32.45,3.22.93c2.62.44,4.34,1.79,4.77,4.35s-.17,6.29-6.82,7.4a10.46,10.46,0,0,1-8-1.74l2.65-3.88a6.37,6.37,0,0,0,4.43,1c.67-.11,1.52-.12,1.39-.89-.09-.51-.54-.6-3.28-1.05-2.58-.45-4.41-2-4.8-4.34-.56-3.38,1.86-6.32,6.68-7.13C70.59,16.7,73.63,17.07,75.15,18.16Z"/><path class="ffa7e38c-b29a-425e-bfc0-f4c4e370e263" d="M83.44,26.07A2,2,0,0,0,86,27.46a7.67,7.67,0,0,0,3.71-2.15l2.86,3.4a12.05,12.05,0,0,1-6.7,3.6c-5.52.92-8.43-1.67-9.12-5.84C76,22,77.55,15.55,85.05,14.3c4.42-.74,7.16.87,7.62,3.65C93.43,22.46,87.94,24.91,83.44,26.07Zm2.72-6.6c-.12-.73-.45-1-1.27-.88-1.32.22-1.75,1.95-1.79,3.77C86.56,21.66,86.17,19.5,86.16,19.47Z"/><path class="ffa7e38c-b29a-425e-bfc0-f4c4e370e263" d="M35.44,48.87c.12.8-.06,1.75-1.77,3.32l1.39,1.15a10.78,10.78,0,0,0,.52-1.76l2.66.43a12.79,12.79,0,0,1-1.39,2.77L38.6,56.1l-2.7,1.61L35,57a6.31,6.31,0,0,1-3.23,1.4c-2.25.35-3.81-.59-4.07-2.26-.22-1.42.44-2.39,1.89-3.55a3.32,3.32,0,0,1-1.43-2.19c-.15-1,.3-3,3.52-3.51C33.91,46.49,35.21,47.38,35.44,48.87ZM31.2,55.26c.08.52.4.78,1.08.68a6.44,6.44,0,0,0,1-.29l-1.84-1.52A1.71,1.71,0,0,0,31.2,55.26Zm0-5.48c0,.32.17.51.58.89a1.46,1.46,0,0,0,.56-1.33.49.49,0,0,0-.57-.44A.69.69,0,0,0,31.23,49.78Z"/><path class="ffa7e38c-b29a-425e-bfc0-f4c4e370e263" d="M43.66,47.78l0,2.07,2.71-.42,0,2.45-2.7.42.06,3.85-3.45.53-.16-10.83L47,44.79l-.32,2.52Z"/><path class="ffa7e38c-b29a-425e-bfc0-f4c4e370e263" d="M51.42,46.58l0,1.68,2.87-.44.07,2.37-2.9.44,0,1.85,3.54-.54,0,2.47-7,1.07-.17-10.83,7.1-1.1-.31,2.52Z"/><path class="ffa7e38c-b29a-425e-bfc0-f4c4e370e263" d="M59.67,45.31l0,1.68,2.87-.45.07,2.37-2.9.45,0,1.85,3.54-.55,0,2.47-7,1.08-.16-10.84,7.09-1.09L63,44.8Z"/><path class="ffa7e38c-b29a-425e-bfc0-f4c4e370e263" d="M71.83,49.09l-.3,2.77L64.6,52.93,64.44,42.1l3.45-.53L68,49.69Z"/><polygon class="a7241b21-d0b9-48bf-99fb-e972ee89748e" points="100 1.6 100 0 0 0 0 18.21 100 1.6"/></svg>