<?xml version="1.0" encoding="UTF-8"?>
<svg width="2048px" height="2049px" viewBox="0 0 2048 2049" version="1.1" xmlns="http://www.w3.org/2000/svg" xmlns:xlink="http://www.w3.org/1999/xlink">
    <!-- Generator: Sketch 64 (93537) - https://sketch.com -->
    <title>see-for-yourself</title>
    <desc>Created with Sketch.</desc>
    <g id="see-for-yourself" stroke="none" stroke-width="1" fill="none" fill-rule="evenodd" transform="translate(0.000000, 1.000000)">
        <rect fill="#3D1A0C" x="0" y="0" width="2048" height="2048"></rect>
        <g id="Text-Outlines" transform="translate(-55.500000, 315.000000)" fill="#FFE0AA" fill-rule="nonzero">
            <path d="M344.279174,505.99346 C351.272634,491.507007 354.769364,482.015882 361.263292,482.015882 C373.252081,482.015882 410.717047,503.995329 461.669401,503.995329 C531.104471,503.995329 592.547016,457.039238 592.547016,376.114911 C592.547016,302.184045 536.0998,286.698525 493.639505,270.21394 C469.162394,260.722816 438.690888,249.733092 438.690888,212.268126 C438.690888,178.29989 462.168934,153.822779 502.131564,153.822779 C549.087655,153.822779 574.563832,181.79662 581.557292,256.22702 L588.05122,256.22702 L604.036272,148.327917 L596.543279,148.327917 C591.048417,157.319509 587.551687,164.812502 581.05776,164.812502 C571.566635,164.812502 545.091392,143.832121 498.135301,143.832121 C435.693691,143.832121 375.749745,183.794752 375.749745,261.222349 C375.749745,330.657419 424.204435,350.638734 446.683415,359.130793 C494.139038,376.614444 524.610544,387.604167 524.610544,429.56493 C524.610544,468.028961 503.13063,493.505138 458.672204,493.505138 C395.231528,493.505138 366.258621,447.548113 363.760956,383.607904 L355.268897,383.607904 L336.286648,505.99346 L344.279174,505.99346 Z M702.626966,503.995329 C762.570912,503.995329 799.036812,478.519152 817.519529,417.076607 L807.528871,414.07941 C790.04522,468.528494 763.070445,486.012145 738.593333,486.012145 C703.626032,486.012145 689.639111,455.540639 696.632571,385.106503 C707.122762,385.106503 719.611084,384.60697 735.596136,382.608839 C782.052694,376.114911 835.502712,361.628458 835.502712,312.674235 C835.502712,275.708802 808.527937,256.22702 752.080721,256.22702 C663.663401,256.22702 601.721324,308.677972 601.721324,411.082213 C601.721324,470.027093 639.18629,503.995329 702.626966,503.995329 Z M697.631637,375.615378 C705.12463,315.1719 720.61015,265.718144 747.584925,265.718144 C759.573714,265.718144 762.570912,277.706934 762.570912,296.18965 C762.570912,357.632195 731.599873,374.11678 697.631637,375.615378 Z M932.594807,503.995329 C992.538753,503.995329 1029.00465,478.519152 1047.48737,417.076607 L1037.49671,414.07941 C1020.01306,468.528494 993.038286,486.012145 968.561175,486.012145 C933.593873,486.012145 919.606953,455.540639 926.600413,385.106503 C937.090603,385.106503 949.578925,384.60697 965.563978,382.608839 C1012.02054,376.114911 1065.47055,361.628458 1065.47055,312.674235 C1065.47055,275.708802 1038.49578,256.22702 982.048563,256.22702 C893.631243,256.22702 831.689165,308.677972 831.689165,411.082213 C831.689165,470.027093 869.154132,503.995329 932.594807,503.995329 Z M927.599479,375.615378 C935.092472,315.1719 950.577991,265.718144 977.552767,265.718144 C989.541556,265.718144 992.538753,277.706934 992.538753,296.18965 C992.538753,357.632195 961.567715,374.11678 927.599479,375.615378 Z M1090.81263,624.382753 C1175.73322,624.382753 1218.69305,576.427597 1233.67903,495.50327 L1275.14026,270.21394 L1334.08514,270.21394 L1336.08327,261.222349 L1276.13933,261.222349 L1281.63419,227.753645 C1294.62205,149.826516 1304.11317,121.353142 1332.08701,121.353142 C1348.07206,121.353142 1359.56132,132.842398 1346.57347,163.313904 L1324.09449,166.311101 C1320.59776,173.804094 1319.09916,180.797555 1319.09916,187.291482 C1319.09916,207.77233 1335.08421,221.759251 1358.06272,221.759251 C1382.53983,221.759251 1404.01975,203.276534 1404.01975,171.805963 C1404.01975,129.845201 1361.05992,112.861083 1325.09355,112.861083 C1244.66876,112.861083 1198.71173,161.315772 1184.22528,241.740566 L1180.72855,261.222349 L1144.76218,261.222349 L1143.26358,270.21394 L1179.72948,270.21394 L1137.76872,508.990658 C1124.28133,579.924327 1115.78927,613.892563 1087.81543,613.892563 C1069.83225,613.892563 1063.83785,597.407978 1076.32618,575.428531 L1097.30656,572.930866 C1110.29441,543.957959 1096.80702,516.483651 1065.33645,516.483651 C1035.86401,516.483651 1014.88363,539.462163 1014.88363,568.43507 C1014.88363,610.895365 1059.34206,624.382753 1090.81263,624.382753 Z M1393.21274,503.995329 C1480.13146,503.995329 1539.57587,451.044843 1539.57587,346.142938 C1539.57587,283.201795 1503.60951,256.22702 1437.17163,256.22702 C1341.26132,256.22702 1290.30897,320.666761 1290.30897,410.083147 C1290.30897,472.025224 1324.2772,503.995329 1393.21274,503.995329 Z M1396.20994,495.003737 C1379.72535,495.003737 1373.73096,484.513546 1373.73096,461.535034 C1373.73096,444.051383 1376.22862,415.578009 1381.72348,383.607904 C1395.21087,303.682643 1403.70293,265.218612 1434.67397,265.218612 C1449.16042,265.218612 1455.15482,277.706934 1455.15482,300.185913 C1455.15482,319.168163 1452.15762,344.144807 1447.16229,375.115845 C1431.67677,467.529428 1424.18378,495.003737 1396.20994,495.003737 Z M1543.25532,502.996263 C1568.7315,499.499533 1622.68105,495.50327 1643.66143,496.502336 C1644.6605,468.028961 1647.15816,437.057923 1657.64835,391.100898 C1670.13667,336.651814 1696.61191,300.185913 1723.58669,299.186848 L1726.58389,340.648077 C1738.07314,346.642471 1750.06193,349.140136 1761.05166,349.140136 C1787.02737,348.640603 1808.50728,333.654616 1808.50728,300.685446 C1808.50728,267.216743 1784.03017,256.22702 1762.05072,256.22702 C1706.10304,256.22702 1670.13667,317.170031 1655.65022,355.634063 L1653.15255,355.13453 L1674.63247,261.222349 L1551.24785,261.222349 L1549.74925,270.21394 L1583.71748,270.21394 L1565.7343,400.592022 L1543.25532,502.996263 Z" id="Seefor" transform="translate(1072.396964, 368.621918) rotate(-9.000000) translate(-1072.396964, -368.621918) "></path>
            <path d="M348.414226,1021 L349.912825,1011.50888 L309.450662,1011.50888 L335.426371,861.649011 L454.315197,680.818108 L477.29371,680.818108 L479.791374,671.326983 L407.359106,671.326983 L405.360975,680.818108 L439.329211,680.818108 L330.930575,844.664893 L281.976353,680.818108 L315.944589,680.818108 L318.442253,671.326983 L156.094067,671.326983 L154.095935,680.818108 L184.067908,680.818108 L243.012788,862.648077 L218.535677,1011.50888 L178.573047,1011.50888 L177.074448,1021 L348.414226,1021 Z M490.963814,1025.99533 C577.882535,1025.99533 637.326948,973.044843 637.326948,868.142938 C637.326948,805.201795 601.36058,778.22702 534.922707,778.22702 C439.012394,778.22702 388.06004,842.666761 388.06004,932.083147 C388.06004,994.025224 422.028276,1025.99533 490.963814,1025.99533 Z M493.961011,1017.00374 C477.476426,1017.00374 471.482031,1006.51355 471.482031,983.535034 C471.482031,966.051383 473.979696,937.578009 479.474557,905.607904 C492.961945,825.682643 501.454004,787.218612 532.425043,787.218612 C546.911496,787.218612 552.905891,799.706934 552.905891,822.185913 C552.905891,841.168163 549.908694,866.144807 544.913365,897.115845 C529.427845,989.529428 521.934852,1017.00374 493.961011,1017.00374 Z M871.790585,1025.99533 C901.263025,1025.99533 923.242472,1016.5042 943.72332,985.033633 L935.730794,979.039238 C922.243406,999.520086 911.753216,1007.01308 902.761624,1007.01308 C887.276105,1007.01308 889.274236,991.52756 891.272368,975.042975 C896.767229,929.585483 914.25088,842.666761 926.739202,782.223283 C912.752282,785.22048 842.318145,788.71721 826.832626,788.217677 C826.832626,810.197124 821.337764,845.663959 815.842903,874.137333 C802.355515,946.569601 776.879338,998.021487 754.899891,998.021487 C737.915773,998.021487 740.91297,981.536902 742.911102,969.04858 C748.405964,933.082213 760.894286,876.634997 782.3742,783.222349 L654.493782,783.222349 L652.995183,792.21394 L686.963419,792.21394 C680.469492,822.685446 663.984907,907.606036 655.992381,950.066331 C647.999855,993.026159 663.485374,1025.99533 710.940998,1025.99533 C768.387279,1025.99533 793.363923,988.03083 811.347107,939.57614 L814.344304,940.575206 C797.360186,997.521955 815.842903,1025.99533 871.790585,1025.99533 Z M940.409306,1024.99626 C965.885483,1021.49953 1019.83503,1017.50327 1040.81542,1018.50234 C1041.81448,990.028961 1044.31215,959.057923 1054.80234,913.100898 C1067.29066,858.651814 1093.7659,822.185913 1120.74068,821.186848 L1123.73787,862.648077 C1135.22713,868.642471 1147.21592,871.140136 1158.20564,871.140136 C1184.18135,870.640603 1205.66127,855.654616 1205.66127,822.685446 C1205.66127,789.216743 1181.18415,778.22702 1159.20471,778.22702 C1103.25703,778.22702 1067.29066,839.170031 1052.8042,877.634063 L1050.30654,877.13453 L1071.78645,783.222349 L948.401832,783.222349 L946.903234,792.21394 L980.87147,792.21394 L962.888286,922.592022 L940.409306,1024.99626 Z M1271.78232,1025.99533 C1346.21272,1025.99533 1402.65994,995.523823 1402.65994,934.580812 C1402.65994,892.62005 1365.6945,879.632195 1332.2258,866.64434 C1299.25663,853.656485 1281.77298,846.663024 1281.77298,822.185913 C1281.77298,804.702262 1297.2585,788.71721 1334.72347,788.71721 C1357.20245,788.71721 1368.19217,794.711605 1368.19217,806.200861 C1368.19217,809.697591 1367.1931,813.693854 1365.19497,818.18965 L1349.20992,818.18965 C1343.71506,825.183111 1341.71693,833.175637 1341.71693,841.667696 C1341.71693,856.653682 1358.20151,865.645274 1375.68516,865.645274 C1401.66087,865.645274 1417.14639,850.659287 1417.14639,828.180308 C1417.14639,784.720947 1368.19217,778.22702 1327.73001,778.22702 C1258.79447,778.22702 1205.84398,805.701328 1205.84398,860.649945 C1205.84398,902.111174 1236.81502,918.595759 1265.2884,929.08595 C1298.7571,941.574272 1321.23608,948.068199 1321.23608,975.542508 C1321.23608,992.027093 1311.24542,1015.00561 1267.78606,1015.00561 C1239.81222,1015.00561 1227.82343,1004.01588 1227.82343,991.028027 C1227.82343,988.03083 1228.32296,985.033633 1229.82156,981.536902 L1249.80288,981.536902 C1252.80007,974.543442 1254.29867,967.549982 1254.29867,961.056054 C1254.29867,943.572403 1242.80942,930.085016 1221.3295,930.085016 C1196.35286,930.085016 1178.36967,944.071936 1178.36967,971.546245 C1178.36967,1008.51168 1215.83464,1025.99533 1271.78232,1025.99533 Z M1515.23755,1025.99533 C1575.1815,1025.99533 1611.6474,1000.51915 1630.13011,939.076607 L1620.13946,936.07941 C1602.65581,990.528494 1575.68103,1008.01215 1551.20392,1008.01215 C1516.23662,1008.01215 1502.2497,977.540639 1509.24316,907.106503 C1519.73335,907.106503 1532.22167,906.60697 1548.20672,904.608839 C1594.66328,898.114911 1648.1133,883.628458 1648.1133,834.674235 C1648.1133,797.708802 1621.13852,778.22702 1564.69131,778.22702 C1476.27399,778.22702 1414.33191,830.677972 1414.33191,933.082213 C1414.33191,992.027093 1451.79688,1025.99533 1515.23755,1025.99533 Z M1510.24222,897.615378 C1517.73522,837.1719 1533.22074,787.718144 1560.19551,787.718144 C1572.1843,787.718144 1575.1815,799.706934 1575.1815,818.18965 C1575.1815,879.632195 1544.21046,896.11678 1510.24222,897.615378 Z M1722.72641,1025.99533 C1755.69558,1025.99533 1772.6797,1015.00561 1795.65821,982.535968 L1787.66569,976.541574 C1772.18017,999.020553 1761.19045,1005.51448 1753.19792,1005.51448 C1743.70679,1005.51448 1740.7096,1000.51915 1740.7096,991.52756 C1740.7096,983.035501 1743.70679,970.047646 1746.20446,957.059791 L1804.15027,646.350339 L1676.26986,646.350339 L1674.77126,655.341931 L1710.23809,655.341931 L1670.27546,856.653682 C1655.78901,928.586417 1653.79088,944.571469 1653.79088,963.054186 C1653.79088,1006.01401 1676.76939,1025.99533 1722.72641,1025.99533 Z M1754.3797,1146.38275 C1839.30029,1146.38275 1882.26012,1098.4276 1897.24611,1017.50327 L1938.70733,792.21394 L1997.65221,792.21394 L1999.65035,783.222349 L1939.7064,783.222349 L1945.20126,749.753645 C1958.18912,671.826516 1967.68024,643.353142 1995.65408,643.353142 C2011.63914,643.353142 2023.12839,654.842398 2010.14054,685.313904 L1987.66156,688.311101 C1984.16483,695.804094 1982.66623,702.797555 1982.66623,709.291482 C1982.66623,729.77233 1998.65128,743.759251 2021.62979,743.759251 C2046.1069,743.759251 2067.58682,725.276534 2067.58682,693.805963 C2067.58682,651.845201 2024.62699,634.861083 1988.66062,634.861083 C1908.23583,634.861083 1862.2788,683.315772 1847.79235,763.740566 L1844.29562,783.222349 L1808.32925,783.222349 L1806.83065,792.21394 L1843.29655,792.21394 L1801.33579,1030.99066 C1787.8484,1101.92433 1779.35635,1135.89256 1751.3825,1135.89256 C1733.39932,1135.89256 1727.40493,1119.40798 1739.89325,1097.42853 L1760.87363,1094.93087 C1773.86148,1065.95796 1760.3741,1038.48365 1728.90352,1038.48365 C1699.43108,1038.48365 1678.4507,1061.46216 1678.4507,1090.43507 C1678.4507,1132.89537 1722.90913,1146.38275 1754.3797,1146.38275 Z" id="Yourself" transform="translate(1110.841377, 890.621918) rotate(-9.000000) translate(-1110.841377, -890.621918) "></path>
        </g>
        <line x1="1020.31745" y1="496" x2="622" y2="560.462918" id="Stroke-4" stroke="#FFE0AA" stroke-width="8" stroke-linecap="square"></line>
        <line x1="1628.85322" y1="395" x2="1387" y2="434.141053" id="Stroke-6" stroke="#FFE0AA" stroke-width="8" stroke-linecap="square"></line>
        <line x1="1400.807" y1="953.552" x2="564.19229" y2="1088.94809" id="Stroke-8" stroke="#FFE0AA" stroke-width="8" stroke-linecap="square"></line>
        <line x1="1692.70827" y1="772" x2="1286" y2="837.820873" id="Stroke-10" stroke="#FFE0AA" stroke-width="8" stroke-linecap="square"></line>
        <line x1="902.436716" y1="895" x2="398" y2="976.637053" id="Stroke-12" stroke="#FFE0AA" stroke-width="8" stroke-linecap="square"></line>
        <line x1="1475.98536" y1="1333" x2="322" y2="1519.75874" id="Stroke-14" stroke="#FFE0AA" stroke-width="8" stroke-linecap="square"></line>
    </g>
</svg>