<svg id="fe855659-68f1-4d11-97d8-524888e1f6b5" data-name="Layer 1" xmlns="http://www.w3.org/2000/svg" viewBox="0 0 100 100"><defs><style>.bcf41bca-3ea9-4175-a5b0-47d1d4d26968{fill:#231e4c;}.bcf41bca-3ea9-4175-a5b0-47d1d4d26968,.e449833e-e496-4434-b944-bd82b6c7b41d{fill-rule:evenodd;}.bd8f37dd-bae0-4e55-a569-fb9ae41c7916,.e449833e-e496-4434-b944-bd82b6c7b41d{fill:#fff;}.bb64d67a-00f0-4cbd-bd69-82b2b2bad85e{fill:#ffc55d;}</style></defs><title>52_stressistemporary_outlines_100</title><polygon class="bcf41bca-3ea9-4175-a5b0-47d1d4d26968" points="0 50 0 0 100 0 100 100 0 100 0 50"/><g id="af34053e-f840-42f6-8b97-1d4f44bb9342" data-name="Gx1vui.tif"><path class="bd8f37dd-bae0-4e55-a569-fb9ae41c7916" d="M36.88,100l0-1.09c0-.29,0-.58,0-.87s0-.79,0-1.19L37,95.07c0-.51,0-1,.06-1.53,0-.86.1-1.73.17-2.59.05-.63.13-1.25.22-1.87s.2-1.32.3-2,.19-1.43.31-2.14.25-1.32.37-2c0-.22,0-.44.09-.66a5.09,5.09,0,0,1,.19-.77.47.47,0,0,1,.77-.08,2.26,2.26,0,0,1,.55,1.24c.07.39.14.78.18,1.18a9.19,9.19,0,0,1,0,1.05c0,.38,0,.77-.06,1.15s-.06.67-.08,1S40,88,40,88.49s-.13,1.05-.18,1.57-.14,1.28-.2,1.92-.11,1.48-.17,2.22-.09,1.47-.15,2.2c0,.56-.11,1.1-.16,1.65s-.07,1.07-.12,1.61a1.37,1.37,0,0,1-.07.34Z" transform="translate(0)"/><path class="bd8f37dd-bae0-4e55-a569-fb9ae41c7916" d="M52.73,100c-.11-.4-.26-.8-.35-1.21s-.16-1.07-.23-1.6-.07-.84-.1-1.26-.06-1.11-.11-1.66c0-.32-.08-.64-.12-1-.07-.55-.13-1.1-.2-1.65s-.17-1.19-.23-1.79c0-.38-.07-.77-.1-1.15s-.07-1-.1-1.56c0-.27,0-.54,0-.8,0-.62-.08-1.24-.11-1.86L51,82.74l-.06-1.49a.35.35,0,0,1,.22-.38.55.55,0,0,1,.36,0,1,1,0,0,1,.5.61,7.69,7.69,0,0,1,.34.91c.14.49.27,1,.38,1.5A11.44,11.44,0,0,1,52.92,85c0,.39,0,.77.08,1.15s0,.49.07.73c0,.47.07,1,.13,1.42.08.73.17,1.45.26,2.18s.2,1.58.27,2.38.1,1.41.14,2.12c0,.56.08,1.12.09,1.69a12.92,12.92,0,0,0,.19,2.15,11.18,11.18,0,0,1,.11,1.15Z" transform="translate(0)"/><path class="bd8f37dd-bae0-4e55-a569-fb9ae41c7916" d="M61.69,79a.66.66,0,0,1,.57.33c.32.48.63,1,.94,1.44a5.35,5.35,0,0,0,.91,1c.6.58,1.21,1.17,1.78,1.79S67.3,85.08,68,85.89s1.29,1.66,1.91,2.5c.44.59.87,1.19,1.26,1.82A15,15,0,0,1,72,91.78c.29.57.53,1.16.79,1.74.17.37.36.73.51,1.1a1.44,1.44,0,0,1,.1.54c0,.14-.1.2-.26.18a1,1,0,0,1-.67-.46c-.31-.37-.66-.71-1-1.07-.66-.72-1.33-1.45-2-2.18s-1.4-1.62-2.08-2.45S66,87.32,65.22,86.39a15.42,15.42,0,0,1-1.47-2.21c-.37-.69-.76-1.37-1.15-2.05S62,81,61.65,80.5c-.14-.23-.29-.45-.44-.68a.49.49,0,0,1-.05-.54C61.26,79.1,61.42,78.9,61.69,79Z" transform="translate(0)"/><path class="bd8f37dd-bae0-4e55-a569-fb9ae41c7916" d="M19.08,94a12,12,0,0,0-.29-1.24A1.24,1.24,0,0,1,19,91.63c.29-.46.51-1,.77-1.44s.61-1.06.91-1.6l.6-1.07q.36-.66.75-1.32c.29-.5.58-1,.88-1.5.41-.69.81-1.39,1.24-2.07s1-1.54,1.54-2.27a5.13,5.13,0,0,1,1-1.13.55.55,0,0,1,.53-.13.63.63,0,0,1,.38.44,3.61,3.61,0,0,1-.31,2.29A15.93,15.93,0,0,1,26,84.27c-.33.54-.6,1.11-.92,1.66s-.78,1.29-1.17,1.93-.78,1.32-1.22,1.94-1,1.39-1.55,2S20,93.07,19.46,93.68C19.36,93.78,19.23,93.86,19.08,94Z" transform="translate(0)"/><path class="bd8f37dd-bae0-4e55-a569-fb9ae41c7916" d="M82.34,86.09c0,.43-.12.61-.49.73a.35.35,0,0,1-.44-.36.4.4,0,0,0-.06-.22A9.15,9.15,0,0,1,80,84.3c-.27-.51-.53-1-.79-1.54-.4-.81-.8-1.62-1.22-2.43s-.69-1.34-1.07-2c-.55-1-1.13-1.94-1.7-2.9s-1.11-1.78-1.64-2.68a3,3,0,0,1-.4-1.16.71.71,0,0,1,.79-.72.76.76,0,0,1,.5.32l1.61,2.4c.3.46.61.93.9,1.4s.61,1.08.91,1.62.63,1.12.92,1.69.56,1.15.84,1.73l.58,1.2c.18.4.35.81.53,1.22.25.58.5,1.16.76,1.73s.5,1.12.74,1.68A1.8,1.8,0,0,1,82.34,86.09Z" transform="translate(0)"/></g><g id="b59b9ce9-664e-4f72-9536-c3a4eac1f331" data-name="1QiWDY.tif"><path class="bd8f37dd-bae0-4e55-a569-fb9ae41c7916" d="M27,0c.58.72,1.18,1.43,1.72,2.17C30.18,4.09,31.65,6,33,8a38.88,38.88,0,0,1,2,3.72c.41.78.83,1.55,1.25,2.32a.57.57,0,0,1-.07.79.59.59,0,0,1-.83-.1,2.87,2.87,0,0,1-.39-.59,11.71,11.71,0,0,0-2.34-3,45.67,45.67,0,0,1-5.35-7.25A40.27,40.27,0,0,1,25.47.16a.9.9,0,0,1,0-.16Z" transform="translate(0)"/><path class="bd8f37dd-bae0-4e55-a569-fb9ae41c7916" d="M61.15,0c-.09.82-.19,1.64-.27,2.46a48.22,48.22,0,0,1-1,5.85c-.3,1.34-.59,2.69-.88,4-.08.35-.13.71-.24,1a.45.45,0,0,1-.83.13,2.39,2.39,0,0,1-.37-.75,9.36,9.36,0,0,1-.07-3.69c.31-2.29.65-4.57,1-6.86.1-.73.17-1.47.25-2.21Z" transform="translate(0)"/><path class="bd8f37dd-bae0-4e55-a569-fb9ae41c7916" d="M46.2,0c.15,2.43.43,4.86.4,7.3,0,1.94,0,3.88,0,5.83a.41.41,0,0,1-.27.45.38.38,0,0,1-.5-.19,7.71,7.71,0,0,1-.52-1.22,14.57,14.57,0,0,1-.51-3.72c-.09-2.14-.24-4.28-.36-6.42,0-.68,0-1.35-.06-2Z" transform="translate(0)"/><path class="bd8f37dd-bae0-4e55-a569-fb9ae41c7916" d="M78.94,2.1c.1.58.2,1.12.28,1.66a.44.44,0,0,1,0,.28c-1.4,2.24-2.78,4.49-4.22,6.7-1,1.49-2,2.94-3.08,4.38a8.49,8.49,0,0,1-1.17,1.23c-.39.35-.8.19-.93-.34a3,3,0,0,1,.3-1.92,11.75,11.75,0,0,1,.84-1.66A60.55,60.55,0,0,1,76.1,4.84c.77-.92,1.7-1.71,2.56-2.55A2.67,2.67,0,0,1,78.94,2.1Z" transform="translate(0)"/><path class="bd8f37dd-bae0-4e55-a569-fb9ae41c7916" d="M23.18,22.39A.71.71,0,0,1,22.6,22c-.34-.55-.71-1.09-1-1.65-.77-1.4-1.56-2.78-2.27-4.2a74.75,74.75,0,0,1-3.13-7.59c-.17-.45-.37-.9-.53-1.35a1.87,1.87,0,0,1-.1-.62.53.53,0,0,1,.44-.5.35.35,0,0,1,.47.34.53.53,0,0,0,.09.3,12.1,12.1,0,0,1,1.62,3c1,2.43,2.14,4.83,3.38,7.17.67,1.27,1.39,2.52,2.06,3.79a3.3,3.3,0,0,1,.28.94A.68.68,0,0,1,23.18,22.39Z" transform="translate(0)"/></g><path class="bb64d67a-00f0-4cbd-bd69-82b2b2bad85e" d="M22.4,28.15l-2.77,4.2a6.06,6.06,0,0,0-4.46-.89c-1.53.29-2,1-1.9,1.72.17.89,1,1,3.55,1.41,4.09.6,6,2.41,6.51,5.29.73,3.93-1,8.66-8.29,10a12,12,0,0,1-9.15-1.75L9,43.48a6.56,6.56,0,0,0,5.09,1.18c1.86-.35,2.35-1.1,2.21-1.87-.19-1-1-1.63-3.24-2-4.67-.65-6.43-2.64-6.92-5.32-.69-3.74,1.41-7.73,8.11-9A10.05,10.05,0,0,1,22.4,28.15Z" transform="translate(0)"/><path class="bb64d67a-00f0-4cbd-bd69-82b2b2bad85e" d="M33.44,40.6l2.39,4a11.78,11.78,0,0,1-5,2.34c-4.32.77-6.31-1.43-6.52-6.19l-.23-5.55-1.75.33-.23-4.69,2-.38.33-3.66L30.28,25l.19,4.29,3.58-.67-.44,4.81-2.9.55L31,39.54c.07,1.54.56,1.8,1.11,1.7A3,3,0,0,0,33.44,40.6Z" transform="translate(0)"/><path class="bb64d67a-00f0-4cbd-bd69-82b2b2bad85e" d="M47.52,25.88l-.65,6.92a5.32,5.32,0,0,0-1.49,0c-1.93.36-2.36,2.47-2.68,4.5L43,44l-6.63,1.23-.78-16.88,5.81-1.08L42,30.09c.61-2.18,2.28-3.92,3.87-4.21A3.8,3.8,0,0,1,47.52,25.88Z" transform="translate(0)"/><path class="bb64d67a-00f0-4cbd-bd69-82b2b2bad85e" d="M54.32,35.85a2,2,0,0,0,2.59,1.36A7.78,7.78,0,0,0,60.6,35l2.94,3.39a12.15,12.15,0,0,1-6.67,3.76c-5.53,1-8.5-1.53-9.28-5.74-.82-4.45.61-11,8.13-12.44,4.43-.83,7.22.75,7.74,3.54C64.29,32,58.83,34.59,54.32,35.85Zm2.62-6.72c-.14-.73-.48-1-1.3-.87-1.32.25-1.72,2-1.73,3.85C57.37,31.34,56.94,29.16,56.94,29.13Z" transform="translate(0)"/><path class="bb64d67a-00f0-4cbd-bd69-82b2b2bad85e" d="M77.5,22.12l-2.15,4.12a7.1,7.1,0,0,0-3.91-.45c-.88.17-1.06.39-1,.73s.34.45,3.26.89c2.64.39,4.4,1.72,4.87,4.3s0,6.36-6.71,7.6a10.45,10.45,0,0,1-8.08-1.6l2.59-4a6.36,6.36,0,0,0,4.48,1c.67-.12,1.52-.15,1.37-.92-.09-.52-.55-.59-3.31-1-2.6-.4-4.47-2-4.9-4.3-.63-3.4,1.75-6.42,6.58-7.32C72.88,20.73,75.94,21.05,77.5,22.12Z" transform="translate(0)"/><path class="bb64d67a-00f0-4cbd-bd69-82b2b2bad85e" d="M14.19,74.33l1.38,2.36A6.79,6.79,0,0,1,12.64,78c-2.52.45-3.68-.84-3.8-3.62l-.12-3.25-1,.19-.13-2.74,1.2-.22L9,66.26l3.39-1.05.11,2.51,2.09-.39-.27,2.82-1.69.31.14,3.24c0,.9.32,1.06.64,1A1.89,1.89,0,0,0,14.19,74.33Z" transform="translate(0)"/><path class="bb64d67a-00f0-4cbd-bd69-82b2b2bad85e" d="M18.48,73a1.16,1.16,0,0,0,1.52.8,4.5,4.5,0,0,0,2.16-1.3l1.71,2A7.07,7.07,0,0,1,20,76.7c-3.23.59-5-.91-5.41-3.37s.38-6.46,4.78-7.26c2.59-.48,4.21.45,4.51,2.08C24.32,70.81,21.12,72.31,18.48,73ZM20,69.11c-.08-.43-.28-.6-.76-.51-.77.14-1,1.17-1,2.25C20.28,70.4,20,69.13,20,69.11Z" transform="translate(0)"/><path class="bb64d67a-00f0-4cbd-bd69-82b2b2bad85e" d="M37.89,65.63l.31,7.31-3.88.71-.16-6.19c0-.63-.14-.75-.3-.72s-.56.66-.74,2l.22,5.08-3.88.71-.16-6.19c0-.63-.14-.75-.3-.72s-.63.69-.72,2.06l.18,5-3.88.72-.42-9.88,3.39-.62.28,1.32A3.56,3.56,0,0,1,30.34,64a2,2,0,0,1,2.43,1.17,3.79,3.79,0,0,1,2.44-2.06C36.81,62.85,37.8,63.73,37.89,65.63Z" transform="translate(0)"/><path class="bb64d67a-00f0-4cbd-bd69-82b2b2bad85e" d="M48.17,64.62c.51,2.82,0,6.9-3.87,7.61a6.41,6.41,0,0,1-1.68.11L42.78,76l-3.84,1.1L38.34,63l3.48-.64.19.93a4,4,0,0,1,2.5-1.81C46.58,61.07,47.74,62.27,48.17,64.62Zm-5.79,1,.15,3.87a2.07,2.07,0,0,0,.76,0c1.2-.22,1.2-2.44.93-3.93-.18-1-.51-1.06-.83-1S42.66,64.9,42.38,65.62Z" transform="translate(0)"/><path class="bb64d67a-00f0-4cbd-bd69-82b2b2bad85e" d="M58.46,63.23c.52,3-.29,6.46-4.59,7.25-2.69.49-4.6-.77-5.08-3.41-.54-3,.27-6.46,4.58-7.25C56.07,59.33,58,60.64,58.46,63.23Zm-5.68,3.29c.16.88.41,1.15.91,1.06,1.32-.24,1-2.7.79-3.8-.15-.9-.42-1.17-.94-1.07C52.22,63,52.58,65.41,52.78,66.52Z" transform="translate(0)"/><path class="bb64d67a-00f0-4cbd-bd69-82b2b2bad85e" d="M65.76,57.79l-.39,4.05a3.19,3.19,0,0,0-.87,0c-1.12.21-1.38,1.44-1.57,2.63l.16,3.92-3.88.71-.43-9.87,3.4-.62.33,1.64a3.38,3.38,0,0,1,2.27-2.45A2.15,2.15,0,0,1,65.76,57.79Z" transform="translate(0)"/><path class="bb64d67a-00f0-4cbd-bd69-82b2b2bad85e" d="M75.21,57.06l.23,5.64c0,.17,0,.33,0,.46a.6.6,0,0,0,.51.57l-.67,2.72a3,3,0,0,1-3-1.08,3.18,3.18,0,0,1-2.5,2.19c-2.15.39-3.48-.94-3.93-3.39-.52-2.87.36-6.71,4.7-7.5A8.7,8.7,0,0,1,75.21,57.06Zm-5.35,6.37c.2,1.09.53,1.09.78,1s.72-.39,1-1.12l-.14-4a2.84,2.84,0,0,0-.58,0C69.56,59.64,69.57,61.83,69.86,63.43Z" transform="translate(0)"/><path class="bb64d67a-00f0-4cbd-bd69-82b2b2bad85e" d="M83.06,54.62l-.39,4a3.19,3.19,0,0,0-.87,0c-1.13.21-1.38,1.44-1.57,2.63l.15,3.92-3.87.72L76.08,56l3.4-.62.33,1.65a3.4,3.4,0,0,1,2.27-2.46A2.14,2.14,0,0,1,83.06,54.62Z" transform="translate(0)"/><path class="bb64d67a-00f0-4cbd-bd69-82b2b2bad85e" d="M85.2,68.61l-.56-2.67c1.76-.47,2.57-1,3-2.08l-1.3.25-3-9.4,4-.74,1.26,7.23.85-7.62,4.06-.74L91.27,63.19C90.58,66.21,88.46,68,85.2,68.61Z" transform="translate(0)"/><path class="bd8f37dd-bae0-4e55-a569-fb9ae41c7916" d="M48.81,46.62a1.56,1.56,0,0,1-1.31,1.61A1.16,1.16,0,0,1,46,47.07a1.59,1.59,0,0,1,1.31-1.61A1.17,1.17,0,0,1,48.81,46.62Zm-2.27,9.13-.29-6.42,2.52-.46.29,6.41Z" transform="translate(0)"/><path class="bd8f37dd-bae0-4e55-a569-fb9ae41c7916" d="M54.79,48.36,54,49.92a2.6,2.6,0,0,0-1.48-.17c-.34.06-.41.15-.39.27s.13.17,1.24.34A2,2,0,0,1,55.19,52c.17.93,0,2.42-2.55,2.88a4,4,0,0,1-3.07-.61l1-1.51a2.41,2.41,0,0,0,1.7.37c.26,0,.58-.06.53-.35s-.21-.22-1.26-.38a2.06,2.06,0,0,1-1.86-1.63c-.24-1.3.67-2.44,2.5-2.78A3.94,3.94,0,0,1,54.79,48.36Z" transform="translate(0)"/><polygon class="e449833e-e496-4434-b944-bd82b6c7b41d" points="57.95 49.45 57.7 47.99 90.89 42.04 91.41 44.97 58.21 50.91 57.95 49.45"/><polygon class="e449833e-e496-4434-b944-bd82b6c7b41d" points="7.68 58.37 7.42 56.9 42.77 50.56 43.29 53.51 7.94 59.84 7.68 58.37"/><path class="bb64d67a-00f0-4cbd-bd69-82b2b2bad85e" d="M92.42,19.34l-2.15,4.12A7.11,7.11,0,0,0,86.36,23c-.88.17-1.06.39-1,.73s.33.44,3.26.88c2.63.4,4.39,1.72,4.87,4.3s-.06,6.37-6.72,7.61a10.47,10.47,0,0,1-8.07-1.61l2.58-4a6.49,6.49,0,0,0,4.48,1c.68-.13,1.52-.16,1.38-.92-.1-.53-.55-.6-3.31-1-2.61-.4-4.47-2-4.91-4.29-.63-3.41,1.76-6.43,6.58-7.33C87.8,18,90.86,18.26,92.42,19.34Z" transform="translate(0)"/></svg>