<svg id="a44638d3-3e01-439c-8a54-73f75349c7f9" data-name="Layer 1" xmlns="http://www.w3.org/2000/svg" viewBox="0 0 100 100"><defs><style>.b8499b4f-c82d-43cf-87c2-a86eee5dc8ca{fill:#fff;}.a96bc3ff-4468-49aa-97b8-21c7934eb848{fill:#180b26;fill-rule:evenodd;}.b7253795-7037-46a3-9b54-ee37ae98addc{fill:#dba0ff;}</style></defs><title>48_whenindoubtseekcalm_outlines_100</title><rect class="b8499b4f-c82d-43cf-87c2-a86eee5dc8ca" width="100" height="100"/><polygon class="a96bc3ff-4468-49aa-97b8-21c7934eb848" points="0 50 0 0 100 0 100 100 0 100 0 50"/><path class="b8499b4f-c82d-43cf-87c2-a86eee5dc8ca" d="M17.12,72.62a5.57,5.57,0,0,1-1.35-.34l.44-1.46a4.4,4.4,0,0,0,1.1.34,3.55,3.55,0,0,0,1.12,0,1.18,1.18,0,0,0,.5-.15.27.27,0,0,0,.14-.25c0-.13-.1-.21-.27-.26a5.18,5.18,0,0,0-.77-.15,8.6,8.6,0,0,1-1.05-.2,2.09,2.09,0,0,1-.78-.41,1.31,1.31,0,0,1-.42-.85,1.6,1.6,0,0,1,.19-1,2.11,2.11,0,0,1,.82-.77,3.55,3.55,0,0,1,1.3-.41,5.14,5.14,0,0,1,1.3,0,3.18,3.18,0,0,1,1.14.36l-.44,1.4a3.6,3.6,0,0,0-.94-.32,2.62,2.62,0,0,0-.92,0,1.19,1.19,0,0,0-.54.16.26.26,0,0,0-.15.25c0,.13.11.21.27.27a4.68,4.68,0,0,0,.78.15,8.25,8.25,0,0,1,1.06.21,2,2,0,0,1,.78.42,1.25,1.25,0,0,1,.41.84,1.57,1.57,0,0,1-.5,1.44,3.13,3.13,0,0,1-1.77.72A5.9,5.9,0,0,1,17.12,72.62Z"/><path class="b8499b4f-c82d-43cf-87c2-a86eee5dc8ca" d="M41,64.45a2.77,2.77,0,0,1,1,1.92A4.08,4.08,0,0,1,42,67l-3.45.45a1.11,1.11,0,0,0,1.38.86,2.71,2.71,0,0,0,1.5-.73l.59,1.28a2.78,2.78,0,0,1-.88.62,3.76,3.76,0,0,1-1.17.33,3.5,3.5,0,0,1-1.63-.13,2.53,2.53,0,0,1-1.19-.82,2.8,2.8,0,0,1-.58-1.41,3.39,3.39,0,0,1,.18-1.63,2.84,2.84,0,0,1,.89-1.23A2.79,2.79,0,0,1,39.08,64,2.52,2.52,0,0,1,41,64.45Zm-2.32,1.21a1.37,1.37,0,0,0-.24.81l1.81-.24c-.11-.66-.43-1-1-.89A.89.89,0,0,0,38.72,65.66Z"/><path class="b8499b4f-c82d-43cf-87c2-a86eee5dc8ca" d="M62.11,61.7a2.77,2.77,0,0,1,1,1.93,3.94,3.94,0,0,1,0,.6l-3.45.45a1.11,1.11,0,0,0,1.38.87,2.78,2.78,0,0,0,1.5-.73l.59,1.28a2.75,2.75,0,0,1-.88.61,4.07,4.07,0,0,1-1.17.34,3.63,3.63,0,0,1-1.63-.14,2.61,2.61,0,0,1-1.2-.82,2.89,2.89,0,0,1-.57-1.4,3.31,3.31,0,0,1,.18-1.64,2.84,2.84,0,0,1,.89-1.23,2.78,2.78,0,0,1,1.41-.58A2.52,2.52,0,0,1,62.11,61.7Zm-2.32,1.21a1.37,1.37,0,0,0-.24.81l1.81-.23c-.11-.67-.43-1-1-.9A.93.93,0,0,0,59.79,62.91Z"/><path class="b8499b4f-c82d-43cf-87c2-a86eee5dc8ca" d="M82.81,61.19l2.41,2.61-2.42.32-2-2.18.14,2.43-2,.26-.44-8.1,2-.27.26,4.79,1.69-2.57,2.45-.31Z"/><path class="b7253795-7037-46a3-9b54-ee37ae98addc" d="M74.59,6l.07,3.47-4,.4-.1-3.47Zm-3.76,5.69,3.8-.39.25,10.6-3.8.39Z"/><path class="b7253795-7037-46a3-9b54-ee37ae98addc" d="M85,11a4.21,4.21,0,0,1,1.2,2.82c0,.32,0,.56.06.73l.13,6.19-3.8.39-.13-6.06a2,2,0,0,0-.43-1.35,1.29,1.29,0,0,0-1.15-.37,1.63,1.63,0,0,0-1.23.68,2.5,2.5,0,0,0-.38,1.52l.13,5.9-3.8.39-.25-10.6,3.7-.38,0,1.12a3.84,3.84,0,0,1,1.31-1.14,4.61,4.61,0,0,1,1.86-.56A3.4,3.4,0,0,1,85,11Z"/><path class="b7253795-7037-46a3-9b54-ee37ae98addc" d="M29.81,15.77,25.65,26.83l-3.12.32-2.24-5-1.82,5.39-3.14.33L10.68,17.74l3.76-.39,2.49,5.77L19,16.88l2.45-.25,2.44,5.88,2.14-6.35Z"/><path class="b7253795-7037-46a3-9b54-ee37ae98addc" d="M40.1,15.47a4.21,4.21,0,0,1,1.2,2.83c0,.31.05.55.05.73l.14,6.18-3.8.39-.13-6.06a2,2,0,0,0-.43-1.34A1.28,1.28,0,0,0,36,17.83a1.56,1.56,0,0,0-1.23.68A2.46,2.46,0,0,0,34.37,20l.13,5.91-3.8.39-.39-15.19,3.8-.39.12,5.6a4.12,4.12,0,0,1,1.32-1.07,4.9,4.9,0,0,1,1.8-.52A3.4,3.4,0,0,1,40.1,15.47Z"/><path class="b7253795-7037-46a3-9b54-ee37ae98addc" d="M50.43,14.74a5.25,5.25,0,0,1,1.68,3.65,10.63,10.63,0,0,1,0,1.14l-6.48.67a2.08,2.08,0,0,0,2.53,1.68,5.13,5.13,0,0,0,2.85-1.29l1,2.43a5.29,5.29,0,0,1-1.67,1.11,7.65,7.65,0,0,1-2.2.56,6.73,6.73,0,0,1-3-.34A4.75,4.75,0,0,1,43,22.75a5.1,5.1,0,0,1-1-2.65,6.15,6.15,0,0,1,.41-3.05,5.33,5.33,0,0,1,1.73-2.25,5.2,5.2,0,0,1,2.68-1A4.72,4.72,0,0,1,50.43,14.74ZM46,16.89a2.64,2.64,0,0,0-.48,1.51l3.4-.35c-.17-1.25-.76-1.83-1.75-1.72A1.72,1.72,0,0,0,46,16.89Z"/><path class="b7253795-7037-46a3-9b54-ee37ae98addc" d="M62.12,13.27a4.26,4.26,0,0,1,1.2,2.83c0,.31,0,.56,0,.73L63.51,23l-3.8.39-.13-6A2,2,0,0,0,59.15,16,1.27,1.27,0,0,0,58,15.63a1.6,1.6,0,0,0-1.23.68,2.48,2.48,0,0,0-.38,1.52l.13,5.9-3.8.39-.25-10.6,3.7-.38,0,1.12a3.86,3.86,0,0,1,1.31-1.15,4.77,4.77,0,0,1,1.86-.56A3.4,3.4,0,0,1,62.12,13.27Z"/><path class="b7253795-7037-46a3-9b54-ee37ae98addc" d="M26.93,32.7l.48,20.58-5.1.52,0-1.57a4.7,4.7,0,0,1-1.62,1.51,5.85,5.85,0,0,1-2.31.71,6.13,6.13,0,0,1-3.25-.5,5.65,5.65,0,0,1-2.39-2.14,8,8,0,0,1-1.14-3.57A9.59,9.59,0,0,1,12,44a6.88,6.88,0,0,1,2.13-3.09,6.43,6.43,0,0,1,3.47-1.38A5,5,0,0,1,21.93,41l-.15-7.74ZM21.69,49.22a4.61,4.61,0,0,0,.48-2.8,4.18,4.18,0,0,0-1-2.52,2.41,2.41,0,0,0-2.09-.68,2.51,2.51,0,0,0-2,1.26,4.61,4.61,0,0,0-.49,2.89,3.89,3.89,0,0,0,1,2.43,2.52,2.52,0,0,0,2.15.67A2.42,2.42,0,0,0,21.69,49.22Z"/><path class="b7253795-7037-46a3-9b54-ee37ae98addc" d="M32.32,52.14a6.39,6.39,0,0,1-3-2.2A7.17,7.17,0,0,1,28,46.32a8.37,8.37,0,0,1,.56-4.25,6.62,6.62,0,0,1,2.49-3,8.85,8.85,0,0,1,4.06-1.35,9.49,9.49,0,0,1,4.23.44,6.44,6.44,0,0,1,3,2.19A7.06,7.06,0,0,1,43.66,44a8.51,8.51,0,0,1-.56,4.29,6.65,6.65,0,0,1-2.49,3,8.89,8.89,0,0,1-4.06,1.35A9.35,9.35,0,0,1,32.32,52.14Zm5.85-4.73a5.75,5.75,0,0,0,.38-3,3.63,3.63,0,0,0-.89-2.29,2.48,2.48,0,0,0-2.07-.57A2.4,2.4,0,0,0,33.5,42.9a5.62,5.62,0,0,0-.39,3,3.82,3.82,0,0,0,.9,2.34,2.45,2.45,0,0,0,2.07.58A2.38,2.38,0,0,0,38.17,47.41Z"/><path class="b7253795-7037-46a3-9b54-ee37ae98addc" d="M58.77,35.66,59.1,50l-5,.52,0-1.64a5.17,5.17,0,0,1-1.77,1.56,6.66,6.66,0,0,1-2.47.75,4.59,4.59,0,0,1-3.67-1,5.51,5.51,0,0,1-1.61-3.71c0-.21,0-.55,0-1l-.22-8.37,5.16-.53.18,8.08,0,.44a2.27,2.27,0,0,0,.62,1.5,1.7,1.7,0,0,0,1.42.4,2.08,2.08,0,0,0,1.6-.91,3.47,3.47,0,0,0,.49-2.06l-.17-7.88Z"/><path class="b7253795-7037-46a3-9b54-ee37ae98addc" d="M72.06,34.79a5.42,5.42,0,0,1,2.37,2.14,8.13,8.13,0,0,1,1.13,3.57,9.62,9.62,0,0,1-.43,4.23A6.71,6.71,0,0,1,73,47.81a6.43,6.43,0,0,1-3.47,1.38,5.06,5.06,0,0,1-4.46-1.53l0,1.75-5.06.52-.53-20.57,5.15-.53.17,7.68A4.52,4.52,0,0,1,66.47,35a5.89,5.89,0,0,1,2.34-.71A6,6,0,0,1,72.06,34.79Zm-2,9.47a4.61,4.61,0,0,0,.48-2.86,3.93,3.93,0,0,0-1-2.46,2.52,2.52,0,0,0-2.15-.67,2.41,2.41,0,0,0-1.93,1.25,4.54,4.54,0,0,0-.49,2.8,4.07,4.07,0,0,0,1,2.52,2.43,2.43,0,0,0,2.1.67A2.48,2.48,0,0,0,70,44.26Z"/><path class="b7253795-7037-46a3-9b54-ee37ae98addc" d="M83.76,41.67v.41c.13,1.26.88,1.81,2.25,1.67.33,0,.77-.11,1.32-.22l-.17,3.7a11.18,11.18,0,0,1-1.73.33C81.28,48,79,46.47,78.66,43a8.47,8.47,0,0,1-.06-.85l-.1-4.7-2.66.28-.1-3.82,2.66-.28-.11-4.17L83.45,29l.1,4.17L87,32.77l.1,3.82L83.65,37Z"/><path class="b8499b4f-c82d-43cf-87c2-a86eee5dc8ca" d="M17.58,90.72a2.55,2.55,0,0,1-1.19-.83,2.68,2.68,0,0,1-.57-1.39A3.4,3.4,0,0,1,16,86.79a2.68,2.68,0,0,1,1-1.21A3.86,3.86,0,0,1,18.66,85a3.61,3.61,0,0,1,2.33.38l-.44,1.45a3.1,3.1,0,0,0-.79-.28,2.26,2.26,0,0,0-.77,0,1.19,1.19,0,0,0-.9.52,1.7,1.7,0,0,0-.19,1.16,1.33,1.33,0,0,0,.43.9,1.06,1.06,0,0,0,.86.22,2.76,2.76,0,0,0,1.46-.72l.58,1.32a2.63,2.63,0,0,1-.88.62,3.56,3.56,0,0,1-1.1.32A3.65,3.65,0,0,1,17.58,90.72Z"/><path class="b8499b4f-c82d-43cf-87c2-a86eee5dc8ca" d="M59.18,77.37l2-.27.41,8.12-2,.26Z"/><path class="b8499b4f-c82d-43cf-87c2-a86eee5dc8ca" d="M85.35,76.83a2.29,2.29,0,0,1,.67,1.5c0,.15,0,.27,0,.35L86.22,82l-2,.26L84,79a1.14,1.14,0,0,0-.22-.68.54.54,0,0,0-.52-.18.76.76,0,0,0-.61.37,1.76,1.76,0,0,0-.15.94l.15,3-2,.26-.16-3.25c0-.66-.29-1-.74-.89a.74.74,0,0,0-.6.37,1.66,1.66,0,0,0-.16.94l.17,3-2,.26-.29-5.65,2-.25,0,.54a2,2,0,0,1,.66-.62,2.76,2.76,0,0,1,.92-.29,2,2,0,0,1,1,.11,1.52,1.52,0,0,1,.71.57,2.36,2.36,0,0,1,.77-.77,2.53,2.53,0,0,1,1-.36A1.69,1.69,0,0,1,85.35,76.83Z"/><path class="b8499b4f-c82d-43cf-87c2-a86eee5dc8ca" d="M41.11,82.61a2.19,2.19,0,0,1,.81,1.59c0,.1,0,.23,0,.42l.17,3.15-1.9.25,0-.72a1.5,1.5,0,0,1-.5.67,1.74,1.74,0,0,1-.84.32,2.21,2.21,0,0,1-1-.09,1.89,1.89,0,0,1-.78-.51,1.5,1.5,0,0,1-.36-.81,1.58,1.58,0,0,1,.18-1.08,1.88,1.88,0,0,1,.94-.71,7.68,7.68,0,0,1,1.82-.42l.41,0v-.09a.74.74,0,0,0-.27-.59,1.08,1.08,0,0,0-.74-.1,3.37,3.37,0,0,0-.86.27,5.14,5.14,0,0,0-.86.51l-.59-1.27a4,4,0,0,1,1.13-.66,5.73,5.73,0,0,1,1.4-.38A2.67,2.67,0,0,1,41.11,82.61Zm-1.24,3.87a1.25,1.25,0,0,0,.21-.8v-.12l-.31,0a2.41,2.41,0,0,0-.94.27.51.51,0,0,0-.24.53.57.57,0,0,0,.22.37.69.69,0,0,0,.46.09A.86.86,0,0,0,39.87,86.48Z"/></svg>