<svg id="aa3111f1-e93f-4e6e-9abf-0dc2d32a4583" data-name="Layer 1" xmlns="http://www.w3.org/2000/svg" viewBox="0 0 100 100"><defs><style>.ad088612-4da1-4c17-b00d-72e5787e9247{fill:#fff;}.fb60ed5d-6c3f-49c5-b46b-d433beda2081{fill:#180b26;fill-rule:evenodd;}.e041232a-78d7-4736-9970-a64ff9d4346e{fill:#ffb91c;}</style></defs><title>47_whenindoubtslowdown_outlines_100</title><rect class="ad088612-4da1-4c17-b00d-72e5787e9247" width="100" height="100"/><polygon class="fb60ed5d-6c3f-49c5-b46b-d433beda2081" points="0 50 0 0 100 0 100 100 0 100 0 50"/><path class="ad088612-4da1-4c17-b00d-72e5787e9247" d="M17.12,72.62a5.57,5.57,0,0,1-1.35-.34l.44-1.46a4.4,4.4,0,0,0,1.1.34,3.55,3.55,0,0,0,1.12,0,1.18,1.18,0,0,0,.5-.15.27.27,0,0,0,.14-.25c0-.13-.1-.21-.27-.26a5.18,5.18,0,0,0-.77-.15,8.6,8.6,0,0,1-1.05-.2,2.09,2.09,0,0,1-.78-.41,1.31,1.31,0,0,1-.42-.85,1.6,1.6,0,0,1,.19-1,2.11,2.11,0,0,1,.82-.77,3.55,3.55,0,0,1,1.3-.41,5.14,5.14,0,0,1,1.3,0,3.18,3.18,0,0,1,1.14.36l-.44,1.4a3.6,3.6,0,0,0-.94-.32,2.62,2.62,0,0,0-.92,0,1.19,1.19,0,0,0-.54.16.26.26,0,0,0-.15.25c0,.13.11.21.27.27a4.68,4.68,0,0,0,.78.15,8.25,8.25,0,0,1,1.06.21,2,2,0,0,1,.78.42,1.25,1.25,0,0,1,.41.84,1.57,1.57,0,0,1-.5,1.44,3.13,3.13,0,0,1-1.77.72A5.9,5.9,0,0,1,17.12,72.62Z"/><path class="ad088612-4da1-4c17-b00d-72e5787e9247" d="M38,61.79l2-.26.41,8.11-2,.26Z"/><path class="ad088612-4da1-4c17-b00d-72e5787e9247" d="M59.07,67a2.46,2.46,0,0,1-1.2-.83,2.78,2.78,0,0,1-.57-1.42A3.41,3.41,0,0,1,57.47,63a2.73,2.73,0,0,1,1-1.2A3.59,3.59,0,0,1,60,61.26a3.65,3.65,0,0,1,1.67.12,2.53,2.53,0,0,1,1.2.83,2.87,2.87,0,0,1,.57,1.41,3.37,3.37,0,0,1-.18,1.7,2.52,2.52,0,0,1-1,1.19,3.4,3.4,0,0,1-1.58.58A3.65,3.65,0,0,1,59.07,67ZM61.32,65a2.25,2.25,0,0,0,.12-1.19,1.45,1.45,0,0,0-.38-.9,1,1,0,0,0-.82-.2,1,1,0,0,0-.81.57,2.22,2.22,0,0,0-.12,1.18,1.43,1.43,0,0,0,.38.91,1,1,0,0,0,.82.2A.93.93,0,0,0,61.32,65Z"/><path class="ad088612-4da1-4c17-b00d-72e5787e9247" d="M86.38,58l-2.06,6-1.66.22-1.27-2.63-.89,2.91-1.68.22-2.63-5.35,2-.27,1.42,3,1-3.36,1.31-.18,1.39,3.11,1-3.42Z"/><path class="ad088612-4da1-4c17-b00d-72e5787e9247" d="M21,82.36l.41,8.11-2,.26,0-.62a1.73,1.73,0,0,1-.62.61,2.34,2.34,0,0,1-.9.31,2.41,2.41,0,0,1-1.29-.17,2.14,2.14,0,0,1-1-.81,3.11,3.11,0,0,1-.49-1.4A3.68,3.68,0,0,1,15.25,87a2.65,2.65,0,0,1,.8-1.24,2.51,2.51,0,0,1,1.36-.58,2,2,0,0,1,1.72.51l-.14-3Zm-1.88,6.57a1.8,1.8,0,0,0,.15-1.11,1.68,1.68,0,0,0-.4-1,1.07,1.07,0,0,0-1.61.28,1.8,1.8,0,0,0-.17,1.14,1.56,1.56,0,0,0,.42,1,1.07,1.07,0,0,0,1.61-.27Z"/><path class="ad088612-4da1-4c17-b00d-72e5787e9247" d="M65.4,79l-2.06,6-1.66.22-1.27-2.63-.9,2.91-1.67.22-2.63-5.36,2-.26,1.42,3,1-3.37L61,79.6l1.39,3.11,1-3.42Z"/><path class="ad088612-4da1-4c17-b00d-72e5787e9247" d="M83.68,77a2.29,2.29,0,0,1,.68,1.49c0,.17,0,.3,0,.39l.16,3.3-2,.27-.15-3.24a1.07,1.07,0,0,0-.25-.71.71.71,0,0,0-.62-.18.87.87,0,0,0-.65.38,1.33,1.33,0,0,0-.18.82l.16,3.15-2,.26-.29-5.66,2-.25,0,.6a1.91,1.91,0,0,1,.68-.64,2.36,2.36,0,0,1,1-.32A1.8,1.8,0,0,1,83.68,77Z"/><path class="ad088612-4da1-4c17-b00d-72e5787e9247" d="M38.07,88a2.49,2.49,0,0,1-1.2-.83,3,3,0,0,1-.57-1.41,3.33,3.33,0,0,1,.18-1.69,2.58,2.58,0,0,1,1-1.19A3.4,3.4,0,0,1,39,82.34a3.65,3.65,0,0,1,1.67.13,2.46,2.46,0,0,1,1.19.82,2.78,2.78,0,0,1,.57,1.41,3.36,3.36,0,0,1-.17,1.7,2.65,2.65,0,0,1-1,1.19,3.48,3.48,0,0,1-1.59.58A3.65,3.65,0,0,1,38.07,88Zm2.25-1.92a2.3,2.3,0,0,0,.12-1.2,1.4,1.4,0,0,0-.38-.9,1,1,0,0,0-.82-.2,1,1,0,0,0-.81.57,2.22,2.22,0,0,0-.12,1.18,1.54,1.54,0,0,0,.38.91,1,1,0,0,0,.82.2A.92.92,0,0,0,40.32,86.12Z"/><path class="e041232a-78d7-4736-9970-a64ff9d4346e" d="M26.93,32.7l.48,20.58-5.1.52,0-1.57a4.7,4.7,0,0,1-1.62,1.51,5.85,5.85,0,0,1-2.31.71,6.13,6.13,0,0,1-3.25-.5,5.65,5.65,0,0,1-2.39-2.14,8,8,0,0,1-1.14-3.57A9.59,9.59,0,0,1,12,44a6.88,6.88,0,0,1,2.13-3.09,6.43,6.43,0,0,1,3.47-1.38A5,5,0,0,1,21.93,41l-.15-7.74ZM21.69,49.22a4.61,4.61,0,0,0,.48-2.8,4.18,4.18,0,0,0-1-2.52,2.41,2.41,0,0,0-2.09-.68,2.51,2.51,0,0,0-2,1.26,4.61,4.61,0,0,0-.49,2.89,3.89,3.89,0,0,0,1,2.43,2.52,2.52,0,0,0,2.15.67A2.42,2.42,0,0,0,21.69,49.22Z"/><path class="e041232a-78d7-4736-9970-a64ff9d4346e" d="M32.32,52.14a6.39,6.39,0,0,1-3-2.2A7.17,7.17,0,0,1,28,46.32a8.37,8.37,0,0,1,.56-4.25,6.62,6.62,0,0,1,2.49-3,8.85,8.85,0,0,1,4.06-1.35,9.49,9.49,0,0,1,4.23.44,6.44,6.44,0,0,1,3,2.19A7.06,7.06,0,0,1,43.66,44a8.51,8.51,0,0,1-.56,4.29,6.65,6.65,0,0,1-2.49,3,8.89,8.89,0,0,1-4.06,1.35A9.35,9.35,0,0,1,32.32,52.14Zm5.85-4.73a5.75,5.75,0,0,0,.38-3,3.63,3.63,0,0,0-.89-2.29,2.48,2.48,0,0,0-2.07-.57A2.4,2.4,0,0,0,33.5,42.9a5.62,5.62,0,0,0-.39,3,3.82,3.82,0,0,0,.9,2.34,2.45,2.45,0,0,0,2.07.58A2.38,2.38,0,0,0,38.17,47.41Z"/><path class="e041232a-78d7-4736-9970-a64ff9d4346e" d="M58.77,35.66,59.1,50l-5,.52,0-1.64a5.17,5.17,0,0,1-1.77,1.56,6.66,6.66,0,0,1-2.47.75,4.59,4.59,0,0,1-3.67-1,5.51,5.51,0,0,1-1.61-3.71c0-.21,0-.55,0-1l-.22-8.37,5.16-.53.18,8.08,0,.44a2.27,2.27,0,0,0,.62,1.5,1.7,1.7,0,0,0,1.42.4,2.08,2.08,0,0,0,1.6-.91,3.47,3.47,0,0,0,.49-2.06l-.17-7.88Z"/><path class="e041232a-78d7-4736-9970-a64ff9d4346e" d="M72.06,34.79a5.42,5.42,0,0,1,2.37,2.14,8.13,8.13,0,0,1,1.13,3.57,9.62,9.62,0,0,1-.43,4.23A6.71,6.71,0,0,1,73,47.81a6.43,6.43,0,0,1-3.47,1.38,5.06,5.06,0,0,1-4.46-1.53l0,1.75-5.06.52-.53-20.57,5.15-.53.17,7.68A4.52,4.52,0,0,1,66.47,35a5.89,5.89,0,0,1,2.34-.71A6,6,0,0,1,72.06,34.79Zm-2,9.47a4.61,4.61,0,0,0,.48-2.86,3.93,3.93,0,0,0-1-2.46,2.52,2.52,0,0,0-2.15-.67,2.41,2.41,0,0,0-1.93,1.25,4.54,4.54,0,0,0-.49,2.8,4.07,4.07,0,0,0,1,2.52,2.43,2.43,0,0,0,2.1.67A2.48,2.48,0,0,0,70,44.26Z"/><path class="e041232a-78d7-4736-9970-a64ff9d4346e" d="M83.76,41.67v.41c.13,1.26.88,1.81,2.25,1.67.33,0,.77-.11,1.32-.22l-.17,3.7a11.18,11.18,0,0,1-1.73.33C81.28,48,79,46.47,78.66,43a8.47,8.47,0,0,1-.06-.85l-.1-4.7-2.66.28-.1-3.82,2.66-.28-.11-4.17L83.45,29l.1,4.17L87,32.77l.1,3.82L83.65,37Z"/><path class="e041232a-78d7-4736-9970-a64ff9d4346e" d="M74.59,6l.07,3.47-4,.4-.1-3.47Zm-3.76,5.69,3.8-.39.25,10.6-3.8.39Z"/><path class="e041232a-78d7-4736-9970-a64ff9d4346e" d="M85,11a4.21,4.21,0,0,1,1.2,2.82c0,.32,0,.56.06.73l.13,6.19-3.8.39-.13-6.06a2,2,0,0,0-.43-1.35,1.29,1.29,0,0,0-1.15-.37,1.63,1.63,0,0,0-1.23.68,2.5,2.5,0,0,0-.38,1.52l.13,5.9-3.8.39-.25-10.6,3.7-.38,0,1.12a3.84,3.84,0,0,1,1.31-1.14,4.61,4.61,0,0,1,1.86-.56A3.4,3.4,0,0,1,85,11Z"/><path class="e041232a-78d7-4736-9970-a64ff9d4346e" d="M29.81,15.77,25.65,26.83l-3.12.32-2.24-5-1.82,5.39-3.14.33L10.68,17.74l3.76-.39,2.49,5.77L19,16.88l2.45-.25,2.44,5.88,2.14-6.35Z"/><path class="e041232a-78d7-4736-9970-a64ff9d4346e" d="M40.1,15.47a4.21,4.21,0,0,1,1.2,2.83c0,.31.05.55.05.73l.14,6.18-3.8.39-.13-6.06a2,2,0,0,0-.43-1.34A1.28,1.28,0,0,0,36,17.83a1.56,1.56,0,0,0-1.23.68A2.46,2.46,0,0,0,34.37,20l.13,5.91-3.8.39-.39-15.19,3.8-.39.12,5.6a4.12,4.12,0,0,1,1.32-1.07,4.9,4.9,0,0,1,1.8-.52A3.4,3.4,0,0,1,40.1,15.47Z"/><path class="e041232a-78d7-4736-9970-a64ff9d4346e" d="M50.43,14.74a5.25,5.25,0,0,1,1.68,3.65,10.63,10.63,0,0,1,0,1.14l-6.48.67a2.08,2.08,0,0,0,2.53,1.68,5.13,5.13,0,0,0,2.85-1.29l1,2.43a5.29,5.29,0,0,1-1.67,1.11,7.65,7.65,0,0,1-2.2.56,6.73,6.73,0,0,1-3-.34A4.75,4.75,0,0,1,43,22.75a5.1,5.1,0,0,1-1-2.65,6.15,6.15,0,0,1,.41-3.05,5.33,5.33,0,0,1,1.73-2.25,5.2,5.2,0,0,1,2.68-1A4.72,4.72,0,0,1,50.43,14.74ZM46,16.89a2.64,2.64,0,0,0-.48,1.51l3.4-.35c-.17-1.25-.76-1.83-1.75-1.72A1.72,1.72,0,0,0,46,16.89Z"/><path class="e041232a-78d7-4736-9970-a64ff9d4346e" d="M62.12,13.27a4.26,4.26,0,0,1,1.2,2.83c0,.31,0,.56,0,.73L63.51,23l-3.8.39-.13-6A2,2,0,0,0,59.15,16,1.27,1.27,0,0,0,58,15.63a1.6,1.6,0,0,0-1.23.68,2.48,2.48,0,0,0-.38,1.52l.13,5.9-3.8.39-.25-10.6,3.7-.38,0,1.12a3.86,3.86,0,0,1,1.31-1.15,4.77,4.77,0,0,1,1.86-.56A3.4,3.4,0,0,1,62.12,13.27Z"/></svg>